G04 #@! TF.GenerationSoftware,KiCad,Pcbnew,9.0.2*
G04 #@! TF.CreationDate,2025-06-19T13:18:12-04:00*
G04 #@! TF.ProjectId,farlock3,6661726c-6f63-46b3-932e-6b696361645f,v02*
G04 #@! TF.SameCoordinates,Original*
G04 #@! TF.FileFunction,Copper,L2,Bot*
G04 #@! TF.FilePolarity,Positive*
%FSLAX46Y46*%
G04 Gerber Fmt 4.6, Leading zero omitted, Abs format (unit mm)*
G04 Created by KiCad (PCBNEW 9.0.2) date 2025-06-19 13:18:12*
%MOMM*%
%LPD*%
G01*
G04 APERTURE LIST*
G04 Aperture macros list*
%AMFreePoly0*
4,1,35,0.000000,0.748929,0.032702,0.748929,0.097545,0.740393,0.160720,0.723465,0.221144,0.698436,0.277785,0.665735,0.329673,0.625920,0.375920,0.579673,0.415735,0.527785,0.448436,0.471144,0.473465,0.410720,0.490393,0.347545,0.498929,0.282702,0.498929,0.250000,0.500000,0.250000,0.500000,-0.250000,0.498929,-0.250000,0.498929,-0.282702,0.490393,-0.347545,0.473465,-0.410720,
0.448436,-0.471144,0.415735,-0.527785,0.375920,-0.579673,0.329673,-0.625920,0.277785,-0.665735,0.221144,-0.698436,0.160720,-0.723465,0.097545,-0.740393,0.032702,-0.748929,0.000000,-0.748929,0.000000,-0.750000,-0.500000,-0.750000,-0.500000,0.750000,0.000000,0.750000,0.000000,0.748929,0.000000,0.748929,$1*%
%AMFreePoly1*
4,1,35,0.500000,-0.750000,0.000000,-0.750000,0.000000,-0.748929,-0.032702,-0.748929,-0.097545,-0.740393,-0.160720,-0.723465,-0.221144,-0.698436,-0.277785,-0.665735,-0.329673,-0.625920,-0.375920,-0.579673,-0.415735,-0.527785,-0.448436,-0.471144,-0.473465,-0.410720,-0.490393,-0.347545,-0.498929,-0.282702,-0.498929,-0.250000,-0.500000,-0.250000,-0.500000,0.250000,-0.498929,0.250000,-0.498929,0.282702,
-0.490393,0.347545,-0.473465,0.410720,-0.448436,0.471144,-0.415735,0.527785,-0.375920,0.579673,-0.329673,0.625920,-0.277785,0.665735,-0.221144,0.698436,-0.160720,0.723465,-0.097545,0.740393,-0.032702,0.748929,0.000000,0.748929,0.000000,0.750000,0.500000,0.750000,0.500000,-0.750000,0.500000,-0.750000,$1*%
G04 Aperture macros list end*
G04 #@! TA.AperFunction,EtchedComponent*
%ADD10C,0.000000*%
G04 #@! TD*
G04 #@! TA.AperFunction,ComponentPad*
%ADD11C,1.700000*%
G04 #@! TD*
G04 #@! TA.AperFunction,ComponentPad*
%ADD12R,1.700000X1.700000*%
G04 #@! TD*
G04 #@! TA.AperFunction,SMDPad,CuDef*
%ADD13FreePoly0,0.000000*%
G04 #@! TD*
G04 #@! TA.AperFunction,SMDPad,CuDef*
%ADD14FreePoly1,0.000000*%
G04 #@! TD*
G04 #@! TA.AperFunction,ComponentPad*
%ADD15C,1.350000*%
G04 #@! TD*
G04 #@! TA.AperFunction,WasherPad*
%ADD16C,2.025000*%
G04 #@! TD*
G04 #@! TA.AperFunction,SMDPad,CuDef*
%ADD17FreePoly1,180.000000*%
G04 #@! TD*
G04 #@! TA.AperFunction,SMDPad,CuDef*
%ADD18FreePoly0,180.000000*%
G04 #@! TD*
G04 #@! TA.AperFunction,ViaPad*
%ADD19C,0.450000*%
G04 #@! TD*
G04 #@! TA.AperFunction,ViaPad*
%ADD20C,0.800000*%
G04 #@! TD*
G04 #@! TA.AperFunction,Conductor*
%ADD21C,0.150000*%
G04 #@! TD*
G04 #@! TA.AperFunction,Conductor*
%ADD22C,0.400000*%
G04 #@! TD*
G04 #@! TA.AperFunction,Conductor*
%ADD23C,0.500000*%
G04 #@! TD*
G04 #@! TA.AperFunction,Conductor*
%ADD24C,0.300000*%
G04 #@! TD*
G04 #@! TA.AperFunction,Conductor*
%ADD25C,0.127000*%
G04 #@! TD*
G04 APERTURE END LIST*
D10*
G04 #@! TA.AperFunction,EtchedComponent*
G36*
X150525000Y-86150000D02*
G01*
X150025000Y-86150000D01*
X150025000Y-85550000D01*
X150525000Y-85550000D01*
X150525000Y-86150000D01*
G37*
G04 #@! TD.AperFunction*
G04 #@! TA.AperFunction,EtchedComponent*
G36*
X145307000Y-93375000D02*
G01*
X144807000Y-93375000D01*
X144807000Y-92775000D01*
X145307000Y-92775000D01*
X145307000Y-93375000D01*
G37*
G04 #@! TD.AperFunction*
G04 #@! TA.AperFunction,EtchedComponent*
G36*
X145325000Y-95950000D02*
G01*
X144825000Y-95950000D01*
X144825000Y-95350000D01*
X145325000Y-95350000D01*
X145325000Y-95950000D01*
G37*
G04 #@! TD.AperFunction*
D11*
X151190000Y-76860000D03*
X148650000Y-76860000D03*
X146110000Y-76860000D03*
X143570000Y-76860000D03*
X141030000Y-76860000D03*
X138490000Y-76860000D03*
X135950000Y-76860000D03*
X133410000Y-76860000D03*
X130870000Y-76860000D03*
D12*
X128330000Y-76860000D03*
D13*
X150300000Y-95775000D03*
D14*
X149000000Y-95775000D03*
D15*
X164503000Y-94700000D03*
X162503000Y-94700000D03*
X160503000Y-94700000D03*
D16*
X166600000Y-94700000D03*
X158400000Y-94700000D03*
D14*
X149625000Y-85850000D03*
D13*
X150925000Y-85850000D03*
D12*
X169880000Y-95620000D03*
D11*
X172420000Y-95620000D03*
X174960000Y-95620000D03*
D12*
X154425000Y-93075000D03*
D11*
X154425000Y-95615000D03*
X182540000Y-88400000D03*
D12*
X180000000Y-88400000D03*
D17*
X145707000Y-93075000D03*
D18*
X144407000Y-93075000D03*
X144425000Y-95650000D03*
D17*
X145725000Y-95650000D03*
D13*
X150312000Y-93100000D03*
D14*
X149012000Y-93100000D03*
D12*
X128350000Y-94110000D03*
D11*
X128350000Y-91570000D03*
X128350000Y-89030000D03*
X128350000Y-86490000D03*
X128350000Y-83950000D03*
D19*
X136550000Y-88170000D03*
X127610000Y-80340000D03*
X131040000Y-93940000D03*
X151430000Y-83410000D03*
X162790000Y-83800000D03*
X162830000Y-85500000D03*
X155130000Y-87700000D03*
X178700000Y-75530000D03*
X179790000Y-75520000D03*
X165410000Y-93080000D03*
X162510000Y-93030000D03*
X159650000Y-93050000D03*
X174890000Y-93020000D03*
X182490000Y-85660000D03*
D20*
X154400000Y-80800000D03*
D19*
X151500000Y-87800000D03*
X138100000Y-95000000D03*
X135200000Y-95000000D03*
X138100000Y-92800000D03*
X135200000Y-92800000D03*
X141400000Y-82800000D03*
X136900000Y-80100000D03*
X133600000Y-83200000D03*
X134500000Y-89800000D03*
X177300000Y-81300000D03*
X177300000Y-79600000D03*
X177300000Y-77600000D03*
X179100000Y-81900000D03*
X179100000Y-80800000D03*
X179900000Y-81900000D03*
X179900000Y-80800000D03*
X174200000Y-81200000D03*
X174200000Y-80000000D03*
X174200000Y-78700000D03*
X172700000Y-81200000D03*
X172700000Y-80000000D03*
X172700000Y-78700000D03*
X171300000Y-81200000D03*
X171300000Y-80000000D03*
X171300000Y-78700000D03*
X177100000Y-75600000D03*
X179900000Y-77900000D03*
X179100000Y-77900000D03*
X179100000Y-77100000D03*
X179900000Y-77100000D03*
X183000000Y-94100000D03*
X181700000Y-92600000D03*
D20*
X149400000Y-90201000D03*
X136825000Y-90800000D03*
X153300000Y-87650000D03*
X152525000Y-81200000D03*
D19*
X180100000Y-89825000D03*
X172269301Y-83494301D03*
X181826000Y-86659193D03*
X149100000Y-94575000D03*
X135200000Y-87700000D03*
X137149994Y-87725000D03*
X137749997Y-87725000D03*
X138350000Y-87725000D03*
X148625000Y-87875000D03*
X146625000Y-95625000D03*
X146900000Y-93100000D03*
X149150000Y-91725000D03*
X172425000Y-77875000D03*
X171400000Y-76875000D03*
X170925000Y-75875000D03*
X174150000Y-75425000D03*
X152525000Y-85873000D03*
D20*
X159875000Y-79875000D03*
X170100000Y-84225000D03*
D19*
X171300000Y-82325000D03*
X171825000Y-86325000D03*
X171150000Y-86325000D03*
X173637747Y-82361500D03*
X172275000Y-82075000D03*
X178500000Y-90625000D03*
X177575000Y-89500000D03*
X174300000Y-83899000D03*
X172900000Y-86600000D03*
X174650000Y-86500000D03*
X172158051Y-88240000D03*
X172200000Y-89500000D03*
X182169214Y-86167049D03*
X177850000Y-82650000D03*
X175100000Y-83900000D03*
D20*
X167825000Y-81350000D03*
D21*
X183832353Y-88082353D02*
X183832353Y-96016969D01*
X181826000Y-86820000D02*
X182056000Y-87050000D01*
X182056000Y-87050000D02*
X183225000Y-87050000D01*
X183825000Y-87650000D02*
X183825000Y-88075000D01*
X183825000Y-88075000D02*
X183832353Y-88082353D01*
X181826000Y-86659193D02*
X181826000Y-86820000D01*
X182925322Y-96924000D02*
X131164000Y-96924000D01*
X183225000Y-87050000D02*
X183825000Y-87650000D01*
X183832353Y-96016969D02*
X182925322Y-96924000D01*
X131164000Y-96924000D02*
X128350000Y-94110000D01*
X127000000Y-95300000D02*
X127000000Y-91700000D01*
X183575000Y-86600000D02*
X184133372Y-87158372D01*
X182169214Y-86167049D02*
X182602165Y-86600000D01*
X128925000Y-97225000D02*
X127000000Y-95300000D01*
X182602165Y-86600000D02*
X183575000Y-86600000D01*
X184133372Y-87158372D02*
X184133353Y-88100000D01*
X183050000Y-97225000D02*
X128925000Y-97225000D01*
X127130000Y-91570000D02*
X128350000Y-91570000D01*
X184133353Y-88100000D02*
X184133353Y-96141647D01*
X184133353Y-96141647D02*
X183050000Y-97225000D01*
X127000000Y-91700000D02*
X127130000Y-91570000D01*
D22*
X155325000Y-79875000D02*
X154400000Y-80800000D01*
X159875000Y-79875000D02*
X155325000Y-79875000D01*
D21*
X172200000Y-89500000D02*
X171707051Y-89007051D01*
X174962189Y-83900000D02*
X175100000Y-83900000D01*
X171707051Y-89007051D02*
X171707051Y-87155138D01*
X171707051Y-87155138D02*
X174962189Y-83900000D01*
X172158051Y-88240000D02*
X173048051Y-87350000D01*
X173800000Y-87350000D02*
X174650000Y-86500000D01*
X173048051Y-87350000D02*
X173800000Y-87350000D01*
X144407000Y-93075000D02*
X144407000Y-91943000D01*
X144407000Y-91943000D02*
X145080000Y-91270000D01*
X145080000Y-91270000D02*
X149645000Y-91270000D01*
X149645000Y-91270000D02*
X150312000Y-91937000D01*
X150312000Y-91937000D02*
X150312000Y-93100000D01*
X146900000Y-93100000D02*
X145732000Y-93100000D01*
X145732000Y-93100000D02*
X145707000Y-93075000D01*
X136825000Y-90800000D02*
X136325000Y-90300000D01*
X136325000Y-90300000D02*
X127600000Y-90300000D01*
X127600000Y-90300000D02*
X127000000Y-89700000D01*
X127000000Y-89700000D02*
X127000000Y-85000000D01*
X127000000Y-85000000D02*
X128050000Y-83950000D01*
X128050000Y-83950000D02*
X128350000Y-83950000D01*
D23*
X149400000Y-90201000D02*
X137424000Y-90201000D01*
X137424000Y-90201000D02*
X136825000Y-90800000D01*
D24*
X154550000Y-86400000D02*
X153300000Y-87650000D01*
X154550000Y-83225000D02*
X154550000Y-86400000D01*
X152525000Y-81200000D02*
X154550000Y-83225000D01*
D21*
X180724678Y-92126000D02*
X181376000Y-91474678D01*
X177644858Y-81807047D02*
X174192200Y-81807047D01*
X181376000Y-91474678D02*
X181376000Y-85538189D01*
X181376000Y-85538189D02*
X177644858Y-81807047D01*
X174192200Y-81807047D02*
X173637747Y-82361500D01*
X130870000Y-76860000D02*
X130870000Y-87645000D01*
X181075000Y-85668357D02*
X178056643Y-82650000D01*
X178056643Y-82650000D02*
X177850000Y-82650000D01*
X135686189Y-88824000D02*
X136137189Y-89275000D01*
X156100000Y-89275000D02*
X158650000Y-91825000D01*
X181075000Y-91350000D02*
X181075000Y-85668357D01*
X136137189Y-89275000D02*
X156100000Y-89275000D01*
X130870000Y-87645000D02*
X132049000Y-88824000D01*
X132049000Y-88824000D02*
X135686189Y-88824000D01*
X158650000Y-91825000D02*
X180600000Y-91825000D01*
X180600000Y-91825000D02*
X181075000Y-91350000D01*
D25*
X143570000Y-76860000D02*
X145710778Y-79000778D01*
X135780801Y-86104500D02*
X134482500Y-87402802D01*
X145710778Y-79000778D02*
X145710778Y-83760778D01*
X135806103Y-88534500D02*
X136257104Y-88985500D01*
X136257104Y-88985500D02*
X156219915Y-88985500D01*
X134482500Y-87402802D02*
X134482500Y-88082500D01*
X143367056Y-86104500D02*
X135780801Y-86104500D01*
X145710778Y-83760778D02*
X143367056Y-86104500D01*
X134482500Y-88082500D02*
X134934501Y-88534500D01*
X134934501Y-88534500D02*
X135806103Y-88534500D01*
X156219915Y-88985500D02*
X158769915Y-91535500D01*
X158769915Y-91535500D02*
X178211047Y-91535500D01*
X172269301Y-83494301D02*
X172304102Y-83459500D01*
X174330086Y-83459500D02*
X174654086Y-83135500D01*
X174654086Y-83135500D02*
X175394915Y-83135500D01*
X178585500Y-90088953D02*
X178939500Y-90442953D01*
X175394915Y-83135500D02*
X178585500Y-86326085D01*
X172304102Y-83459500D02*
X174330086Y-83459500D01*
X178585500Y-86326085D02*
X178585500Y-90088953D01*
X178939500Y-90442953D02*
X178939500Y-90807047D01*
X178939500Y-90807047D02*
X178211047Y-91535500D01*
D21*
X172290586Y-82900000D02*
X171875000Y-82900000D01*
X171875000Y-82900000D02*
X171300000Y-82325000D01*
X172290586Y-82900000D02*
X172480086Y-83089500D01*
X172480086Y-83089500D02*
X173966461Y-83089500D01*
X173966461Y-83089500D02*
X174669914Y-82386047D01*
X174669914Y-82386047D02*
X175292688Y-82386047D01*
X175292688Y-82386047D02*
X178875000Y-85968359D01*
X178875000Y-89427000D02*
X179273000Y-89825000D01*
X178875000Y-85968359D02*
X178875000Y-89427000D01*
X179273000Y-89825000D02*
X180100000Y-89825000D01*
D25*
X172275000Y-82075000D02*
X172275000Y-82475000D01*
X172275000Y-82475000D02*
X172600000Y-82800000D01*
X175773697Y-82096547D02*
X177216650Y-83539500D01*
X178143578Y-83539500D02*
X180000000Y-85395922D01*
X172600000Y-82800000D02*
X173846547Y-82800000D01*
X173846547Y-82800000D02*
X174550000Y-82096547D01*
X174550000Y-82096547D02*
X175773697Y-82096547D01*
X177216650Y-83539500D02*
X178143578Y-83539500D01*
X180000000Y-85395922D02*
X180000000Y-88400000D01*
X172275000Y-82075000D02*
X172300000Y-82100000D01*
D21*
X177575000Y-89500000D02*
X177900000Y-89500000D01*
X177900000Y-89500000D02*
X178125000Y-89275000D01*
X174774000Y-83425000D02*
X174300000Y-83899000D01*
X178125000Y-89275000D02*
X178125000Y-86275000D01*
X178125000Y-86275000D02*
X175275000Y-83425000D01*
X175275000Y-83425000D02*
X174774000Y-83425000D01*
D24*
X165649000Y-79174000D02*
X154551000Y-79174000D01*
X154551000Y-79174000D02*
X152525000Y-81200000D01*
X167825000Y-81350000D02*
X165649000Y-79174000D01*
D21*
X148625000Y-87875000D02*
X148625000Y-83875000D01*
X170510500Y-82444914D02*
X170510500Y-83144915D01*
X148625000Y-83875000D02*
X153797000Y-78703000D01*
X153797000Y-78703000D02*
X166768586Y-78703000D01*
X166768586Y-78703000D02*
X170510500Y-82444914D01*
X171150000Y-83784415D02*
X171150000Y-86325000D01*
X170510500Y-83144915D02*
X171150000Y-83784415D01*
D25*
X170800000Y-83025000D02*
X170800000Y-82325000D01*
X170800000Y-82325000D02*
X166888500Y-78413500D01*
X166888500Y-78413500D02*
X153677085Y-78413500D01*
X143383085Y-88707500D02*
X136375000Y-88707500D01*
X153677085Y-78413500D02*
X143383085Y-88707500D01*
D21*
X170925000Y-75875000D02*
X169624000Y-77176000D01*
X136228000Y-86672000D02*
X135200000Y-87700000D01*
X169624000Y-77176000D02*
X153098122Y-77176000D01*
X153098122Y-77176000D02*
X143602122Y-86672000D01*
X143602122Y-86672000D02*
X136228000Y-86672000D01*
X173451000Y-86049000D02*
X172900000Y-86600000D01*
X178500000Y-90625000D02*
X177925000Y-90625000D01*
X177925000Y-90625000D02*
X175101000Y-87801000D01*
X175101000Y-86313189D02*
X174836811Y-86049000D01*
X175101000Y-87801000D02*
X175101000Y-86313189D01*
X174836811Y-86049000D02*
X173451000Y-86049000D01*
D25*
X134760500Y-87517953D02*
X134760500Y-87967348D01*
X134760500Y-87967348D02*
X135049652Y-88256500D01*
X135049652Y-88256500D02*
X135921254Y-88256500D01*
X135921254Y-88256500D02*
X136372255Y-88707500D01*
X138625000Y-86382500D02*
X135895953Y-86382500D01*
X143482208Y-86382500D02*
X138625000Y-86382500D01*
X135895953Y-86382500D02*
X134760500Y-87517953D01*
X148650000Y-81214708D02*
X148232354Y-81632354D01*
X148650000Y-76860000D02*
X148650000Y-81214708D01*
X148232354Y-81632354D02*
X143482208Y-86382500D01*
D21*
X135561511Y-89125000D02*
X128445000Y-89125000D01*
X180724678Y-92126000D02*
X158525322Y-92126000D01*
X136012511Y-89576000D02*
X135561511Y-89125000D01*
X158525322Y-92126000D02*
X155975322Y-89576000D01*
X155975322Y-89576000D02*
X136012511Y-89576000D01*
X128445000Y-89125000D02*
X128350000Y-89030000D01*
X149100000Y-95675000D02*
X149000000Y-95775000D01*
X149100000Y-94575000D02*
X149100000Y-95675000D01*
X144425000Y-95650000D02*
X144425000Y-94675000D01*
X149875000Y-94125000D02*
X150300000Y-94550000D01*
X144425000Y-94675000D02*
X144975000Y-94125000D01*
X144975000Y-94125000D02*
X149875000Y-94125000D01*
X150300000Y-94550000D02*
X150300000Y-95675000D01*
X137149994Y-87725000D02*
X137149994Y-87687192D01*
X137149994Y-87687192D02*
X137864186Y-86973000D01*
X143726800Y-86973000D02*
X153177800Y-77522000D01*
X153177800Y-77522000D02*
X170115189Y-77522000D01*
X170115189Y-77522000D02*
X172212189Y-75425000D01*
X172212189Y-75425000D02*
X174150000Y-75425000D01*
X137749997Y-87725000D02*
X137749997Y-87687192D01*
X137749997Y-87687192D02*
X138163189Y-87274000D01*
X171400000Y-76998000D02*
X171400000Y-76875000D01*
X138163189Y-87274000D02*
X143849000Y-87274000D01*
X143849000Y-87274000D02*
X143850239Y-87275239D01*
X153302478Y-77823000D02*
X170575000Y-77823000D01*
X143850239Y-87275239D02*
X153302478Y-77823000D01*
X170575000Y-77823000D02*
X171400000Y-76998000D01*
X138350000Y-87725000D02*
X143826156Y-87725000D01*
X143826156Y-87725000D02*
X153427156Y-78124000D01*
X153427156Y-78124000D02*
X172176000Y-78124000D01*
X172176000Y-78124000D02*
X172425000Y-77875000D01*
X146625000Y-95625000D02*
X145750000Y-95625000D01*
X145750000Y-95625000D02*
X145725000Y-95650000D01*
X149150000Y-91725000D02*
X149150000Y-92962000D01*
X149150000Y-92962000D02*
X149012000Y-93100000D01*
X150300000Y-95675000D02*
X154365000Y-95675000D01*
X154365000Y-95675000D02*
X154425000Y-95615000D01*
X150312000Y-93100000D02*
X154400000Y-93100000D01*
X154400000Y-93100000D02*
X154425000Y-93075000D01*
X152525000Y-85873000D02*
X152502000Y-85850000D01*
X152502000Y-85850000D02*
X150925000Y-85850000D01*
D24*
X179474000Y-87874000D02*
X180000000Y-88400000D01*
D23*
X170100000Y-84225000D02*
X169567214Y-84225000D01*
X165129346Y-79875000D02*
X159875000Y-79875000D01*
X169567214Y-84225000D02*
X165217214Y-79875000D01*
X165217214Y-79875000D02*
X165129346Y-79875000D01*
D25*
X171825000Y-86325000D02*
X171825000Y-84050000D01*
X171825000Y-84050000D02*
X170800000Y-83025000D01*
D21*
X137864186Y-86973000D02*
X143726800Y-86973000D01*
G04 #@! TA.AperFunction,Conductor*
G36*
X183516511Y-88893623D02*
G01*
X183551743Y-88909865D01*
X183580232Y-88936200D01*
X183599189Y-88970049D01*
X183606757Y-89008099D01*
X183606853Y-89012968D01*
X183606853Y-95872202D01*
X183600784Y-95910520D01*
X183583171Y-95945087D01*
X183570534Y-95959883D01*
X182868236Y-96662181D01*
X182836850Y-96684985D01*
X182799953Y-96696973D01*
X182780555Y-96698500D01*
X175555537Y-96698500D01*
X175517219Y-96692431D01*
X175482652Y-96674818D01*
X175455219Y-96647385D01*
X175437606Y-96612818D01*
X175431537Y-96574500D01*
X175437606Y-96536182D01*
X175455219Y-96501615D01*
X175482652Y-96474182D01*
X175486646Y-96471398D01*
X175556716Y-96424579D01*
X175632705Y-96362216D01*
X175702216Y-96292705D01*
X175764579Y-96216716D01*
X175819193Y-96134980D01*
X175865532Y-96048285D01*
X175903151Y-95957465D01*
X175931687Y-95863395D01*
X175950865Y-95766981D01*
X175960500Y-95669151D01*
X175960500Y-95570849D01*
X175950865Y-95473019D01*
X175931687Y-95376605D01*
X175903151Y-95282535D01*
X175901223Y-95277881D01*
X175885940Y-95240984D01*
X175865532Y-95191715D01*
X175819193Y-95105020D01*
X175764579Y-95023284D01*
X175702216Y-94947295D01*
X175702215Y-94947294D01*
X175702211Y-94947289D01*
X175632710Y-94877788D01*
X175556721Y-94815425D01*
X175556720Y-94815424D01*
X175556716Y-94815421D01*
X175539945Y-94804215D01*
X175474985Y-94760810D01*
X175474982Y-94760808D01*
X175474980Y-94760807D01*
X175388285Y-94714468D01*
X175354030Y-94700279D01*
X175297470Y-94676850D01*
X175244053Y-94660646D01*
X175203395Y-94648313D01*
X175153921Y-94638472D01*
X175106977Y-94629134D01*
X175041210Y-94622657D01*
X175009151Y-94619500D01*
X174910849Y-94619500D01*
X174881947Y-94622346D01*
X174813022Y-94629134D01*
X174741279Y-94643405D01*
X174716605Y-94648313D01*
X174716602Y-94648314D01*
X174622529Y-94676850D01*
X174531722Y-94714465D01*
X174531714Y-94714468D01*
X174445025Y-94760804D01*
X174445014Y-94760810D01*
X174363292Y-94815415D01*
X174363278Y-94815425D01*
X174287289Y-94877788D01*
X174217788Y-94947289D01*
X174155425Y-95023278D01*
X174155415Y-95023292D01*
X174100810Y-95105014D01*
X174100804Y-95105025D01*
X174054468Y-95191714D01*
X174054465Y-95191722D01*
X174016850Y-95282529D01*
X173988314Y-95376602D01*
X173988312Y-95376610D01*
X173969134Y-95473022D01*
X173964988Y-95515121D01*
X173959500Y-95570849D01*
X173959500Y-95669151D01*
X173962414Y-95698737D01*
X173969134Y-95766977D01*
X173970730Y-95775000D01*
X173988313Y-95863395D01*
X173988314Y-95863397D01*
X174016850Y-95957470D01*
X174036506Y-96004921D01*
X174054468Y-96048285D01*
X174098134Y-96129980D01*
X174100804Y-96134974D01*
X174100810Y-96134985D01*
X174155415Y-96216707D01*
X174155425Y-96216721D01*
X174217788Y-96292710D01*
X174287289Y-96362211D01*
X174287294Y-96362215D01*
X174287295Y-96362216D01*
X174363284Y-96424579D01*
X174433354Y-96471398D01*
X174461842Y-96497732D01*
X174480799Y-96531581D01*
X174488367Y-96569631D01*
X174483808Y-96608158D01*
X174467566Y-96643390D01*
X174441231Y-96671879D01*
X174407382Y-96690836D01*
X174369332Y-96698404D01*
X174364463Y-96698500D01*
X173015537Y-96698500D01*
X172977219Y-96692431D01*
X172942652Y-96674818D01*
X172915219Y-96647385D01*
X172897606Y-96612818D01*
X172891537Y-96574500D01*
X172897606Y-96536182D01*
X172915219Y-96501615D01*
X172942652Y-96474182D01*
X172946646Y-96471398D01*
X173016716Y-96424579D01*
X173092705Y-96362216D01*
X173162216Y-96292705D01*
X173224579Y-96216716D01*
X173279193Y-96134980D01*
X173325532Y-96048285D01*
X173363151Y-95957465D01*
X173391687Y-95863395D01*
X173410865Y-95766981D01*
X173420500Y-95669151D01*
X173420500Y-95570849D01*
X173410865Y-95473019D01*
X173391687Y-95376605D01*
X173363151Y-95282535D01*
X173361223Y-95277881D01*
X173345940Y-95240984D01*
X173325532Y-95191715D01*
X173279193Y-95105020D01*
X173224579Y-95023284D01*
X173162216Y-94947295D01*
X173162215Y-94947294D01*
X173162211Y-94947289D01*
X173092710Y-94877788D01*
X173016721Y-94815425D01*
X173016720Y-94815424D01*
X173016716Y-94815421D01*
X172999945Y-94804215D01*
X172934985Y-94760810D01*
X172934982Y-94760808D01*
X172934980Y-94760807D01*
X172848285Y-94714468D01*
X172814030Y-94700279D01*
X172757470Y-94676850D01*
X172704053Y-94660646D01*
X172663395Y-94648313D01*
X172613921Y-94638472D01*
X172566977Y-94629134D01*
X172501210Y-94622657D01*
X172469151Y-94619500D01*
X172370849Y-94619500D01*
X172341947Y-94622346D01*
X172273022Y-94629134D01*
X172201279Y-94643405D01*
X172176605Y-94648313D01*
X172176602Y-94648314D01*
X172082529Y-94676850D01*
X171991722Y-94714465D01*
X171991714Y-94714468D01*
X171905025Y-94760804D01*
X171905014Y-94760810D01*
X171823292Y-94815415D01*
X171823278Y-94815425D01*
X171747289Y-94877788D01*
X171677788Y-94947289D01*
X171615425Y-95023278D01*
X171615415Y-95023292D01*
X171560810Y-95105014D01*
X171560804Y-95105025D01*
X171514468Y-95191714D01*
X171514465Y-95191722D01*
X171476850Y-95282529D01*
X171448314Y-95376602D01*
X171448312Y-95376610D01*
X171429134Y-95473022D01*
X171424988Y-95515121D01*
X171419500Y-95570849D01*
X171419500Y-95669151D01*
X171422414Y-95698737D01*
X171429134Y-95766977D01*
X171430730Y-95775000D01*
X171448313Y-95863395D01*
X171448314Y-95863397D01*
X171476850Y-95957470D01*
X171496506Y-96004921D01*
X171514468Y-96048285D01*
X171558134Y-96129980D01*
X171560804Y-96134974D01*
X171560810Y-96134985D01*
X171615415Y-96216707D01*
X171615425Y-96216721D01*
X171677788Y-96292710D01*
X171747289Y-96362211D01*
X171747294Y-96362215D01*
X171747295Y-96362216D01*
X171823284Y-96424579D01*
X171893354Y-96471398D01*
X171921842Y-96497732D01*
X171940799Y-96531581D01*
X171948367Y-96569631D01*
X171943808Y-96608158D01*
X171927566Y-96643390D01*
X171901231Y-96671879D01*
X171867382Y-96690836D01*
X171829332Y-96698404D01*
X171824463Y-96698500D01*
X171244484Y-96698500D01*
X171206166Y-96692431D01*
X171171599Y-96674818D01*
X171144166Y-96647385D01*
X171126553Y-96612818D01*
X171120484Y-96574500D01*
X171124710Y-96542403D01*
X171125427Y-96539727D01*
X171125428Y-96539720D01*
X171129999Y-96487467D01*
X171130000Y-96487467D01*
X171130000Y-95870000D01*
X170313013Y-95870000D01*
X170329399Y-95841619D01*
X170354481Y-95781065D01*
X170371445Y-95717754D01*
X170380000Y-95652772D01*
X170380000Y-95587228D01*
X170371445Y-95522246D01*
X170354481Y-95458935D01*
X170329399Y-95398381D01*
X170313013Y-95370000D01*
X171130000Y-95370000D01*
X171130000Y-94752533D01*
X171129999Y-94752532D01*
X171125428Y-94700279D01*
X171125427Y-94700273D01*
X171107311Y-94632666D01*
X171107311Y-94632665D01*
X171077731Y-94569233D01*
X171037591Y-94511907D01*
X171037586Y-94511901D01*
X170988098Y-94462413D01*
X170988092Y-94462408D01*
X170930766Y-94422268D01*
X170867334Y-94392688D01*
X170799726Y-94374572D01*
X170799720Y-94374571D01*
X170747467Y-94370000D01*
X170130000Y-94370000D01*
X170130000Y-95186987D01*
X170101619Y-95170601D01*
X170041065Y-95145519D01*
X169977754Y-95128555D01*
X169912772Y-95120000D01*
X169847228Y-95120000D01*
X169782246Y-95128555D01*
X169718935Y-95145519D01*
X169658381Y-95170601D01*
X169630000Y-95186987D01*
X169630000Y-94370000D01*
X169012533Y-94370000D01*
X168960279Y-94374571D01*
X168960273Y-94374572D01*
X168892666Y-94392688D01*
X168892665Y-94392688D01*
X168829233Y-94422268D01*
X168771907Y-94462408D01*
X168771901Y-94462413D01*
X168722413Y-94511901D01*
X168722408Y-94511907D01*
X168682268Y-94569233D01*
X168652688Y-94632665D01*
X168652688Y-94632666D01*
X168634572Y-94700273D01*
X168634571Y-94700279D01*
X168630000Y-94752532D01*
X168630000Y-95370000D01*
X169446987Y-95370000D01*
X169430601Y-95398381D01*
X169405519Y-95458935D01*
X169388555Y-95522246D01*
X169380000Y-95587228D01*
X169380000Y-95652772D01*
X169388555Y-95717754D01*
X169405519Y-95781065D01*
X169430601Y-95841619D01*
X169446987Y-95870000D01*
X168630000Y-95870000D01*
X168630000Y-96487467D01*
X168634571Y-96539720D01*
X168634572Y-96539727D01*
X168635290Y-96542403D01*
X168639346Y-96580986D01*
X168631281Y-96618934D01*
X168611884Y-96652533D01*
X168583054Y-96678493D01*
X168547613Y-96694274D01*
X168515516Y-96698500D01*
X155013054Y-96698500D01*
X154974736Y-96692431D01*
X154940169Y-96674818D01*
X154912736Y-96647385D01*
X154895123Y-96612818D01*
X154889054Y-96574500D01*
X154895123Y-96536182D01*
X154912736Y-96501615D01*
X154940169Y-96474182D01*
X154944164Y-96471398D01*
X155021698Y-96419591D01*
X155021697Y-96419591D01*
X155021716Y-96419579D01*
X155097705Y-96357216D01*
X155167216Y-96287705D01*
X155229579Y-96211716D01*
X155284193Y-96129980D01*
X155330532Y-96043285D01*
X155368151Y-95952465D01*
X155396687Y-95858395D01*
X155415865Y-95761981D01*
X155425500Y-95664151D01*
X155425500Y-95565849D01*
X155415865Y-95468019D01*
X155396687Y-95371605D01*
X155368151Y-95277535D01*
X155367934Y-95277012D01*
X155353011Y-95240984D01*
X155330532Y-95186715D01*
X155284193Y-95100020D01*
X155229579Y-95018284D01*
X155167216Y-94942295D01*
X155167215Y-94942294D01*
X155167211Y-94942289D01*
X155097710Y-94872788D01*
X155021721Y-94810425D01*
X155021720Y-94810424D01*
X155021716Y-94810421D01*
X155012428Y-94804215D01*
X154939985Y-94755810D01*
X154939967Y-94755799D01*
X154927586Y-94749181D01*
X154927582Y-94749180D01*
X154853285Y-94709468D01*
X154817794Y-94694767D01*
X154762470Y-94671850D01*
X154709053Y-94655646D01*
X154668395Y-94643313D01*
X154666143Y-94642865D01*
X157237000Y-94642865D01*
X157237000Y-94757135D01*
X157239666Y-94784199D01*
X157248199Y-94870850D01*
X157248199Y-94870852D01*
X157270487Y-94982906D01*
X157270492Y-94982923D01*
X157270493Y-94982927D01*
X157276694Y-95003368D01*
X157303662Y-95092274D01*
X157331791Y-95160183D01*
X157347392Y-95197846D01*
X157401258Y-95298623D01*
X157401260Y-95298626D01*
X157401262Y-95298629D01*
X157464737Y-95393625D01*
X157464745Y-95393637D01*
X157537239Y-95481971D01*
X157618028Y-95562760D01*
X157618033Y-95562764D01*
X157618035Y-95562766D01*
X157627884Y-95570849D01*
X157691636Y-95623169D01*
X157706366Y-95635257D01*
X157801377Y-95698742D01*
X157902154Y-95752608D01*
X158007724Y-95796337D01*
X158117073Y-95829507D01*
X158117082Y-95829508D01*
X158117093Y-95829512D01*
X158210887Y-95848168D01*
X158229147Y-95851800D01*
X158342865Y-95863000D01*
X158342867Y-95863000D01*
X158457133Y-95863000D01*
X158457135Y-95863000D01*
X158570853Y-95851800D01*
X158592666Y-95847460D01*
X158682906Y-95829512D01*
X158682914Y-95829509D01*
X158682927Y-95829507D01*
X158792276Y-95796337D01*
X158897846Y-95752608D01*
X158998623Y-95698742D01*
X159093634Y-95635257D01*
X159181965Y-95562766D01*
X159262766Y-95481965D01*
X159335257Y-95393634D01*
X159398742Y-95298623D01*
X159452608Y-95197846D01*
X159496337Y-95092276D01*
X159511942Y-95040829D01*
X159528872Y-95005924D01*
X159555761Y-94977958D01*
X159589976Y-94959669D01*
X159628167Y-94952849D01*
X159666597Y-94958164D01*
X159701504Y-94975094D01*
X159729470Y-95001983D01*
X159742323Y-95023023D01*
X159779362Y-95099936D01*
X159789813Y-95116569D01*
X159828693Y-95178446D01*
X159844160Y-95197841D01*
X159881951Y-95245230D01*
X159886502Y-95250936D01*
X159952064Y-95316498D01*
X160024554Y-95374307D01*
X160091623Y-95416449D01*
X160103063Y-95423637D01*
X160186597Y-95463865D01*
X160186599Y-95463866D01*
X160198477Y-95468022D01*
X160274112Y-95494487D01*
X160364506Y-95515119D01*
X160364515Y-95515120D01*
X160364520Y-95515121D01*
X160425929Y-95522039D01*
X160456635Y-95525499D01*
X160456638Y-95525500D01*
X160456641Y-95525500D01*
X160549362Y-95525500D01*
X160549363Y-95525499D01*
X160596442Y-95520195D01*
X160641479Y-95515121D01*
X160641482Y-95515120D01*
X160641494Y-95515119D01*
X160731888Y-95494487D01*
X160819403Y-95463865D01*
X160902939Y-95423636D01*
X160981446Y-95374307D01*
X161053936Y-95316498D01*
X161119498Y-95250936D01*
X161177307Y-95178446D01*
X161226636Y-95099939D01*
X161266865Y-95016403D01*
X161297487Y-94928888D01*
X161318119Y-94838494D01*
X161318304Y-94836857D01*
X161324136Y-94785089D01*
X161328500Y-94746359D01*
X161328500Y-94653641D01*
X161328499Y-94653634D01*
X161677500Y-94653634D01*
X161677500Y-94746365D01*
X161687878Y-94838479D01*
X161687880Y-94838491D01*
X161687881Y-94838494D01*
X161690352Y-94849318D01*
X161708512Y-94928886D01*
X161708515Y-94928894D01*
X161739133Y-95016400D01*
X161739134Y-95016402D01*
X161779362Y-95099936D01*
X161789813Y-95116569D01*
X161828693Y-95178446D01*
X161844160Y-95197841D01*
X161881951Y-95245230D01*
X161886502Y-95250936D01*
X161952064Y-95316498D01*
X162024554Y-95374307D01*
X162091623Y-95416449D01*
X162103063Y-95423637D01*
X162186597Y-95463865D01*
X162186599Y-95463866D01*
X162198477Y-95468022D01*
X162274112Y-95494487D01*
X162364506Y-95515119D01*
X162364515Y-95515120D01*
X162364520Y-95515121D01*
X162425929Y-95522039D01*
X162456635Y-95525499D01*
X162456638Y-95525500D01*
X162456641Y-95525500D01*
X162549362Y-95525500D01*
X162549363Y-95525499D01*
X162596442Y-95520195D01*
X162641479Y-95515121D01*
X162641482Y-95515120D01*
X162641494Y-95515119D01*
X162731888Y-95494487D01*
X162819403Y-95463865D01*
X162825071Y-95461135D01*
X162830100Y-95458714D01*
X162830100Y-95458713D01*
X162902939Y-95423636D01*
X162981446Y-95374307D01*
X163053936Y-95316498D01*
X163119498Y-95250936D01*
X163177307Y-95178446D01*
X163226636Y-95099939D01*
X163256905Y-95037083D01*
X163278995Y-95005199D01*
X163309862Y-94981696D01*
X163346480Y-94968882D01*
X163385266Y-94968011D01*
X163422423Y-94979168D01*
X163454313Y-95001261D01*
X163477816Y-95032128D01*
X163487282Y-95054888D01*
X163489617Y-95062584D01*
X163489620Y-95062593D01*
X163530037Y-95160169D01*
X163530044Y-95160183D01*
X163579821Y-95253311D01*
X163579842Y-95253345D01*
X163586353Y-95263091D01*
X163586355Y-95263091D01*
X164105046Y-94744400D01*
X164112849Y-94793667D01*
X164132305Y-94853547D01*
X164160889Y-94909646D01*
X164197897Y-94960583D01*
X164242417Y-95005103D01*
X164293354Y-95042111D01*
X164349453Y-95070695D01*
X164409333Y-95090151D01*
X164458599Y-95097953D01*
X163939907Y-95616644D01*
X163939907Y-95616645D01*
X163949672Y-95623169D01*
X163949676Y-95623172D01*
X164042823Y-95672959D01*
X164042830Y-95672962D01*
X164140405Y-95713379D01*
X164241488Y-95744042D01*
X164345085Y-95764648D01*
X164450191Y-95775000D01*
X164555809Y-95775000D01*
X164660913Y-95764648D01*
X164660916Y-95764648D01*
X164764511Y-95744042D01*
X164865594Y-95713379D01*
X164963168Y-95672962D01*
X165056334Y-95623165D01*
X165066091Y-95616645D01*
X165066092Y-95616644D01*
X164547401Y-95097953D01*
X164596667Y-95090151D01*
X164656547Y-95070695D01*
X164712646Y-95042111D01*
X164763583Y-95005103D01*
X164808103Y-94960583D01*
X164845111Y-94909646D01*
X164873695Y-94853547D01*
X164893151Y-94793667D01*
X164900953Y-94744401D01*
X165419644Y-95263092D01*
X165438910Y-95261194D01*
X165455657Y-95251815D01*
X165493707Y-95244245D01*
X165532234Y-95248803D01*
X165567467Y-95265044D01*
X165595956Y-95291378D01*
X165601682Y-95299258D01*
X165664736Y-95393625D01*
X165664745Y-95393637D01*
X165737239Y-95481971D01*
X165818028Y-95562760D01*
X165818033Y-95562764D01*
X165818035Y-95562766D01*
X165827884Y-95570849D01*
X165891636Y-95623169D01*
X165906366Y-95635257D01*
X166001377Y-95698742D01*
X166102154Y-95752608D01*
X166207724Y-95796337D01*
X166317073Y-95829507D01*
X166317082Y-95829508D01*
X166317093Y-95829512D01*
X166410887Y-95848168D01*
X166429147Y-95851800D01*
X166542865Y-95863000D01*
X166542867Y-95863000D01*
X166657133Y-95863000D01*
X166657135Y-95863000D01*
X166770853Y-95851800D01*
X166792666Y-95847460D01*
X166882906Y-95829512D01*
X166882914Y-95829509D01*
X166882927Y-95829507D01*
X166992276Y-95796337D01*
X167097846Y-95752608D01*
X167198623Y-95698742D01*
X167293634Y-95635257D01*
X167381965Y-95562766D01*
X167462766Y-95481965D01*
X167535257Y-95393634D01*
X167598742Y-95298623D01*
X167652608Y-95197846D01*
X167696337Y-95092276D01*
X167729507Y-94982927D01*
X167729509Y-94982914D01*
X167729512Y-94982906D01*
X167750305Y-94878368D01*
X167751800Y-94870853D01*
X167763000Y-94757135D01*
X167763000Y-94642865D01*
X167751800Y-94529147D01*
X167748370Y-94511901D01*
X167729512Y-94417093D01*
X167729508Y-94417082D01*
X167729507Y-94417073D01*
X167696337Y-94307724D01*
X167652608Y-94202154D01*
X167598742Y-94101377D01*
X167535257Y-94006366D01*
X167530605Y-94000698D01*
X167480719Y-93939911D01*
X167462766Y-93918035D01*
X167462764Y-93918033D01*
X167462760Y-93918028D01*
X167381971Y-93837239D01*
X167293637Y-93764745D01*
X167293625Y-93764737D01*
X167198629Y-93701262D01*
X167198626Y-93701260D01*
X167198625Y-93701259D01*
X167198623Y-93701258D01*
X167097846Y-93647392D01*
X167038013Y-93622608D01*
X166992274Y-93603662D01*
X166921380Y-93582157D01*
X166882927Y-93570493D01*
X166882924Y-93570492D01*
X166882923Y-93570492D01*
X166882906Y-93570487D01*
X166770851Y-93548199D01*
X166679533Y-93539205D01*
X166657135Y-93537000D01*
X166542865Y-93537000D01*
X166520467Y-93539205D01*
X166429149Y-93548199D01*
X166429147Y-93548199D01*
X166317093Y-93570487D01*
X166317076Y-93570492D01*
X166207725Y-93603662D01*
X166102158Y-93647390D01*
X166102155Y-93647391D01*
X166102154Y-93647392D01*
X166101707Y-93647631D01*
X166001373Y-93701260D01*
X166001370Y-93701262D01*
X165906374Y-93764737D01*
X165906362Y-93764745D01*
X165818028Y-93837239D01*
X165737239Y-93918028D01*
X165664745Y-94006362D01*
X165664736Y-94006374D01*
X165601684Y-94100739D01*
X165575349Y-94129228D01*
X165541500Y-94148184D01*
X165503449Y-94155752D01*
X165464923Y-94151192D01*
X165437821Y-94138697D01*
X165419644Y-94136907D01*
X164900953Y-94655598D01*
X164893151Y-94606333D01*
X164873695Y-94546453D01*
X164845111Y-94490354D01*
X164808103Y-94439417D01*
X164763583Y-94394897D01*
X164712646Y-94357889D01*
X164656547Y-94329305D01*
X164596667Y-94309849D01*
X164547400Y-94302046D01*
X165066091Y-93783355D01*
X165066091Y-93783353D01*
X165056345Y-93776842D01*
X165056311Y-93776821D01*
X164963183Y-93727044D01*
X164963169Y-93727037D01*
X164865594Y-93686620D01*
X164764511Y-93655957D01*
X164660914Y-93635351D01*
X164555809Y-93625000D01*
X164450191Y-93625000D01*
X164345086Y-93635351D01*
X164345083Y-93635351D01*
X164241488Y-93655957D01*
X164140405Y-93686620D01*
X164042830Y-93727037D01*
X164042823Y-93727040D01*
X163949679Y-93776826D01*
X163939907Y-93783354D01*
X164458600Y-94302046D01*
X164409333Y-94309849D01*
X164349453Y-94329305D01*
X164293354Y-94357889D01*
X164242417Y-94394897D01*
X164197897Y-94439417D01*
X164160889Y-94490354D01*
X164132305Y-94546453D01*
X164112849Y-94606333D01*
X164105046Y-94655599D01*
X163586354Y-94136907D01*
X163579826Y-94146679D01*
X163530040Y-94239823D01*
X163530037Y-94239830D01*
X163489620Y-94337406D01*
X163489615Y-94337418D01*
X163487281Y-94345114D01*
X163470347Y-94380019D01*
X163443456Y-94407983D01*
X163409240Y-94426269D01*
X163371048Y-94433086D01*
X163332619Y-94427768D01*
X163297714Y-94410834D01*
X163269750Y-94383943D01*
X163256907Y-94362919D01*
X163226636Y-94300061D01*
X163177307Y-94221554D01*
X163119498Y-94149064D01*
X163053936Y-94083502D01*
X163041485Y-94073573D01*
X163027829Y-94062682D01*
X162981446Y-94025693D01*
X162902939Y-93976364D01*
X162902936Y-93976362D01*
X162830095Y-93941284D01*
X162830094Y-93941283D01*
X162819403Y-93936135D01*
X162819397Y-93936132D01*
X162731894Y-93905515D01*
X162731886Y-93905512D01*
X162668226Y-93890982D01*
X162641494Y-93884881D01*
X162641491Y-93884880D01*
X162641479Y-93884878D01*
X162549365Y-93874500D01*
X162549359Y-93874500D01*
X162456641Y-93874500D01*
X162456634Y-93874500D01*
X162364520Y-93884878D01*
X162364506Y-93884881D01*
X162274113Y-93905512D01*
X162274105Y-93905515D01*
X162186599Y-93936133D01*
X162186597Y-93936134D01*
X162103063Y-93976362D01*
X162024555Y-94025692D01*
X161952064Y-94083501D01*
X161886501Y-94149064D01*
X161828692Y-94221555D01*
X161779362Y-94300063D01*
X161739134Y-94383597D01*
X161739133Y-94383599D01*
X161708515Y-94471105D01*
X161708512Y-94471113D01*
X161687881Y-94561506D01*
X161687878Y-94561520D01*
X161677500Y-94653634D01*
X161328499Y-94653634D01*
X161323496Y-94609226D01*
X161318121Y-94561520D01*
X161318120Y-94561515D01*
X161318119Y-94561506D01*
X161297487Y-94471112D01*
X161275398Y-94407983D01*
X161266866Y-94383599D01*
X161266865Y-94383597D01*
X161226637Y-94300063D01*
X161226636Y-94300061D01*
X161177307Y-94221554D01*
X161119498Y-94149064D01*
X161053936Y-94083502D01*
X161041485Y-94073573D01*
X161027829Y-94062682D01*
X160981446Y-94025693D01*
X160902939Y-93976364D01*
X160902936Y-93976362D01*
X160819402Y-93936134D01*
X160819400Y-93936133D01*
X160731894Y-93905515D01*
X160731886Y-93905512D01*
X160668226Y-93890982D01*
X160641494Y-93884881D01*
X160641491Y-93884880D01*
X160641479Y-93884878D01*
X160549365Y-93874500D01*
X160549359Y-93874500D01*
X160456641Y-93874500D01*
X160456634Y-93874500D01*
X160364520Y-93884878D01*
X160364506Y-93884881D01*
X160274113Y-93905512D01*
X160274105Y-93905515D01*
X160186599Y-93936133D01*
X160186597Y-93936134D01*
X160103063Y-93976362D01*
X160024555Y-94025692D01*
X159952064Y-94083501D01*
X159886501Y-94149064D01*
X159828692Y-94221555D01*
X159779362Y-94300063D01*
X159742323Y-94376976D01*
X159720229Y-94408866D01*
X159689362Y-94432368D01*
X159652744Y-94445181D01*
X159613958Y-94446052D01*
X159576801Y-94434894D01*
X159544911Y-94412800D01*
X159521409Y-94381933D01*
X159511942Y-94359169D01*
X159511554Y-94357889D01*
X159496337Y-94307724D01*
X159452608Y-94202154D01*
X159398742Y-94101377D01*
X159335257Y-94006366D01*
X159330605Y-94000698D01*
X159280719Y-93939911D01*
X159262766Y-93918035D01*
X159262764Y-93918033D01*
X159262760Y-93918028D01*
X159181971Y-93837239D01*
X159093637Y-93764745D01*
X159093625Y-93764737D01*
X158998629Y-93701262D01*
X158998626Y-93701260D01*
X158998625Y-93701259D01*
X158998623Y-93701258D01*
X158897846Y-93647392D01*
X158838013Y-93622608D01*
X158792274Y-93603662D01*
X158721380Y-93582157D01*
X158682927Y-93570493D01*
X158682924Y-93570492D01*
X158682923Y-93570492D01*
X158682906Y-93570487D01*
X158570851Y-93548199D01*
X158479533Y-93539205D01*
X158457135Y-93537000D01*
X158342865Y-93537000D01*
X158320467Y-93539205D01*
X158229149Y-93548199D01*
X158229147Y-93548199D01*
X158117093Y-93570487D01*
X158117076Y-93570492D01*
X158007725Y-93603662D01*
X157902158Y-93647390D01*
X157902155Y-93647391D01*
X157902154Y-93647392D01*
X157901707Y-93647631D01*
X157801373Y-93701260D01*
X157801370Y-93701262D01*
X157706374Y-93764737D01*
X157706362Y-93764745D01*
X157618028Y-93837239D01*
X157537239Y-93918028D01*
X157464745Y-94006362D01*
X157464737Y-94006374D01*
X157401262Y-94101370D01*
X157401260Y-94101373D01*
X157401258Y-94101377D01*
X157354594Y-94188681D01*
X157347390Y-94202158D01*
X157303662Y-94307725D01*
X157270492Y-94417076D01*
X157270487Y-94417093D01*
X157248199Y-94529147D01*
X157248199Y-94529149D01*
X157239794Y-94614500D01*
X157237000Y-94642865D01*
X154666143Y-94642865D01*
X154597113Y-94629134D01*
X154571977Y-94624134D01*
X154506210Y-94617657D01*
X154474151Y-94614500D01*
X154375849Y-94614500D01*
X154346947Y-94617346D01*
X154278022Y-94624134D01*
X154205942Y-94638472D01*
X154181605Y-94643313D01*
X154181602Y-94643314D01*
X154087529Y-94671850D01*
X153996722Y-94709465D01*
X153996714Y-94709468D01*
X153910025Y-94755804D01*
X153910014Y-94755810D01*
X153828292Y-94810415D01*
X153828278Y-94810425D01*
X153752289Y-94872788D01*
X153682788Y-94942289D01*
X153620425Y-95018278D01*
X153620415Y-95018292D01*
X153565810Y-95100014D01*
X153565804Y-95100025D01*
X153519468Y-95186714D01*
X153519465Y-95186722D01*
X153481848Y-95277536D01*
X153456379Y-95361496D01*
X153439449Y-95396402D01*
X153412560Y-95424368D01*
X153378345Y-95442656D01*
X153340153Y-95449476D01*
X153337719Y-95449500D01*
X151049919Y-95449500D01*
X151011601Y-95443431D01*
X150977034Y-95425818D01*
X150949601Y-95398385D01*
X150931988Y-95363818D01*
X150930144Y-95357593D01*
X150921306Y-95324611D01*
X150921302Y-95324595D01*
X150914911Y-95305768D01*
X150914903Y-95305748D01*
X150889836Y-95245230D01*
X150889835Y-95245227D01*
X150889351Y-95244245D01*
X150881034Y-95227380D01*
X150848262Y-95170618D01*
X150841280Y-95160169D01*
X150837225Y-95154099D01*
X150830641Y-95145519D01*
X150797317Y-95102089D01*
X150784207Y-95087140D01*
X150737860Y-95040793D01*
X150722911Y-95027683D01*
X150670912Y-94987783D01*
X150670900Y-94987774D01*
X150654383Y-94976739D01*
X150654382Y-94976738D01*
X150597620Y-94943966D01*
X150597594Y-94943953D01*
X150597581Y-94943946D01*
X150594651Y-94942501D01*
X150562970Y-94920109D01*
X150539759Y-94889023D01*
X150527290Y-94852285D01*
X150525500Y-94831292D01*
X150525500Y-94527787D01*
X150516835Y-94484230D01*
X150516834Y-94484226D01*
X150516834Y-94484224D01*
X150510191Y-94468186D01*
X150499836Y-94443186D01*
X150495156Y-94436182D01*
X150475159Y-94406253D01*
X150475153Y-94406246D01*
X150281268Y-94212362D01*
X150258464Y-94180976D01*
X150246476Y-94144079D01*
X150246476Y-94105283D01*
X150258464Y-94068386D01*
X150281268Y-94037000D01*
X150312654Y-94014196D01*
X150349551Y-94002208D01*
X150360836Y-94000947D01*
X150364612Y-94000700D01*
X150429594Y-93992145D01*
X150449094Y-93988266D01*
X150512405Y-93971302D01*
X150531232Y-93964911D01*
X150591786Y-93939829D01*
X150609620Y-93931034D01*
X150666382Y-93898262D01*
X150682912Y-93887217D01*
X150734911Y-93847317D01*
X150749860Y-93834207D01*
X150796207Y-93787860D01*
X150809317Y-93772911D01*
X150849217Y-93720912D01*
X150860262Y-93704382D01*
X150893034Y-93647620D01*
X150901829Y-93629786D01*
X150926911Y-93569232D01*
X150933302Y-93550405D01*
X150950266Y-93487094D01*
X150954145Y-93467594D01*
X150958659Y-93433309D01*
X150969677Y-93396116D01*
X150991651Y-93364144D01*
X151022430Y-93340526D01*
X151059000Y-93327576D01*
X151081597Y-93325500D01*
X153300500Y-93325500D01*
X153338818Y-93331569D01*
X153373385Y-93349182D01*
X153400818Y-93376615D01*
X153418431Y-93411182D01*
X153424500Y-93449500D01*
X153424500Y-93939389D01*
X153424501Y-93939408D01*
X153424702Y-93941282D01*
X153426427Y-93957320D01*
X153439416Y-93992144D01*
X153441552Y-93997871D01*
X153444643Y-94002000D01*
X153467486Y-94032514D01*
X153502131Y-94058449D01*
X153542680Y-94073573D01*
X153560602Y-94075500D01*
X153560611Y-94075500D01*
X155289389Y-94075500D01*
X155289398Y-94075500D01*
X155307320Y-94073573D01*
X155347869Y-94058449D01*
X155382514Y-94032514D01*
X155408449Y-93997869D01*
X155423573Y-93957320D01*
X155425500Y-93939398D01*
X155425500Y-92210602D01*
X155423573Y-92192680D01*
X155408449Y-92152131D01*
X155382514Y-92117486D01*
X155352601Y-92095093D01*
X155347871Y-92091552D01*
X155347869Y-92091551D01*
X155307320Y-92076427D01*
X155307316Y-92076426D01*
X155289408Y-92074501D01*
X155289406Y-92074500D01*
X155289398Y-92074500D01*
X153560602Y-92074500D01*
X153560594Y-92074500D01*
X153560591Y-92074501D01*
X153542684Y-92076426D01*
X153542681Y-92076426D01*
X153542680Y-92076427D01*
X153513480Y-92087318D01*
X153502128Y-92091552D01*
X153467486Y-92117486D01*
X153441552Y-92152128D01*
X153441551Y-92152131D01*
X153426707Y-92191931D01*
X153426426Y-92192684D01*
X153424501Y-92210591D01*
X153424500Y-92210610D01*
X153424500Y-92750500D01*
X153418431Y-92788818D01*
X153400818Y-92823385D01*
X153373385Y-92850818D01*
X153338818Y-92868431D01*
X153300500Y-92874500D01*
X151081597Y-92874500D01*
X151043279Y-92868431D01*
X151008712Y-92850818D01*
X150981279Y-92823385D01*
X150963666Y-92788818D01*
X150958658Y-92766686D01*
X150956527Y-92750500D01*
X150954145Y-92732406D01*
X150950266Y-92712906D01*
X150933302Y-92649595D01*
X150926911Y-92630768D01*
X150916556Y-92605768D01*
X150901836Y-92570230D01*
X150901835Y-92570227D01*
X150897218Y-92560865D01*
X150893034Y-92552380D01*
X150860262Y-92495618D01*
X150854685Y-92487271D01*
X150849225Y-92479099D01*
X150849029Y-92478844D01*
X150809317Y-92427089D01*
X150796207Y-92412140D01*
X150749860Y-92365793D01*
X150734911Y-92352683D01*
X150682912Y-92312783D01*
X150682900Y-92312774D01*
X150666383Y-92301739D01*
X150666382Y-92301738D01*
X150609620Y-92268966D01*
X150609597Y-92268954D01*
X150609581Y-92268946D01*
X150606651Y-92267501D01*
X150574970Y-92245109D01*
X150551759Y-92214023D01*
X150539290Y-92177285D01*
X150537500Y-92156292D01*
X150537500Y-91914787D01*
X150528835Y-91871228D01*
X150528834Y-91871226D01*
X150528834Y-91871224D01*
X150511835Y-91830186D01*
X150511834Y-91830184D01*
X150511833Y-91830182D01*
X150487158Y-91793253D01*
X150487153Y-91793247D01*
X150455749Y-91761844D01*
X150455748Y-91761843D01*
X149788753Y-91094847D01*
X149788746Y-91094841D01*
X149751817Y-91070166D01*
X149731295Y-91061665D01*
X149710776Y-91053166D01*
X149710774Y-91053165D01*
X149710773Y-91053165D01*
X149710771Y-91053164D01*
X149667212Y-91044500D01*
X149667210Y-91044500D01*
X145057790Y-91044500D01*
X145057788Y-91044500D01*
X145014225Y-91053165D01*
X145014222Y-91053166D01*
X144973190Y-91070162D01*
X144973175Y-91070170D01*
X144936253Y-91094840D01*
X144936246Y-91094846D01*
X144263252Y-91767843D01*
X144263251Y-91767844D01*
X144231846Y-91799247D01*
X144231841Y-91799253D01*
X144207166Y-91836182D01*
X144190165Y-91877226D01*
X144190164Y-91877228D01*
X144181500Y-91920787D01*
X144181500Y-92131292D01*
X144175431Y-92169610D01*
X144157818Y-92204177D01*
X144130385Y-92231610D01*
X144112349Y-92242501D01*
X144109418Y-92243946D01*
X144109391Y-92243960D01*
X144109380Y-92243966D01*
X144091395Y-92254349D01*
X144052616Y-92276739D01*
X144036099Y-92287774D01*
X144036099Y-92287775D01*
X144036092Y-92287780D01*
X144036088Y-92287783D01*
X144019390Y-92300595D01*
X143984093Y-92327679D01*
X143969140Y-92340792D01*
X143922792Y-92387140D01*
X143909679Y-92402093D01*
X143869775Y-92454099D01*
X143869774Y-92454099D01*
X143858739Y-92470616D01*
X143858738Y-92470618D01*
X143825966Y-92527380D01*
X143825961Y-92527391D01*
X143817164Y-92545227D01*
X143817163Y-92545230D01*
X143792096Y-92605748D01*
X143792091Y-92605760D01*
X143785693Y-92624611D01*
X143768736Y-92687896D01*
X143768736Y-92687897D01*
X143764855Y-92707406D01*
X143756301Y-92772376D01*
X143756299Y-92772393D01*
X143755877Y-92778844D01*
X143755000Y-92792228D01*
X143755000Y-93357772D01*
X143755265Y-93361819D01*
X143756299Y-93377606D01*
X143756301Y-93377623D01*
X143764855Y-93442593D01*
X143768736Y-93462102D01*
X143768736Y-93462103D01*
X143775434Y-93487102D01*
X143785698Y-93525405D01*
X143789634Y-93537000D01*
X143792091Y-93544239D01*
X143792096Y-93544251D01*
X143817163Y-93604769D01*
X143817164Y-93604772D01*
X143817171Y-93604786D01*
X143825966Y-93622620D01*
X143858738Y-93679382D01*
X143858739Y-93679383D01*
X143869774Y-93695900D01*
X143869781Y-93695909D01*
X143869783Y-93695912D01*
X143909683Y-93747911D01*
X143922793Y-93762860D01*
X143969140Y-93809207D01*
X143984089Y-93822317D01*
X144036088Y-93862217D01*
X144036099Y-93862224D01*
X144036099Y-93862225D01*
X144044271Y-93867685D01*
X144052618Y-93873262D01*
X144109380Y-93906034D01*
X144127214Y-93914829D01*
X144127219Y-93914831D01*
X144127227Y-93914835D01*
X144127230Y-93914836D01*
X144187748Y-93939903D01*
X144187760Y-93939908D01*
X144187764Y-93939909D01*
X144187768Y-93939911D01*
X144206595Y-93946302D01*
X144269906Y-93963266D01*
X144289406Y-93967145D01*
X144354388Y-93975700D01*
X144374228Y-93977000D01*
X144504733Y-93977000D01*
X144543051Y-93983069D01*
X144577618Y-94000682D01*
X144605051Y-94028115D01*
X144622664Y-94062682D01*
X144628733Y-94101000D01*
X144622664Y-94139318D01*
X144605051Y-94173885D01*
X144592414Y-94188681D01*
X144281251Y-94499844D01*
X144249846Y-94531247D01*
X144249841Y-94531253D01*
X144225166Y-94568182D01*
X144208165Y-94609226D01*
X144208164Y-94609228D01*
X144199500Y-94652787D01*
X144199500Y-94706292D01*
X144193431Y-94744610D01*
X144175818Y-94779177D01*
X144148385Y-94806610D01*
X144130349Y-94817501D01*
X144127418Y-94818946D01*
X144127391Y-94818960D01*
X144127380Y-94818966D01*
X144127368Y-94818973D01*
X144070616Y-94851739D01*
X144054099Y-94862774D01*
X144054099Y-94862775D01*
X144054092Y-94862780D01*
X144054088Y-94862783D01*
X144046669Y-94868476D01*
X144002093Y-94902679D01*
X143987140Y-94915792D01*
X143940792Y-94962140D01*
X143927679Y-94977093D01*
X143905557Y-95005924D01*
X143888865Y-95027679D01*
X143887775Y-95029099D01*
X143887774Y-95029099D01*
X143876739Y-95045616D01*
X143866937Y-95062593D01*
X143843966Y-95102380D01*
X143843961Y-95102391D01*
X143835164Y-95120227D01*
X143835163Y-95120230D01*
X143810096Y-95180748D01*
X143810091Y-95180760D01*
X143808070Y-95186715D01*
X143804294Y-95197841D01*
X143803693Y-95199611D01*
X143786736Y-95262896D01*
X143786736Y-95262897D01*
X143786734Y-95262906D01*
X143783941Y-95276946D01*
X143782855Y-95282406D01*
X143774301Y-95347376D01*
X143774299Y-95347393D01*
X143773631Y-95357593D01*
X143773000Y-95367228D01*
X143773000Y-95932772D01*
X143773113Y-95934492D01*
X143774299Y-95952606D01*
X143774301Y-95952623D01*
X143779387Y-95991254D01*
X143782855Y-96017594D01*
X143786641Y-96036627D01*
X143786736Y-96037102D01*
X143786736Y-96037103D01*
X143803693Y-96100388D01*
X143803695Y-96100394D01*
X143803698Y-96100405D01*
X143807446Y-96111445D01*
X143810091Y-96119239D01*
X143810096Y-96119251D01*
X143835163Y-96179769D01*
X143835164Y-96179772D01*
X143835171Y-96179786D01*
X143843966Y-96197620D01*
X143860008Y-96225405D01*
X143876739Y-96254383D01*
X143887774Y-96270900D01*
X143887781Y-96270909D01*
X143887783Y-96270912D01*
X143904505Y-96292705D01*
X143927450Y-96322608D01*
X143927683Y-96322911D01*
X143940793Y-96337860D01*
X143987140Y-96384207D01*
X144002089Y-96397317D01*
X144054088Y-96437217D01*
X144054099Y-96437224D01*
X144054099Y-96437225D01*
X144062271Y-96442685D01*
X144070618Y-96448262D01*
X144103270Y-96467114D01*
X144133419Y-96491528D01*
X144154549Y-96524065D01*
X144164590Y-96561538D01*
X144162559Y-96600281D01*
X144148656Y-96636500D01*
X144124241Y-96666650D01*
X144091704Y-96687780D01*
X144054231Y-96697821D01*
X144041269Y-96698500D01*
X131308767Y-96698500D01*
X131270449Y-96692431D01*
X131235882Y-96674818D01*
X131221086Y-96662181D01*
X129529348Y-94970443D01*
X134824500Y-94970443D01*
X134824500Y-95029556D01*
X134829733Y-95062593D01*
X134833746Y-95087930D01*
X134838445Y-95102391D01*
X134852012Y-95144146D01*
X134865492Y-95170601D01*
X134876805Y-95192804D01*
X134878846Y-95196808D01*
X134913579Y-95244616D01*
X134955383Y-95286420D01*
X134986831Y-95309267D01*
X135003195Y-95321156D01*
X135036748Y-95338252D01*
X135055853Y-95347987D01*
X135055855Y-95347987D01*
X135055858Y-95347989D01*
X135112070Y-95366254D01*
X135135722Y-95370000D01*
X135170444Y-95375500D01*
X135170448Y-95375500D01*
X135229556Y-95375500D01*
X135255497Y-95371390D01*
X135287930Y-95366254D01*
X135344142Y-95347989D01*
X135396805Y-95321156D01*
X135427819Y-95298623D01*
X135444616Y-95286420D01*
X135444618Y-95286417D01*
X135444622Y-95286415D01*
X135486415Y-95244622D01*
X135486417Y-95244618D01*
X135486420Y-95244616D01*
X135514043Y-95206595D01*
X135521156Y-95196805D01*
X135547989Y-95144142D01*
X135566254Y-95087930D01*
X135571699Y-95053553D01*
X135575500Y-95029556D01*
X135575500Y-94970443D01*
X137724500Y-94970443D01*
X137724500Y-95029556D01*
X137729733Y-95062593D01*
X137733746Y-95087930D01*
X137738445Y-95102391D01*
X137752012Y-95144146D01*
X137765492Y-95170601D01*
X137776805Y-95192804D01*
X137778846Y-95196808D01*
X137813579Y-95244616D01*
X137855383Y-95286420D01*
X137886831Y-95309267D01*
X137903195Y-95321156D01*
X137936748Y-95338252D01*
X137955853Y-95347987D01*
X137955855Y-95347987D01*
X137955858Y-95347989D01*
X138012070Y-95366254D01*
X138035722Y-95370000D01*
X138070444Y-95375500D01*
X138070448Y-95375500D01*
X138129556Y-95375500D01*
X138155497Y-95371390D01*
X138187930Y-95366254D01*
X138244142Y-95347989D01*
X138296805Y-95321156D01*
X138327819Y-95298623D01*
X138344616Y-95286420D01*
X138344618Y-95286417D01*
X138344622Y-95286415D01*
X138386415Y-95244622D01*
X138386417Y-95244618D01*
X138386420Y-95244616D01*
X138414043Y-95206595D01*
X138421156Y-95196805D01*
X138447989Y-95144142D01*
X138466254Y-95087930D01*
X138471699Y-95053553D01*
X138475500Y-95029556D01*
X138475500Y-94970443D01*
X138469743Y-94934097D01*
X138466254Y-94912070D01*
X138447989Y-94855858D01*
X138447987Y-94855855D01*
X138447987Y-94855853D01*
X138429860Y-94820278D01*
X138421156Y-94803195D01*
X138410962Y-94789164D01*
X138386420Y-94755383D01*
X138344616Y-94713579D01*
X138296808Y-94678846D01*
X138296807Y-94678845D01*
X138296805Y-94678844D01*
X138276541Y-94668519D01*
X138244146Y-94652012D01*
X138217370Y-94643312D01*
X138187930Y-94633746D01*
X138187926Y-94633745D01*
X138187925Y-94633745D01*
X138129556Y-94624500D01*
X138129552Y-94624500D01*
X138070448Y-94624500D01*
X138070444Y-94624500D01*
X138012074Y-94633745D01*
X138012071Y-94633745D01*
X138012070Y-94633746D01*
X137993844Y-94639667D01*
X137955853Y-94652012D01*
X137903191Y-94678846D01*
X137855383Y-94713579D01*
X137813579Y-94755383D01*
X137778846Y-94803191D01*
X137752012Y-94855853D01*
X137744885Y-94877788D01*
X137734489Y-94909785D01*
X137733745Y-94912074D01*
X137724500Y-94970443D01*
X135575500Y-94970443D01*
X135569743Y-94934097D01*
X135566254Y-94912070D01*
X135547989Y-94855858D01*
X135547987Y-94855855D01*
X135547987Y-94855853D01*
X135529860Y-94820278D01*
X135521156Y-94803195D01*
X135510962Y-94789164D01*
X135486420Y-94755383D01*
X135444616Y-94713579D01*
X135396808Y-94678846D01*
X135396807Y-94678845D01*
X135396805Y-94678844D01*
X135376541Y-94668519D01*
X135344146Y-94652012D01*
X135317370Y-94643312D01*
X135287930Y-94633746D01*
X135287926Y-94633745D01*
X135287925Y-94633745D01*
X135229556Y-94624500D01*
X135229552Y-94624500D01*
X135170448Y-94624500D01*
X135170444Y-94624500D01*
X135112074Y-94633745D01*
X135112071Y-94633745D01*
X135112070Y-94633746D01*
X135093844Y-94639667D01*
X135055853Y-94652012D01*
X135003191Y-94678846D01*
X134955383Y-94713579D01*
X134913579Y-94755383D01*
X134878846Y-94803191D01*
X134852012Y-94855853D01*
X134844885Y-94877788D01*
X134834489Y-94909785D01*
X134833745Y-94912074D01*
X134824500Y-94970443D01*
X129529348Y-94970443D01*
X129386819Y-94827914D01*
X129364015Y-94796528D01*
X129352027Y-94759631D01*
X129350500Y-94740233D01*
X129350500Y-93245610D01*
X129350500Y-93245602D01*
X129348573Y-93227680D01*
X129333449Y-93187131D01*
X129307514Y-93152486D01*
X129278967Y-93131116D01*
X129272871Y-93126552D01*
X129272869Y-93126551D01*
X129232320Y-93111427D01*
X129232316Y-93111426D01*
X129214408Y-93109501D01*
X129214406Y-93109500D01*
X129214398Y-93109500D01*
X127485602Y-93109500D01*
X127485594Y-93109500D01*
X127485591Y-93109501D01*
X127467684Y-93111426D01*
X127467681Y-93111426D01*
X127467680Y-93111427D01*
X127427131Y-93126551D01*
X127427130Y-93126551D01*
X127427129Y-93126552D01*
X127423809Y-93129038D01*
X127389496Y-93147142D01*
X127351268Y-93153756D01*
X127312868Y-93148234D01*
X127278053Y-93131116D01*
X127250231Y-93104078D01*
X127232127Y-93069765D01*
X127225513Y-93031537D01*
X127225500Y-93029769D01*
X127225500Y-92770443D01*
X134824500Y-92770443D01*
X134824500Y-92829556D01*
X134830899Y-92869957D01*
X134833746Y-92887930D01*
X134838705Y-92903191D01*
X134852012Y-92944146D01*
X134878846Y-92996808D01*
X134913579Y-93044616D01*
X134955383Y-93086420D01*
X134989804Y-93111427D01*
X135003195Y-93121156D01*
X135022743Y-93131116D01*
X135055853Y-93147987D01*
X135055855Y-93147987D01*
X135055858Y-93147989D01*
X135112070Y-93166254D01*
X135141259Y-93170877D01*
X135170444Y-93175500D01*
X135170448Y-93175500D01*
X135229556Y-93175500D01*
X135255497Y-93171390D01*
X135287930Y-93166254D01*
X135344142Y-93147989D01*
X135396805Y-93121156D01*
X135423650Y-93101651D01*
X135444616Y-93086420D01*
X135444618Y-93086417D01*
X135444622Y-93086415D01*
X135486415Y-93044622D01*
X135486417Y-93044618D01*
X135486420Y-93044616D01*
X135510065Y-93012070D01*
X135521156Y-92996805D01*
X135547989Y-92944142D01*
X135566254Y-92887930D01*
X135573225Y-92843917D01*
X135575500Y-92829556D01*
X135575500Y-92770443D01*
X137724500Y-92770443D01*
X137724500Y-92829556D01*
X137730899Y-92869957D01*
X137733746Y-92887930D01*
X137738705Y-92903191D01*
X137752012Y-92944146D01*
X137778846Y-92996808D01*
X137813579Y-93044616D01*
X137855383Y-93086420D01*
X137889804Y-93111427D01*
X137903195Y-93121156D01*
X137922743Y-93131116D01*
X137955853Y-93147987D01*
X137955855Y-93147987D01*
X137955858Y-93147989D01*
X138012070Y-93166254D01*
X138041259Y-93170877D01*
X138070444Y-93175500D01*
X138070448Y-93175500D01*
X138129556Y-93175500D01*
X138155497Y-93171390D01*
X138187930Y-93166254D01*
X138244142Y-93147989D01*
X138296805Y-93121156D01*
X138323650Y-93101651D01*
X138344616Y-93086420D01*
X138344618Y-93086417D01*
X138344622Y-93086415D01*
X138386415Y-93044622D01*
X138386417Y-93044618D01*
X138386420Y-93044616D01*
X138410065Y-93012070D01*
X138421156Y-92996805D01*
X138447989Y-92944142D01*
X138466254Y-92887930D01*
X138473225Y-92843917D01*
X138475500Y-92829556D01*
X138475500Y-92770443D01*
X138469475Y-92732406D01*
X138466254Y-92712070D01*
X138447989Y-92655858D01*
X138447987Y-92655855D01*
X138447987Y-92655853D01*
X138432068Y-92624611D01*
X138421156Y-92603195D01*
X138418922Y-92600120D01*
X138386420Y-92555383D01*
X138344616Y-92513579D01*
X138296808Y-92478846D01*
X138296807Y-92478845D01*
X138296805Y-92478844D01*
X138280361Y-92470465D01*
X138244146Y-92452012D01*
X138225916Y-92446089D01*
X138187930Y-92433746D01*
X138187926Y-92433745D01*
X138187925Y-92433745D01*
X138129556Y-92424500D01*
X138129552Y-92424500D01*
X138070448Y-92424500D01*
X138070444Y-92424500D01*
X138012074Y-92433745D01*
X138012071Y-92433745D01*
X138012070Y-92433746D01*
X137993844Y-92439667D01*
X137955853Y-92452012D01*
X137903191Y-92478846D01*
X137855383Y-92513579D01*
X137813579Y-92555383D01*
X137778846Y-92603191D01*
X137752012Y-92655853D01*
X137741598Y-92687906D01*
X137735262Y-92707406D01*
X137733745Y-92712074D01*
X137724500Y-92770443D01*
X135575500Y-92770443D01*
X135569475Y-92732406D01*
X135566254Y-92712070D01*
X135547989Y-92655858D01*
X135547987Y-92655855D01*
X135547987Y-92655853D01*
X135532068Y-92624611D01*
X135521156Y-92603195D01*
X135518922Y-92600120D01*
X135486420Y-92555383D01*
X135444616Y-92513579D01*
X135396808Y-92478846D01*
X135396807Y-92478845D01*
X135396805Y-92478844D01*
X135380361Y-92470465D01*
X135344146Y-92452012D01*
X135325916Y-92446089D01*
X135287930Y-92433746D01*
X135287926Y-92433745D01*
X135287925Y-92433745D01*
X135229556Y-92424500D01*
X135229552Y-92424500D01*
X135170448Y-92424500D01*
X135170444Y-92424500D01*
X135112074Y-92433745D01*
X135112071Y-92433745D01*
X135112070Y-92433746D01*
X135093844Y-92439667D01*
X135055853Y-92452012D01*
X135003191Y-92478846D01*
X134955383Y-92513579D01*
X134913579Y-92555383D01*
X134878846Y-92603191D01*
X134852012Y-92655853D01*
X134841598Y-92687906D01*
X134835262Y-92707406D01*
X134833745Y-92712074D01*
X134824500Y-92770443D01*
X127225500Y-92770443D01*
X127225500Y-92083660D01*
X127231569Y-92045342D01*
X127249182Y-92010775D01*
X127276615Y-91983342D01*
X127311182Y-91965729D01*
X127349500Y-91959660D01*
X127387818Y-91965729D01*
X127422385Y-91983342D01*
X127449818Y-92010775D01*
X127458855Y-92025202D01*
X127473831Y-92053220D01*
X127490804Y-92084975D01*
X127490810Y-92084985D01*
X127545415Y-92166707D01*
X127545425Y-92166721D01*
X127607788Y-92242710D01*
X127677289Y-92312211D01*
X127677294Y-92312215D01*
X127677295Y-92312216D01*
X127753284Y-92374579D01*
X127835020Y-92429193D01*
X127921715Y-92475532D01*
X127970202Y-92495616D01*
X128012529Y-92513149D01*
X128012533Y-92513150D01*
X128012535Y-92513151D01*
X128106605Y-92541687D01*
X128203019Y-92560865D01*
X128300849Y-92570500D01*
X128300852Y-92570500D01*
X128399148Y-92570500D01*
X128399151Y-92570500D01*
X128496981Y-92560865D01*
X128593395Y-92541687D01*
X128687465Y-92513151D01*
X128778285Y-92475532D01*
X128864980Y-92429193D01*
X128946716Y-92374579D01*
X129022705Y-92312216D01*
X129092216Y-92242705D01*
X129154579Y-92166716D01*
X129209193Y-92084980D01*
X129255532Y-91998285D01*
X129293151Y-91907465D01*
X129321687Y-91813395D01*
X129340865Y-91716981D01*
X129350500Y-91619151D01*
X129350500Y-91520849D01*
X129340865Y-91423019D01*
X129321687Y-91326605D01*
X129293151Y-91232535D01*
X129285795Y-91214777D01*
X129279967Y-91200706D01*
X129255532Y-91141715D01*
X129209193Y-91055020D01*
X129154579Y-90973284D01*
X129092216Y-90897295D01*
X129092215Y-90897294D01*
X129092211Y-90897289D01*
X129022710Y-90827788D01*
X128946721Y-90765425D01*
X128946712Y-90765418D01*
X128927532Y-90752603D01*
X128899043Y-90726268D01*
X128880087Y-90692419D01*
X128872518Y-90654369D01*
X128877077Y-90615842D01*
X128893319Y-90580610D01*
X128919654Y-90552121D01*
X128953503Y-90533165D01*
X128991553Y-90525596D01*
X128996422Y-90525500D01*
X136167033Y-90525500D01*
X136205351Y-90531569D01*
X136239918Y-90549182D01*
X136267351Y-90576615D01*
X136284964Y-90611182D01*
X136291033Y-90649500D01*
X136286806Y-90681599D01*
X136283920Y-90692364D01*
X136283918Y-90692376D01*
X136274500Y-90763917D01*
X136274500Y-90836082D01*
X136283918Y-90907623D01*
X136283921Y-90907638D01*
X136302596Y-90977331D01*
X136302598Y-90977336D01*
X136329799Y-91043005D01*
X136330212Y-91044002D01*
X136330215Y-91044008D01*
X136330219Y-91044015D01*
X136366290Y-91106493D01*
X136366291Y-91106495D01*
X136410222Y-91163747D01*
X136410228Y-91163754D01*
X136461245Y-91214771D01*
X136461252Y-91214777D01*
X136518504Y-91258708D01*
X136518506Y-91258709D01*
X136564358Y-91285181D01*
X136580998Y-91294788D01*
X136647668Y-91322403D01*
X136717372Y-91341081D01*
X136774608Y-91348616D01*
X136788917Y-91350500D01*
X136788918Y-91350500D01*
X136861083Y-91350500D01*
X136873006Y-91348930D01*
X136932628Y-91341081D01*
X137002332Y-91322403D01*
X137069002Y-91294788D01*
X137131498Y-91258706D01*
X137188749Y-91214776D01*
X137239776Y-91163749D01*
X137283706Y-91106498D01*
X137319788Y-91044002D01*
X137347403Y-90977332D01*
X137366081Y-90907628D01*
X137373067Y-90854561D01*
X137373533Y-90852988D01*
X137373533Y-90851349D01*
X137379030Y-90834429D01*
X137384085Y-90817364D01*
X137385014Y-90816012D01*
X137385521Y-90814452D01*
X137395978Y-90800058D01*
X137406059Y-90785391D01*
X137408249Y-90783142D01*
X137553576Y-90637815D01*
X137584960Y-90615015D01*
X137621857Y-90603027D01*
X137641254Y-90601500D01*
X148975553Y-90601500D01*
X149013871Y-90607569D01*
X149048438Y-90625182D01*
X149051038Y-90627123D01*
X149093506Y-90659709D01*
X149155984Y-90695780D01*
X149155998Y-90695788D01*
X149222668Y-90723403D01*
X149292372Y-90742081D01*
X149349608Y-90749616D01*
X149363917Y-90751500D01*
X149363918Y-90751500D01*
X149436083Y-90751500D01*
X149448858Y-90749818D01*
X149507628Y-90742081D01*
X149577332Y-90723403D01*
X149644002Y-90695788D01*
X149706498Y-90659706D01*
X149763749Y-90615776D01*
X149814776Y-90564749D01*
X149858706Y-90507498D01*
X149894788Y-90445002D01*
X149922403Y-90378332D01*
X149941081Y-90308628D01*
X149950500Y-90237082D01*
X149950500Y-90164918D01*
X149941081Y-90093372D01*
X149922403Y-90023668D01*
X149918059Y-90013181D01*
X149901397Y-89972952D01*
X149892340Y-89935228D01*
X149895384Y-89896552D01*
X149910231Y-89860709D01*
X149935427Y-89831209D01*
X149968506Y-89810939D01*
X150006230Y-89801882D01*
X150015958Y-89801500D01*
X155830555Y-89801500D01*
X155868873Y-89807569D01*
X155903440Y-89825182D01*
X155918236Y-89837819D01*
X158381571Y-92301155D01*
X158381579Y-92301161D01*
X158418502Y-92325832D01*
X158418510Y-92325837D01*
X158422967Y-92327683D01*
X158447522Y-92337853D01*
X158447525Y-92337855D01*
X158454616Y-92340792D01*
X158459546Y-92342834D01*
X158459548Y-92342834D01*
X158459550Y-92342835D01*
X158503109Y-92351500D01*
X158503112Y-92351500D01*
X180746890Y-92351500D01*
X180790449Y-92342835D01*
X180790449Y-92342834D01*
X180790454Y-92342834D01*
X180831492Y-92325835D01*
X180868426Y-92301157D01*
X181551157Y-91618426D01*
X181575835Y-91581492D01*
X181576871Y-91578991D01*
X181578318Y-91575499D01*
X181586290Y-91556252D01*
X181592834Y-91540454D01*
X181595273Y-91528195D01*
X181601500Y-91496890D01*
X181601500Y-89175784D01*
X181607569Y-89137466D01*
X181625182Y-89102899D01*
X181652615Y-89075466D01*
X181687182Y-89057853D01*
X181725500Y-89051784D01*
X181763818Y-89057853D01*
X181798385Y-89075466D01*
X181813181Y-89088103D01*
X181867289Y-89142211D01*
X181867294Y-89142215D01*
X181867295Y-89142216D01*
X181943284Y-89204579D01*
X182025020Y-89259193D01*
X182111715Y-89305532D01*
X182170706Y-89329967D01*
X182202529Y-89343149D01*
X182202533Y-89343150D01*
X182202535Y-89343151D01*
X182296605Y-89371687D01*
X182393019Y-89390865D01*
X182490849Y-89400500D01*
X182490852Y-89400500D01*
X182589148Y-89400500D01*
X182589151Y-89400500D01*
X182686981Y-89390865D01*
X182783395Y-89371687D01*
X182877465Y-89343151D01*
X182968285Y-89305532D01*
X183054980Y-89259193D01*
X183136716Y-89204579D01*
X183212705Y-89142216D01*
X183282216Y-89072705D01*
X183344579Y-88996716D01*
X183379751Y-88944076D01*
X183406085Y-88915589D01*
X183439934Y-88896632D01*
X183477984Y-88889064D01*
X183516511Y-88893623D01*
G37*
G04 #@! TD.AperFunction*
G04 #@! TA.AperFunction,Conductor*
G36*
X166662137Y-78934569D02*
G01*
X166696704Y-78952182D01*
X166711500Y-78964819D01*
X170248681Y-82502000D01*
X170271485Y-82533386D01*
X170283473Y-82570283D01*
X170285000Y-82589681D01*
X170285000Y-83122705D01*
X170285000Y-83167125D01*
X170285000Y-83167127D01*
X170284999Y-83167127D01*
X170293664Y-83210686D01*
X170293665Y-83210688D01*
X170310666Y-83251732D01*
X170335341Y-83288661D01*
X170335347Y-83288668D01*
X170888181Y-83841501D01*
X170910985Y-83872887D01*
X170922973Y-83909784D01*
X170924500Y-83929182D01*
X170924500Y-85968101D01*
X170918431Y-86006419D01*
X170900818Y-86040986D01*
X170888181Y-86055782D01*
X170863583Y-86080379D01*
X170863579Y-86080383D01*
X170828846Y-86128191D01*
X170802012Y-86180853D01*
X170783745Y-86237074D01*
X170774500Y-86295443D01*
X170774500Y-86354556D01*
X170783265Y-86409895D01*
X170783746Y-86412930D01*
X170796089Y-86450916D01*
X170802012Y-86469146D01*
X170828846Y-86521808D01*
X170863579Y-86569616D01*
X170905383Y-86611420D01*
X170945376Y-86640475D01*
X170953195Y-86646156D01*
X170986532Y-86663142D01*
X171005853Y-86672987D01*
X171005855Y-86672987D01*
X171005858Y-86672989D01*
X171062070Y-86691254D01*
X171091259Y-86695877D01*
X171120444Y-86700500D01*
X171120448Y-86700500D01*
X171179556Y-86700500D01*
X171205497Y-86696390D01*
X171237930Y-86691254D01*
X171294142Y-86672989D01*
X171346805Y-86646156D01*
X171373650Y-86626651D01*
X171394616Y-86611420D01*
X171394618Y-86611417D01*
X171394622Y-86611415D01*
X171399819Y-86606218D01*
X171431205Y-86583414D01*
X171468102Y-86571426D01*
X171506898Y-86571426D01*
X171543795Y-86583414D01*
X171557796Y-86591750D01*
X171567150Y-86598187D01*
X171580378Y-86611415D01*
X171628195Y-86646156D01*
X171661556Y-86663154D01*
X171668284Y-86667784D01*
X171676499Y-86675590D01*
X171685668Y-86682251D01*
X171690477Y-86688870D01*
X171696409Y-86694506D01*
X171701810Y-86704468D01*
X171708472Y-86713637D01*
X171711000Y-86721418D01*
X171714900Y-86728611D01*
X171716958Y-86739754D01*
X171720461Y-86750534D01*
X171720461Y-86758717D01*
X171721947Y-86766761D01*
X171720461Y-86777990D01*
X171720462Y-86789330D01*
X171717932Y-86797115D01*
X171716860Y-86805222D01*
X171711976Y-86815445D01*
X171708473Y-86826227D01*
X171703663Y-86832846D01*
X171700137Y-86840229D01*
X171692330Y-86848444D01*
X171685670Y-86857613D01*
X171685670Y-86857614D01*
X171563303Y-86979981D01*
X171563302Y-86979982D01*
X171531897Y-87011385D01*
X171531892Y-87011391D01*
X171507217Y-87048320D01*
X171490216Y-87089364D01*
X171490215Y-87089366D01*
X171481551Y-87132925D01*
X171481551Y-87132928D01*
X171481551Y-88984841D01*
X171481551Y-89029261D01*
X171481551Y-89029263D01*
X171481550Y-89029263D01*
X171490215Y-89072822D01*
X171490216Y-89072824D01*
X171490217Y-89072827D01*
X171496545Y-89088103D01*
X171507217Y-89113868D01*
X171531892Y-89150797D01*
X171531898Y-89150804D01*
X171788181Y-89407086D01*
X171810985Y-89438472D01*
X171822973Y-89475369D01*
X171824500Y-89494767D01*
X171824500Y-89529556D01*
X171832550Y-89580378D01*
X171833746Y-89587930D01*
X171839811Y-89606595D01*
X171852012Y-89644146D01*
X171878846Y-89696808D01*
X171913579Y-89744616D01*
X171955383Y-89786420D01*
X171988338Y-89810362D01*
X172003195Y-89821156D01*
X172034783Y-89837251D01*
X172055853Y-89847987D01*
X172055855Y-89847987D01*
X172055858Y-89847989D01*
X172112070Y-89866254D01*
X172141259Y-89870877D01*
X172170444Y-89875500D01*
X172170448Y-89875500D01*
X172229556Y-89875500D01*
X172255497Y-89871390D01*
X172287930Y-89866254D01*
X172344142Y-89847989D01*
X172396805Y-89821156D01*
X172435787Y-89792834D01*
X172444616Y-89786420D01*
X172444618Y-89786417D01*
X172444622Y-89786415D01*
X172486415Y-89744622D01*
X172486417Y-89744618D01*
X172486420Y-89744616D01*
X172516869Y-89702705D01*
X172521156Y-89696805D01*
X172547989Y-89644142D01*
X172566254Y-89587930D01*
X172573056Y-89544985D01*
X172575500Y-89529556D01*
X172575500Y-89470443D01*
X172568172Y-89424182D01*
X172566254Y-89412070D01*
X172547989Y-89355858D01*
X172547987Y-89355855D01*
X172547987Y-89355853D01*
X172538252Y-89336748D01*
X172521156Y-89303195D01*
X172516808Y-89297210D01*
X172486420Y-89255383D01*
X172444616Y-89213579D01*
X172396808Y-89178846D01*
X172396807Y-89178845D01*
X172396805Y-89178844D01*
X172370728Y-89165557D01*
X172344146Y-89152012D01*
X172313997Y-89142216D01*
X172287930Y-89133746D01*
X172287926Y-89133745D01*
X172287925Y-89133745D01*
X172229556Y-89124500D01*
X172229552Y-89124500D01*
X172194767Y-89124500D01*
X172185126Y-89122973D01*
X172175369Y-89122973D01*
X172166088Y-89119957D01*
X172156449Y-89118431D01*
X172147754Y-89114001D01*
X172138472Y-89110985D01*
X172130575Y-89105247D01*
X172121882Y-89100818D01*
X172107086Y-89088181D01*
X171968870Y-88949965D01*
X171946066Y-88918579D01*
X171934078Y-88881682D01*
X171932551Y-88862284D01*
X171932551Y-88729650D01*
X171938620Y-88691332D01*
X171956233Y-88656765D01*
X171983666Y-88629332D01*
X172018233Y-88611719D01*
X172056551Y-88605650D01*
X172075947Y-88607176D01*
X172088608Y-88609182D01*
X172128495Y-88615500D01*
X172128499Y-88615500D01*
X172187607Y-88615500D01*
X172213548Y-88611390D01*
X172245981Y-88606254D01*
X172302193Y-88587989D01*
X172354856Y-88561156D01*
X172393157Y-88533329D01*
X172402667Y-88526420D01*
X172402669Y-88526417D01*
X172402673Y-88526415D01*
X172444466Y-88484622D01*
X172444468Y-88484618D01*
X172444471Y-88484616D01*
X172470237Y-88449151D01*
X172479207Y-88436805D01*
X172506040Y-88384142D01*
X172524305Y-88327930D01*
X172530663Y-88287788D01*
X172533551Y-88269556D01*
X172533551Y-88234766D01*
X172539620Y-88196448D01*
X172557233Y-88161881D01*
X172569870Y-88147085D01*
X173105137Y-87611819D01*
X173136523Y-87589015D01*
X173173420Y-87577027D01*
X173192818Y-87575500D01*
X173822212Y-87575500D01*
X173865771Y-87566835D01*
X173865771Y-87566834D01*
X173865776Y-87566834D01*
X173906814Y-87549835D01*
X173943748Y-87525157D01*
X174557085Y-86911818D01*
X174560371Y-86909431D01*
X174562970Y-86906304D01*
X174576004Y-86898072D01*
X174588471Y-86889015D01*
X174592336Y-86887759D01*
X174595773Y-86885589D01*
X174604628Y-86883765D01*
X174625368Y-86877027D01*
X174633371Y-86876025D01*
X174639060Y-86875500D01*
X174679552Y-86875500D01*
X174736088Y-86866545D01*
X174740105Y-86866175D01*
X174755476Y-86867176D01*
X174770896Y-86867176D01*
X174774764Y-86868432D01*
X174778819Y-86868697D01*
X174793127Y-86874399D01*
X174807793Y-86879164D01*
X174811083Y-86881554D01*
X174814858Y-86883059D01*
X174826711Y-86892909D01*
X174839180Y-86901968D01*
X174841567Y-86905254D01*
X174844696Y-86907854D01*
X174852928Y-86920891D01*
X174861984Y-86933354D01*
X174863239Y-86937218D01*
X174865411Y-86940657D01*
X174869211Y-86955595D01*
X174873973Y-86970251D01*
X174874436Y-86976137D01*
X174874975Y-86978255D01*
X174874806Y-86980840D01*
X174875500Y-86989650D01*
X174875500Y-87778790D01*
X174875500Y-87823210D01*
X174875500Y-87823212D01*
X174875499Y-87823212D01*
X174884164Y-87866771D01*
X174884165Y-87866773D01*
X174884166Y-87866776D01*
X174891723Y-87885020D01*
X174901166Y-87907817D01*
X174925841Y-87944746D01*
X174925847Y-87944753D01*
X177781246Y-90800152D01*
X177781253Y-90800158D01*
X177818182Y-90824833D01*
X177818184Y-90824834D01*
X177818186Y-90824835D01*
X177859224Y-90841834D01*
X177859227Y-90841834D01*
X177859228Y-90841835D01*
X177902787Y-90850500D01*
X177902790Y-90850500D01*
X177947209Y-90850500D01*
X178143101Y-90850500D01*
X178147114Y-90851135D01*
X178151163Y-90850762D01*
X178166198Y-90854158D01*
X178181419Y-90856569D01*
X178185041Y-90858414D01*
X178189005Y-90859310D01*
X178196553Y-90864280D01*
X178215986Y-90874182D01*
X178222354Y-90879133D01*
X178226745Y-90882782D01*
X178255378Y-90911415D01*
X178301679Y-90945055D01*
X178304789Y-90947639D01*
X178314952Y-90959218D01*
X178325853Y-90970120D01*
X178327698Y-90973741D01*
X178330380Y-90976797D01*
X178336469Y-90990953D01*
X178343467Y-91004687D01*
X178344102Y-91008701D01*
X178345709Y-91012436D01*
X178347125Y-91027785D01*
X178349536Y-91043005D01*
X178348900Y-91047018D01*
X178349274Y-91051068D01*
X178345877Y-91066105D01*
X178343467Y-91081323D01*
X178341621Y-91084944D01*
X178340726Y-91088910D01*
X178332855Y-91102151D01*
X178325855Y-91115891D01*
X178322017Y-91120384D01*
X178320903Y-91122259D01*
X178318958Y-91123965D01*
X178313221Y-91130682D01*
X178158720Y-91285183D01*
X178127338Y-91307985D01*
X178090441Y-91319973D01*
X178071043Y-91321500D01*
X158909919Y-91321500D01*
X158871601Y-91315431D01*
X158837034Y-91297818D01*
X158822238Y-91285181D01*
X156356332Y-88819275D01*
X156321283Y-88795857D01*
X156321284Y-88795857D01*
X156321282Y-88795856D01*
X156282336Y-88779724D01*
X156282330Y-88779722D01*
X156240994Y-88771500D01*
X156240992Y-88771500D01*
X143921089Y-88771500D01*
X143882771Y-88765431D01*
X143848204Y-88747818D01*
X143820771Y-88720385D01*
X143803158Y-88685818D01*
X143797089Y-88647500D01*
X143803158Y-88609182D01*
X143820771Y-88574615D01*
X143833408Y-88559819D01*
X148187819Y-84205407D01*
X148219205Y-84182603D01*
X148256102Y-84170615D01*
X148294898Y-84170615D01*
X148331795Y-84182603D01*
X148363181Y-84205407D01*
X148385985Y-84236793D01*
X148397973Y-84273690D01*
X148399500Y-84293088D01*
X148399500Y-87518101D01*
X148393431Y-87556419D01*
X148375818Y-87590986D01*
X148363181Y-87605782D01*
X148338583Y-87630379D01*
X148338579Y-87630383D01*
X148303846Y-87678191D01*
X148277012Y-87730853D01*
X148266288Y-87763860D01*
X148261437Y-87778790D01*
X148258745Y-87787074D01*
X148249500Y-87845443D01*
X148249500Y-87904556D01*
X148257778Y-87956818D01*
X148258746Y-87962930D01*
X148266377Y-87986415D01*
X148277012Y-88019146D01*
X148293103Y-88050724D01*
X148301322Y-88066856D01*
X148303846Y-88071808D01*
X148338579Y-88119616D01*
X148380383Y-88161420D01*
X148415733Y-88187102D01*
X148428195Y-88196156D01*
X148456245Y-88210448D01*
X148480853Y-88222987D01*
X148480855Y-88222987D01*
X148480858Y-88222989D01*
X148537070Y-88241254D01*
X148566259Y-88245877D01*
X148595444Y-88250500D01*
X148595448Y-88250500D01*
X148654556Y-88250500D01*
X148680497Y-88246390D01*
X148712930Y-88241254D01*
X148769142Y-88222989D01*
X148821805Y-88196156D01*
X148848650Y-88176651D01*
X148869616Y-88161420D01*
X148869618Y-88161417D01*
X148869622Y-88161415D01*
X148911415Y-88119622D01*
X148911417Y-88119618D01*
X148911420Y-88119616D01*
X148927698Y-88097210D01*
X148946156Y-88071805D01*
X148972989Y-88019142D01*
X148991254Y-87962930D01*
X148997767Y-87921808D01*
X149000500Y-87904556D01*
X149000500Y-87845443D01*
X148993822Y-87803284D01*
X148991254Y-87787070D01*
X148972989Y-87730858D01*
X148972987Y-87730855D01*
X148972987Y-87730853D01*
X148959305Y-87704002D01*
X148946156Y-87678195D01*
X148943922Y-87675120D01*
X148911420Y-87630383D01*
X148886819Y-87605782D01*
X148864015Y-87574396D01*
X148852027Y-87537499D01*
X148850500Y-87518101D01*
X148850500Y-85100003D01*
X150273000Y-85100003D01*
X150273000Y-86600003D01*
X150274546Y-86621630D01*
X150286736Y-86663142D01*
X150286738Y-86663146D01*
X150310124Y-86699536D01*
X150310124Y-86699537D01*
X150310125Y-86699538D01*
X150310126Y-86699539D01*
X150342823Y-86727871D01*
X150382177Y-86745843D01*
X150425000Y-86752000D01*
X150425003Y-86752000D01*
X150957764Y-86752000D01*
X150957772Y-86752000D01*
X150977612Y-86750700D01*
X151042594Y-86742145D01*
X151062094Y-86738266D01*
X151125405Y-86721302D01*
X151144232Y-86714911D01*
X151204786Y-86689829D01*
X151222620Y-86681034D01*
X151279382Y-86648262D01*
X151295912Y-86637217D01*
X151347911Y-86597317D01*
X151362860Y-86584207D01*
X151409207Y-86537860D01*
X151422317Y-86522911D01*
X151462217Y-86470912D01*
X151473262Y-86454382D01*
X151506034Y-86397620D01*
X151514829Y-86379786D01*
X151539911Y-86319232D01*
X151546302Y-86300405D01*
X151563266Y-86237094D01*
X151567145Y-86217594D01*
X151571658Y-86183313D01*
X151582677Y-86146116D01*
X151604651Y-86114144D01*
X151635430Y-86090526D01*
X151672000Y-86077576D01*
X151694597Y-86075500D01*
X152145445Y-86075500D01*
X152183763Y-86081569D01*
X152218330Y-86099182D01*
X152234857Y-86114459D01*
X152235140Y-86114177D01*
X152280383Y-86159420D01*
X152324787Y-86191680D01*
X152328195Y-86194156D01*
X152356294Y-86208473D01*
X152380853Y-86220987D01*
X152380855Y-86220987D01*
X152380858Y-86220989D01*
X152437070Y-86239254D01*
X152466259Y-86243877D01*
X152495444Y-86248500D01*
X152495448Y-86248500D01*
X152554556Y-86248500D01*
X152580497Y-86244390D01*
X152612930Y-86239254D01*
X152669142Y-86220989D01*
X152721805Y-86194156D01*
X152751912Y-86172282D01*
X152769616Y-86159420D01*
X152769618Y-86159417D01*
X152769622Y-86159415D01*
X152811415Y-86117622D01*
X152811417Y-86117618D01*
X152811420Y-86117616D01*
X152837609Y-86081569D01*
X152846156Y-86069805D01*
X152872989Y-86017142D01*
X152891254Y-85960930D01*
X152896390Y-85928497D01*
X152900500Y-85902556D01*
X152900500Y-85843443D01*
X152895363Y-85811015D01*
X152891254Y-85785070D01*
X152872989Y-85728858D01*
X152872987Y-85728855D01*
X152872987Y-85728853D01*
X152858030Y-85699500D01*
X152846156Y-85676195D01*
X152843087Y-85671971D01*
X152811420Y-85628383D01*
X152769616Y-85586579D01*
X152721808Y-85551846D01*
X152721807Y-85551845D01*
X152721805Y-85551844D01*
X152696240Y-85538818D01*
X152669146Y-85525012D01*
X152643521Y-85516686D01*
X152612930Y-85506746D01*
X152612926Y-85506745D01*
X152612925Y-85506745D01*
X152554556Y-85497500D01*
X152554552Y-85497500D01*
X152495448Y-85497500D01*
X152495444Y-85497500D01*
X152437074Y-85506745D01*
X152437071Y-85506745D01*
X152437070Y-85506746D01*
X152418844Y-85512667D01*
X152380853Y-85525012D01*
X152328191Y-85551846D01*
X152280383Y-85586579D01*
X152280379Y-85586583D01*
X152278782Y-85588181D01*
X152276957Y-85589506D01*
X152276682Y-85589742D01*
X152276663Y-85589720D01*
X152247396Y-85610985D01*
X152210499Y-85622973D01*
X152191101Y-85624500D01*
X151694597Y-85624500D01*
X151656279Y-85618431D01*
X151621712Y-85600818D01*
X151594279Y-85573385D01*
X151576666Y-85538818D01*
X151571658Y-85516686D01*
X151569132Y-85497500D01*
X151567145Y-85482406D01*
X151563266Y-85462906D01*
X151546302Y-85399595D01*
X151539911Y-85380768D01*
X151520333Y-85333501D01*
X151514836Y-85320230D01*
X151514835Y-85320227D01*
X151514829Y-85320214D01*
X151506034Y-85302380D01*
X151473262Y-85245618D01*
X151462625Y-85229698D01*
X151462225Y-85229099D01*
X151422320Y-85177093D01*
X151422317Y-85177089D01*
X151409207Y-85162140D01*
X151362860Y-85115793D01*
X151347911Y-85102683D01*
X151344414Y-85100000D01*
X151341709Y-85097924D01*
X151295912Y-85062783D01*
X151295900Y-85062774D01*
X151279383Y-85051739D01*
X151279382Y-85051738D01*
X151222620Y-85018966D01*
X151204786Y-85010171D01*
X151204787Y-85010171D01*
X151204772Y-85010164D01*
X151204769Y-85010163D01*
X151144251Y-84985096D01*
X151144239Y-84985091D01*
X151138056Y-84982992D01*
X151125405Y-84978698D01*
X151125394Y-84978695D01*
X151125388Y-84978693D01*
X151062102Y-84961736D01*
X151062099Y-84961735D01*
X151062094Y-84961734D01*
X151042594Y-84957855D01*
X151027841Y-84955912D01*
X150977623Y-84949301D01*
X150977606Y-84949299D01*
X150966959Y-84948602D01*
X150957772Y-84948000D01*
X150425000Y-84948000D01*
X150424996Y-84948000D01*
X150403369Y-84949546D01*
X150361857Y-84961736D01*
X150361853Y-84961738D01*
X150325463Y-84985124D01*
X150325462Y-84985124D01*
X150297129Y-85017822D01*
X150297128Y-85017824D01*
X150279157Y-85057176D01*
X150279156Y-85057178D01*
X150273001Y-85099993D01*
X150273000Y-85100003D01*
X148850500Y-85100003D01*
X148850500Y-84019767D01*
X148856569Y-83981449D01*
X148874182Y-83946882D01*
X148886819Y-83932086D01*
X150322828Y-82496077D01*
X151764645Y-81054259D01*
X151796028Y-81031458D01*
X151832925Y-81019470D01*
X151871721Y-81019470D01*
X151908618Y-81031458D01*
X151940004Y-81054262D01*
X151962808Y-81085648D01*
X151974796Y-81122545D01*
X151975262Y-81158126D01*
X151974500Y-81163914D01*
X151974500Y-81236082D01*
X151983918Y-81307623D01*
X151983921Y-81307638D01*
X152002596Y-81377331D01*
X152002598Y-81377336D01*
X152006221Y-81386082D01*
X152030212Y-81444002D01*
X152030215Y-81444008D01*
X152030219Y-81444015D01*
X152066290Y-81506493D01*
X152066291Y-81506495D01*
X152110222Y-81563747D01*
X152110228Y-81563754D01*
X152161245Y-81614771D01*
X152161252Y-81614777D01*
X152218504Y-81658708D01*
X152218506Y-81658709D01*
X152280984Y-81694780D01*
X152280998Y-81694788D01*
X152347668Y-81722403D01*
X152417372Y-81741081D01*
X152470498Y-81748075D01*
X152488917Y-81750500D01*
X152488918Y-81750500D01*
X152561077Y-81750500D01*
X152561082Y-81750500D01*
X152579500Y-81748075D01*
X152618274Y-81749090D01*
X152654845Y-81762038D01*
X152683362Y-81783333D01*
X154213181Y-83313152D01*
X154235985Y-83344538D01*
X154247973Y-83381435D01*
X154249500Y-83400833D01*
X154249500Y-86224166D01*
X154243431Y-86262484D01*
X154225818Y-86297051D01*
X154213181Y-86311847D01*
X153458362Y-87066665D01*
X153426976Y-87089469D01*
X153390079Y-87101457D01*
X153354502Y-87101924D01*
X153336083Y-87099500D01*
X153336082Y-87099500D01*
X153263918Y-87099500D01*
X153263917Y-87099500D01*
X153192376Y-87108918D01*
X153192361Y-87108921D01*
X153122668Y-87127596D01*
X153122663Y-87127598D01*
X153056008Y-87155207D01*
X153055984Y-87155219D01*
X152993506Y-87191290D01*
X152993504Y-87191291D01*
X152936252Y-87235222D01*
X152936245Y-87235228D01*
X152885228Y-87286245D01*
X152885222Y-87286252D01*
X152841291Y-87343504D01*
X152841290Y-87343506D01*
X152805219Y-87405984D01*
X152805207Y-87406008D01*
X152777598Y-87472663D01*
X152777596Y-87472668D01*
X152758921Y-87542361D01*
X152758918Y-87542376D01*
X152749500Y-87613917D01*
X152749500Y-87686082D01*
X152758918Y-87757623D01*
X152758921Y-87757638D01*
X152777596Y-87827331D01*
X152777598Y-87827336D01*
X152804387Y-87892011D01*
X152805212Y-87894002D01*
X152805215Y-87894008D01*
X152805219Y-87894015D01*
X152841290Y-87956493D01*
X152841291Y-87956495D01*
X152885222Y-88013747D01*
X152885228Y-88013754D01*
X152936245Y-88064771D01*
X152936252Y-88064777D01*
X152993504Y-88108708D01*
X152993506Y-88108709D01*
X153051768Y-88142346D01*
X153055998Y-88144788D01*
X153096140Y-88161415D01*
X153118807Y-88170804D01*
X153122668Y-88172403D01*
X153192372Y-88191081D01*
X153249608Y-88198616D01*
X153263917Y-88200500D01*
X153263918Y-88200500D01*
X153336083Y-88200500D01*
X153348006Y-88198930D01*
X153407628Y-88191081D01*
X153477332Y-88172403D01*
X153544002Y-88144788D01*
X153606498Y-88108706D01*
X153663749Y-88064776D01*
X153714776Y-88013749D01*
X153758706Y-87956498D01*
X153794788Y-87894002D01*
X153822403Y-87827332D01*
X153841081Y-87757628D01*
X153850500Y-87686082D01*
X153850500Y-87613918D01*
X153848075Y-87595499D01*
X153849090Y-87556723D01*
X153862039Y-87520152D01*
X153883330Y-87491639D01*
X154734489Y-86640481D01*
X154734496Y-86640475D01*
X154741556Y-86633414D01*
X154741558Y-86633414D01*
X154783414Y-86591558D01*
X154816300Y-86542340D01*
X154838952Y-86487653D01*
X154838953Y-86487649D01*
X154850501Y-86429599D01*
X154850501Y-86365293D01*
X154850500Y-86365267D01*
X154850500Y-83195402D01*
X154850499Y-83195398D01*
X154847854Y-83182102D01*
X154838952Y-83137347D01*
X154816300Y-83082660D01*
X154783414Y-83033442D01*
X154783412Y-83033439D01*
X154738462Y-82988489D01*
X154738431Y-82988460D01*
X153108333Y-81358362D01*
X153102596Y-81350466D01*
X153095696Y-81343566D01*
X153091266Y-81334872D01*
X153085529Y-81326976D01*
X153082512Y-81317693D01*
X153078083Y-81308999D01*
X153077450Y-81302110D01*
X153073541Y-81290079D01*
X153072014Y-81270681D01*
X153072014Y-81262561D01*
X153075500Y-81236082D01*
X153075500Y-81163918D01*
X153072014Y-81137438D01*
X153072014Y-81129317D01*
X153073792Y-81118087D01*
X153074090Y-81106723D01*
X153076808Y-81099044D01*
X153078083Y-81090999D01*
X153083243Y-81080870D01*
X153087039Y-81070152D01*
X153092284Y-81063127D01*
X153095696Y-81056432D01*
X153101967Y-81050160D01*
X153108329Y-81041640D01*
X153684490Y-80465479D01*
X153715875Y-80442677D01*
X153752772Y-80430689D01*
X153791568Y-80430689D01*
X153828465Y-80442677D01*
X153859851Y-80465481D01*
X153882655Y-80496867D01*
X153894643Y-80533764D01*
X153894643Y-80572560D01*
X153886732Y-80600613D01*
X153877596Y-80622669D01*
X153858921Y-80692361D01*
X153858918Y-80692376D01*
X153849500Y-80763917D01*
X153849500Y-80836082D01*
X153858918Y-80907623D01*
X153858921Y-80907638D01*
X153877596Y-80977331D01*
X153877598Y-80977336D01*
X153905207Y-81043991D01*
X153905212Y-81044002D01*
X153905215Y-81044008D01*
X153905219Y-81044015D01*
X153941290Y-81106493D01*
X153941291Y-81106495D01*
X153985222Y-81163747D01*
X153985228Y-81163754D01*
X154036245Y-81214771D01*
X154036252Y-81214777D01*
X154093504Y-81258708D01*
X154093506Y-81258709D01*
X154155984Y-81294780D01*
X154155998Y-81294788D01*
X154222668Y-81322403D01*
X154292372Y-81341081D01*
X154349608Y-81348616D01*
X154363917Y-81350500D01*
X154363918Y-81350500D01*
X154436083Y-81350500D01*
X154448006Y-81348930D01*
X154507628Y-81341081D01*
X154577332Y-81322403D01*
X154644002Y-81294788D01*
X154706498Y-81258706D01*
X154763749Y-81214776D01*
X154814776Y-81163749D01*
X154858706Y-81106498D01*
X154894788Y-81044002D01*
X154922403Y-80977332D01*
X154941081Y-80907628D01*
X154950500Y-80836082D01*
X154950500Y-80796543D01*
X154956569Y-80758225D01*
X154974182Y-80723658D01*
X154986819Y-80708862D01*
X155433863Y-80261819D01*
X155465249Y-80239015D01*
X155502146Y-80227027D01*
X155521544Y-80225500D01*
X159395612Y-80225500D01*
X159433930Y-80231569D01*
X159468497Y-80249182D01*
X159483293Y-80261819D01*
X159511245Y-80289771D01*
X159511252Y-80289777D01*
X159568504Y-80333708D01*
X159568506Y-80333709D01*
X159630984Y-80369780D01*
X159630998Y-80369788D01*
X159697668Y-80397403D01*
X159767372Y-80416081D01*
X159824608Y-80423616D01*
X159838917Y-80425500D01*
X159838918Y-80425500D01*
X159911083Y-80425500D01*
X159923006Y-80423930D01*
X159982628Y-80416081D01*
X160052332Y-80397403D01*
X160119002Y-80369788D01*
X160181498Y-80333706D01*
X160210022Y-80311819D01*
X160223962Y-80301123D01*
X160258056Y-80282612D01*
X160296202Y-80275542D01*
X160299447Y-80275500D01*
X164999960Y-80275500D01*
X165038278Y-80281569D01*
X165072845Y-80299182D01*
X165087641Y-80311819D01*
X169261730Y-84485908D01*
X169306306Y-84530484D01*
X169306312Y-84530488D01*
X169357302Y-84567536D01*
X169357306Y-84567538D01*
X169380993Y-84579607D01*
X169413475Y-84596158D01*
X169413477Y-84596158D01*
X169413480Y-84596160D01*
X169473427Y-84615637D01*
X169473430Y-84615638D01*
X169535694Y-84625500D01*
X169598734Y-84625500D01*
X169675553Y-84625500D01*
X169713871Y-84631569D01*
X169748438Y-84649182D01*
X169751038Y-84651123D01*
X169793506Y-84683709D01*
X169846115Y-84714082D01*
X169855998Y-84719788D01*
X169922668Y-84747403D01*
X169992372Y-84766081D01*
X170049608Y-84773616D01*
X170063917Y-84775500D01*
X170063918Y-84775500D01*
X170136083Y-84775500D01*
X170148006Y-84773930D01*
X170207628Y-84766081D01*
X170277332Y-84747403D01*
X170344002Y-84719788D01*
X170406498Y-84683706D01*
X170463749Y-84639776D01*
X170514776Y-84588749D01*
X170558706Y-84531498D01*
X170559292Y-84530484D01*
X170594780Y-84469015D01*
X170594788Y-84469002D01*
X170622403Y-84402332D01*
X170641081Y-84332628D01*
X170650500Y-84261082D01*
X170650500Y-84188918D01*
X170650170Y-84186415D01*
X170643881Y-84138642D01*
X170641081Y-84117372D01*
X170622403Y-84047668D01*
X170594788Y-83980998D01*
X170594780Y-83980984D01*
X170558709Y-83918506D01*
X170558708Y-83918504D01*
X170514777Y-83861252D01*
X170514771Y-83861245D01*
X170463754Y-83810228D01*
X170463747Y-83810222D01*
X170406495Y-83766291D01*
X170406493Y-83766290D01*
X170344015Y-83730219D01*
X170344005Y-83730214D01*
X170344002Y-83730212D01*
X170343996Y-83730209D01*
X170343991Y-83730207D01*
X170277336Y-83702598D01*
X170277331Y-83702596D01*
X170207638Y-83683921D01*
X170207623Y-83683918D01*
X170136083Y-83674500D01*
X170136082Y-83674500D01*
X170063918Y-83674500D01*
X170063917Y-83674500D01*
X169992376Y-83683918D01*
X169992361Y-83683921D01*
X169922668Y-83702596D01*
X169922663Y-83702598D01*
X169856008Y-83730207D01*
X169855993Y-83730214D01*
X169800708Y-83762132D01*
X169764489Y-83776034D01*
X169725746Y-83778063D01*
X169688273Y-83768021D01*
X169655737Y-83746891D01*
X169651030Y-83742424D01*
X167977057Y-82068451D01*
X167954253Y-82037065D01*
X167942265Y-82000168D01*
X167942265Y-81961372D01*
X167954253Y-81924475D01*
X167977057Y-81893089D01*
X168008443Y-81870285D01*
X168017274Y-81866213D01*
X168069002Y-81844788D01*
X168131498Y-81808706D01*
X168188749Y-81764776D01*
X168239776Y-81713749D01*
X168283706Y-81656498D01*
X168319788Y-81594002D01*
X168347403Y-81527332D01*
X168366081Y-81457628D01*
X168375500Y-81386082D01*
X168375500Y-81313918D01*
X168374852Y-81308999D01*
X168372982Y-81294792D01*
X168366081Y-81242372D01*
X168347403Y-81172668D01*
X168319788Y-81105998D01*
X168311254Y-81091217D01*
X168283709Y-81043506D01*
X168283708Y-81043504D01*
X168239777Y-80986252D01*
X168239771Y-80986245D01*
X168188754Y-80935228D01*
X168188747Y-80935222D01*
X168131495Y-80891291D01*
X168131493Y-80891290D01*
X168069015Y-80855219D01*
X168069008Y-80855215D01*
X168069002Y-80855212D01*
X168068996Y-80855209D01*
X168068991Y-80855207D01*
X168002336Y-80827598D01*
X168002331Y-80827596D01*
X167932638Y-80808921D01*
X167932623Y-80808918D01*
X167861083Y-80799500D01*
X167861082Y-80799500D01*
X167788918Y-80799500D01*
X167788916Y-80799500D01*
X167770502Y-80801924D01*
X167731719Y-80800908D01*
X167695149Y-80787958D01*
X167666637Y-80766666D01*
X166040152Y-79140181D01*
X166017348Y-79108795D01*
X166005360Y-79071898D01*
X166005360Y-79033102D01*
X166017348Y-78996205D01*
X166040152Y-78964819D01*
X166071538Y-78942015D01*
X166108435Y-78930027D01*
X166127833Y-78928500D01*
X166623819Y-78928500D01*
X166662137Y-78934569D01*
G37*
G04 #@! TD.AperFunction*
G04 #@! TA.AperFunction,Conductor*
G36*
X135455062Y-89356569D02*
G01*
X135489629Y-89374182D01*
X135504425Y-89386819D01*
X135837355Y-89719749D01*
X135868758Y-89751153D01*
X135868764Y-89751158D01*
X135905693Y-89775833D01*
X135905695Y-89775834D01*
X135905697Y-89775835D01*
X135946735Y-89792834D01*
X135946738Y-89792834D01*
X135946739Y-89792835D01*
X135990298Y-89801500D01*
X135990301Y-89801500D01*
X136957746Y-89801500D01*
X136996064Y-89807569D01*
X137030631Y-89825182D01*
X137058064Y-89852615D01*
X137075677Y-89887182D01*
X137081746Y-89925500D01*
X137075677Y-89963818D01*
X137058064Y-89998385D01*
X137045427Y-90013181D01*
X136841933Y-90216674D01*
X136827074Y-90227469D01*
X136812385Y-90238522D01*
X136811452Y-90238820D01*
X136810547Y-90239478D01*
X136775693Y-90251125D01*
X136773049Y-90251589D01*
X136717372Y-90258919D01*
X136690913Y-90266008D01*
X136685530Y-90266954D01*
X136671531Y-90267187D01*
X136657600Y-90268652D01*
X136652228Y-90267510D01*
X136646740Y-90267602D01*
X136633350Y-90263497D01*
X136619652Y-90260586D01*
X136614897Y-90257841D01*
X136609648Y-90256232D01*
X136598180Y-90248189D01*
X136586053Y-90241188D01*
X136578499Y-90234386D01*
X136577885Y-90233956D01*
X136577599Y-90233577D01*
X136576417Y-90232512D01*
X136468748Y-90124843D01*
X136468747Y-90124842D01*
X136468746Y-90124841D01*
X136431817Y-90100166D01*
X136399595Y-90086819D01*
X136390776Y-90083166D01*
X136390774Y-90083165D01*
X136390773Y-90083165D01*
X136390771Y-90083164D01*
X136347212Y-90074500D01*
X136347210Y-90074500D01*
X128996422Y-90074500D01*
X128958104Y-90068431D01*
X128923537Y-90050818D01*
X128896104Y-90023385D01*
X128878491Y-89988818D01*
X128872422Y-89950500D01*
X128878491Y-89912182D01*
X128896104Y-89877615D01*
X128923537Y-89850182D01*
X128927532Y-89847397D01*
X128946716Y-89834579D01*
X129022705Y-89772216D01*
X129056298Y-89738623D01*
X129092214Y-89702708D01*
X129118724Y-89670405D01*
X129154579Y-89626716D01*
X129209193Y-89544980D01*
X129255532Y-89458285D01*
X129268471Y-89427045D01*
X129288742Y-89393968D01*
X129318242Y-89368773D01*
X129354085Y-89353926D01*
X129383032Y-89350500D01*
X135416744Y-89350500D01*
X135455062Y-89356569D01*
G37*
G04 #@! TD.AperFunction*
G04 #@! TA.AperFunction,Conductor*
G36*
X152813818Y-75206569D02*
G01*
X152848385Y-75224182D01*
X152875818Y-75251615D01*
X152893431Y-75286182D01*
X152899500Y-75324500D01*
X152899500Y-76919752D01*
X152908393Y-76964459D01*
X152907651Y-76964606D01*
X152911782Y-76994497D01*
X152904957Y-77032688D01*
X152886664Y-77066900D01*
X152875487Y-77079728D01*
X149075681Y-80879535D01*
X149044295Y-80902339D01*
X149007398Y-80914327D01*
X148968602Y-80914327D01*
X148931705Y-80902339D01*
X148900319Y-80879535D01*
X148877515Y-80848149D01*
X148865527Y-80811252D01*
X148864000Y-80791854D01*
X148864000Y-77932568D01*
X148870069Y-77894250D01*
X148887682Y-77859683D01*
X148915115Y-77832250D01*
X148949682Y-77814637D01*
X148951965Y-77813919D01*
X148987465Y-77803151D01*
X149078285Y-77765532D01*
X149164980Y-77719193D01*
X149246716Y-77664579D01*
X149322705Y-77602216D01*
X149392216Y-77532705D01*
X149454579Y-77456716D01*
X149509193Y-77374980D01*
X149555532Y-77288285D01*
X149593151Y-77197465D01*
X149621687Y-77103395D01*
X149640865Y-77006981D01*
X149650500Y-76909151D01*
X149650500Y-76810849D01*
X150189500Y-76810849D01*
X150189500Y-76909151D01*
X150190544Y-76919748D01*
X150199134Y-77006977D01*
X150199135Y-77006981D01*
X150218313Y-77103395D01*
X150228926Y-77138381D01*
X150246850Y-77197470D01*
X150264987Y-77241254D01*
X150284468Y-77288285D01*
X150318227Y-77351445D01*
X150330804Y-77374974D01*
X150330810Y-77374985D01*
X150385415Y-77456707D01*
X150385425Y-77456721D01*
X150447788Y-77532710D01*
X150517289Y-77602211D01*
X150517294Y-77602215D01*
X150517295Y-77602216D01*
X150593284Y-77664579D01*
X150675020Y-77719193D01*
X150761715Y-77765532D01*
X150813712Y-77787070D01*
X150852529Y-77803149D01*
X150852533Y-77803150D01*
X150852535Y-77803151D01*
X150946605Y-77831687D01*
X151043019Y-77850865D01*
X151140849Y-77860500D01*
X151140852Y-77860500D01*
X151239148Y-77860500D01*
X151239151Y-77860500D01*
X151336981Y-77850865D01*
X151433395Y-77831687D01*
X151527465Y-77803151D01*
X151618285Y-77765532D01*
X151704980Y-77719193D01*
X151786716Y-77664579D01*
X151862705Y-77602216D01*
X151932216Y-77532705D01*
X151994579Y-77456716D01*
X152049193Y-77374980D01*
X152095532Y-77288285D01*
X152133151Y-77197465D01*
X152161687Y-77103395D01*
X152180865Y-77006981D01*
X152190500Y-76909151D01*
X152190500Y-76810849D01*
X152180865Y-76713019D01*
X152161687Y-76616605D01*
X152133151Y-76522535D01*
X152127439Y-76508746D01*
X152116888Y-76483273D01*
X152095532Y-76431715D01*
X152049193Y-76345020D01*
X151994579Y-76263284D01*
X151932216Y-76187295D01*
X151932215Y-76187294D01*
X151932211Y-76187289D01*
X151862710Y-76117788D01*
X151786721Y-76055425D01*
X151786720Y-76055424D01*
X151786716Y-76055421D01*
X151783575Y-76053322D01*
X151704985Y-76000810D01*
X151704982Y-76000808D01*
X151704980Y-76000807D01*
X151618285Y-75954468D01*
X151584030Y-75940279D01*
X151527470Y-75916850D01*
X151474053Y-75900646D01*
X151433395Y-75888313D01*
X151386500Y-75878985D01*
X151336977Y-75869134D01*
X151271210Y-75862657D01*
X151239151Y-75859500D01*
X151140849Y-75859500D01*
X151111947Y-75862346D01*
X151043022Y-75869134D01*
X150946610Y-75888312D01*
X150946605Y-75888313D01*
X150946602Y-75888314D01*
X150852529Y-75916850D01*
X150761722Y-75954465D01*
X150761714Y-75954468D01*
X150675025Y-76000804D01*
X150675014Y-76000810D01*
X150593292Y-76055415D01*
X150593278Y-76055425D01*
X150517289Y-76117788D01*
X150447788Y-76187289D01*
X150385425Y-76263278D01*
X150385415Y-76263292D01*
X150330810Y-76345014D01*
X150330804Y-76345025D01*
X150284468Y-76431714D01*
X150284465Y-76431722D01*
X150246850Y-76522529D01*
X150218314Y-76616602D01*
X150218312Y-76616610D01*
X150199134Y-76713022D01*
X150197378Y-76730858D01*
X150189500Y-76810849D01*
X149650500Y-76810849D01*
X149640865Y-76713019D01*
X149621687Y-76616605D01*
X149593151Y-76522535D01*
X149587439Y-76508746D01*
X149576888Y-76483273D01*
X149555532Y-76431715D01*
X149509193Y-76345020D01*
X149454579Y-76263284D01*
X149392216Y-76187295D01*
X149392215Y-76187294D01*
X149392211Y-76187289D01*
X149322710Y-76117788D01*
X149246721Y-76055425D01*
X149246720Y-76055424D01*
X149246716Y-76055421D01*
X149243575Y-76053322D01*
X149164985Y-76000810D01*
X149164982Y-76000808D01*
X149164980Y-76000807D01*
X149078285Y-75954468D01*
X149044030Y-75940279D01*
X148987470Y-75916850D01*
X148934053Y-75900646D01*
X148893395Y-75888313D01*
X148846500Y-75878985D01*
X148796977Y-75869134D01*
X148731210Y-75862657D01*
X148699151Y-75859500D01*
X148600849Y-75859500D01*
X148571947Y-75862346D01*
X148503022Y-75869134D01*
X148406610Y-75888312D01*
X148406605Y-75888313D01*
X148406602Y-75888314D01*
X148312529Y-75916850D01*
X148221722Y-75954465D01*
X148221714Y-75954468D01*
X148135025Y-76000804D01*
X148135014Y-76000810D01*
X148053292Y-76055415D01*
X148053278Y-76055425D01*
X147977289Y-76117788D01*
X147907788Y-76187289D01*
X147845425Y-76263278D01*
X147845415Y-76263292D01*
X147790810Y-76345014D01*
X147790804Y-76345025D01*
X147744468Y-76431714D01*
X147744465Y-76431722D01*
X147706850Y-76522529D01*
X147678314Y-76616602D01*
X147678312Y-76616610D01*
X147659134Y-76713022D01*
X147657378Y-76730858D01*
X147649500Y-76810849D01*
X147649500Y-76909151D01*
X147650544Y-76919748D01*
X147659134Y-77006977D01*
X147659135Y-77006981D01*
X147678313Y-77103395D01*
X147688926Y-77138381D01*
X147706850Y-77197470D01*
X147724987Y-77241254D01*
X147744468Y-77288285D01*
X147778227Y-77351445D01*
X147790804Y-77374974D01*
X147790810Y-77374985D01*
X147845415Y-77456707D01*
X147845425Y-77456721D01*
X147907788Y-77532710D01*
X147977289Y-77602211D01*
X147977294Y-77602215D01*
X147977295Y-77602216D01*
X148053284Y-77664579D01*
X148135020Y-77719193D01*
X148221715Y-77765532D01*
X148273722Y-77787074D01*
X148312532Y-77803150D01*
X148312534Y-77803150D01*
X148312535Y-77803151D01*
X148347996Y-77813908D01*
X148382901Y-77830838D01*
X148410867Y-77857726D01*
X148429156Y-77891941D01*
X148435976Y-77930132D01*
X148436000Y-77932568D01*
X148436000Y-81074704D01*
X148429931Y-81113022D01*
X148412318Y-81147589D01*
X148399681Y-81162385D01*
X146136459Y-83425607D01*
X146105073Y-83448411D01*
X146068176Y-83460399D01*
X146029380Y-83460399D01*
X145992483Y-83448411D01*
X145961097Y-83425607D01*
X145938293Y-83394221D01*
X145926305Y-83357324D01*
X145924778Y-83337926D01*
X145924778Y-78979698D01*
X145916555Y-78938362D01*
X145916554Y-78938361D01*
X145916554Y-78938357D01*
X145914985Y-78934569D01*
X145900425Y-78899417D01*
X145900423Y-78899414D01*
X145900422Y-78899411D01*
X145877002Y-78864361D01*
X145847195Y-78834554D01*
X144479740Y-77467099D01*
X144456936Y-77435713D01*
X144444948Y-77398816D01*
X144444948Y-77360020D01*
X144456936Y-77323123D01*
X144457982Y-77321117D01*
X144475532Y-77288285D01*
X144513151Y-77197465D01*
X144541687Y-77103395D01*
X144560865Y-77006981D01*
X144570500Y-76909151D01*
X144570500Y-76810849D01*
X145109500Y-76810849D01*
X145109500Y-76909151D01*
X145110544Y-76919748D01*
X145119134Y-77006977D01*
X145119135Y-77006981D01*
X145138313Y-77103395D01*
X145148926Y-77138381D01*
X145166850Y-77197470D01*
X145184987Y-77241254D01*
X145204468Y-77288285D01*
X145238227Y-77351445D01*
X145250804Y-77374974D01*
X145250810Y-77374985D01*
X145305415Y-77456707D01*
X145305425Y-77456721D01*
X145367788Y-77532710D01*
X145437289Y-77602211D01*
X145437294Y-77602215D01*
X145437295Y-77602216D01*
X145513284Y-77664579D01*
X145595020Y-77719193D01*
X145681715Y-77765532D01*
X145733712Y-77787070D01*
X145772529Y-77803149D01*
X145772533Y-77803150D01*
X145772535Y-77803151D01*
X145866605Y-77831687D01*
X145963019Y-77850865D01*
X146060849Y-77860500D01*
X146060852Y-77860500D01*
X146159148Y-77860500D01*
X146159151Y-77860500D01*
X146256981Y-77850865D01*
X146353395Y-77831687D01*
X146447465Y-77803151D01*
X146538285Y-77765532D01*
X146624980Y-77719193D01*
X146706716Y-77664579D01*
X146782705Y-77602216D01*
X146852216Y-77532705D01*
X146914579Y-77456716D01*
X146969193Y-77374980D01*
X147015532Y-77288285D01*
X147053151Y-77197465D01*
X147081687Y-77103395D01*
X147100865Y-77006981D01*
X147110500Y-76909151D01*
X147110500Y-76810849D01*
X147100865Y-76713019D01*
X147081687Y-76616605D01*
X147053151Y-76522535D01*
X147047439Y-76508746D01*
X147036888Y-76483273D01*
X147015532Y-76431715D01*
X146969193Y-76345020D01*
X146914579Y-76263284D01*
X146852216Y-76187295D01*
X146852215Y-76187294D01*
X146852211Y-76187289D01*
X146782710Y-76117788D01*
X146706721Y-76055425D01*
X146706720Y-76055424D01*
X146706716Y-76055421D01*
X146703575Y-76053322D01*
X146624985Y-76000810D01*
X146624982Y-76000808D01*
X146624980Y-76000807D01*
X146538285Y-75954468D01*
X146504030Y-75940279D01*
X146447470Y-75916850D01*
X146394053Y-75900646D01*
X146353395Y-75888313D01*
X146306500Y-75878985D01*
X146256977Y-75869134D01*
X146191210Y-75862657D01*
X146159151Y-75859500D01*
X146060849Y-75859500D01*
X146031947Y-75862346D01*
X145963022Y-75869134D01*
X145866610Y-75888312D01*
X145866605Y-75888313D01*
X145866602Y-75888314D01*
X145772529Y-75916850D01*
X145681722Y-75954465D01*
X145681714Y-75954468D01*
X145595025Y-76000804D01*
X145595014Y-76000810D01*
X145513292Y-76055415D01*
X145513278Y-76055425D01*
X145437289Y-76117788D01*
X145367788Y-76187289D01*
X145305425Y-76263278D01*
X145305415Y-76263292D01*
X145250810Y-76345014D01*
X145250804Y-76345025D01*
X145204468Y-76431714D01*
X145204465Y-76431722D01*
X145166850Y-76522529D01*
X145138314Y-76616602D01*
X145138312Y-76616610D01*
X145119134Y-76713022D01*
X145117378Y-76730858D01*
X145109500Y-76810849D01*
X144570500Y-76810849D01*
X144560865Y-76713019D01*
X144541687Y-76616605D01*
X144513151Y-76522535D01*
X144507439Y-76508746D01*
X144496888Y-76483273D01*
X144475532Y-76431715D01*
X144429193Y-76345020D01*
X144374579Y-76263284D01*
X144312216Y-76187295D01*
X144312215Y-76187294D01*
X144312211Y-76187289D01*
X144242710Y-76117788D01*
X144166721Y-76055425D01*
X144166720Y-76055424D01*
X144166716Y-76055421D01*
X144163575Y-76053322D01*
X144084985Y-76000810D01*
X144084982Y-76000808D01*
X144084980Y-76000807D01*
X143998285Y-75954468D01*
X143964030Y-75940279D01*
X143907470Y-75916850D01*
X143854053Y-75900646D01*
X143813395Y-75888313D01*
X143766500Y-75878985D01*
X143716977Y-75869134D01*
X143651210Y-75862657D01*
X143619151Y-75859500D01*
X143520849Y-75859500D01*
X143491947Y-75862346D01*
X143423022Y-75869134D01*
X143326610Y-75888312D01*
X143326605Y-75888313D01*
X143326602Y-75888314D01*
X143232529Y-75916850D01*
X143141722Y-75954465D01*
X143141714Y-75954468D01*
X143055025Y-76000804D01*
X143055014Y-76000810D01*
X142973292Y-76055415D01*
X142973278Y-76055425D01*
X142897289Y-76117788D01*
X142827788Y-76187289D01*
X142765425Y-76263278D01*
X142765415Y-76263292D01*
X142710810Y-76345014D01*
X142710804Y-76345025D01*
X142664468Y-76431714D01*
X142664465Y-76431722D01*
X142626850Y-76522529D01*
X142598314Y-76616602D01*
X142598312Y-76616610D01*
X142579134Y-76713022D01*
X142577378Y-76730858D01*
X142569500Y-76810849D01*
X142569500Y-76909151D01*
X142570544Y-76919748D01*
X142579134Y-77006977D01*
X142579135Y-77006981D01*
X142598313Y-77103395D01*
X142608926Y-77138381D01*
X142626850Y-77197470D01*
X142644987Y-77241254D01*
X142664468Y-77288285D01*
X142698227Y-77351445D01*
X142710804Y-77374974D01*
X142710810Y-77374985D01*
X142765415Y-77456707D01*
X142765425Y-77456721D01*
X142827788Y-77532710D01*
X142897289Y-77602211D01*
X142897294Y-77602215D01*
X142897295Y-77602216D01*
X142973284Y-77664579D01*
X143055020Y-77719193D01*
X143141715Y-77765532D01*
X143193712Y-77787070D01*
X143232529Y-77803149D01*
X143232533Y-77803150D01*
X143232535Y-77803151D01*
X143326605Y-77831687D01*
X143423019Y-77850865D01*
X143520849Y-77860500D01*
X143520852Y-77860500D01*
X143619148Y-77860500D01*
X143619151Y-77860500D01*
X143716981Y-77850865D01*
X143813395Y-77831687D01*
X143907465Y-77803151D01*
X143998285Y-77765532D01*
X144030972Y-77748060D01*
X144067617Y-77735353D01*
X144106405Y-77734590D01*
X144143530Y-77745851D01*
X144175359Y-77768033D01*
X144177099Y-77769740D01*
X145460459Y-79053100D01*
X145483263Y-79084486D01*
X145495251Y-79121383D01*
X145496778Y-79140781D01*
X145496778Y-83620774D01*
X145490709Y-83659092D01*
X145473096Y-83693659D01*
X145460459Y-83708455D01*
X143314733Y-85854181D01*
X143283347Y-85876985D01*
X143246450Y-85888973D01*
X143227052Y-85890500D01*
X135759722Y-85890500D01*
X135718385Y-85898722D01*
X135718379Y-85898724D01*
X135679438Y-85914854D01*
X135679432Y-85914857D01*
X135644383Y-85938275D01*
X134316277Y-87266382D01*
X134316275Y-87266385D01*
X134296348Y-87296209D01*
X134294588Y-87298842D01*
X134292854Y-87301437D01*
X134292853Y-87301439D01*
X134276725Y-87340376D01*
X134276722Y-87340386D01*
X134268500Y-87381722D01*
X134268500Y-88103578D01*
X134269521Y-88108709D01*
X134274586Y-88134175D01*
X134276212Y-88142346D01*
X134276213Y-88142352D01*
X134276724Y-88144922D01*
X134276725Y-88144926D01*
X134292853Y-88183863D01*
X134292855Y-88183866D01*
X134316275Y-88218915D01*
X134316278Y-88218919D01*
X134484178Y-88386819D01*
X134506982Y-88418205D01*
X134518970Y-88455102D01*
X134518970Y-88493898D01*
X134506982Y-88530795D01*
X134484178Y-88562181D01*
X134452792Y-88584985D01*
X134415895Y-88596973D01*
X134396497Y-88598500D01*
X132193768Y-88598500D01*
X132155450Y-88592431D01*
X132120883Y-88574818D01*
X132106087Y-88562181D01*
X131131819Y-87587913D01*
X131109015Y-87556527D01*
X131097027Y-87519630D01*
X131095500Y-87500232D01*
X131095500Y-77929079D01*
X131101569Y-77890761D01*
X131119182Y-77856194D01*
X131146615Y-77828761D01*
X131181182Y-77811148D01*
X131183387Y-77810455D01*
X131207465Y-77803151D01*
X131298285Y-77765532D01*
X131384980Y-77719193D01*
X131466716Y-77664579D01*
X131542705Y-77602216D01*
X131612216Y-77532705D01*
X131674579Y-77456716D01*
X131729193Y-77374980D01*
X131775532Y-77288285D01*
X131813151Y-77197465D01*
X131841687Y-77103395D01*
X131860865Y-77006981D01*
X131870500Y-76909151D01*
X131870500Y-76810849D01*
X132409500Y-76810849D01*
X132409500Y-76909151D01*
X132410544Y-76919748D01*
X132419134Y-77006977D01*
X132419135Y-77006981D01*
X132438313Y-77103395D01*
X132448926Y-77138381D01*
X132466850Y-77197470D01*
X132484987Y-77241254D01*
X132504468Y-77288285D01*
X132538227Y-77351445D01*
X132550804Y-77374974D01*
X132550810Y-77374985D01*
X132605415Y-77456707D01*
X132605425Y-77456721D01*
X132667788Y-77532710D01*
X132737289Y-77602211D01*
X132737294Y-77602215D01*
X132737295Y-77602216D01*
X132813284Y-77664579D01*
X132895020Y-77719193D01*
X132981715Y-77765532D01*
X133033712Y-77787070D01*
X133072529Y-77803149D01*
X133072533Y-77803150D01*
X133072535Y-77803151D01*
X133166605Y-77831687D01*
X133263019Y-77850865D01*
X133360849Y-77860500D01*
X133360852Y-77860500D01*
X133459148Y-77860500D01*
X133459151Y-77860500D01*
X133556981Y-77850865D01*
X133653395Y-77831687D01*
X133747465Y-77803151D01*
X133838285Y-77765532D01*
X133924980Y-77719193D01*
X134006716Y-77664579D01*
X134082705Y-77602216D01*
X134152216Y-77532705D01*
X134214579Y-77456716D01*
X134269193Y-77374980D01*
X134315532Y-77288285D01*
X134353151Y-77197465D01*
X134381687Y-77103395D01*
X134400865Y-77006981D01*
X134410500Y-76909151D01*
X134410500Y-76810849D01*
X134949500Y-76810849D01*
X134949500Y-76909151D01*
X134950544Y-76919748D01*
X134959134Y-77006977D01*
X134959135Y-77006981D01*
X134978313Y-77103395D01*
X134988926Y-77138381D01*
X135006850Y-77197470D01*
X135024987Y-77241254D01*
X135044468Y-77288285D01*
X135078227Y-77351445D01*
X135090804Y-77374974D01*
X135090810Y-77374985D01*
X135145415Y-77456707D01*
X135145425Y-77456721D01*
X135207788Y-77532710D01*
X135277289Y-77602211D01*
X135277294Y-77602215D01*
X135277295Y-77602216D01*
X135353284Y-77664579D01*
X135435020Y-77719193D01*
X135521715Y-77765532D01*
X135573712Y-77787070D01*
X135612529Y-77803149D01*
X135612533Y-77803150D01*
X135612535Y-77803151D01*
X135706605Y-77831687D01*
X135803019Y-77850865D01*
X135900849Y-77860500D01*
X135900852Y-77860500D01*
X135999148Y-77860500D01*
X135999151Y-77860500D01*
X136096981Y-77850865D01*
X136193395Y-77831687D01*
X136287465Y-77803151D01*
X136378285Y-77765532D01*
X136464980Y-77719193D01*
X136546716Y-77664579D01*
X136622705Y-77602216D01*
X136692216Y-77532705D01*
X136754579Y-77456716D01*
X136809193Y-77374980D01*
X136855532Y-77288285D01*
X136893151Y-77197465D01*
X136921687Y-77103395D01*
X136940865Y-77006981D01*
X136950500Y-76909151D01*
X136950500Y-76810849D01*
X137489500Y-76810849D01*
X137489500Y-76909151D01*
X137490544Y-76919748D01*
X137499134Y-77006977D01*
X137499135Y-77006981D01*
X137518313Y-77103395D01*
X137528926Y-77138381D01*
X137546850Y-77197470D01*
X137564987Y-77241254D01*
X137584468Y-77288285D01*
X137618227Y-77351445D01*
X137630804Y-77374974D01*
X137630810Y-77374985D01*
X137685415Y-77456707D01*
X137685425Y-77456721D01*
X137747788Y-77532710D01*
X137817289Y-77602211D01*
X137817294Y-77602215D01*
X137817295Y-77602216D01*
X137893284Y-77664579D01*
X137975020Y-77719193D01*
X138061715Y-77765532D01*
X138113712Y-77787070D01*
X138152529Y-77803149D01*
X138152533Y-77803150D01*
X138152535Y-77803151D01*
X138246605Y-77831687D01*
X138343019Y-77850865D01*
X138440849Y-77860500D01*
X138440852Y-77860500D01*
X138539148Y-77860500D01*
X138539151Y-77860500D01*
X138636981Y-77850865D01*
X138733395Y-77831687D01*
X138827465Y-77803151D01*
X138918285Y-77765532D01*
X139004980Y-77719193D01*
X139086716Y-77664579D01*
X139162705Y-77602216D01*
X139232216Y-77532705D01*
X139294579Y-77456716D01*
X139349193Y-77374980D01*
X139395532Y-77288285D01*
X139433151Y-77197465D01*
X139461687Y-77103395D01*
X139480865Y-77006981D01*
X139490500Y-76909151D01*
X139490500Y-76810849D01*
X139489293Y-76798595D01*
X139780000Y-76798595D01*
X139780000Y-76921404D01*
X139792039Y-77043634D01*
X139792039Y-77043635D01*
X139815997Y-77164085D01*
X139851651Y-77281621D01*
X139898651Y-77395088D01*
X139956545Y-77503399D01*
X139956551Y-77503409D01*
X139987187Y-77549258D01*
X140547036Y-76989408D01*
X140555519Y-77021065D01*
X140580601Y-77081619D01*
X140613373Y-77138381D01*
X140653273Y-77190380D01*
X140699620Y-77236727D01*
X140751619Y-77276627D01*
X140808381Y-77309399D01*
X140868935Y-77334481D01*
X140900589Y-77342962D01*
X140340739Y-77902812D01*
X140386590Y-77933448D01*
X140386600Y-77933454D01*
X140494911Y-77991348D01*
X140608378Y-78038348D01*
X140725914Y-78074002D01*
X140846364Y-78097960D01*
X140968596Y-78110000D01*
X141091404Y-78110000D01*
X141213634Y-78097960D01*
X141213635Y-78097960D01*
X141334085Y-78074002D01*
X141451621Y-78038348D01*
X141565088Y-77991348D01*
X141673406Y-77933450D01*
X141719259Y-77902811D01*
X141159410Y-77342962D01*
X141191065Y-77334481D01*
X141251619Y-77309399D01*
X141308381Y-77276627D01*
X141360380Y-77236727D01*
X141406727Y-77190380D01*
X141446627Y-77138381D01*
X141479399Y-77081619D01*
X141504481Y-77021065D01*
X141512962Y-76989410D01*
X142072811Y-77549259D01*
X142103450Y-77503406D01*
X142161348Y-77395088D01*
X142208348Y-77281621D01*
X142244002Y-77164085D01*
X142267960Y-77043635D01*
X142267960Y-77043634D01*
X142280000Y-76921404D01*
X142280000Y-76798595D01*
X142267960Y-76676365D01*
X142267960Y-76676364D01*
X142244002Y-76555914D01*
X142208348Y-76438378D01*
X142161348Y-76324911D01*
X142103454Y-76216600D01*
X142103448Y-76216590D01*
X142072812Y-76170739D01*
X141512962Y-76730589D01*
X141504481Y-76698935D01*
X141479399Y-76638381D01*
X141446627Y-76581619D01*
X141406727Y-76529620D01*
X141360380Y-76483273D01*
X141308381Y-76443373D01*
X141251619Y-76410601D01*
X141191065Y-76385519D01*
X141159409Y-76377037D01*
X141719258Y-75817187D01*
X141673409Y-75786551D01*
X141673399Y-75786545D01*
X141565088Y-75728651D01*
X141451621Y-75681651D01*
X141334085Y-75645997D01*
X141213635Y-75622039D01*
X141091404Y-75610000D01*
X140968596Y-75610000D01*
X140846365Y-75622039D01*
X140846364Y-75622039D01*
X140725914Y-75645997D01*
X140608378Y-75681651D01*
X140494911Y-75728651D01*
X140386595Y-75786548D01*
X140340740Y-75817187D01*
X140340739Y-75817187D01*
X140900590Y-76377036D01*
X140868935Y-76385519D01*
X140808381Y-76410601D01*
X140751619Y-76443373D01*
X140699620Y-76483273D01*
X140653273Y-76529620D01*
X140613373Y-76581619D01*
X140580601Y-76638381D01*
X140555519Y-76698935D01*
X140547037Y-76730589D01*
X139987187Y-76170739D01*
X139987187Y-76170740D01*
X139956548Y-76216595D01*
X139898651Y-76324911D01*
X139851651Y-76438378D01*
X139815997Y-76555914D01*
X139792039Y-76676364D01*
X139792039Y-76676365D01*
X139780000Y-76798595D01*
X139489293Y-76798595D01*
X139480865Y-76713019D01*
X139461687Y-76616605D01*
X139433151Y-76522535D01*
X139427439Y-76508746D01*
X139416888Y-76483273D01*
X139395532Y-76431715D01*
X139349193Y-76345020D01*
X139294579Y-76263284D01*
X139232216Y-76187295D01*
X139232215Y-76187294D01*
X139232211Y-76187289D01*
X139162710Y-76117788D01*
X139086721Y-76055425D01*
X139086720Y-76055424D01*
X139086716Y-76055421D01*
X139083575Y-76053322D01*
X139004985Y-76000810D01*
X139004975Y-76000804D01*
X138979299Y-75987080D01*
X138918285Y-75954468D01*
X138884030Y-75940279D01*
X138827470Y-75916850D01*
X138774053Y-75900646D01*
X138733395Y-75888313D01*
X138686500Y-75878985D01*
X138636977Y-75869134D01*
X138571210Y-75862657D01*
X138539151Y-75859500D01*
X138440849Y-75859500D01*
X138411947Y-75862346D01*
X138343022Y-75869134D01*
X138246610Y-75888312D01*
X138246605Y-75888313D01*
X138246602Y-75888314D01*
X138152529Y-75916850D01*
X138061722Y-75954465D01*
X138061714Y-75954468D01*
X137975025Y-76000804D01*
X137975014Y-76000810D01*
X137893292Y-76055415D01*
X137893278Y-76055425D01*
X137817289Y-76117788D01*
X137747788Y-76187289D01*
X137685425Y-76263278D01*
X137685415Y-76263292D01*
X137630810Y-76345014D01*
X137630804Y-76345025D01*
X137584468Y-76431714D01*
X137584465Y-76431722D01*
X137546850Y-76522529D01*
X137518314Y-76616602D01*
X137518312Y-76616610D01*
X137499134Y-76713022D01*
X137497378Y-76730858D01*
X137489500Y-76810849D01*
X136950500Y-76810849D01*
X136940865Y-76713019D01*
X136921687Y-76616605D01*
X136893151Y-76522535D01*
X136887439Y-76508746D01*
X136876888Y-76483273D01*
X136855532Y-76431715D01*
X136809193Y-76345020D01*
X136754579Y-76263284D01*
X136692216Y-76187295D01*
X136692215Y-76187294D01*
X136692211Y-76187289D01*
X136622710Y-76117788D01*
X136546721Y-76055425D01*
X136546720Y-76055424D01*
X136546716Y-76055421D01*
X136543575Y-76053322D01*
X136464985Y-76000810D01*
X136464982Y-76000808D01*
X136464980Y-76000807D01*
X136378285Y-75954468D01*
X136344030Y-75940279D01*
X136287470Y-75916850D01*
X136234053Y-75900646D01*
X136193395Y-75888313D01*
X136146500Y-75878985D01*
X136096977Y-75869134D01*
X136031210Y-75862657D01*
X135999151Y-75859500D01*
X135900849Y-75859500D01*
X135871947Y-75862346D01*
X135803022Y-75869134D01*
X135706610Y-75888312D01*
X135706605Y-75888313D01*
X135706602Y-75888314D01*
X135612529Y-75916850D01*
X135521722Y-75954465D01*
X135521714Y-75954468D01*
X135435025Y-76000804D01*
X135435014Y-76000810D01*
X135353292Y-76055415D01*
X135353278Y-76055425D01*
X135277289Y-76117788D01*
X135207788Y-76187289D01*
X135145425Y-76263278D01*
X135145415Y-76263292D01*
X135090810Y-76345014D01*
X135090804Y-76345025D01*
X135044468Y-76431714D01*
X135044465Y-76431722D01*
X135006850Y-76522529D01*
X134978314Y-76616602D01*
X134978312Y-76616610D01*
X134959134Y-76713022D01*
X134957378Y-76730858D01*
X134949500Y-76810849D01*
X134410500Y-76810849D01*
X134400865Y-76713019D01*
X134381687Y-76616605D01*
X134353151Y-76522535D01*
X134347439Y-76508746D01*
X134336888Y-76483273D01*
X134315532Y-76431715D01*
X134269193Y-76345020D01*
X134214579Y-76263284D01*
X134152216Y-76187295D01*
X134152215Y-76187294D01*
X134152211Y-76187289D01*
X134082710Y-76117788D01*
X134006721Y-76055425D01*
X134006720Y-76055424D01*
X134006716Y-76055421D01*
X134003575Y-76053322D01*
X133924985Y-76000810D01*
X133924982Y-76000808D01*
X133924980Y-76000807D01*
X133838285Y-75954468D01*
X133804030Y-75940279D01*
X133747470Y-75916850D01*
X133694053Y-75900646D01*
X133653395Y-75888313D01*
X133606500Y-75878985D01*
X133556977Y-75869134D01*
X133491210Y-75862657D01*
X133459151Y-75859500D01*
X133360849Y-75859500D01*
X133331947Y-75862346D01*
X133263022Y-75869134D01*
X133166610Y-75888312D01*
X133166605Y-75888313D01*
X133166602Y-75888314D01*
X133072529Y-75916850D01*
X132981722Y-75954465D01*
X132981714Y-75954468D01*
X132895025Y-76000804D01*
X132895014Y-76000810D01*
X132813292Y-76055415D01*
X132813278Y-76055425D01*
X132737289Y-76117788D01*
X132667788Y-76187289D01*
X132605425Y-76263278D01*
X132605415Y-76263292D01*
X132550810Y-76345014D01*
X132550804Y-76345025D01*
X132504468Y-76431714D01*
X132504465Y-76431722D01*
X132466850Y-76522529D01*
X132438314Y-76616602D01*
X132438312Y-76616610D01*
X132419134Y-76713022D01*
X132417378Y-76730858D01*
X132409500Y-76810849D01*
X131870500Y-76810849D01*
X131860865Y-76713019D01*
X131841687Y-76616605D01*
X131813151Y-76522535D01*
X131807439Y-76508746D01*
X131796888Y-76483273D01*
X131775532Y-76431715D01*
X131729193Y-76345020D01*
X131674579Y-76263284D01*
X131612216Y-76187295D01*
X131612215Y-76187294D01*
X131612211Y-76187289D01*
X131542710Y-76117788D01*
X131466721Y-76055425D01*
X131466720Y-76055424D01*
X131466716Y-76055421D01*
X131463575Y-76053322D01*
X131384985Y-76000810D01*
X131384982Y-76000808D01*
X131384980Y-76000807D01*
X131298285Y-75954468D01*
X131264030Y-75940279D01*
X131207470Y-75916850D01*
X131154053Y-75900646D01*
X131113395Y-75888313D01*
X131066500Y-75878985D01*
X131016977Y-75869134D01*
X130951210Y-75862657D01*
X130919151Y-75859500D01*
X130820849Y-75859500D01*
X130791947Y-75862346D01*
X130723022Y-75869134D01*
X130626610Y-75888312D01*
X130626605Y-75888313D01*
X130626602Y-75888314D01*
X130532529Y-75916850D01*
X130441722Y-75954465D01*
X130441714Y-75954468D01*
X130355025Y-76000804D01*
X130355014Y-76000810D01*
X130273292Y-76055415D01*
X130273278Y-76055425D01*
X130197289Y-76117788D01*
X130127788Y-76187289D01*
X130065425Y-76263278D01*
X130065415Y-76263292D01*
X130010810Y-76345014D01*
X130010804Y-76345025D01*
X129964468Y-76431714D01*
X129964465Y-76431722D01*
X129926850Y-76522529D01*
X129898314Y-76616602D01*
X129898312Y-76616610D01*
X129879134Y-76713022D01*
X129877378Y-76730858D01*
X129869500Y-76810849D01*
X129869500Y-76909151D01*
X129870544Y-76919748D01*
X129879134Y-77006977D01*
X129879135Y-77006981D01*
X129898313Y-77103395D01*
X129908926Y-77138381D01*
X129926850Y-77197470D01*
X129944987Y-77241254D01*
X129964468Y-77288285D01*
X129998227Y-77351445D01*
X130010804Y-77374974D01*
X130010810Y-77374985D01*
X130065415Y-77456707D01*
X130065425Y-77456721D01*
X130127788Y-77532710D01*
X130197289Y-77602211D01*
X130197294Y-77602215D01*
X130197295Y-77602216D01*
X130273284Y-77664579D01*
X130355020Y-77719193D01*
X130441715Y-77765532D01*
X130532535Y-77803151D01*
X130556499Y-77810420D01*
X130591399Y-77827347D01*
X130619366Y-77854235D01*
X130637655Y-77888450D01*
X130644476Y-77926641D01*
X130644500Y-77929079D01*
X130644500Y-87622790D01*
X130644500Y-87667210D01*
X130644500Y-87667212D01*
X130644499Y-87667212D01*
X130653164Y-87710771D01*
X130653165Y-87710773D01*
X130653166Y-87710776D01*
X130653892Y-87712528D01*
X130670166Y-87751817D01*
X130694839Y-87788742D01*
X130694845Y-87788750D01*
X131593913Y-88687819D01*
X131616717Y-88719205D01*
X131628705Y-88756102D01*
X131628705Y-88794898D01*
X131616717Y-88831795D01*
X131593913Y-88863181D01*
X131562527Y-88885985D01*
X131525630Y-88897973D01*
X131506232Y-88899500D01*
X129445907Y-88899500D01*
X129407589Y-88893431D01*
X129373022Y-88875818D01*
X129345589Y-88848385D01*
X129327976Y-88813818D01*
X129324290Y-88799692D01*
X129323527Y-88795856D01*
X129321687Y-88786605D01*
X129293151Y-88692535D01*
X129255532Y-88601715D01*
X129209193Y-88515020D01*
X129154579Y-88433284D01*
X129092216Y-88357295D01*
X129092215Y-88357294D01*
X129092211Y-88357289D01*
X129022710Y-88287788D01*
X128946721Y-88225425D01*
X128946720Y-88225424D01*
X128946716Y-88225421D01*
X128902913Y-88196153D01*
X128864985Y-88170810D01*
X128864982Y-88170808D01*
X128864980Y-88170807D01*
X128778285Y-88124468D01*
X128740240Y-88108709D01*
X128687470Y-88086850D01*
X128634053Y-88070646D01*
X128593395Y-88058313D01*
X128532263Y-88046153D01*
X128496977Y-88039134D01*
X128431210Y-88032657D01*
X128399151Y-88029500D01*
X128300849Y-88029500D01*
X128271947Y-88032346D01*
X128203022Y-88039134D01*
X128106610Y-88058312D01*
X128106605Y-88058313D01*
X128106602Y-88058314D01*
X128012529Y-88086850D01*
X127921722Y-88124465D01*
X127921714Y-88124468D01*
X127835025Y-88170804D01*
X127835014Y-88170810D01*
X127753292Y-88225415D01*
X127753278Y-88225425D01*
X127677289Y-88287788D01*
X127607788Y-88357289D01*
X127545425Y-88433278D01*
X127545415Y-88433292D01*
X127490810Y-88515014D01*
X127490808Y-88515017D01*
X127477291Y-88540307D01*
X127458954Y-88574615D01*
X127458859Y-88574792D01*
X127435443Y-88605724D01*
X127403615Y-88627907D01*
X127366490Y-88639170D01*
X127327702Y-88638408D01*
X127291047Y-88625698D01*
X127260115Y-88602282D01*
X127237932Y-88570454D01*
X127226669Y-88533329D01*
X127225500Y-88516339D01*
X127225500Y-87308026D01*
X127231569Y-87269708D01*
X127249182Y-87235141D01*
X127276615Y-87207708D01*
X127280943Y-87205502D01*
X127867036Y-86619408D01*
X127875519Y-86651065D01*
X127900601Y-86711619D01*
X127933373Y-86768381D01*
X127973273Y-86820380D01*
X128019620Y-86866727D01*
X128071619Y-86906627D01*
X128128381Y-86939399D01*
X128188935Y-86964481D01*
X128220589Y-86972962D01*
X127660739Y-87532812D01*
X127706590Y-87563448D01*
X127706600Y-87563454D01*
X127814911Y-87621348D01*
X127928378Y-87668348D01*
X128045914Y-87704002D01*
X128166364Y-87727960D01*
X128288596Y-87740000D01*
X128411404Y-87740000D01*
X128533634Y-87727960D01*
X128533635Y-87727960D01*
X128654085Y-87704002D01*
X128771621Y-87668348D01*
X128885088Y-87621348D01*
X128993406Y-87563450D01*
X129039259Y-87532811D01*
X128479410Y-86972962D01*
X128511065Y-86964481D01*
X128571619Y-86939399D01*
X128628381Y-86906627D01*
X128680380Y-86866727D01*
X128726727Y-86820380D01*
X128766627Y-86768381D01*
X128799399Y-86711619D01*
X128824481Y-86651065D01*
X128832962Y-86619410D01*
X129392811Y-87179259D01*
X129423450Y-87133406D01*
X129481348Y-87025088D01*
X129528348Y-86911621D01*
X129564002Y-86794085D01*
X129587960Y-86673635D01*
X129587960Y-86673634D01*
X129600000Y-86551404D01*
X129600000Y-86428595D01*
X129587960Y-86306365D01*
X129587960Y-86306364D01*
X129564002Y-86185914D01*
X129528348Y-86068378D01*
X129481348Y-85954911D01*
X129423454Y-85846600D01*
X129423448Y-85846590D01*
X129392812Y-85800739D01*
X128832962Y-86360589D01*
X128824481Y-86328935D01*
X128799399Y-86268381D01*
X128766627Y-86211619D01*
X128726727Y-86159620D01*
X128680380Y-86113273D01*
X128628381Y-86073373D01*
X128571619Y-86040601D01*
X128511065Y-86015519D01*
X128479409Y-86007037D01*
X129039258Y-85447187D01*
X128993409Y-85416551D01*
X128993399Y-85416545D01*
X128885088Y-85358651D01*
X128771621Y-85311651D01*
X128654085Y-85275997D01*
X128533635Y-85252039D01*
X128411404Y-85240000D01*
X128288596Y-85240000D01*
X128166365Y-85252039D01*
X128166364Y-85252039D01*
X128045914Y-85275997D01*
X127928378Y-85311651D01*
X127814911Y-85358651D01*
X127706595Y-85416548D01*
X127660740Y-85447187D01*
X127660739Y-85447187D01*
X128220590Y-86007036D01*
X128188935Y-86015519D01*
X128128381Y-86040601D01*
X128071619Y-86073373D01*
X128019620Y-86113273D01*
X127973273Y-86159620D01*
X127933373Y-86211619D01*
X127900601Y-86268381D01*
X127875519Y-86328935D01*
X127867037Y-86360589D01*
X127280941Y-85774493D01*
X127276615Y-85772289D01*
X127267145Y-85762819D01*
X127256790Y-85754317D01*
X127253498Y-85749172D01*
X127249182Y-85744856D01*
X127243101Y-85732921D01*
X127235881Y-85721637D01*
X127234340Y-85715728D01*
X127231569Y-85710289D01*
X127229473Y-85697059D01*
X127226094Y-85684096D01*
X127225500Y-85671971D01*
X127225500Y-85144767D01*
X127231569Y-85106449D01*
X127249182Y-85071882D01*
X127261819Y-85057086D01*
X127415309Y-84903596D01*
X127570033Y-84748871D01*
X127601416Y-84726070D01*
X127638313Y-84714082D01*
X127677109Y-84714082D01*
X127714006Y-84726070D01*
X127736374Y-84740702D01*
X127753284Y-84754579D01*
X127835020Y-84809193D01*
X127921715Y-84855532D01*
X127980706Y-84879967D01*
X128012529Y-84893149D01*
X128012533Y-84893150D01*
X128012535Y-84893151D01*
X128106605Y-84921687D01*
X128203019Y-84940865D01*
X128300849Y-84950500D01*
X128300852Y-84950500D01*
X128399148Y-84950500D01*
X128399151Y-84950500D01*
X128496981Y-84940865D01*
X128593395Y-84921687D01*
X128687465Y-84893151D01*
X128778285Y-84855532D01*
X128864980Y-84809193D01*
X128946716Y-84754579D01*
X129022705Y-84692216D01*
X129092216Y-84622705D01*
X129154579Y-84546716D01*
X129209193Y-84464980D01*
X129255532Y-84378285D01*
X129293151Y-84287465D01*
X129321687Y-84193395D01*
X129340865Y-84096981D01*
X129350500Y-83999151D01*
X129350500Y-83900849D01*
X129340865Y-83803019D01*
X129321687Y-83706605D01*
X129293151Y-83612535D01*
X129255532Y-83521715D01*
X129209193Y-83435020D01*
X129154579Y-83353284D01*
X129092216Y-83277295D01*
X129092215Y-83277294D01*
X129092211Y-83277289D01*
X129022710Y-83207788D01*
X128946721Y-83145425D01*
X128946720Y-83145424D01*
X128946716Y-83145421D01*
X128918536Y-83126592D01*
X128864985Y-83090810D01*
X128864982Y-83090808D01*
X128864980Y-83090807D01*
X128778285Y-83044468D01*
X128751659Y-83033439D01*
X128687470Y-83006850D01*
X128634053Y-82990646D01*
X128593395Y-82978313D01*
X128546500Y-82968985D01*
X128496977Y-82959134D01*
X128431210Y-82952657D01*
X128399151Y-82949500D01*
X128300849Y-82949500D01*
X128271947Y-82952346D01*
X128203022Y-82959134D01*
X128106610Y-82978312D01*
X128106605Y-82978313D01*
X128106602Y-82978314D01*
X128012529Y-83006850D01*
X127921722Y-83044465D01*
X127921714Y-83044468D01*
X127835025Y-83090804D01*
X127835014Y-83090810D01*
X127753292Y-83145415D01*
X127753278Y-83145425D01*
X127677289Y-83207788D01*
X127607788Y-83277289D01*
X127545425Y-83353278D01*
X127545415Y-83353292D01*
X127490810Y-83435014D01*
X127490804Y-83435025D01*
X127444468Y-83521714D01*
X127444465Y-83521722D01*
X127406850Y-83612529D01*
X127378314Y-83706602D01*
X127378312Y-83706610D01*
X127359134Y-83803022D01*
X127355267Y-83842290D01*
X127349500Y-83900849D01*
X127349500Y-83999151D01*
X127352432Y-84028923D01*
X127359134Y-84096977D01*
X127368611Y-84144618D01*
X127377422Y-84188918D01*
X127378313Y-84193394D01*
X127382199Y-84206207D01*
X127387512Y-84244637D01*
X127380690Y-84282828D01*
X127362399Y-84317042D01*
X127351217Y-84329876D01*
X126857249Y-84823845D01*
X126857227Y-84823867D01*
X126856252Y-84824843D01*
X126824843Y-84856252D01*
X126821586Y-84861126D01*
X126814104Y-84868948D01*
X126807164Y-84874228D01*
X126801249Y-84880626D01*
X126791828Y-84885899D01*
X126783231Y-84892442D01*
X126775002Y-84895318D01*
X126767397Y-84899576D01*
X126756802Y-84901681D01*
X126746608Y-84905245D01*
X126737894Y-84905438D01*
X126729345Y-84907137D01*
X126718619Y-84905865D01*
X126707822Y-84906105D01*
X126699474Y-84903596D01*
X126690819Y-84902570D01*
X126681012Y-84898047D01*
X126670669Y-84894938D01*
X126663503Y-84889970D01*
X126655590Y-84886321D01*
X126647663Y-84878990D01*
X126638784Y-84872836D01*
X126633503Y-84865896D01*
X126627106Y-84859981D01*
X126621832Y-84850560D01*
X126615290Y-84841963D01*
X126612413Y-84833734D01*
X126608156Y-84826129D01*
X126606050Y-84815534D01*
X126602487Y-84805340D01*
X126602293Y-84796626D01*
X126600595Y-84788077D01*
X126600500Y-84783232D01*
X126600500Y-75992532D01*
X127080000Y-75992532D01*
X127080000Y-76610000D01*
X127896987Y-76610000D01*
X127880601Y-76638381D01*
X127855519Y-76698935D01*
X127838555Y-76762246D01*
X127830000Y-76827228D01*
X127830000Y-76892772D01*
X127838555Y-76957754D01*
X127855519Y-77021065D01*
X127880601Y-77081619D01*
X127896987Y-77110000D01*
X127080000Y-77110000D01*
X127080000Y-77727467D01*
X127084571Y-77779720D01*
X127084572Y-77779726D01*
X127102688Y-77847333D01*
X127102688Y-77847334D01*
X127132268Y-77910766D01*
X127172408Y-77968092D01*
X127172413Y-77968098D01*
X127221901Y-78017586D01*
X127221907Y-78017591D01*
X127279233Y-78057731D01*
X127342665Y-78087311D01*
X127410273Y-78105427D01*
X127410279Y-78105428D01*
X127462532Y-78109999D01*
X127462533Y-78110000D01*
X128080000Y-78110000D01*
X128080000Y-77293013D01*
X128108381Y-77309399D01*
X128168935Y-77334481D01*
X128232246Y-77351445D01*
X128297228Y-77360000D01*
X128362772Y-77360000D01*
X128427754Y-77351445D01*
X128491065Y-77334481D01*
X128551619Y-77309399D01*
X128580000Y-77293013D01*
X128580000Y-78110000D01*
X129197467Y-78110000D01*
X129197467Y-78109999D01*
X129249720Y-78105428D01*
X129249726Y-78105427D01*
X129317333Y-78087311D01*
X129317334Y-78087311D01*
X129380766Y-78057731D01*
X129438092Y-78017591D01*
X129438098Y-78017586D01*
X129487586Y-77968098D01*
X129487591Y-77968092D01*
X129527731Y-77910766D01*
X129557311Y-77847334D01*
X129557311Y-77847333D01*
X129575427Y-77779726D01*
X129575428Y-77779720D01*
X129579999Y-77727467D01*
X129580000Y-77727467D01*
X129580000Y-77110000D01*
X128763013Y-77110000D01*
X128779399Y-77081619D01*
X128804481Y-77021065D01*
X128821445Y-76957754D01*
X128830000Y-76892772D01*
X128830000Y-76827228D01*
X128821445Y-76762246D01*
X128804481Y-76698935D01*
X128779399Y-76638381D01*
X128763013Y-76610000D01*
X129580000Y-76610000D01*
X129580000Y-75992533D01*
X129579999Y-75992532D01*
X129575428Y-75940279D01*
X129575427Y-75940273D01*
X129557311Y-75872666D01*
X129557311Y-75872665D01*
X129527731Y-75809233D01*
X129487591Y-75751907D01*
X129487586Y-75751901D01*
X129438098Y-75702413D01*
X129438092Y-75702408D01*
X129380766Y-75662268D01*
X129317334Y-75632688D01*
X129249726Y-75614572D01*
X129249720Y-75614571D01*
X129197467Y-75610000D01*
X128580000Y-75610000D01*
X128580000Y-76426987D01*
X128551619Y-76410601D01*
X128491065Y-76385519D01*
X128427754Y-76368555D01*
X128362772Y-76360000D01*
X128297228Y-76360000D01*
X128232246Y-76368555D01*
X128168935Y-76385519D01*
X128108381Y-76410601D01*
X128080000Y-76426987D01*
X128080000Y-75610000D01*
X127462533Y-75610000D01*
X127410279Y-75614571D01*
X127410273Y-75614572D01*
X127342666Y-75632688D01*
X127342665Y-75632688D01*
X127279233Y-75662268D01*
X127221907Y-75702408D01*
X127221901Y-75702413D01*
X127172413Y-75751901D01*
X127172408Y-75751907D01*
X127132268Y-75809233D01*
X127102688Y-75872665D01*
X127102688Y-75872666D01*
X127084572Y-75940273D01*
X127084571Y-75940279D01*
X127080000Y-75992532D01*
X126600500Y-75992532D01*
X126600500Y-75324500D01*
X126606569Y-75286182D01*
X126624182Y-75251615D01*
X126651615Y-75224182D01*
X126686182Y-75206569D01*
X126724500Y-75200500D01*
X152775500Y-75200500D01*
X152813818Y-75206569D01*
G37*
G04 #@! TD.AperFunction*
G04 #@! TA.AperFunction,Conductor*
G36*
X137359737Y-86903569D02*
G01*
X137394304Y-86921182D01*
X137421737Y-86948615D01*
X137439350Y-86983182D01*
X137445419Y-87021500D01*
X137439350Y-87059818D01*
X137421737Y-87094385D01*
X137409100Y-87109181D01*
X137205100Y-87313181D01*
X137173714Y-87335985D01*
X137136817Y-87347973D01*
X137125273Y-87348881D01*
X137125292Y-87349118D01*
X137120440Y-87349499D01*
X137062068Y-87358745D01*
X137062065Y-87358745D01*
X137062064Y-87358746D01*
X137043838Y-87364667D01*
X137005847Y-87377012D01*
X136953185Y-87403846D01*
X136905377Y-87438579D01*
X136863573Y-87480383D01*
X136828840Y-87528191D01*
X136802006Y-87580853D01*
X136793906Y-87605782D01*
X136785915Y-87630378D01*
X136783739Y-87637074D01*
X136774494Y-87695443D01*
X136774494Y-87754556D01*
X136782132Y-87802777D01*
X136783740Y-87812930D01*
X136794306Y-87845448D01*
X136802006Y-87869146D01*
X136814678Y-87894015D01*
X136827329Y-87918844D01*
X136828840Y-87921808D01*
X136863573Y-87969616D01*
X136905377Y-88011420D01*
X136943524Y-88039134D01*
X136953189Y-88046156D01*
X136977047Y-88058312D01*
X137005847Y-88072987D01*
X137005849Y-88072987D01*
X137005852Y-88072989D01*
X137062064Y-88091254D01*
X137091253Y-88095877D01*
X137120438Y-88100500D01*
X137120442Y-88100500D01*
X137179550Y-88100500D01*
X137205491Y-88096390D01*
X137237924Y-88091254D01*
X137294136Y-88072989D01*
X137346799Y-88046156D01*
X137356464Y-88039134D01*
X137377109Y-88024135D01*
X137411676Y-88006521D01*
X137449994Y-88000452D01*
X137488312Y-88006521D01*
X137522879Y-88024133D01*
X137522880Y-88024134D01*
X137543527Y-88039134D01*
X137553192Y-88046156D01*
X137577050Y-88058312D01*
X137605850Y-88072987D01*
X137605852Y-88072987D01*
X137605855Y-88072989D01*
X137662067Y-88091254D01*
X137691256Y-88095877D01*
X137720441Y-88100500D01*
X137720445Y-88100500D01*
X137779553Y-88100500D01*
X137805494Y-88096390D01*
X137837927Y-88091254D01*
X137894139Y-88072989D01*
X137946802Y-88046156D01*
X137956467Y-88039134D01*
X137977112Y-88024135D01*
X138011679Y-88006521D01*
X138049997Y-88000452D01*
X138088315Y-88006521D01*
X138122882Y-88024133D01*
X138122883Y-88024134D01*
X138143530Y-88039134D01*
X138153195Y-88046156D01*
X138177053Y-88058312D01*
X138205853Y-88072987D01*
X138205855Y-88072987D01*
X138205858Y-88072989D01*
X138262070Y-88091254D01*
X138291259Y-88095877D01*
X138320444Y-88100500D01*
X138320448Y-88100500D01*
X138379556Y-88100500D01*
X138405497Y-88096390D01*
X138437930Y-88091254D01*
X138494142Y-88072989D01*
X138546805Y-88046156D01*
X138573650Y-88026651D01*
X138594616Y-88011420D01*
X138594618Y-88011417D01*
X138594622Y-88011415D01*
X138619218Y-87986819D01*
X138650604Y-87964015D01*
X138687501Y-87952027D01*
X138706899Y-87950500D01*
X143538081Y-87950500D01*
X143576399Y-87956569D01*
X143610966Y-87974182D01*
X143638399Y-88001615D01*
X143656012Y-88036182D01*
X143662081Y-88074500D01*
X143656012Y-88112818D01*
X143638399Y-88147385D01*
X143625762Y-88162181D01*
X143330762Y-88457181D01*
X143299376Y-88479985D01*
X143262479Y-88491973D01*
X143243081Y-88493500D01*
X136512258Y-88493500D01*
X136473940Y-88487431D01*
X136439373Y-88469818D01*
X136424577Y-88457181D01*
X136057671Y-88090275D01*
X136022622Y-88066857D01*
X136022623Y-88066857D01*
X136022621Y-88066856D01*
X135983675Y-88050724D01*
X135983677Y-88050724D01*
X135983105Y-88050610D01*
X135982549Y-88050500D01*
X135982542Y-88050498D01*
X135942333Y-88042500D01*
X135942331Y-88042500D01*
X135649271Y-88042500D01*
X135610953Y-88036431D01*
X135576386Y-88018818D01*
X135548953Y-87991385D01*
X135531340Y-87956818D01*
X135525271Y-87918500D01*
X135528283Y-87891338D01*
X135531702Y-87876105D01*
X135547989Y-87844142D01*
X135566254Y-87787930D01*
X135575500Y-87729552D01*
X135575500Y-87681020D01*
X135578512Y-87667604D01*
X135580658Y-87662197D01*
X135581569Y-87656448D01*
X135587780Y-87644256D01*
X135592827Y-87631546D01*
X135596539Y-87627066D01*
X135599182Y-87621881D01*
X135611819Y-87607085D01*
X136285086Y-86933819D01*
X136316472Y-86911015D01*
X136353369Y-86899027D01*
X136372767Y-86897500D01*
X137321419Y-86897500D01*
X137359737Y-86903569D01*
G37*
G04 #@! TD.AperFunction*
G04 #@! TA.AperFunction,Conductor*
G36*
X184123425Y-75206569D02*
G01*
X184157992Y-75224182D01*
X184185425Y-75251615D01*
X184203038Y-75286182D01*
X184209106Y-75324497D01*
X184209048Y-78250500D01*
X184208881Y-86615616D01*
X184202811Y-86653934D01*
X184185198Y-86688501D01*
X184157764Y-86715934D01*
X184123197Y-86733546D01*
X184084879Y-86739614D01*
X184046561Y-86733544D01*
X184011994Y-86715931D01*
X183997200Y-86703295D01*
X183718753Y-86424847D01*
X183718746Y-86424841D01*
X183681817Y-86400166D01*
X183644979Y-86384907D01*
X183640776Y-86383166D01*
X183640774Y-86383165D01*
X183640773Y-86383165D01*
X183640771Y-86383164D01*
X183597212Y-86374500D01*
X183597210Y-86374500D01*
X182746932Y-86374500D01*
X182737291Y-86372973D01*
X182727534Y-86372973D01*
X182718253Y-86369957D01*
X182708614Y-86368431D01*
X182699919Y-86364001D01*
X182690637Y-86360985D01*
X182682740Y-86355247D01*
X182674047Y-86350818D01*
X182659251Y-86338181D01*
X182581033Y-86259963D01*
X182558229Y-86228577D01*
X182546241Y-86191680D01*
X182544714Y-86172282D01*
X182544714Y-86137492D01*
X182539577Y-86105064D01*
X182535468Y-86079119D01*
X182517203Y-86022907D01*
X182517201Y-86022904D01*
X182517201Y-86022902D01*
X182502443Y-85993939D01*
X182490370Y-85970244D01*
X182483603Y-85960930D01*
X182455634Y-85922432D01*
X182413830Y-85880628D01*
X182366022Y-85845895D01*
X182366021Y-85845894D01*
X182366019Y-85845893D01*
X182349575Y-85837514D01*
X182313360Y-85819061D01*
X182295087Y-85813124D01*
X182257144Y-85800795D01*
X182257140Y-85800794D01*
X182257139Y-85800794D01*
X182198770Y-85791549D01*
X182198766Y-85791549D01*
X182139662Y-85791549D01*
X182139658Y-85791549D01*
X182081288Y-85800794D01*
X182081285Y-85800794D01*
X182081284Y-85800795D01*
X182063058Y-85806716D01*
X182025067Y-85819061D01*
X181972405Y-85845895D01*
X181924597Y-85880628D01*
X181882793Y-85922432D01*
X181848058Y-85970242D01*
X181835984Y-85993939D01*
X181813180Y-86025325D01*
X181781793Y-86048129D01*
X181744896Y-86060117D01*
X181706101Y-86060116D01*
X181669204Y-86048127D01*
X181637818Y-86025323D01*
X181615014Y-85993936D01*
X181603026Y-85957039D01*
X181601500Y-85937643D01*
X181601500Y-85515976D01*
X181592835Y-85472418D01*
X181592834Y-85472417D01*
X181592834Y-85472413D01*
X181588896Y-85462906D01*
X181584181Y-85451522D01*
X181584179Y-85451519D01*
X181582385Y-85447187D01*
X181575836Y-85431375D01*
X181551158Y-85394442D01*
X181551155Y-85394438D01*
X177788611Y-81631894D01*
X177788604Y-81631888D01*
X177751675Y-81607213D01*
X177731153Y-81598712D01*
X177710634Y-81590213D01*
X177710632Y-81590212D01*
X177710631Y-81590212D01*
X177710629Y-81590211D01*
X177667070Y-81581547D01*
X177667068Y-81581547D01*
X174169990Y-81581547D01*
X174169988Y-81581547D01*
X174126428Y-81590211D01*
X174126426Y-81590212D01*
X174085382Y-81607213D01*
X174048457Y-81631886D01*
X174048449Y-81631892D01*
X173730660Y-81949681D01*
X173699274Y-81972485D01*
X173662377Y-81984473D01*
X173642979Y-81986000D01*
X173608191Y-81986000D01*
X173549821Y-81995245D01*
X173549818Y-81995245D01*
X173549817Y-81995246D01*
X173534669Y-82000168D01*
X173493600Y-82013512D01*
X173440938Y-82040346D01*
X173393130Y-82075079D01*
X173351326Y-82116883D01*
X173316593Y-82164691D01*
X173289759Y-82217353D01*
X173271492Y-82273574D01*
X173262247Y-82331943D01*
X173262247Y-82391057D01*
X173270411Y-82442602D01*
X173270411Y-82481398D01*
X173258423Y-82518295D01*
X173235619Y-82549681D01*
X173204233Y-82572485D01*
X173167336Y-82584473D01*
X173147938Y-82586000D01*
X172740003Y-82586000D01*
X172730362Y-82584473D01*
X172720604Y-82584473D01*
X172711324Y-82581457D01*
X172701685Y-82579931D01*
X172692988Y-82575499D01*
X172683707Y-82572484D01*
X172675811Y-82566747D01*
X172667118Y-82562318D01*
X172652329Y-82549687D01*
X172577743Y-82475101D01*
X172554942Y-82443717D01*
X172542954Y-82406820D01*
X172542954Y-82368024D01*
X172554943Y-82331127D01*
X172565109Y-82314537D01*
X172569421Y-82308602D01*
X172596156Y-82271805D01*
X172622989Y-82219142D01*
X172641254Y-82162930D01*
X172648548Y-82116878D01*
X172650500Y-82104556D01*
X172650500Y-82045443D01*
X172643911Y-82003846D01*
X172641254Y-81987070D01*
X172622989Y-81930858D01*
X172622987Y-81930855D01*
X172622987Y-81930853D01*
X172607521Y-81900500D01*
X172596156Y-81878195D01*
X172587447Y-81866208D01*
X172561420Y-81830383D01*
X172519616Y-81788579D01*
X172471808Y-81753846D01*
X172471807Y-81753845D01*
X172471805Y-81753844D01*
X172455361Y-81745465D01*
X172419146Y-81727012D01*
X172400916Y-81721089D01*
X172362930Y-81708746D01*
X172362926Y-81708745D01*
X172362925Y-81708745D01*
X172304556Y-81699500D01*
X172304552Y-81699500D01*
X172245448Y-81699500D01*
X172245444Y-81699500D01*
X172187074Y-81708745D01*
X172187071Y-81708745D01*
X172187070Y-81708746D01*
X172168844Y-81714667D01*
X172130853Y-81727012D01*
X172078191Y-81753846D01*
X172030383Y-81788579D01*
X171988579Y-81830383D01*
X171953846Y-81878191D01*
X171927012Y-81930853D01*
X171917949Y-81958746D01*
X171912015Y-81977011D01*
X171908745Y-81987074D01*
X171899500Y-82045443D01*
X171899500Y-82104556D01*
X171905797Y-82144312D01*
X171908746Y-82162930D01*
X171921089Y-82200916D01*
X171927012Y-82219146D01*
X171953846Y-82271808D01*
X171988579Y-82319616D01*
X172024681Y-82355718D01*
X172030417Y-82363613D01*
X172037318Y-82370514D01*
X172041747Y-82379207D01*
X172047485Y-82387104D01*
X172050501Y-82396386D01*
X172054931Y-82405081D01*
X172056457Y-82414720D01*
X172059473Y-82424001D01*
X172061000Y-82443399D01*
X172061000Y-82467732D01*
X172054931Y-82506050D01*
X172037318Y-82540617D01*
X172009885Y-82568050D01*
X171975318Y-82585663D01*
X171937000Y-82591732D01*
X171898682Y-82585663D01*
X171864115Y-82568050D01*
X171849319Y-82555413D01*
X171711819Y-82417913D01*
X171689015Y-82386527D01*
X171677027Y-82349630D01*
X171675500Y-82330232D01*
X171675500Y-82295443D01*
X171668522Y-82251391D01*
X171666254Y-82237070D01*
X171647989Y-82180858D01*
X171647987Y-82180855D01*
X171647987Y-82180853D01*
X171638252Y-82161748D01*
X171621156Y-82128195D01*
X171618922Y-82125120D01*
X171586420Y-82080383D01*
X171544616Y-82038579D01*
X171496808Y-82003846D01*
X171496807Y-82003845D01*
X171496805Y-82003844D01*
X171469040Y-81989697D01*
X171444146Y-81977012D01*
X171425916Y-81971089D01*
X171387930Y-81958746D01*
X171387926Y-81958745D01*
X171387925Y-81958745D01*
X171329556Y-81949500D01*
X171329552Y-81949500D01*
X171270448Y-81949500D01*
X171270444Y-81949500D01*
X171212074Y-81958745D01*
X171212071Y-81958745D01*
X171212070Y-81958746D01*
X171193844Y-81964667D01*
X171155853Y-81977012D01*
X171103191Y-82003846D01*
X171055383Y-82038579D01*
X171055378Y-82038583D01*
X171023482Y-82070480D01*
X170992095Y-82093284D01*
X170955198Y-82105272D01*
X170916402Y-82105271D01*
X170879506Y-82093282D01*
X170848121Y-82070479D01*
X167338823Y-78561181D01*
X167316019Y-78529795D01*
X167304031Y-78492898D01*
X167304031Y-78454102D01*
X167316019Y-78417205D01*
X167338823Y-78385819D01*
X167370209Y-78363015D01*
X167407106Y-78351027D01*
X167426504Y-78349500D01*
X172198212Y-78349500D01*
X172241771Y-78340835D01*
X172241771Y-78340834D01*
X172241776Y-78340834D01*
X172282814Y-78323835D01*
X172319748Y-78299157D01*
X172332086Y-78286819D01*
X172363472Y-78264015D01*
X172400369Y-78252027D01*
X172419767Y-78250500D01*
X172454556Y-78250500D01*
X172480497Y-78246390D01*
X172512930Y-78241254D01*
X172569142Y-78222989D01*
X172621805Y-78196156D01*
X172648650Y-78176651D01*
X172669616Y-78161420D01*
X172669618Y-78161417D01*
X172669622Y-78161415D01*
X172711415Y-78119622D01*
X172711417Y-78119618D01*
X172711420Y-78119616D01*
X172734890Y-78087311D01*
X172746156Y-78071805D01*
X172772989Y-78019142D01*
X172791254Y-77962930D01*
X172799516Y-77910766D01*
X172800500Y-77904556D01*
X172800500Y-77845443D01*
X172795332Y-77812818D01*
X172791254Y-77787070D01*
X172772989Y-77730858D01*
X172772987Y-77730855D01*
X172772987Y-77730853D01*
X172758089Y-77701615D01*
X172746156Y-77678195D01*
X172736267Y-77664584D01*
X172711420Y-77630383D01*
X172669616Y-77588579D01*
X172621808Y-77553846D01*
X172621807Y-77553845D01*
X172621805Y-77553844D01*
X172605361Y-77545465D01*
X172569146Y-77527012D01*
X172550916Y-77521089D01*
X172512930Y-77508746D01*
X172512926Y-77508745D01*
X172512925Y-77508745D01*
X172454556Y-77499500D01*
X172454552Y-77499500D01*
X172395448Y-77499500D01*
X172395444Y-77499500D01*
X172337074Y-77508745D01*
X172337071Y-77508745D01*
X172337070Y-77508746D01*
X172318844Y-77514667D01*
X172280853Y-77527012D01*
X172228191Y-77553846D01*
X172180383Y-77588579D01*
X172138579Y-77630383D01*
X172103846Y-77678191D01*
X172077012Y-77730853D01*
X172058745Y-77787072D01*
X172057664Y-77793902D01*
X172045674Y-77830799D01*
X172022869Y-77862184D01*
X171991482Y-77884987D01*
X171954585Y-77896974D01*
X171935191Y-77898500D01*
X171117767Y-77898500D01*
X171079449Y-77892431D01*
X171044882Y-77874818D01*
X171017449Y-77847385D01*
X170999836Y-77812818D01*
X170993767Y-77774500D01*
X170999836Y-77736182D01*
X171017449Y-77701615D01*
X171030086Y-77686819D01*
X171341930Y-77374974D01*
X171448691Y-77268212D01*
X171480074Y-77245411D01*
X171498042Y-77237968D01*
X171544142Y-77222989D01*
X171596805Y-77196156D01*
X171623650Y-77176651D01*
X171644616Y-77161420D01*
X171644618Y-77161417D01*
X171644622Y-77161415D01*
X171686415Y-77119622D01*
X171686417Y-77119618D01*
X171686420Y-77119616D01*
X171701651Y-77098650D01*
X171721156Y-77071805D01*
X171747989Y-77019142D01*
X171766254Y-76962930D01*
X171771803Y-76927896D01*
X171775500Y-76904556D01*
X171775500Y-76845443D01*
X171768079Y-76798595D01*
X171766254Y-76787070D01*
X171747989Y-76730858D01*
X171747987Y-76730855D01*
X171747987Y-76730853D01*
X171732011Y-76699500D01*
X171721156Y-76678195D01*
X171718922Y-76675120D01*
X171686420Y-76630383D01*
X171644616Y-76588579D01*
X171601578Y-76557311D01*
X171574145Y-76529879D01*
X171556532Y-76495312D01*
X171550463Y-76456994D01*
X171556532Y-76418675D01*
X171574145Y-76384108D01*
X171586782Y-76369312D01*
X171883112Y-76072983D01*
X172269276Y-75686819D01*
X172300662Y-75664015D01*
X172337559Y-75652027D01*
X172356957Y-75650500D01*
X173793101Y-75650500D01*
X173831419Y-75656569D01*
X173865986Y-75674182D01*
X173880782Y-75686819D01*
X173905383Y-75711420D01*
X173950120Y-75743922D01*
X173953195Y-75746156D01*
X173986748Y-75763252D01*
X174005853Y-75772987D01*
X174005855Y-75772987D01*
X174005858Y-75772989D01*
X174062070Y-75791254D01*
X174091259Y-75795877D01*
X174120444Y-75800500D01*
X174120448Y-75800500D01*
X174179556Y-75800500D01*
X174205497Y-75796390D01*
X174237930Y-75791254D01*
X174294142Y-75772989D01*
X174346805Y-75746156D01*
X174373650Y-75726651D01*
X174394616Y-75711420D01*
X174394618Y-75711417D01*
X174394622Y-75711415D01*
X174436415Y-75669622D01*
X174436417Y-75669618D01*
X174436420Y-75669616D01*
X174451651Y-75648650D01*
X174471156Y-75621805D01*
X174497989Y-75569142D01*
X174516254Y-75512930D01*
X174521390Y-75480497D01*
X174525500Y-75454556D01*
X174525500Y-75395442D01*
X174517336Y-75343898D01*
X174517336Y-75305102D01*
X174529324Y-75268205D01*
X174552128Y-75236819D01*
X174583514Y-75214015D01*
X174620411Y-75202027D01*
X174639809Y-75200500D01*
X184085107Y-75200500D01*
X184123425Y-75206569D01*
G37*
G04 #@! TD.AperFunction*
M02*
