M48
; DRILL file {KiCad 9.0.2} date 2025-06-19T13:18:15-0400
; FORMAT={-:-/ absolute / metric / decimal}
; #@! TF.CreationDate,2025-06-19T13:18:15-04:00
; #@! TF.GenerationSoftware,Kicad,Pcbnew,9.0.2
; #@! TF.FileFunction,Plated,1,2,PTH
FMAT,2
METRIC
; #@! TA.AperFunction,Plated,PTH,ViaDrill
T1C0.300
; #@! TA.AperFunction,Plated,PTH,ViaDrill
T2C0.400
; #@! TA.AperFunction,Plated,PTH,ComponentDrill
T3C0.800
; #@! TA.AperFunction,Plated,PTH,ComponentDrill
T4C1.000
%
G90
G05
T1
X127.61Y-80.34
X131.04Y-93.94
X133.6Y-83.2
X134.5Y-89.8
X135.2Y-87.7
X135.2Y-92.8
X135.2Y-95.0
X136.55Y-88.17
X136.9Y-80.1
X137.15Y-87.725
X137.75Y-87.725
X138.1Y-92.8
X138.1Y-95.0
X138.35Y-87.725
X141.4Y-82.8
X146.625Y-95.625
X146.9Y-93.1
X148.625Y-87.875
X149.1Y-94.575
X149.15Y-91.725
X151.43Y-83.41
X151.5Y-87.8
X152.525Y-85.873
X155.13Y-87.7
X159.65Y-93.05
X162.51Y-93.03
X162.79Y-83.8
X162.83Y-85.5
X165.41Y-93.08
X170.925Y-75.875
X171.15Y-86.325
X171.3Y-78.7
X171.3Y-80.0
X171.3Y-81.2
X171.3Y-82.325
X171.4Y-76.875
X171.825Y-86.325
X172.158Y-88.24
X172.2Y-89.5
X172.269Y-83.494
X172.275Y-82.075
X172.425Y-77.875
X172.7Y-78.7
X172.7Y-80.0
X172.7Y-81.2
X172.9Y-86.6
X173.638Y-82.361
X174.15Y-75.425
X174.2Y-78.7
X174.2Y-80.0
X174.2Y-81.2
X174.3Y-83.899
X174.65Y-86.5
X174.89Y-93.02
X175.1Y-83.9
X177.1Y-75.6
X177.3Y-77.6
X177.3Y-79.6
X177.3Y-81.3
X177.575Y-89.5
X177.85Y-82.65
X178.5Y-90.625
X178.7Y-75.53
X179.1Y-77.1
X179.1Y-77.9
X179.1Y-80.8
X179.1Y-81.9
X179.79Y-75.52
X179.9Y-77.1
X179.9Y-77.9
X179.9Y-80.8
X179.9Y-81.9
X180.1Y-89.825
X181.7Y-92.6
X181.826Y-86.659
X182.169Y-86.167
X182.49Y-85.66
X183.0Y-94.1
T2
X136.825Y-90.8
X149.4Y-90.201
X152.525Y-81.2
X153.3Y-87.65
X154.4Y-80.8
X159.875Y-79.875
X167.825Y-81.35
X170.1Y-84.225
T3
X160.503Y-94.7
X162.503Y-94.7
X164.503Y-94.7
T4
X128.33Y-76.86
X128.35Y-83.95
X128.35Y-86.49
X128.35Y-89.03
X128.35Y-91.57
X128.35Y-94.11
X130.87Y-76.86
X133.41Y-76.86
X135.95Y-76.86
X138.49Y-76.86
X141.03Y-76.86
X143.57Y-76.86
X146.11Y-76.86
X148.65Y-76.86
X151.19Y-76.86
X154.425Y-93.075
X154.425Y-95.615
X169.88Y-95.62
X172.42Y-95.62
X174.96Y-95.62
X180.0Y-88.4
X182.54Y-88.4
M30
