G04 #@! TF.GenerationSoftware,KiCad,Pcbnew,9.0.2*
G04 #@! TF.CreationDate,2025-06-13T02:03:27-04:00*
G04 #@! TF.ProjectId,farlock3,6661726c-6f63-46b3-932e-6b696361645f,v01*
G04 #@! TF.SameCoordinates,Original*
G04 #@! TF.FileFunction,Legend,Bot*
G04 #@! TF.FilePolarity,Positive*
%FSLAX46Y46*%
G04 Gerber Fmt 4.6, Leading zero omitted, Abs format (unit mm)*
G04 Created by KiCad (PCBNEW 9.0.2) date 2025-06-13 02:03:27*
%MOMM*%
%LPD*%
G01*
G04 APERTURE LIST*
G04 Aperture macros list*
%AMFreePoly0*
4,1,35,0.500000,-0.750000,0.000000,-0.750000,0.000000,-0.748929,-0.032702,-0.748929,-0.097545,-0.740393,-0.160720,-0.723465,-0.221144,-0.698436,-0.277785,-0.665735,-0.329673,-0.625920,-0.375920,-0.579673,-0.415735,-0.527785,-0.448436,-0.471144,-0.473465,-0.410720,-0.490393,-0.347545,-0.498929,-0.282702,-0.498929,-0.250000,-0.500000,-0.250000,-0.500000,0.250000,-0.498929,0.250000,-0.498929,0.282702,
-0.490393,0.347545,-0.473465,0.410720,-0.448436,0.471144,-0.415735,0.527785,-0.375920,0.579673,-0.329673,0.625920,-0.277785,0.665735,-0.221144,0.698436,-0.160720,0.723465,-0.097545,0.740393,-0.032702,0.748929,0.000000,0.748929,0.000000,0.750000,0.500000,0.750000,0.500000,-0.750000,0.500000,-0.750000,$1*%
%AMFreePoly1*
4,1,35,0.000000,0.748929,0.032702,0.748929,0.097545,0.740393,0.160720,0.723465,0.221144,0.698436,0.277785,0.665735,0.329673,0.625920,0.375920,0.579673,0.415735,0.527785,0.448436,0.471144,0.473465,0.410720,0.490393,0.347545,0.498929,0.282702,0.498929,0.250000,0.500000,0.250000,0.500000,-0.250000,0.498929,-0.250000,0.498929,-0.282702,0.490393,-0.347545,0.473465,-0.410720,
0.448436,-0.471144,0.415735,-0.527785,0.375920,-0.579673,0.329673,-0.625920,0.277785,-0.665735,0.221144,-0.698436,0.160720,-0.723465,0.097545,-0.740393,0.032702,-0.748929,0.000000,-0.748929,0.000000,-0.750000,-0.500000,-0.750000,-0.500000,0.750000,0.000000,0.750000,0.000000,0.748929,0.000000,0.748929,$1*%
G04 Aperture macros list end*
%ADD10C,0.300000*%
%ADD11C,0.150000*%
%ADD12C,0.120000*%
%ADD13C,0.900000*%
%ADD14R,1.700000X1.700000*%
%ADD15C,1.700000*%
%ADD16FreePoly0,270.000000*%
%ADD17FreePoly1,270.000000*%
%ADD18FreePoly0,90.000000*%
%ADD19FreePoly1,90.000000*%
G04 APERTURE END LIST*
D10*
X131050828Y-128790225D02*
X131050828Y-129361653D01*
X132050828Y-129004510D02*
X130765114Y-129004510D01*
X130765114Y-129004510D02*
X130622257Y-129075939D01*
X130622257Y-129075939D02*
X130550828Y-129218796D01*
X130550828Y-129218796D02*
X130550828Y-129361653D01*
X132050828Y-130504511D02*
X131265114Y-130504511D01*
X131265114Y-130504511D02*
X131122257Y-130433082D01*
X131122257Y-130433082D02*
X131050828Y-130290225D01*
X131050828Y-130290225D02*
X131050828Y-130004511D01*
X131050828Y-130004511D02*
X131122257Y-129861653D01*
X131979400Y-130504511D02*
X132050828Y-130361653D01*
X132050828Y-130361653D02*
X132050828Y-130004511D01*
X132050828Y-130004511D02*
X131979400Y-129861653D01*
X131979400Y-129861653D02*
X131836542Y-129790225D01*
X131836542Y-129790225D02*
X131693685Y-129790225D01*
X131693685Y-129790225D02*
X131550828Y-129861653D01*
X131550828Y-129861653D02*
X131479400Y-130004511D01*
X131479400Y-130004511D02*
X131479400Y-130361653D01*
X131479400Y-130361653D02*
X131407971Y-130504511D01*
X132050828Y-131218796D02*
X131050828Y-131218796D01*
X131336542Y-131218796D02*
X131193685Y-131290225D01*
X131193685Y-131290225D02*
X131122257Y-131361654D01*
X131122257Y-131361654D02*
X131050828Y-131504511D01*
X131050828Y-131504511D02*
X131050828Y-131647368D01*
X132050828Y-132361653D02*
X131979400Y-132218796D01*
X131979400Y-132218796D02*
X131836542Y-132147367D01*
X131836542Y-132147367D02*
X130550828Y-132147367D01*
X132050828Y-133147367D02*
X131979400Y-133004510D01*
X131979400Y-133004510D02*
X131907971Y-132933081D01*
X131907971Y-132933081D02*
X131765114Y-132861653D01*
X131765114Y-132861653D02*
X131336542Y-132861653D01*
X131336542Y-132861653D02*
X131193685Y-132933081D01*
X131193685Y-132933081D02*
X131122257Y-133004510D01*
X131122257Y-133004510D02*
X131050828Y-133147367D01*
X131050828Y-133147367D02*
X131050828Y-133361653D01*
X131050828Y-133361653D02*
X131122257Y-133504510D01*
X131122257Y-133504510D02*
X131193685Y-133575939D01*
X131193685Y-133575939D02*
X131336542Y-133647367D01*
X131336542Y-133647367D02*
X131765114Y-133647367D01*
X131765114Y-133647367D02*
X131907971Y-133575939D01*
X131907971Y-133575939D02*
X131979400Y-133504510D01*
X131979400Y-133504510D02*
X132050828Y-133361653D01*
X132050828Y-133361653D02*
X132050828Y-133147367D01*
X131979400Y-134933082D02*
X132050828Y-134790224D01*
X132050828Y-134790224D02*
X132050828Y-134504510D01*
X132050828Y-134504510D02*
X131979400Y-134361653D01*
X131979400Y-134361653D02*
X131907971Y-134290224D01*
X131907971Y-134290224D02*
X131765114Y-134218796D01*
X131765114Y-134218796D02*
X131336542Y-134218796D01*
X131336542Y-134218796D02*
X131193685Y-134290224D01*
X131193685Y-134290224D02*
X131122257Y-134361653D01*
X131122257Y-134361653D02*
X131050828Y-134504510D01*
X131050828Y-134504510D02*
X131050828Y-134790224D01*
X131050828Y-134790224D02*
X131122257Y-134933082D01*
X132050828Y-135575938D02*
X130550828Y-135575938D01*
X131479400Y-135718796D02*
X132050828Y-136147367D01*
X131050828Y-136147367D02*
X131622257Y-135575938D01*
X130550828Y-136647367D02*
X130550828Y-137575939D01*
X130550828Y-137575939D02*
X131122257Y-137075939D01*
X131122257Y-137075939D02*
X131122257Y-137290224D01*
X131122257Y-137290224D02*
X131193685Y-137433082D01*
X131193685Y-137433082D02*
X131265114Y-137504510D01*
X131265114Y-137504510D02*
X131407971Y-137575939D01*
X131407971Y-137575939D02*
X131765114Y-137575939D01*
X131765114Y-137575939D02*
X131907971Y-137504510D01*
X131907971Y-137504510D02*
X131979400Y-137433082D01*
X131979400Y-137433082D02*
X132050828Y-137290224D01*
X132050828Y-137290224D02*
X132050828Y-136861653D01*
X132050828Y-136861653D02*
X131979400Y-136718796D01*
X131979400Y-136718796D02*
X131907971Y-136647367D01*
X131050828Y-139218795D02*
X132050828Y-139575938D01*
X132050828Y-139575938D02*
X131050828Y-139933081D01*
X130550828Y-140790224D02*
X130550828Y-140933081D01*
X130550828Y-140933081D02*
X130622257Y-141075938D01*
X130622257Y-141075938D02*
X130693685Y-141147367D01*
X130693685Y-141147367D02*
X130836542Y-141218795D01*
X130836542Y-141218795D02*
X131122257Y-141290224D01*
X131122257Y-141290224D02*
X131479400Y-141290224D01*
X131479400Y-141290224D02*
X131765114Y-141218795D01*
X131765114Y-141218795D02*
X131907971Y-141147367D01*
X131907971Y-141147367D02*
X131979400Y-141075938D01*
X131979400Y-141075938D02*
X132050828Y-140933081D01*
X132050828Y-140933081D02*
X132050828Y-140790224D01*
X132050828Y-140790224D02*
X131979400Y-140647367D01*
X131979400Y-140647367D02*
X131907971Y-140575938D01*
X131907971Y-140575938D02*
X131765114Y-140504509D01*
X131765114Y-140504509D02*
X131479400Y-140433081D01*
X131479400Y-140433081D02*
X131122257Y-140433081D01*
X131122257Y-140433081D02*
X130836542Y-140504509D01*
X130836542Y-140504509D02*
X130693685Y-140575938D01*
X130693685Y-140575938D02*
X130622257Y-140647367D01*
X130622257Y-140647367D02*
X130550828Y-140790224D01*
X132050828Y-142718795D02*
X132050828Y-141861652D01*
X132050828Y-142290223D02*
X130550828Y-142290223D01*
X130550828Y-142290223D02*
X130765114Y-142147366D01*
X130765114Y-142147366D02*
X130907971Y-142004509D01*
X130907971Y-142004509D02*
X130979400Y-141861652D01*
D11*
X172660819Y-127944666D02*
X173375104Y-127944666D01*
X173375104Y-127944666D02*
X173517961Y-127897047D01*
X173517961Y-127897047D02*
X173613200Y-127801809D01*
X173613200Y-127801809D02*
X173660819Y-127658952D01*
X173660819Y-127658952D02*
X173660819Y-127563714D01*
X173660819Y-128420857D02*
X172660819Y-128420857D01*
X172660819Y-128420857D02*
X172660819Y-128801809D01*
X172660819Y-128801809D02*
X172708438Y-128897047D01*
X172708438Y-128897047D02*
X172756057Y-128944666D01*
X172756057Y-128944666D02*
X172851295Y-128992285D01*
X172851295Y-128992285D02*
X172994152Y-128992285D01*
X172994152Y-128992285D02*
X173089390Y-128944666D01*
X173089390Y-128944666D02*
X173137009Y-128897047D01*
X173137009Y-128897047D02*
X173184628Y-128801809D01*
X173184628Y-128801809D02*
X173184628Y-128420857D01*
X172660819Y-129325619D02*
X172660819Y-129944666D01*
X172660819Y-129944666D02*
X173041771Y-129611333D01*
X173041771Y-129611333D02*
X173041771Y-129754190D01*
X173041771Y-129754190D02*
X173089390Y-129849428D01*
X173089390Y-129849428D02*
X173137009Y-129897047D01*
X173137009Y-129897047D02*
X173232247Y-129944666D01*
X173232247Y-129944666D02*
X173470342Y-129944666D01*
X173470342Y-129944666D02*
X173565580Y-129897047D01*
X173565580Y-129897047D02*
X173613200Y-129849428D01*
X173613200Y-129849428D02*
X173660819Y-129754190D01*
X173660819Y-129754190D02*
X173660819Y-129468476D01*
X173660819Y-129468476D02*
X173613200Y-129373238D01*
X173613200Y-129373238D02*
X173565580Y-129325619D01*
X178854819Y-127866666D02*
X179569104Y-127866666D01*
X179569104Y-127866666D02*
X179711961Y-127819047D01*
X179711961Y-127819047D02*
X179807200Y-127723809D01*
X179807200Y-127723809D02*
X179854819Y-127580952D01*
X179854819Y-127580952D02*
X179854819Y-127485714D01*
X179854819Y-128342857D02*
X178854819Y-128342857D01*
X178854819Y-128342857D02*
X178854819Y-128723809D01*
X178854819Y-128723809D02*
X178902438Y-128819047D01*
X178902438Y-128819047D02*
X178950057Y-128866666D01*
X178950057Y-128866666D02*
X179045295Y-128914285D01*
X179045295Y-128914285D02*
X179188152Y-128914285D01*
X179188152Y-128914285D02*
X179283390Y-128866666D01*
X179283390Y-128866666D02*
X179331009Y-128819047D01*
X179331009Y-128819047D02*
X179378628Y-128723809D01*
X179378628Y-128723809D02*
X179378628Y-128342857D01*
X178950057Y-129295238D02*
X178902438Y-129342857D01*
X178902438Y-129342857D02*
X178854819Y-129438095D01*
X178854819Y-129438095D02*
X178854819Y-129676190D01*
X178854819Y-129676190D02*
X178902438Y-129771428D01*
X178902438Y-129771428D02*
X178950057Y-129819047D01*
X178950057Y-129819047D02*
X179045295Y-129866666D01*
X179045295Y-129866666D02*
X179140533Y-129866666D01*
X179140533Y-129866666D02*
X179283390Y-129819047D01*
X179283390Y-129819047D02*
X179854819Y-129247619D01*
X179854819Y-129247619D02*
X179854819Y-129866666D01*
X153781819Y-137866666D02*
X154496104Y-137866666D01*
X154496104Y-137866666D02*
X154638961Y-137819047D01*
X154638961Y-137819047D02*
X154734200Y-137723809D01*
X154734200Y-137723809D02*
X154781819Y-137580952D01*
X154781819Y-137580952D02*
X154781819Y-137485714D01*
X154781819Y-138342857D02*
X153781819Y-138342857D01*
X153781819Y-138342857D02*
X153781819Y-138723809D01*
X153781819Y-138723809D02*
X153829438Y-138819047D01*
X153829438Y-138819047D02*
X153877057Y-138866666D01*
X153877057Y-138866666D02*
X153972295Y-138914285D01*
X153972295Y-138914285D02*
X154115152Y-138914285D01*
X154115152Y-138914285D02*
X154210390Y-138866666D01*
X154210390Y-138866666D02*
X154258009Y-138819047D01*
X154258009Y-138819047D02*
X154305628Y-138723809D01*
X154305628Y-138723809D02*
X154305628Y-138342857D01*
X154781819Y-139866666D02*
X154781819Y-139295238D01*
X154781819Y-139580952D02*
X153781819Y-139580952D01*
X153781819Y-139580952D02*
X153924676Y-139485714D01*
X153924676Y-139485714D02*
X154019914Y-139390476D01*
X154019914Y-139390476D02*
X154067533Y-139295238D01*
X172754819Y-132897666D02*
X173469104Y-132897666D01*
X173469104Y-132897666D02*
X173611961Y-132850047D01*
X173611961Y-132850047D02*
X173707200Y-132754809D01*
X173707200Y-132754809D02*
X173754819Y-132611952D01*
X173754819Y-132611952D02*
X173754819Y-132516714D01*
X173754819Y-133373857D02*
X172754819Y-133373857D01*
X172754819Y-133373857D02*
X172754819Y-133754809D01*
X172754819Y-133754809D02*
X172802438Y-133850047D01*
X172802438Y-133850047D02*
X172850057Y-133897666D01*
X172850057Y-133897666D02*
X172945295Y-133945285D01*
X172945295Y-133945285D02*
X173088152Y-133945285D01*
X173088152Y-133945285D02*
X173183390Y-133897666D01*
X173183390Y-133897666D02*
X173231009Y-133850047D01*
X173231009Y-133850047D02*
X173278628Y-133754809D01*
X173278628Y-133754809D02*
X173278628Y-133373857D01*
X173088152Y-134802428D02*
X173754819Y-134802428D01*
X172707200Y-134564333D02*
X173421485Y-134326238D01*
X173421485Y-134326238D02*
X173421485Y-134945285D01*
X178800819Y-132897666D02*
X179515104Y-132897666D01*
X179515104Y-132897666D02*
X179657961Y-132850047D01*
X179657961Y-132850047D02*
X179753200Y-132754809D01*
X179753200Y-132754809D02*
X179800819Y-132611952D01*
X179800819Y-132611952D02*
X179800819Y-132516714D01*
X179800819Y-133373857D02*
X178800819Y-133373857D01*
X178800819Y-133373857D02*
X178800819Y-133754809D01*
X178800819Y-133754809D02*
X178848438Y-133850047D01*
X178848438Y-133850047D02*
X178896057Y-133897666D01*
X178896057Y-133897666D02*
X178991295Y-133945285D01*
X178991295Y-133945285D02*
X179134152Y-133945285D01*
X179134152Y-133945285D02*
X179229390Y-133897666D01*
X179229390Y-133897666D02*
X179277009Y-133850047D01*
X179277009Y-133850047D02*
X179324628Y-133754809D01*
X179324628Y-133754809D02*
X179324628Y-133373857D01*
X178800819Y-134850047D02*
X178800819Y-134373857D01*
X178800819Y-134373857D02*
X179277009Y-134326238D01*
X179277009Y-134326238D02*
X179229390Y-134373857D01*
X179229390Y-134373857D02*
X179181771Y-134469095D01*
X179181771Y-134469095D02*
X179181771Y-134707190D01*
X179181771Y-134707190D02*
X179229390Y-134802428D01*
X179229390Y-134802428D02*
X179277009Y-134850047D01*
X179277009Y-134850047D02*
X179372247Y-134897666D01*
X179372247Y-134897666D02*
X179610342Y-134897666D01*
X179610342Y-134897666D02*
X179705580Y-134850047D01*
X179705580Y-134850047D02*
X179753200Y-134802428D01*
X179753200Y-134802428D02*
X179800819Y-134707190D01*
X179800819Y-134707190D02*
X179800819Y-134469095D01*
X179800819Y-134469095D02*
X179753200Y-134373857D01*
X179753200Y-134373857D02*
X179705580Y-134326238D01*
D12*
X174006000Y-128078000D02*
X174006000Y-129478000D01*
X174706000Y-130178000D02*
X175306000Y-130178000D01*
X175306000Y-127378000D02*
X174706000Y-127378000D01*
X176006000Y-129478000D02*
X176006000Y-128078000D01*
X174006000Y-128078000D02*
G75*
G02*
X174706000Y-127378000I699999J1D01*
G01*
X174706000Y-130178000D02*
G75*
G02*
X174006000Y-129478000I0J700000D01*
G01*
X175306000Y-127378000D02*
G75*
G02*
X176006000Y-128078000I1J-699999D01*
G01*
X176006000Y-129478000D02*
G75*
G02*
X175306000Y-130178000I-700000J0D01*
G01*
X176546000Y-128093000D02*
X176546000Y-129493000D01*
X177246000Y-130193000D02*
X177846000Y-130193000D01*
X177846000Y-127393000D02*
X177246000Y-127393000D01*
X178546000Y-129493000D02*
X178546000Y-128093000D01*
X176546000Y-128093000D02*
G75*
G02*
X177246000Y-127393000I699999J1D01*
G01*
X177246000Y-130193000D02*
G75*
G02*
X176546000Y-129493000I0J700000D01*
G01*
X177846000Y-127393000D02*
G75*
G02*
X178546000Y-128093000I1J-699999D01*
G01*
X178546000Y-129493000D02*
G75*
G02*
X177846000Y-130193000I-700000J0D01*
G01*
X151527000Y-138000000D02*
X151527000Y-139400000D01*
X152227000Y-140100000D02*
X152827000Y-140100000D01*
X152827000Y-137300000D02*
X152227000Y-137300000D01*
X153527000Y-139400000D02*
X153527000Y-138000000D01*
X151527000Y-138000000D02*
G75*
G02*
X152227000Y-137300000I700000J0D01*
G01*
X152227000Y-140100000D02*
G75*
G02*
X151527000Y-139400000I-1J699999D01*
G01*
X152827000Y-137300000D02*
G75*
G02*
X153527000Y-138000000I0J-700000D01*
G01*
X153527000Y-139400000D02*
G75*
G02*
X152827000Y-140100000I-699999J-1D01*
G01*
X174006000Y-133046000D02*
X174006000Y-134446000D01*
X174706000Y-135146000D02*
X175306000Y-135146000D01*
X175306000Y-132346000D02*
X174706000Y-132346000D01*
X176006000Y-134446000D02*
X176006000Y-133046000D01*
X174006000Y-133046000D02*
G75*
G02*
X174706000Y-132346000I700000J0D01*
G01*
X174706000Y-135146000D02*
G75*
G02*
X174006000Y-134446000I-1J699999D01*
G01*
X175306000Y-132346000D02*
G75*
G02*
X176006000Y-133046000I0J-700000D01*
G01*
X176006000Y-134446000D02*
G75*
G02*
X175306000Y-135146000I-699999J-1D01*
G01*
X176546000Y-133031000D02*
X176546000Y-134431000D01*
X177246000Y-135131000D02*
X177846000Y-135131000D01*
X177846000Y-132331000D02*
X177246000Y-132331000D01*
X178546000Y-134431000D02*
X178546000Y-133031000D01*
X176546000Y-133031000D02*
G75*
G02*
X177246000Y-132331000I700000J0D01*
G01*
X177246000Y-135131000D02*
G75*
G02*
X176546000Y-134431000I-1J699999D01*
G01*
X177846000Y-132331000D02*
G75*
G02*
X178546000Y-133031000I0J-700000D01*
G01*
X178546000Y-134431000D02*
G75*
G02*
X177846000Y-135131000I-699999J-1D01*
G01*
%LPC*%
G36*
X174256000Y-128628000D02*
G01*
X175756000Y-128628000D01*
X175756000Y-128928000D01*
X174256000Y-128928000D01*
X174256000Y-128628000D01*
G37*
G36*
X176796000Y-128643000D02*
G01*
X178296000Y-128643000D01*
X178296000Y-128943000D01*
X176796000Y-128943000D01*
X176796000Y-128643000D01*
G37*
G36*
X153277000Y-138850000D02*
G01*
X151777000Y-138850000D01*
X151777000Y-138550000D01*
X153277000Y-138550000D01*
X153277000Y-138850000D01*
G37*
G36*
X175756000Y-133896000D02*
G01*
X174256000Y-133896000D01*
X174256000Y-133596000D01*
X175756000Y-133596000D01*
X175756000Y-133896000D01*
G37*
G36*
X178296000Y-133881000D02*
G01*
X176796000Y-133881000D01*
X176796000Y-133581000D01*
X178296000Y-133581000D01*
X178296000Y-133881000D01*
G37*
D13*
X155909000Y-130175000D03*
X158909000Y-130175000D03*
D14*
X140335000Y-142875000D03*
D15*
X142875000Y-142875000D03*
X145415000Y-142875000D03*
X147955000Y-142875000D03*
X150495000Y-142875000D03*
X153035000Y-142875000D03*
X155575000Y-142875000D03*
X158115000Y-142875000D03*
X160655000Y-142875000D03*
X163195000Y-142875000D03*
X165735000Y-142875000D03*
X168275000Y-142875000D03*
X170815000Y-142875000D03*
X173355000Y-142875000D03*
X175895000Y-142875000D03*
X178435000Y-142875000D03*
X180975000Y-142875000D03*
D16*
X175006000Y-128128000D03*
D17*
X175006000Y-129428000D03*
D16*
X177546000Y-128143000D03*
D17*
X177546000Y-129443000D03*
D18*
X152527000Y-139350000D03*
D19*
X152527000Y-138050000D03*
D18*
X175006000Y-134396000D03*
D19*
X175006000Y-133096000D03*
D18*
X177546000Y-134381000D03*
D19*
X177546000Y-133081000D03*
%LPD*%
M02*
