%TF.GenerationSoftware,KiCad,Pcbnew,9.0.2*%
%TF.CreationDate,2025-06-19T13:18:15-04:00*%
%TF.ProjectId,farlock3,6661726c-6f63-46b3-932e-6b696361645f,v02*%
%TF.SameCoordinates,Original*%
%TF.FileFunction,Drillmap*%
%TF.FilePolarity,Positive*%
%FSLAX45Y45*%
G04 Gerber Fmt 4.5, Leading zero omitted, Abs format (unit mm)*
G04 Created by KiCad (PCBNEW 9.0.2) date 2025-06-19 13:18:15*
%MOMM*%
%LPD*%
G01*
G04 APERTURE LIST*
%ADD10C,0.100000*%
%ADD11C,0.200000*%
G04 APERTURE END LIST*
D10*
X18440917Y-9750000D02*
X12640000Y-9750000D01*
X12640000Y-7500000D02*
X15310000Y-7500000D01*
X12640000Y-9750000D02*
X12640000Y-7500000D01*
X16400000Y-7690000D02*
X16400000Y-7500000D01*
X15310000Y-7690000D02*
X16400000Y-7690000D01*
X15310000Y-7500000D02*
X15310000Y-7690000D01*
X18440961Y-7500000D02*
X18440917Y-9750000D01*
X16400000Y-7500000D02*
X18440961Y-7500000D01*
D11*
D10*
X12746000Y-8019000D02*
X12776000Y-8049000D01*
X12776000Y-8019000D02*
X12746000Y-8049000D01*
X13089000Y-9379000D02*
X13119000Y-9409000D01*
X13119000Y-9379000D02*
X13089000Y-9409000D01*
X13345000Y-8305000D02*
X13375000Y-8335000D01*
X13375000Y-8305000D02*
X13345000Y-8335000D01*
X13435000Y-8965000D02*
X13465000Y-8995000D01*
X13465000Y-8965000D02*
X13435000Y-8995000D01*
X13505000Y-8755000D02*
X13535000Y-8785000D01*
X13535000Y-8755000D02*
X13505000Y-8785000D01*
X13505000Y-9265000D02*
X13535000Y-9295000D01*
X13535000Y-9265000D02*
X13505000Y-9295000D01*
X13505000Y-9485000D02*
X13535000Y-9515000D01*
X13535000Y-9485000D02*
X13505000Y-9515000D01*
X13640000Y-8802000D02*
X13670000Y-8832000D01*
X13670000Y-8802000D02*
X13640000Y-8832000D01*
X13675000Y-7995000D02*
X13705000Y-8025000D01*
X13705000Y-7995000D02*
X13675000Y-8025000D01*
X13699999Y-8757500D02*
X13729999Y-8787500D01*
X13729999Y-8757500D02*
X13699999Y-8787500D01*
X13760000Y-8757500D02*
X13790000Y-8787500D01*
X13790000Y-8757500D02*
X13760000Y-8787500D01*
X13795000Y-9265000D02*
X13825000Y-9295000D01*
X13825000Y-9265000D02*
X13795000Y-9295000D01*
X13795000Y-9485000D02*
X13825000Y-9515000D01*
X13825000Y-9485000D02*
X13795000Y-9515000D01*
X13820000Y-8757500D02*
X13850000Y-8787500D01*
X13850000Y-8757500D02*
X13820000Y-8787500D01*
X14125000Y-8265000D02*
X14155000Y-8295000D01*
X14155000Y-8265000D02*
X14125000Y-8295000D01*
X14647500Y-9547500D02*
X14677500Y-9577500D01*
X14677500Y-9547500D02*
X14647500Y-9577500D01*
X14675000Y-9295000D02*
X14705000Y-9325000D01*
X14705000Y-9295000D02*
X14675000Y-9325000D01*
X14847500Y-8772500D02*
X14877500Y-8802500D01*
X14877500Y-8772500D02*
X14847500Y-8802500D01*
X14895000Y-9442500D02*
X14925000Y-9472500D01*
X14925000Y-9442500D02*
X14895000Y-9472500D01*
X14900000Y-9157500D02*
X14930000Y-9187500D01*
X14930000Y-9157500D02*
X14900000Y-9187500D01*
X15128000Y-8326000D02*
X15158000Y-8356000D01*
X15158000Y-8326000D02*
X15128000Y-8356000D01*
X15135000Y-8765000D02*
X15165000Y-8795000D01*
X15165000Y-8765000D02*
X15135000Y-8795000D01*
X15237500Y-8572300D02*
X15267500Y-8602300D01*
X15267500Y-8572300D02*
X15237500Y-8602300D01*
X15498000Y-8755000D02*
X15528000Y-8785000D01*
X15528000Y-8755000D02*
X15498000Y-8785000D01*
X15950000Y-9290000D02*
X15980000Y-9320000D01*
X15980000Y-9290000D02*
X15950000Y-9320000D01*
X16236000Y-9288000D02*
X16266000Y-9318000D01*
X16266000Y-9288000D02*
X16236000Y-9318000D01*
X16264000Y-8365000D02*
X16294000Y-8395000D01*
X16294000Y-8365000D02*
X16264000Y-8395000D01*
X16268000Y-8535000D02*
X16298000Y-8565000D01*
X16298000Y-8535000D02*
X16268000Y-8565000D01*
X16526000Y-9293000D02*
X16556000Y-9323000D01*
X16556000Y-9293000D02*
X16526000Y-9323000D01*
X17077500Y-7572500D02*
X17107500Y-7602500D01*
X17107500Y-7572500D02*
X17077500Y-7602500D01*
X17100000Y-8617500D02*
X17130000Y-8647500D01*
X17130000Y-8617500D02*
X17100000Y-8647500D01*
X17115000Y-7855000D02*
X17145000Y-7885000D01*
X17145000Y-7855000D02*
X17115000Y-7885000D01*
X17115000Y-7985000D02*
X17145000Y-8015000D01*
X17145000Y-7985000D02*
X17115000Y-8015000D01*
X17115000Y-8105000D02*
X17145000Y-8135000D01*
X17145000Y-8105000D02*
X17115000Y-8135000D01*
X17115000Y-8217500D02*
X17145000Y-8247500D01*
X17145000Y-8217500D02*
X17115000Y-8247500D01*
X17125000Y-7672500D02*
X17155000Y-7702500D01*
X17155000Y-7672500D02*
X17125000Y-7702500D01*
X17167500Y-8617500D02*
X17197500Y-8647500D01*
X17197500Y-8617500D02*
X17167500Y-8647500D01*
X17200805Y-8809000D02*
X17230805Y-8839000D01*
X17230805Y-8809000D02*
X17200805Y-8839000D01*
X17205000Y-8935000D02*
X17235000Y-8965000D01*
X17235000Y-8935000D02*
X17205000Y-8965000D01*
X17211930Y-8334430D02*
X17241930Y-8364430D01*
X17241930Y-8334430D02*
X17211930Y-8364430D01*
X17212500Y-8192500D02*
X17242500Y-8222500D01*
X17242500Y-8192500D02*
X17212500Y-8222500D01*
X17227500Y-7772500D02*
X17257500Y-7802500D01*
X17257500Y-7772500D02*
X17227500Y-7802500D01*
X17255000Y-7855000D02*
X17285000Y-7885000D01*
X17285000Y-7855000D02*
X17255000Y-7885000D01*
X17255000Y-7985000D02*
X17285000Y-8015000D01*
X17285000Y-7985000D02*
X17255000Y-8015000D01*
X17255000Y-8105000D02*
X17285000Y-8135000D01*
X17285000Y-8105000D02*
X17255000Y-8135000D01*
X17275000Y-8645000D02*
X17305000Y-8675000D01*
X17305000Y-8645000D02*
X17275000Y-8675000D01*
X17348775Y-8221150D02*
X17378775Y-8251150D01*
X17378775Y-8221150D02*
X17348775Y-8251150D01*
X17400000Y-7527500D02*
X17430000Y-7557500D01*
X17430000Y-7527500D02*
X17400000Y-7557500D01*
X17405000Y-7855000D02*
X17435000Y-7885000D01*
X17435000Y-7855000D02*
X17405000Y-7885000D01*
X17405000Y-7985000D02*
X17435000Y-8015000D01*
X17435000Y-7985000D02*
X17405000Y-8015000D01*
X17405000Y-8105000D02*
X17435000Y-8135000D01*
X17435000Y-8105000D02*
X17405000Y-8135000D01*
X17415000Y-8374900D02*
X17445000Y-8404900D01*
X17445000Y-8374900D02*
X17415000Y-8404900D01*
X17450000Y-8635000D02*
X17480000Y-8665000D01*
X17480000Y-8635000D02*
X17450000Y-8665000D01*
X17474000Y-9287000D02*
X17504000Y-9317000D01*
X17504000Y-9287000D02*
X17474000Y-9317000D01*
X17495000Y-8375000D02*
X17525000Y-8405000D01*
X17525000Y-8375000D02*
X17495000Y-8405000D01*
X17695000Y-7545000D02*
X17725000Y-7575000D01*
X17725000Y-7545000D02*
X17695000Y-7575000D01*
X17715000Y-7745000D02*
X17745000Y-7775000D01*
X17745000Y-7745000D02*
X17715000Y-7775000D01*
X17715000Y-7945000D02*
X17745000Y-7975000D01*
X17745000Y-7945000D02*
X17715000Y-7975000D01*
X17715000Y-8115000D02*
X17745000Y-8145000D01*
X17745000Y-8115000D02*
X17715000Y-8145000D01*
X17742500Y-8935000D02*
X17772500Y-8965000D01*
X17772500Y-8935000D02*
X17742500Y-8965000D01*
X17770000Y-8250000D02*
X17800000Y-8280000D01*
X17800000Y-8250000D02*
X17770000Y-8280000D01*
X17835000Y-9047500D02*
X17865000Y-9077500D01*
X17865000Y-9047500D02*
X17835000Y-9077500D01*
X17855000Y-7538000D02*
X17885000Y-7568000D01*
X17885000Y-7538000D02*
X17855000Y-7568000D01*
X17895000Y-7695000D02*
X17925000Y-7725000D01*
X17925000Y-7695000D02*
X17895000Y-7725000D01*
X17895000Y-7775000D02*
X17925000Y-7805000D01*
X17925000Y-7775000D02*
X17895000Y-7805000D01*
X17895000Y-8065000D02*
X17925000Y-8095000D01*
X17925000Y-8065000D02*
X17895000Y-8095000D01*
X17895000Y-8175000D02*
X17925000Y-8205000D01*
X17925000Y-8175000D02*
X17895000Y-8205000D01*
X17964000Y-7537000D02*
X17994000Y-7567000D01*
X17994000Y-7537000D02*
X17964000Y-7567000D01*
X17975000Y-7695000D02*
X18005000Y-7725000D01*
X18005000Y-7695000D02*
X17975000Y-7725000D01*
X17975000Y-7775000D02*
X18005000Y-7805000D01*
X18005000Y-7775000D02*
X17975000Y-7805000D01*
X17975000Y-8065000D02*
X18005000Y-8095000D01*
X18005000Y-8065000D02*
X17975000Y-8095000D01*
X17975000Y-8175000D02*
X18005000Y-8205000D01*
X18005000Y-8175000D02*
X17975000Y-8205000D01*
X17995000Y-8967500D02*
X18025000Y-8997500D01*
X18025000Y-8967500D02*
X17995000Y-8997500D01*
X18155000Y-9245000D02*
X18185000Y-9275000D01*
X18185000Y-9245000D02*
X18155000Y-9275000D01*
X18167600Y-8650919D02*
X18197600Y-8680919D01*
X18197600Y-8650919D02*
X18167600Y-8680919D01*
X18201921Y-8601705D02*
X18231921Y-8631705D01*
X18231921Y-8601705D02*
X18201921Y-8631705D01*
X18234000Y-8551000D02*
X18264000Y-8581000D01*
X18264000Y-8551000D02*
X18234000Y-8581000D01*
X18285000Y-9395000D02*
X18315000Y-9425000D01*
X18315000Y-9395000D02*
X18285000Y-9425000D01*
X13702500Y-9080000D02*
G75*
G02*
X13662500Y-9080000I-20000J0D01*
G01*
X13662500Y-9080000D02*
G75*
G02*
X13702500Y-9080000I20000J0D01*
G01*
X14960000Y-9020100D02*
G75*
G02*
X14920000Y-9020100I-20000J0D01*
G01*
X14920000Y-9020100D02*
G75*
G02*
X14960000Y-9020100I20000J0D01*
G01*
X15272500Y-8120000D02*
G75*
G02*
X15232500Y-8120000I-20000J0D01*
G01*
X15232500Y-8120000D02*
G75*
G02*
X15272500Y-8120000I20000J0D01*
G01*
X15350000Y-8765000D02*
G75*
G02*
X15310000Y-8765000I-20000J0D01*
G01*
X15310000Y-8765000D02*
G75*
G02*
X15350000Y-8765000I20000J0D01*
G01*
X15460000Y-8080000D02*
G75*
G02*
X15420000Y-8080000I-20000J0D01*
G01*
X15420000Y-8080000D02*
G75*
G02*
X15460000Y-8080000I20000J0D01*
G01*
X16007500Y-7987500D02*
G75*
G02*
X15967500Y-7987500I-20000J0D01*
G01*
X15967500Y-7987500D02*
G75*
G02*
X16007500Y-7987500I20000J0D01*
G01*
X16802500Y-8135000D02*
G75*
G02*
X16762500Y-8135000I-20000J0D01*
G01*
X16762500Y-8135000D02*
G75*
G02*
X16802500Y-8135000I20000J0D01*
G01*
X17030000Y-8422500D02*
G75*
G02*
X16990000Y-8422500I-20000J0D01*
G01*
X16990000Y-8422500D02*
G75*
G02*
X17030000Y-8422500I20000J0D01*
G01*
X16050300Y-9430000D02*
X16050300Y-9510000D01*
X16010300Y-9470000D02*
X16090300Y-9470000D01*
X16250300Y-9430000D02*
X16250300Y-9510000D01*
X16210300Y-9470000D02*
X16290300Y-9470000D01*
X16450300Y-9430000D02*
X16450300Y-9510000D01*
X16410300Y-9470000D02*
X16490300Y-9470000D01*
X12868356Y-7721356D02*
X12868356Y-7650644D01*
X12797644Y-7650644D01*
X12797644Y-7721356D01*
X12868356Y-7721356D01*
X12870356Y-8430356D02*
X12870356Y-8359644D01*
X12799644Y-8359644D01*
X12799644Y-8430356D01*
X12870356Y-8430356D01*
X12870356Y-8684356D02*
X12870356Y-8613644D01*
X12799644Y-8613644D01*
X12799644Y-8684356D01*
X12870356Y-8684356D01*
X12870356Y-8938356D02*
X12870356Y-8867644D01*
X12799644Y-8867644D01*
X12799644Y-8938356D01*
X12870356Y-8938356D01*
X12870356Y-9192356D02*
X12870356Y-9121644D01*
X12799644Y-9121644D01*
X12799644Y-9192356D01*
X12870356Y-9192356D01*
X12870356Y-9446356D02*
X12870356Y-9375644D01*
X12799644Y-9375644D01*
X12799644Y-9446356D01*
X12870356Y-9446356D01*
X13122356Y-7721356D02*
X13122356Y-7650644D01*
X13051644Y-7650644D01*
X13051644Y-7721356D01*
X13122356Y-7721356D01*
X13376356Y-7721356D02*
X13376356Y-7650644D01*
X13305644Y-7650644D01*
X13305644Y-7721356D01*
X13376356Y-7721356D01*
X13630356Y-7721356D02*
X13630356Y-7650644D01*
X13559644Y-7650644D01*
X13559644Y-7721356D01*
X13630356Y-7721356D01*
X13884356Y-7721356D02*
X13884356Y-7650644D01*
X13813644Y-7650644D01*
X13813644Y-7721356D01*
X13884356Y-7721356D01*
X14138356Y-7721356D02*
X14138356Y-7650644D01*
X14067644Y-7650644D01*
X14067644Y-7721356D01*
X14138356Y-7721356D01*
X14392356Y-7721356D02*
X14392356Y-7650644D01*
X14321644Y-7650644D01*
X14321644Y-7721356D01*
X14392356Y-7721356D01*
X14646356Y-7721356D02*
X14646356Y-7650644D01*
X14575644Y-7650644D01*
X14575644Y-7721356D01*
X14646356Y-7721356D01*
X14900356Y-7721356D02*
X14900356Y-7650644D01*
X14829644Y-7650644D01*
X14829644Y-7721356D01*
X14900356Y-7721356D01*
X15154356Y-7721356D02*
X15154356Y-7650644D01*
X15083644Y-7650644D01*
X15083644Y-7721356D01*
X15154356Y-7721356D01*
X15477856Y-9342856D02*
X15477856Y-9272144D01*
X15407144Y-9272144D01*
X15407144Y-9342856D01*
X15477856Y-9342856D01*
X15477856Y-9596856D02*
X15477856Y-9526144D01*
X15407144Y-9526144D01*
X15407144Y-9596856D01*
X15477856Y-9596856D01*
X17023356Y-9597356D02*
X17023356Y-9526644D01*
X16952644Y-9526644D01*
X16952644Y-9597356D01*
X17023356Y-9597356D01*
X17277356Y-9597356D02*
X17277356Y-9526644D01*
X17206644Y-9526644D01*
X17206644Y-9597356D01*
X17277356Y-9597356D01*
X17531356Y-9597356D02*
X17531356Y-9526644D01*
X17460644Y-9526644D01*
X17460644Y-9597356D01*
X17531356Y-9597356D01*
X18035356Y-8875356D02*
X18035356Y-8804644D01*
X17964644Y-8804644D01*
X17964644Y-8875356D01*
X18035356Y-8875356D01*
X18289356Y-8875356D02*
X18289356Y-8804644D01*
X18218644Y-8804644D01*
X18218644Y-8875356D01*
X18289356Y-8875356D01*
D11*
X12895777Y-10066484D02*
X12895777Y-9866484D01*
X12895777Y-9866484D02*
X12943396Y-9866484D01*
X12943396Y-9866484D02*
X12971967Y-9876008D01*
X12971967Y-9876008D02*
X12991015Y-9895055D01*
X12991015Y-9895055D02*
X13000539Y-9914103D01*
X13000539Y-9914103D02*
X13010062Y-9952198D01*
X13010062Y-9952198D02*
X13010062Y-9980770D01*
X13010062Y-9980770D02*
X13000539Y-10018865D01*
X13000539Y-10018865D02*
X12991015Y-10037912D01*
X12991015Y-10037912D02*
X12971967Y-10056960D01*
X12971967Y-10056960D02*
X12943396Y-10066484D01*
X12943396Y-10066484D02*
X12895777Y-10066484D01*
X13095777Y-10066484D02*
X13095777Y-9933150D01*
X13095777Y-9971246D02*
X13105301Y-9952198D01*
X13105301Y-9952198D02*
X13114824Y-9942674D01*
X13114824Y-9942674D02*
X13133872Y-9933150D01*
X13133872Y-9933150D02*
X13152920Y-9933150D01*
X13219586Y-10066484D02*
X13219586Y-9933150D01*
X13219586Y-9866484D02*
X13210062Y-9876008D01*
X13210062Y-9876008D02*
X13219586Y-9885531D01*
X13219586Y-9885531D02*
X13229110Y-9876008D01*
X13229110Y-9876008D02*
X13219586Y-9866484D01*
X13219586Y-9866484D02*
X13219586Y-9885531D01*
X13343396Y-10066484D02*
X13324348Y-10056960D01*
X13324348Y-10056960D02*
X13314824Y-10037912D01*
X13314824Y-10037912D02*
X13314824Y-9866484D01*
X13448158Y-10066484D02*
X13429110Y-10056960D01*
X13429110Y-10056960D02*
X13419586Y-10037912D01*
X13419586Y-10037912D02*
X13419586Y-9866484D01*
X13676729Y-10066484D02*
X13676729Y-9866484D01*
X13676729Y-9866484D02*
X13743396Y-10009341D01*
X13743396Y-10009341D02*
X13810062Y-9866484D01*
X13810062Y-9866484D02*
X13810062Y-10066484D01*
X13991015Y-10066484D02*
X13991015Y-9961722D01*
X13991015Y-9961722D02*
X13981491Y-9942674D01*
X13981491Y-9942674D02*
X13962443Y-9933150D01*
X13962443Y-9933150D02*
X13924348Y-9933150D01*
X13924348Y-9933150D02*
X13905301Y-9942674D01*
X13991015Y-10056960D02*
X13971967Y-10066484D01*
X13971967Y-10066484D02*
X13924348Y-10066484D01*
X13924348Y-10066484D02*
X13905301Y-10056960D01*
X13905301Y-10056960D02*
X13895777Y-10037912D01*
X13895777Y-10037912D02*
X13895777Y-10018865D01*
X13895777Y-10018865D02*
X13905301Y-9999817D01*
X13905301Y-9999817D02*
X13924348Y-9990293D01*
X13924348Y-9990293D02*
X13971967Y-9990293D01*
X13971967Y-9990293D02*
X13991015Y-9980770D01*
X14086253Y-9933150D02*
X14086253Y-10133150D01*
X14086253Y-9942674D02*
X14105301Y-9933150D01*
X14105301Y-9933150D02*
X14143396Y-9933150D01*
X14143396Y-9933150D02*
X14162443Y-9942674D01*
X14162443Y-9942674D02*
X14171967Y-9952198D01*
X14171967Y-9952198D02*
X14181491Y-9971246D01*
X14181491Y-9971246D02*
X14181491Y-10028389D01*
X14181491Y-10028389D02*
X14171967Y-10047436D01*
X14171967Y-10047436D02*
X14162443Y-10056960D01*
X14162443Y-10056960D02*
X14143396Y-10066484D01*
X14143396Y-10066484D02*
X14105301Y-10066484D01*
X14105301Y-10066484D02*
X14086253Y-10056960D01*
X14267205Y-10047436D02*
X14276729Y-10056960D01*
X14276729Y-10056960D02*
X14267205Y-10066484D01*
X14267205Y-10066484D02*
X14257682Y-10056960D01*
X14257682Y-10056960D02*
X14267205Y-10047436D01*
X14267205Y-10047436D02*
X14267205Y-10066484D01*
X14267205Y-9942674D02*
X14276729Y-9952198D01*
X14276729Y-9952198D02*
X14267205Y-9961722D01*
X14267205Y-9961722D02*
X14257682Y-9952198D01*
X14257682Y-9952198D02*
X14267205Y-9942674D01*
X14267205Y-9942674D02*
X14267205Y-9961722D01*
D10*
X12605000Y-10380000D02*
X12635000Y-10410000D01*
X12635000Y-10380000D02*
X12605000Y-10410000D01*
D11*
X12933872Y-10286484D02*
X12952920Y-10286484D01*
X12952920Y-10286484D02*
X12971967Y-10296008D01*
X12971967Y-10296008D02*
X12981491Y-10305531D01*
X12981491Y-10305531D02*
X12991015Y-10324579D01*
X12991015Y-10324579D02*
X13000539Y-10362674D01*
X13000539Y-10362674D02*
X13000539Y-10410293D01*
X13000539Y-10410293D02*
X12991015Y-10448389D01*
X12991015Y-10448389D02*
X12981491Y-10467436D01*
X12981491Y-10467436D02*
X12971967Y-10476960D01*
X12971967Y-10476960D02*
X12952920Y-10486484D01*
X12952920Y-10486484D02*
X12933872Y-10486484D01*
X12933872Y-10486484D02*
X12914824Y-10476960D01*
X12914824Y-10476960D02*
X12905301Y-10467436D01*
X12905301Y-10467436D02*
X12895777Y-10448389D01*
X12895777Y-10448389D02*
X12886253Y-10410293D01*
X12886253Y-10410293D02*
X12886253Y-10362674D01*
X12886253Y-10362674D02*
X12895777Y-10324579D01*
X12895777Y-10324579D02*
X12905301Y-10305531D01*
X12905301Y-10305531D02*
X12914824Y-10296008D01*
X12914824Y-10296008D02*
X12933872Y-10286484D01*
X13086253Y-10467436D02*
X13095777Y-10476960D01*
X13095777Y-10476960D02*
X13086253Y-10486484D01*
X13086253Y-10486484D02*
X13076729Y-10476960D01*
X13076729Y-10476960D02*
X13086253Y-10467436D01*
X13086253Y-10467436D02*
X13086253Y-10486484D01*
X13162443Y-10286484D02*
X13286253Y-10286484D01*
X13286253Y-10286484D02*
X13219586Y-10362674D01*
X13219586Y-10362674D02*
X13248158Y-10362674D01*
X13248158Y-10362674D02*
X13267205Y-10372198D01*
X13267205Y-10372198D02*
X13276729Y-10381722D01*
X13276729Y-10381722D02*
X13286253Y-10400770D01*
X13286253Y-10400770D02*
X13286253Y-10448389D01*
X13286253Y-10448389D02*
X13276729Y-10467436D01*
X13276729Y-10467436D02*
X13267205Y-10476960D01*
X13267205Y-10476960D02*
X13248158Y-10486484D01*
X13248158Y-10486484D02*
X13191015Y-10486484D01*
X13191015Y-10486484D02*
X13171967Y-10476960D01*
X13171967Y-10476960D02*
X13162443Y-10467436D01*
X13410062Y-10286484D02*
X13429110Y-10286484D01*
X13429110Y-10286484D02*
X13448158Y-10296008D01*
X13448158Y-10296008D02*
X13457682Y-10305531D01*
X13457682Y-10305531D02*
X13467205Y-10324579D01*
X13467205Y-10324579D02*
X13476729Y-10362674D01*
X13476729Y-10362674D02*
X13476729Y-10410293D01*
X13476729Y-10410293D02*
X13467205Y-10448389D01*
X13467205Y-10448389D02*
X13457682Y-10467436D01*
X13457682Y-10467436D02*
X13448158Y-10476960D01*
X13448158Y-10476960D02*
X13429110Y-10486484D01*
X13429110Y-10486484D02*
X13410062Y-10486484D01*
X13410062Y-10486484D02*
X13391015Y-10476960D01*
X13391015Y-10476960D02*
X13381491Y-10467436D01*
X13381491Y-10467436D02*
X13371967Y-10448389D01*
X13371967Y-10448389D02*
X13362443Y-10410293D01*
X13362443Y-10410293D02*
X13362443Y-10362674D01*
X13362443Y-10362674D02*
X13371967Y-10324579D01*
X13371967Y-10324579D02*
X13381491Y-10305531D01*
X13381491Y-10305531D02*
X13391015Y-10296008D01*
X13391015Y-10296008D02*
X13410062Y-10286484D01*
X13600539Y-10286484D02*
X13619586Y-10286484D01*
X13619586Y-10286484D02*
X13638634Y-10296008D01*
X13638634Y-10296008D02*
X13648158Y-10305531D01*
X13648158Y-10305531D02*
X13657682Y-10324579D01*
X13657682Y-10324579D02*
X13667205Y-10362674D01*
X13667205Y-10362674D02*
X13667205Y-10410293D01*
X13667205Y-10410293D02*
X13657682Y-10448389D01*
X13657682Y-10448389D02*
X13648158Y-10467436D01*
X13648158Y-10467436D02*
X13638634Y-10476960D01*
X13638634Y-10476960D02*
X13619586Y-10486484D01*
X13619586Y-10486484D02*
X13600539Y-10486484D01*
X13600539Y-10486484D02*
X13581491Y-10476960D01*
X13581491Y-10476960D02*
X13571967Y-10467436D01*
X13571967Y-10467436D02*
X13562443Y-10448389D01*
X13562443Y-10448389D02*
X13552920Y-10410293D01*
X13552920Y-10410293D02*
X13552920Y-10362674D01*
X13552920Y-10362674D02*
X13562443Y-10324579D01*
X13562443Y-10324579D02*
X13571967Y-10305531D01*
X13571967Y-10305531D02*
X13581491Y-10296008D01*
X13581491Y-10296008D02*
X13600539Y-10286484D01*
X13752920Y-10486484D02*
X13752920Y-10353150D01*
X13752920Y-10372198D02*
X13762443Y-10362674D01*
X13762443Y-10362674D02*
X13781491Y-10353150D01*
X13781491Y-10353150D02*
X13810063Y-10353150D01*
X13810063Y-10353150D02*
X13829110Y-10362674D01*
X13829110Y-10362674D02*
X13838634Y-10381722D01*
X13838634Y-10381722D02*
X13838634Y-10486484D01*
X13838634Y-10381722D02*
X13848158Y-10362674D01*
X13848158Y-10362674D02*
X13867205Y-10353150D01*
X13867205Y-10353150D02*
X13895777Y-10353150D01*
X13895777Y-10353150D02*
X13914824Y-10362674D01*
X13914824Y-10362674D02*
X13924348Y-10381722D01*
X13924348Y-10381722D02*
X13924348Y-10486484D01*
X14019586Y-10486484D02*
X14019586Y-10353150D01*
X14019586Y-10372198D02*
X14029110Y-10362674D01*
X14029110Y-10362674D02*
X14048158Y-10353150D01*
X14048158Y-10353150D02*
X14076729Y-10353150D01*
X14076729Y-10353150D02*
X14095777Y-10362674D01*
X14095777Y-10362674D02*
X14105301Y-10381722D01*
X14105301Y-10381722D02*
X14105301Y-10486484D01*
X14105301Y-10381722D02*
X14114824Y-10362674D01*
X14114824Y-10362674D02*
X14133872Y-10353150D01*
X14133872Y-10353150D02*
X14162443Y-10353150D01*
X14162443Y-10353150D02*
X14181491Y-10362674D01*
X14181491Y-10362674D02*
X14191015Y-10381722D01*
X14191015Y-10381722D02*
X14191015Y-10486484D01*
X14581491Y-10276960D02*
X14410063Y-10534103D01*
X14838634Y-10286484D02*
X14857682Y-10286484D01*
X14857682Y-10286484D02*
X14876729Y-10296008D01*
X14876729Y-10296008D02*
X14886253Y-10305531D01*
X14886253Y-10305531D02*
X14895777Y-10324579D01*
X14895777Y-10324579D02*
X14905301Y-10362674D01*
X14905301Y-10362674D02*
X14905301Y-10410293D01*
X14905301Y-10410293D02*
X14895777Y-10448389D01*
X14895777Y-10448389D02*
X14886253Y-10467436D01*
X14886253Y-10467436D02*
X14876729Y-10476960D01*
X14876729Y-10476960D02*
X14857682Y-10486484D01*
X14857682Y-10486484D02*
X14838634Y-10486484D01*
X14838634Y-10486484D02*
X14819586Y-10476960D01*
X14819586Y-10476960D02*
X14810063Y-10467436D01*
X14810063Y-10467436D02*
X14800539Y-10448389D01*
X14800539Y-10448389D02*
X14791015Y-10410293D01*
X14791015Y-10410293D02*
X14791015Y-10362674D01*
X14791015Y-10362674D02*
X14800539Y-10324579D01*
X14800539Y-10324579D02*
X14810063Y-10305531D01*
X14810063Y-10305531D02*
X14819586Y-10296008D01*
X14819586Y-10296008D02*
X14838634Y-10286484D01*
X14991015Y-10467436D02*
X15000539Y-10476960D01*
X15000539Y-10476960D02*
X14991015Y-10486484D01*
X14991015Y-10486484D02*
X14981491Y-10476960D01*
X14981491Y-10476960D02*
X14991015Y-10467436D01*
X14991015Y-10467436D02*
X14991015Y-10486484D01*
X15124348Y-10286484D02*
X15143396Y-10286484D01*
X15143396Y-10286484D02*
X15162444Y-10296008D01*
X15162444Y-10296008D02*
X15171967Y-10305531D01*
X15171967Y-10305531D02*
X15181491Y-10324579D01*
X15181491Y-10324579D02*
X15191015Y-10362674D01*
X15191015Y-10362674D02*
X15191015Y-10410293D01*
X15191015Y-10410293D02*
X15181491Y-10448389D01*
X15181491Y-10448389D02*
X15171967Y-10467436D01*
X15171967Y-10467436D02*
X15162444Y-10476960D01*
X15162444Y-10476960D02*
X15143396Y-10486484D01*
X15143396Y-10486484D02*
X15124348Y-10486484D01*
X15124348Y-10486484D02*
X15105301Y-10476960D01*
X15105301Y-10476960D02*
X15095777Y-10467436D01*
X15095777Y-10467436D02*
X15086253Y-10448389D01*
X15086253Y-10448389D02*
X15076729Y-10410293D01*
X15076729Y-10410293D02*
X15076729Y-10362674D01*
X15076729Y-10362674D02*
X15086253Y-10324579D01*
X15086253Y-10324579D02*
X15095777Y-10305531D01*
X15095777Y-10305531D02*
X15105301Y-10296008D01*
X15105301Y-10296008D02*
X15124348Y-10286484D01*
X15381491Y-10486484D02*
X15267206Y-10486484D01*
X15324348Y-10486484D02*
X15324348Y-10286484D01*
X15324348Y-10286484D02*
X15305301Y-10315055D01*
X15305301Y-10315055D02*
X15286253Y-10334103D01*
X15286253Y-10334103D02*
X15267206Y-10343627D01*
X15571967Y-10486484D02*
X15457682Y-10486484D01*
X15514825Y-10486484D02*
X15514825Y-10286484D01*
X15514825Y-10286484D02*
X15495777Y-10315055D01*
X15495777Y-10315055D02*
X15476729Y-10334103D01*
X15476729Y-10334103D02*
X15457682Y-10343627D01*
X15686253Y-10372198D02*
X15667206Y-10362674D01*
X15667206Y-10362674D02*
X15657682Y-10353150D01*
X15657682Y-10353150D02*
X15648158Y-10334103D01*
X15648158Y-10334103D02*
X15648158Y-10324579D01*
X15648158Y-10324579D02*
X15657682Y-10305531D01*
X15657682Y-10305531D02*
X15667206Y-10296008D01*
X15667206Y-10296008D02*
X15686253Y-10286484D01*
X15686253Y-10286484D02*
X15724348Y-10286484D01*
X15724348Y-10286484D02*
X15743396Y-10296008D01*
X15743396Y-10296008D02*
X15752920Y-10305531D01*
X15752920Y-10305531D02*
X15762444Y-10324579D01*
X15762444Y-10324579D02*
X15762444Y-10334103D01*
X15762444Y-10334103D02*
X15752920Y-10353150D01*
X15752920Y-10353150D02*
X15743396Y-10362674D01*
X15743396Y-10362674D02*
X15724348Y-10372198D01*
X15724348Y-10372198D02*
X15686253Y-10372198D01*
X15686253Y-10372198D02*
X15667206Y-10381722D01*
X15667206Y-10381722D02*
X15657682Y-10391246D01*
X15657682Y-10391246D02*
X15648158Y-10410293D01*
X15648158Y-10410293D02*
X15648158Y-10448389D01*
X15648158Y-10448389D02*
X15657682Y-10467436D01*
X15657682Y-10467436D02*
X15667206Y-10476960D01*
X15667206Y-10476960D02*
X15686253Y-10486484D01*
X15686253Y-10486484D02*
X15724348Y-10486484D01*
X15724348Y-10486484D02*
X15743396Y-10476960D01*
X15743396Y-10476960D02*
X15752920Y-10467436D01*
X15752920Y-10467436D02*
X15762444Y-10448389D01*
X15762444Y-10448389D02*
X15762444Y-10410293D01*
X15762444Y-10410293D02*
X15752920Y-10391246D01*
X15752920Y-10391246D02*
X15743396Y-10381722D01*
X15743396Y-10381722D02*
X15724348Y-10372198D01*
X15838634Y-10286484D02*
X15838634Y-10324579D01*
X15914825Y-10286484D02*
X15914825Y-10324579D01*
X16210063Y-10562674D02*
X16200539Y-10553150D01*
X16200539Y-10553150D02*
X16181491Y-10524579D01*
X16181491Y-10524579D02*
X16171968Y-10505531D01*
X16171968Y-10505531D02*
X16162444Y-10476960D01*
X16162444Y-10476960D02*
X16152920Y-10429341D01*
X16152920Y-10429341D02*
X16152920Y-10391246D01*
X16152920Y-10391246D02*
X16162444Y-10343627D01*
X16162444Y-10343627D02*
X16171968Y-10315055D01*
X16171968Y-10315055D02*
X16181491Y-10296008D01*
X16181491Y-10296008D02*
X16200539Y-10267436D01*
X16200539Y-10267436D02*
X16210063Y-10257912D01*
X16267206Y-10286484D02*
X16400539Y-10286484D01*
X16400539Y-10286484D02*
X16314825Y-10486484D01*
X16505301Y-10372198D02*
X16486253Y-10362674D01*
X16486253Y-10362674D02*
X16476729Y-10353150D01*
X16476729Y-10353150D02*
X16467206Y-10334103D01*
X16467206Y-10334103D02*
X16467206Y-10324579D01*
X16467206Y-10324579D02*
X16476729Y-10305531D01*
X16476729Y-10305531D02*
X16486253Y-10296008D01*
X16486253Y-10296008D02*
X16505301Y-10286484D01*
X16505301Y-10286484D02*
X16543396Y-10286484D01*
X16543396Y-10286484D02*
X16562444Y-10296008D01*
X16562444Y-10296008D02*
X16571968Y-10305531D01*
X16571968Y-10305531D02*
X16581491Y-10324579D01*
X16581491Y-10324579D02*
X16581491Y-10334103D01*
X16581491Y-10334103D02*
X16571968Y-10353150D01*
X16571968Y-10353150D02*
X16562444Y-10362674D01*
X16562444Y-10362674D02*
X16543396Y-10372198D01*
X16543396Y-10372198D02*
X16505301Y-10372198D01*
X16505301Y-10372198D02*
X16486253Y-10381722D01*
X16486253Y-10381722D02*
X16476729Y-10391246D01*
X16476729Y-10391246D02*
X16467206Y-10410293D01*
X16467206Y-10410293D02*
X16467206Y-10448389D01*
X16467206Y-10448389D02*
X16476729Y-10467436D01*
X16476729Y-10467436D02*
X16486253Y-10476960D01*
X16486253Y-10476960D02*
X16505301Y-10486484D01*
X16505301Y-10486484D02*
X16543396Y-10486484D01*
X16543396Y-10486484D02*
X16562444Y-10476960D01*
X16562444Y-10476960D02*
X16571968Y-10467436D01*
X16571968Y-10467436D02*
X16581491Y-10448389D01*
X16581491Y-10448389D02*
X16581491Y-10410293D01*
X16581491Y-10410293D02*
X16571968Y-10391246D01*
X16571968Y-10391246D02*
X16562444Y-10381722D01*
X16562444Y-10381722D02*
X16543396Y-10372198D01*
X16819587Y-10486484D02*
X16819587Y-10286484D01*
X16905301Y-10486484D02*
X16905301Y-10381722D01*
X16905301Y-10381722D02*
X16895777Y-10362674D01*
X16895777Y-10362674D02*
X16876730Y-10353150D01*
X16876730Y-10353150D02*
X16848158Y-10353150D01*
X16848158Y-10353150D02*
X16829111Y-10362674D01*
X16829111Y-10362674D02*
X16819587Y-10372198D01*
X17029111Y-10486484D02*
X17010063Y-10476960D01*
X17010063Y-10476960D02*
X17000539Y-10467436D01*
X17000539Y-10467436D02*
X16991015Y-10448389D01*
X16991015Y-10448389D02*
X16991015Y-10391246D01*
X16991015Y-10391246D02*
X17000539Y-10372198D01*
X17000539Y-10372198D02*
X17010063Y-10362674D01*
X17010063Y-10362674D02*
X17029111Y-10353150D01*
X17029111Y-10353150D02*
X17057682Y-10353150D01*
X17057682Y-10353150D02*
X17076730Y-10362674D01*
X17076730Y-10362674D02*
X17086253Y-10372198D01*
X17086253Y-10372198D02*
X17095777Y-10391246D01*
X17095777Y-10391246D02*
X17095777Y-10448389D01*
X17095777Y-10448389D02*
X17086253Y-10467436D01*
X17086253Y-10467436D02*
X17076730Y-10476960D01*
X17076730Y-10476960D02*
X17057682Y-10486484D01*
X17057682Y-10486484D02*
X17029111Y-10486484D01*
X17210063Y-10486484D02*
X17191015Y-10476960D01*
X17191015Y-10476960D02*
X17181492Y-10457912D01*
X17181492Y-10457912D02*
X17181492Y-10286484D01*
X17362444Y-10476960D02*
X17343396Y-10486484D01*
X17343396Y-10486484D02*
X17305301Y-10486484D01*
X17305301Y-10486484D02*
X17286253Y-10476960D01*
X17286253Y-10476960D02*
X17276730Y-10457912D01*
X17276730Y-10457912D02*
X17276730Y-10381722D01*
X17276730Y-10381722D02*
X17286253Y-10362674D01*
X17286253Y-10362674D02*
X17305301Y-10353150D01*
X17305301Y-10353150D02*
X17343396Y-10353150D01*
X17343396Y-10353150D02*
X17362444Y-10362674D01*
X17362444Y-10362674D02*
X17371968Y-10381722D01*
X17371968Y-10381722D02*
X17371968Y-10400770D01*
X17371968Y-10400770D02*
X17276730Y-10419817D01*
X17448158Y-10476960D02*
X17467206Y-10486484D01*
X17467206Y-10486484D02*
X17505301Y-10486484D01*
X17505301Y-10486484D02*
X17524349Y-10476960D01*
X17524349Y-10476960D02*
X17533873Y-10457912D01*
X17533873Y-10457912D02*
X17533873Y-10448389D01*
X17533873Y-10448389D02*
X17524349Y-10429341D01*
X17524349Y-10429341D02*
X17505301Y-10419817D01*
X17505301Y-10419817D02*
X17476730Y-10419817D01*
X17476730Y-10419817D02*
X17457682Y-10410293D01*
X17457682Y-10410293D02*
X17448158Y-10391246D01*
X17448158Y-10391246D02*
X17448158Y-10381722D01*
X17448158Y-10381722D02*
X17457682Y-10362674D01*
X17457682Y-10362674D02*
X17476730Y-10353150D01*
X17476730Y-10353150D02*
X17505301Y-10353150D01*
X17505301Y-10353150D02*
X17524349Y-10362674D01*
X17600539Y-10562674D02*
X17610063Y-10553150D01*
X17610063Y-10553150D02*
X17629111Y-10524579D01*
X17629111Y-10524579D02*
X17638634Y-10505531D01*
X17638634Y-10505531D02*
X17648158Y-10476960D01*
X17648158Y-10476960D02*
X17657682Y-10429341D01*
X17657682Y-10429341D02*
X17657682Y-10391246D01*
X17657682Y-10391246D02*
X17648158Y-10343627D01*
X17648158Y-10343627D02*
X17638634Y-10315055D01*
X17638634Y-10315055D02*
X17629111Y-10296008D01*
X17629111Y-10296008D02*
X17610063Y-10267436D01*
X17610063Y-10267436D02*
X17600539Y-10257912D01*
D10*
X12635000Y-10659000D02*
G75*
G02*
X12595000Y-10659000I-20000J0D01*
G01*
X12595000Y-10659000D02*
G75*
G02*
X12635000Y-10659000I20000J0D01*
G01*
D11*
X12933872Y-10550484D02*
X12952920Y-10550484D01*
X12952920Y-10550484D02*
X12971967Y-10560008D01*
X12971967Y-10560008D02*
X12981491Y-10569531D01*
X12981491Y-10569531D02*
X12991015Y-10588579D01*
X12991015Y-10588579D02*
X13000539Y-10626674D01*
X13000539Y-10626674D02*
X13000539Y-10674293D01*
X13000539Y-10674293D02*
X12991015Y-10712389D01*
X12991015Y-10712389D02*
X12981491Y-10731436D01*
X12981491Y-10731436D02*
X12971967Y-10740960D01*
X12971967Y-10740960D02*
X12952920Y-10750484D01*
X12952920Y-10750484D02*
X12933872Y-10750484D01*
X12933872Y-10750484D02*
X12914824Y-10740960D01*
X12914824Y-10740960D02*
X12905301Y-10731436D01*
X12905301Y-10731436D02*
X12895777Y-10712389D01*
X12895777Y-10712389D02*
X12886253Y-10674293D01*
X12886253Y-10674293D02*
X12886253Y-10626674D01*
X12886253Y-10626674D02*
X12895777Y-10588579D01*
X12895777Y-10588579D02*
X12905301Y-10569531D01*
X12905301Y-10569531D02*
X12914824Y-10560008D01*
X12914824Y-10560008D02*
X12933872Y-10550484D01*
X13086253Y-10731436D02*
X13095777Y-10740960D01*
X13095777Y-10740960D02*
X13086253Y-10750484D01*
X13086253Y-10750484D02*
X13076729Y-10740960D01*
X13076729Y-10740960D02*
X13086253Y-10731436D01*
X13086253Y-10731436D02*
X13086253Y-10750484D01*
X13267205Y-10617150D02*
X13267205Y-10750484D01*
X13219586Y-10540960D02*
X13171967Y-10683817D01*
X13171967Y-10683817D02*
X13295777Y-10683817D01*
X13410062Y-10550484D02*
X13429110Y-10550484D01*
X13429110Y-10550484D02*
X13448158Y-10560008D01*
X13448158Y-10560008D02*
X13457682Y-10569531D01*
X13457682Y-10569531D02*
X13467205Y-10588579D01*
X13467205Y-10588579D02*
X13476729Y-10626674D01*
X13476729Y-10626674D02*
X13476729Y-10674293D01*
X13476729Y-10674293D02*
X13467205Y-10712389D01*
X13467205Y-10712389D02*
X13457682Y-10731436D01*
X13457682Y-10731436D02*
X13448158Y-10740960D01*
X13448158Y-10740960D02*
X13429110Y-10750484D01*
X13429110Y-10750484D02*
X13410062Y-10750484D01*
X13410062Y-10750484D02*
X13391015Y-10740960D01*
X13391015Y-10740960D02*
X13381491Y-10731436D01*
X13381491Y-10731436D02*
X13371967Y-10712389D01*
X13371967Y-10712389D02*
X13362443Y-10674293D01*
X13362443Y-10674293D02*
X13362443Y-10626674D01*
X13362443Y-10626674D02*
X13371967Y-10588579D01*
X13371967Y-10588579D02*
X13381491Y-10569531D01*
X13381491Y-10569531D02*
X13391015Y-10560008D01*
X13391015Y-10560008D02*
X13410062Y-10550484D01*
X13600539Y-10550484D02*
X13619586Y-10550484D01*
X13619586Y-10550484D02*
X13638634Y-10560008D01*
X13638634Y-10560008D02*
X13648158Y-10569531D01*
X13648158Y-10569531D02*
X13657682Y-10588579D01*
X13657682Y-10588579D02*
X13667205Y-10626674D01*
X13667205Y-10626674D02*
X13667205Y-10674293D01*
X13667205Y-10674293D02*
X13657682Y-10712389D01*
X13657682Y-10712389D02*
X13648158Y-10731436D01*
X13648158Y-10731436D02*
X13638634Y-10740960D01*
X13638634Y-10740960D02*
X13619586Y-10750484D01*
X13619586Y-10750484D02*
X13600539Y-10750484D01*
X13600539Y-10750484D02*
X13581491Y-10740960D01*
X13581491Y-10740960D02*
X13571967Y-10731436D01*
X13571967Y-10731436D02*
X13562443Y-10712389D01*
X13562443Y-10712389D02*
X13552920Y-10674293D01*
X13552920Y-10674293D02*
X13552920Y-10626674D01*
X13552920Y-10626674D02*
X13562443Y-10588579D01*
X13562443Y-10588579D02*
X13571967Y-10569531D01*
X13571967Y-10569531D02*
X13581491Y-10560008D01*
X13581491Y-10560008D02*
X13600539Y-10550484D01*
X13752920Y-10750484D02*
X13752920Y-10617150D01*
X13752920Y-10636198D02*
X13762443Y-10626674D01*
X13762443Y-10626674D02*
X13781491Y-10617150D01*
X13781491Y-10617150D02*
X13810063Y-10617150D01*
X13810063Y-10617150D02*
X13829110Y-10626674D01*
X13829110Y-10626674D02*
X13838634Y-10645722D01*
X13838634Y-10645722D02*
X13838634Y-10750484D01*
X13838634Y-10645722D02*
X13848158Y-10626674D01*
X13848158Y-10626674D02*
X13867205Y-10617150D01*
X13867205Y-10617150D02*
X13895777Y-10617150D01*
X13895777Y-10617150D02*
X13914824Y-10626674D01*
X13914824Y-10626674D02*
X13924348Y-10645722D01*
X13924348Y-10645722D02*
X13924348Y-10750484D01*
X14019586Y-10750484D02*
X14019586Y-10617150D01*
X14019586Y-10636198D02*
X14029110Y-10626674D01*
X14029110Y-10626674D02*
X14048158Y-10617150D01*
X14048158Y-10617150D02*
X14076729Y-10617150D01*
X14076729Y-10617150D02*
X14095777Y-10626674D01*
X14095777Y-10626674D02*
X14105301Y-10645722D01*
X14105301Y-10645722D02*
X14105301Y-10750484D01*
X14105301Y-10645722D02*
X14114824Y-10626674D01*
X14114824Y-10626674D02*
X14133872Y-10617150D01*
X14133872Y-10617150D02*
X14162443Y-10617150D01*
X14162443Y-10617150D02*
X14181491Y-10626674D01*
X14181491Y-10626674D02*
X14191015Y-10645722D01*
X14191015Y-10645722D02*
X14191015Y-10750484D01*
X14581491Y-10540960D02*
X14410063Y-10798103D01*
X14838634Y-10550484D02*
X14857682Y-10550484D01*
X14857682Y-10550484D02*
X14876729Y-10560008D01*
X14876729Y-10560008D02*
X14886253Y-10569531D01*
X14886253Y-10569531D02*
X14895777Y-10588579D01*
X14895777Y-10588579D02*
X14905301Y-10626674D01*
X14905301Y-10626674D02*
X14905301Y-10674293D01*
X14905301Y-10674293D02*
X14895777Y-10712389D01*
X14895777Y-10712389D02*
X14886253Y-10731436D01*
X14886253Y-10731436D02*
X14876729Y-10740960D01*
X14876729Y-10740960D02*
X14857682Y-10750484D01*
X14857682Y-10750484D02*
X14838634Y-10750484D01*
X14838634Y-10750484D02*
X14819586Y-10740960D01*
X14819586Y-10740960D02*
X14810063Y-10731436D01*
X14810063Y-10731436D02*
X14800539Y-10712389D01*
X14800539Y-10712389D02*
X14791015Y-10674293D01*
X14791015Y-10674293D02*
X14791015Y-10626674D01*
X14791015Y-10626674D02*
X14800539Y-10588579D01*
X14800539Y-10588579D02*
X14810063Y-10569531D01*
X14810063Y-10569531D02*
X14819586Y-10560008D01*
X14819586Y-10560008D02*
X14838634Y-10550484D01*
X14991015Y-10731436D02*
X15000539Y-10740960D01*
X15000539Y-10740960D02*
X14991015Y-10750484D01*
X14991015Y-10750484D02*
X14981491Y-10740960D01*
X14981491Y-10740960D02*
X14991015Y-10731436D01*
X14991015Y-10731436D02*
X14991015Y-10750484D01*
X15124348Y-10550484D02*
X15143396Y-10550484D01*
X15143396Y-10550484D02*
X15162444Y-10560008D01*
X15162444Y-10560008D02*
X15171967Y-10569531D01*
X15171967Y-10569531D02*
X15181491Y-10588579D01*
X15181491Y-10588579D02*
X15191015Y-10626674D01*
X15191015Y-10626674D02*
X15191015Y-10674293D01*
X15191015Y-10674293D02*
X15181491Y-10712389D01*
X15181491Y-10712389D02*
X15171967Y-10731436D01*
X15171967Y-10731436D02*
X15162444Y-10740960D01*
X15162444Y-10740960D02*
X15143396Y-10750484D01*
X15143396Y-10750484D02*
X15124348Y-10750484D01*
X15124348Y-10750484D02*
X15105301Y-10740960D01*
X15105301Y-10740960D02*
X15095777Y-10731436D01*
X15095777Y-10731436D02*
X15086253Y-10712389D01*
X15086253Y-10712389D02*
X15076729Y-10674293D01*
X15076729Y-10674293D02*
X15076729Y-10626674D01*
X15076729Y-10626674D02*
X15086253Y-10588579D01*
X15086253Y-10588579D02*
X15095777Y-10569531D01*
X15095777Y-10569531D02*
X15105301Y-10560008D01*
X15105301Y-10560008D02*
X15124348Y-10550484D01*
X15381491Y-10750484D02*
X15267206Y-10750484D01*
X15324348Y-10750484D02*
X15324348Y-10550484D01*
X15324348Y-10550484D02*
X15305301Y-10579055D01*
X15305301Y-10579055D02*
X15286253Y-10598103D01*
X15286253Y-10598103D02*
X15267206Y-10607627D01*
X15562444Y-10550484D02*
X15467206Y-10550484D01*
X15467206Y-10550484D02*
X15457682Y-10645722D01*
X15457682Y-10645722D02*
X15467206Y-10636198D01*
X15467206Y-10636198D02*
X15486253Y-10626674D01*
X15486253Y-10626674D02*
X15533872Y-10626674D01*
X15533872Y-10626674D02*
X15552920Y-10636198D01*
X15552920Y-10636198D02*
X15562444Y-10645722D01*
X15562444Y-10645722D02*
X15571967Y-10664770D01*
X15571967Y-10664770D02*
X15571967Y-10712389D01*
X15571967Y-10712389D02*
X15562444Y-10731436D01*
X15562444Y-10731436D02*
X15552920Y-10740960D01*
X15552920Y-10740960D02*
X15533872Y-10750484D01*
X15533872Y-10750484D02*
X15486253Y-10750484D01*
X15486253Y-10750484D02*
X15467206Y-10740960D01*
X15467206Y-10740960D02*
X15457682Y-10731436D01*
X15638634Y-10550484D02*
X15771967Y-10550484D01*
X15771967Y-10550484D02*
X15686253Y-10750484D01*
X15838634Y-10550484D02*
X15838634Y-10588579D01*
X15914825Y-10550484D02*
X15914825Y-10588579D01*
X16210063Y-10826674D02*
X16200539Y-10817150D01*
X16200539Y-10817150D02*
X16181491Y-10788579D01*
X16181491Y-10788579D02*
X16171968Y-10769531D01*
X16171968Y-10769531D02*
X16162444Y-10740960D01*
X16162444Y-10740960D02*
X16152920Y-10693341D01*
X16152920Y-10693341D02*
X16152920Y-10655246D01*
X16152920Y-10655246D02*
X16162444Y-10607627D01*
X16162444Y-10607627D02*
X16171968Y-10579055D01*
X16171968Y-10579055D02*
X16181491Y-10560008D01*
X16181491Y-10560008D02*
X16200539Y-10531436D01*
X16200539Y-10531436D02*
X16210063Y-10521912D01*
X16314825Y-10636198D02*
X16295777Y-10626674D01*
X16295777Y-10626674D02*
X16286253Y-10617150D01*
X16286253Y-10617150D02*
X16276729Y-10598103D01*
X16276729Y-10598103D02*
X16276729Y-10588579D01*
X16276729Y-10588579D02*
X16286253Y-10569531D01*
X16286253Y-10569531D02*
X16295777Y-10560008D01*
X16295777Y-10560008D02*
X16314825Y-10550484D01*
X16314825Y-10550484D02*
X16352920Y-10550484D01*
X16352920Y-10550484D02*
X16371968Y-10560008D01*
X16371968Y-10560008D02*
X16381491Y-10569531D01*
X16381491Y-10569531D02*
X16391015Y-10588579D01*
X16391015Y-10588579D02*
X16391015Y-10598103D01*
X16391015Y-10598103D02*
X16381491Y-10617150D01*
X16381491Y-10617150D02*
X16371968Y-10626674D01*
X16371968Y-10626674D02*
X16352920Y-10636198D01*
X16352920Y-10636198D02*
X16314825Y-10636198D01*
X16314825Y-10636198D02*
X16295777Y-10645722D01*
X16295777Y-10645722D02*
X16286253Y-10655246D01*
X16286253Y-10655246D02*
X16276729Y-10674293D01*
X16276729Y-10674293D02*
X16276729Y-10712389D01*
X16276729Y-10712389D02*
X16286253Y-10731436D01*
X16286253Y-10731436D02*
X16295777Y-10740960D01*
X16295777Y-10740960D02*
X16314825Y-10750484D01*
X16314825Y-10750484D02*
X16352920Y-10750484D01*
X16352920Y-10750484D02*
X16371968Y-10740960D01*
X16371968Y-10740960D02*
X16381491Y-10731436D01*
X16381491Y-10731436D02*
X16391015Y-10712389D01*
X16391015Y-10712389D02*
X16391015Y-10674293D01*
X16391015Y-10674293D02*
X16381491Y-10655246D01*
X16381491Y-10655246D02*
X16371968Y-10645722D01*
X16371968Y-10645722D02*
X16352920Y-10636198D01*
X16629110Y-10750484D02*
X16629110Y-10550484D01*
X16714825Y-10750484D02*
X16714825Y-10645722D01*
X16714825Y-10645722D02*
X16705301Y-10626674D01*
X16705301Y-10626674D02*
X16686253Y-10617150D01*
X16686253Y-10617150D02*
X16657682Y-10617150D01*
X16657682Y-10617150D02*
X16638634Y-10626674D01*
X16638634Y-10626674D02*
X16629110Y-10636198D01*
X16838634Y-10750484D02*
X16819587Y-10740960D01*
X16819587Y-10740960D02*
X16810063Y-10731436D01*
X16810063Y-10731436D02*
X16800539Y-10712389D01*
X16800539Y-10712389D02*
X16800539Y-10655246D01*
X16800539Y-10655246D02*
X16810063Y-10636198D01*
X16810063Y-10636198D02*
X16819587Y-10626674D01*
X16819587Y-10626674D02*
X16838634Y-10617150D01*
X16838634Y-10617150D02*
X16867206Y-10617150D01*
X16867206Y-10617150D02*
X16886253Y-10626674D01*
X16886253Y-10626674D02*
X16895777Y-10636198D01*
X16895777Y-10636198D02*
X16905301Y-10655246D01*
X16905301Y-10655246D02*
X16905301Y-10712389D01*
X16905301Y-10712389D02*
X16895777Y-10731436D01*
X16895777Y-10731436D02*
X16886253Y-10740960D01*
X16886253Y-10740960D02*
X16867206Y-10750484D01*
X16867206Y-10750484D02*
X16838634Y-10750484D01*
X17019587Y-10750484D02*
X17000539Y-10740960D01*
X17000539Y-10740960D02*
X16991015Y-10721912D01*
X16991015Y-10721912D02*
X16991015Y-10550484D01*
X17171968Y-10740960D02*
X17152920Y-10750484D01*
X17152920Y-10750484D02*
X17114825Y-10750484D01*
X17114825Y-10750484D02*
X17095777Y-10740960D01*
X17095777Y-10740960D02*
X17086253Y-10721912D01*
X17086253Y-10721912D02*
X17086253Y-10645722D01*
X17086253Y-10645722D02*
X17095777Y-10626674D01*
X17095777Y-10626674D02*
X17114825Y-10617150D01*
X17114825Y-10617150D02*
X17152920Y-10617150D01*
X17152920Y-10617150D02*
X17171968Y-10626674D01*
X17171968Y-10626674D02*
X17181492Y-10645722D01*
X17181492Y-10645722D02*
X17181492Y-10664770D01*
X17181492Y-10664770D02*
X17086253Y-10683817D01*
X17257682Y-10740960D02*
X17276730Y-10750484D01*
X17276730Y-10750484D02*
X17314825Y-10750484D01*
X17314825Y-10750484D02*
X17333873Y-10740960D01*
X17333873Y-10740960D02*
X17343396Y-10721912D01*
X17343396Y-10721912D02*
X17343396Y-10712389D01*
X17343396Y-10712389D02*
X17333873Y-10693341D01*
X17333873Y-10693341D02*
X17314825Y-10683817D01*
X17314825Y-10683817D02*
X17286253Y-10683817D01*
X17286253Y-10683817D02*
X17267206Y-10674293D01*
X17267206Y-10674293D02*
X17257682Y-10655246D01*
X17257682Y-10655246D02*
X17257682Y-10645722D01*
X17257682Y-10645722D02*
X17267206Y-10626674D01*
X17267206Y-10626674D02*
X17286253Y-10617150D01*
X17286253Y-10617150D02*
X17314825Y-10617150D01*
X17314825Y-10617150D02*
X17333873Y-10626674D01*
X17410063Y-10826674D02*
X17419587Y-10817150D01*
X17419587Y-10817150D02*
X17438634Y-10788579D01*
X17438634Y-10788579D02*
X17448158Y-10769531D01*
X17448158Y-10769531D02*
X17457682Y-10740960D01*
X17457682Y-10740960D02*
X17467206Y-10693341D01*
X17467206Y-10693341D02*
X17467206Y-10655246D01*
X17467206Y-10655246D02*
X17457682Y-10607627D01*
X17457682Y-10607627D02*
X17448158Y-10579055D01*
X17448158Y-10579055D02*
X17438634Y-10560008D01*
X17438634Y-10560008D02*
X17419587Y-10531436D01*
X17419587Y-10531436D02*
X17410063Y-10521912D01*
D10*
X12595000Y-10883000D02*
X12595000Y-10963000D01*
X12555000Y-10923000D02*
X12635000Y-10923000D01*
D11*
X12933872Y-10814484D02*
X12952920Y-10814484D01*
X12952920Y-10814484D02*
X12971967Y-10824008D01*
X12971967Y-10824008D02*
X12981491Y-10833531D01*
X12981491Y-10833531D02*
X12991015Y-10852579D01*
X12991015Y-10852579D02*
X13000539Y-10890674D01*
X13000539Y-10890674D02*
X13000539Y-10938293D01*
X13000539Y-10938293D02*
X12991015Y-10976389D01*
X12991015Y-10976389D02*
X12981491Y-10995436D01*
X12981491Y-10995436D02*
X12971967Y-11004960D01*
X12971967Y-11004960D02*
X12952920Y-11014484D01*
X12952920Y-11014484D02*
X12933872Y-11014484D01*
X12933872Y-11014484D02*
X12914824Y-11004960D01*
X12914824Y-11004960D02*
X12905301Y-10995436D01*
X12905301Y-10995436D02*
X12895777Y-10976389D01*
X12895777Y-10976389D02*
X12886253Y-10938293D01*
X12886253Y-10938293D02*
X12886253Y-10890674D01*
X12886253Y-10890674D02*
X12895777Y-10852579D01*
X12895777Y-10852579D02*
X12905301Y-10833531D01*
X12905301Y-10833531D02*
X12914824Y-10824008D01*
X12914824Y-10824008D02*
X12933872Y-10814484D01*
X13086253Y-10995436D02*
X13095777Y-11004960D01*
X13095777Y-11004960D02*
X13086253Y-11014484D01*
X13086253Y-11014484D02*
X13076729Y-11004960D01*
X13076729Y-11004960D02*
X13086253Y-10995436D01*
X13086253Y-10995436D02*
X13086253Y-11014484D01*
X13210062Y-10900198D02*
X13191015Y-10890674D01*
X13191015Y-10890674D02*
X13181491Y-10881150D01*
X13181491Y-10881150D02*
X13171967Y-10862103D01*
X13171967Y-10862103D02*
X13171967Y-10852579D01*
X13171967Y-10852579D02*
X13181491Y-10833531D01*
X13181491Y-10833531D02*
X13191015Y-10824008D01*
X13191015Y-10824008D02*
X13210062Y-10814484D01*
X13210062Y-10814484D02*
X13248158Y-10814484D01*
X13248158Y-10814484D02*
X13267205Y-10824008D01*
X13267205Y-10824008D02*
X13276729Y-10833531D01*
X13276729Y-10833531D02*
X13286253Y-10852579D01*
X13286253Y-10852579D02*
X13286253Y-10862103D01*
X13286253Y-10862103D02*
X13276729Y-10881150D01*
X13276729Y-10881150D02*
X13267205Y-10890674D01*
X13267205Y-10890674D02*
X13248158Y-10900198D01*
X13248158Y-10900198D02*
X13210062Y-10900198D01*
X13210062Y-10900198D02*
X13191015Y-10909722D01*
X13191015Y-10909722D02*
X13181491Y-10919246D01*
X13181491Y-10919246D02*
X13171967Y-10938293D01*
X13171967Y-10938293D02*
X13171967Y-10976389D01*
X13171967Y-10976389D02*
X13181491Y-10995436D01*
X13181491Y-10995436D02*
X13191015Y-11004960D01*
X13191015Y-11004960D02*
X13210062Y-11014484D01*
X13210062Y-11014484D02*
X13248158Y-11014484D01*
X13248158Y-11014484D02*
X13267205Y-11004960D01*
X13267205Y-11004960D02*
X13276729Y-10995436D01*
X13276729Y-10995436D02*
X13286253Y-10976389D01*
X13286253Y-10976389D02*
X13286253Y-10938293D01*
X13286253Y-10938293D02*
X13276729Y-10919246D01*
X13276729Y-10919246D02*
X13267205Y-10909722D01*
X13267205Y-10909722D02*
X13248158Y-10900198D01*
X13410062Y-10814484D02*
X13429110Y-10814484D01*
X13429110Y-10814484D02*
X13448158Y-10824008D01*
X13448158Y-10824008D02*
X13457682Y-10833531D01*
X13457682Y-10833531D02*
X13467205Y-10852579D01*
X13467205Y-10852579D02*
X13476729Y-10890674D01*
X13476729Y-10890674D02*
X13476729Y-10938293D01*
X13476729Y-10938293D02*
X13467205Y-10976389D01*
X13467205Y-10976389D02*
X13457682Y-10995436D01*
X13457682Y-10995436D02*
X13448158Y-11004960D01*
X13448158Y-11004960D02*
X13429110Y-11014484D01*
X13429110Y-11014484D02*
X13410062Y-11014484D01*
X13410062Y-11014484D02*
X13391015Y-11004960D01*
X13391015Y-11004960D02*
X13381491Y-10995436D01*
X13381491Y-10995436D02*
X13371967Y-10976389D01*
X13371967Y-10976389D02*
X13362443Y-10938293D01*
X13362443Y-10938293D02*
X13362443Y-10890674D01*
X13362443Y-10890674D02*
X13371967Y-10852579D01*
X13371967Y-10852579D02*
X13381491Y-10833531D01*
X13381491Y-10833531D02*
X13391015Y-10824008D01*
X13391015Y-10824008D02*
X13410062Y-10814484D01*
X13600539Y-10814484D02*
X13619586Y-10814484D01*
X13619586Y-10814484D02*
X13638634Y-10824008D01*
X13638634Y-10824008D02*
X13648158Y-10833531D01*
X13648158Y-10833531D02*
X13657682Y-10852579D01*
X13657682Y-10852579D02*
X13667205Y-10890674D01*
X13667205Y-10890674D02*
X13667205Y-10938293D01*
X13667205Y-10938293D02*
X13657682Y-10976389D01*
X13657682Y-10976389D02*
X13648158Y-10995436D01*
X13648158Y-10995436D02*
X13638634Y-11004960D01*
X13638634Y-11004960D02*
X13619586Y-11014484D01*
X13619586Y-11014484D02*
X13600539Y-11014484D01*
X13600539Y-11014484D02*
X13581491Y-11004960D01*
X13581491Y-11004960D02*
X13571967Y-10995436D01*
X13571967Y-10995436D02*
X13562443Y-10976389D01*
X13562443Y-10976389D02*
X13552920Y-10938293D01*
X13552920Y-10938293D02*
X13552920Y-10890674D01*
X13552920Y-10890674D02*
X13562443Y-10852579D01*
X13562443Y-10852579D02*
X13571967Y-10833531D01*
X13571967Y-10833531D02*
X13581491Y-10824008D01*
X13581491Y-10824008D02*
X13600539Y-10814484D01*
X13752920Y-11014484D02*
X13752920Y-10881150D01*
X13752920Y-10900198D02*
X13762443Y-10890674D01*
X13762443Y-10890674D02*
X13781491Y-10881150D01*
X13781491Y-10881150D02*
X13810063Y-10881150D01*
X13810063Y-10881150D02*
X13829110Y-10890674D01*
X13829110Y-10890674D02*
X13838634Y-10909722D01*
X13838634Y-10909722D02*
X13838634Y-11014484D01*
X13838634Y-10909722D02*
X13848158Y-10890674D01*
X13848158Y-10890674D02*
X13867205Y-10881150D01*
X13867205Y-10881150D02*
X13895777Y-10881150D01*
X13895777Y-10881150D02*
X13914824Y-10890674D01*
X13914824Y-10890674D02*
X13924348Y-10909722D01*
X13924348Y-10909722D02*
X13924348Y-11014484D01*
X14019586Y-11014484D02*
X14019586Y-10881150D01*
X14019586Y-10900198D02*
X14029110Y-10890674D01*
X14029110Y-10890674D02*
X14048158Y-10881150D01*
X14048158Y-10881150D02*
X14076729Y-10881150D01*
X14076729Y-10881150D02*
X14095777Y-10890674D01*
X14095777Y-10890674D02*
X14105301Y-10909722D01*
X14105301Y-10909722D02*
X14105301Y-11014484D01*
X14105301Y-10909722D02*
X14114824Y-10890674D01*
X14114824Y-10890674D02*
X14133872Y-10881150D01*
X14133872Y-10881150D02*
X14162443Y-10881150D01*
X14162443Y-10881150D02*
X14181491Y-10890674D01*
X14181491Y-10890674D02*
X14191015Y-10909722D01*
X14191015Y-10909722D02*
X14191015Y-11014484D01*
X14581491Y-10804960D02*
X14410063Y-11062103D01*
X14838634Y-10814484D02*
X14857682Y-10814484D01*
X14857682Y-10814484D02*
X14876729Y-10824008D01*
X14876729Y-10824008D02*
X14886253Y-10833531D01*
X14886253Y-10833531D02*
X14895777Y-10852579D01*
X14895777Y-10852579D02*
X14905301Y-10890674D01*
X14905301Y-10890674D02*
X14905301Y-10938293D01*
X14905301Y-10938293D02*
X14895777Y-10976389D01*
X14895777Y-10976389D02*
X14886253Y-10995436D01*
X14886253Y-10995436D02*
X14876729Y-11004960D01*
X14876729Y-11004960D02*
X14857682Y-11014484D01*
X14857682Y-11014484D02*
X14838634Y-11014484D01*
X14838634Y-11014484D02*
X14819586Y-11004960D01*
X14819586Y-11004960D02*
X14810063Y-10995436D01*
X14810063Y-10995436D02*
X14800539Y-10976389D01*
X14800539Y-10976389D02*
X14791015Y-10938293D01*
X14791015Y-10938293D02*
X14791015Y-10890674D01*
X14791015Y-10890674D02*
X14800539Y-10852579D01*
X14800539Y-10852579D02*
X14810063Y-10833531D01*
X14810063Y-10833531D02*
X14819586Y-10824008D01*
X14819586Y-10824008D02*
X14838634Y-10814484D01*
X14991015Y-10995436D02*
X15000539Y-11004960D01*
X15000539Y-11004960D02*
X14991015Y-11014484D01*
X14991015Y-11014484D02*
X14981491Y-11004960D01*
X14981491Y-11004960D02*
X14991015Y-10995436D01*
X14991015Y-10995436D02*
X14991015Y-11014484D01*
X15124348Y-10814484D02*
X15143396Y-10814484D01*
X15143396Y-10814484D02*
X15162444Y-10824008D01*
X15162444Y-10824008D02*
X15171967Y-10833531D01*
X15171967Y-10833531D02*
X15181491Y-10852579D01*
X15181491Y-10852579D02*
X15191015Y-10890674D01*
X15191015Y-10890674D02*
X15191015Y-10938293D01*
X15191015Y-10938293D02*
X15181491Y-10976389D01*
X15181491Y-10976389D02*
X15171967Y-10995436D01*
X15171967Y-10995436D02*
X15162444Y-11004960D01*
X15162444Y-11004960D02*
X15143396Y-11014484D01*
X15143396Y-11014484D02*
X15124348Y-11014484D01*
X15124348Y-11014484D02*
X15105301Y-11004960D01*
X15105301Y-11004960D02*
X15095777Y-10995436D01*
X15095777Y-10995436D02*
X15086253Y-10976389D01*
X15086253Y-10976389D02*
X15076729Y-10938293D01*
X15076729Y-10938293D02*
X15076729Y-10890674D01*
X15076729Y-10890674D02*
X15086253Y-10852579D01*
X15086253Y-10852579D02*
X15095777Y-10833531D01*
X15095777Y-10833531D02*
X15105301Y-10824008D01*
X15105301Y-10824008D02*
X15124348Y-10814484D01*
X15257682Y-10814484D02*
X15381491Y-10814484D01*
X15381491Y-10814484D02*
X15314825Y-10890674D01*
X15314825Y-10890674D02*
X15343396Y-10890674D01*
X15343396Y-10890674D02*
X15362444Y-10900198D01*
X15362444Y-10900198D02*
X15371967Y-10909722D01*
X15371967Y-10909722D02*
X15381491Y-10928770D01*
X15381491Y-10928770D02*
X15381491Y-10976389D01*
X15381491Y-10976389D02*
X15371967Y-10995436D01*
X15371967Y-10995436D02*
X15362444Y-11004960D01*
X15362444Y-11004960D02*
X15343396Y-11014484D01*
X15343396Y-11014484D02*
X15286253Y-11014484D01*
X15286253Y-11014484D02*
X15267206Y-11004960D01*
X15267206Y-11004960D02*
X15257682Y-10995436D01*
X15571967Y-11014484D02*
X15457682Y-11014484D01*
X15514825Y-11014484D02*
X15514825Y-10814484D01*
X15514825Y-10814484D02*
X15495777Y-10843055D01*
X15495777Y-10843055D02*
X15476729Y-10862103D01*
X15476729Y-10862103D02*
X15457682Y-10871627D01*
X15752920Y-10814484D02*
X15657682Y-10814484D01*
X15657682Y-10814484D02*
X15648158Y-10909722D01*
X15648158Y-10909722D02*
X15657682Y-10900198D01*
X15657682Y-10900198D02*
X15676729Y-10890674D01*
X15676729Y-10890674D02*
X15724348Y-10890674D01*
X15724348Y-10890674D02*
X15743396Y-10900198D01*
X15743396Y-10900198D02*
X15752920Y-10909722D01*
X15752920Y-10909722D02*
X15762444Y-10928770D01*
X15762444Y-10928770D02*
X15762444Y-10976389D01*
X15762444Y-10976389D02*
X15752920Y-10995436D01*
X15752920Y-10995436D02*
X15743396Y-11004960D01*
X15743396Y-11004960D02*
X15724348Y-11014484D01*
X15724348Y-11014484D02*
X15676729Y-11014484D01*
X15676729Y-11014484D02*
X15657682Y-11004960D01*
X15657682Y-11004960D02*
X15648158Y-10995436D01*
X15838634Y-10814484D02*
X15838634Y-10852579D01*
X15914825Y-10814484D02*
X15914825Y-10852579D01*
X16210063Y-11090674D02*
X16200539Y-11081150D01*
X16200539Y-11081150D02*
X16181491Y-11052579D01*
X16181491Y-11052579D02*
X16171968Y-11033531D01*
X16171968Y-11033531D02*
X16162444Y-11004960D01*
X16162444Y-11004960D02*
X16152920Y-10957341D01*
X16152920Y-10957341D02*
X16152920Y-10919246D01*
X16152920Y-10919246D02*
X16162444Y-10871627D01*
X16162444Y-10871627D02*
X16171968Y-10843055D01*
X16171968Y-10843055D02*
X16181491Y-10824008D01*
X16181491Y-10824008D02*
X16200539Y-10795436D01*
X16200539Y-10795436D02*
X16210063Y-10785912D01*
X16267206Y-10814484D02*
X16391015Y-10814484D01*
X16391015Y-10814484D02*
X16324348Y-10890674D01*
X16324348Y-10890674D02*
X16352920Y-10890674D01*
X16352920Y-10890674D02*
X16371968Y-10900198D01*
X16371968Y-10900198D02*
X16381491Y-10909722D01*
X16381491Y-10909722D02*
X16391015Y-10928770D01*
X16391015Y-10928770D02*
X16391015Y-10976389D01*
X16391015Y-10976389D02*
X16381491Y-10995436D01*
X16381491Y-10995436D02*
X16371968Y-11004960D01*
X16371968Y-11004960D02*
X16352920Y-11014484D01*
X16352920Y-11014484D02*
X16295777Y-11014484D01*
X16295777Y-11014484D02*
X16276729Y-11004960D01*
X16276729Y-11004960D02*
X16267206Y-10995436D01*
X16629110Y-11014484D02*
X16629110Y-10814484D01*
X16714825Y-11014484D02*
X16714825Y-10909722D01*
X16714825Y-10909722D02*
X16705301Y-10890674D01*
X16705301Y-10890674D02*
X16686253Y-10881150D01*
X16686253Y-10881150D02*
X16657682Y-10881150D01*
X16657682Y-10881150D02*
X16638634Y-10890674D01*
X16638634Y-10890674D02*
X16629110Y-10900198D01*
X16838634Y-11014484D02*
X16819587Y-11004960D01*
X16819587Y-11004960D02*
X16810063Y-10995436D01*
X16810063Y-10995436D02*
X16800539Y-10976389D01*
X16800539Y-10976389D02*
X16800539Y-10919246D01*
X16800539Y-10919246D02*
X16810063Y-10900198D01*
X16810063Y-10900198D02*
X16819587Y-10890674D01*
X16819587Y-10890674D02*
X16838634Y-10881150D01*
X16838634Y-10881150D02*
X16867206Y-10881150D01*
X16867206Y-10881150D02*
X16886253Y-10890674D01*
X16886253Y-10890674D02*
X16895777Y-10900198D01*
X16895777Y-10900198D02*
X16905301Y-10919246D01*
X16905301Y-10919246D02*
X16905301Y-10976389D01*
X16905301Y-10976389D02*
X16895777Y-10995436D01*
X16895777Y-10995436D02*
X16886253Y-11004960D01*
X16886253Y-11004960D02*
X16867206Y-11014484D01*
X16867206Y-11014484D02*
X16838634Y-11014484D01*
X17019587Y-11014484D02*
X17000539Y-11004960D01*
X17000539Y-11004960D02*
X16991015Y-10985912D01*
X16991015Y-10985912D02*
X16991015Y-10814484D01*
X17171968Y-11004960D02*
X17152920Y-11014484D01*
X17152920Y-11014484D02*
X17114825Y-11014484D01*
X17114825Y-11014484D02*
X17095777Y-11004960D01*
X17095777Y-11004960D02*
X17086253Y-10985912D01*
X17086253Y-10985912D02*
X17086253Y-10909722D01*
X17086253Y-10909722D02*
X17095777Y-10890674D01*
X17095777Y-10890674D02*
X17114825Y-10881150D01*
X17114825Y-10881150D02*
X17152920Y-10881150D01*
X17152920Y-10881150D02*
X17171968Y-10890674D01*
X17171968Y-10890674D02*
X17181492Y-10909722D01*
X17181492Y-10909722D02*
X17181492Y-10928770D01*
X17181492Y-10928770D02*
X17086253Y-10947817D01*
X17257682Y-11004960D02*
X17276730Y-11014484D01*
X17276730Y-11014484D02*
X17314825Y-11014484D01*
X17314825Y-11014484D02*
X17333873Y-11004960D01*
X17333873Y-11004960D02*
X17343396Y-10985912D01*
X17343396Y-10985912D02*
X17343396Y-10976389D01*
X17343396Y-10976389D02*
X17333873Y-10957341D01*
X17333873Y-10957341D02*
X17314825Y-10947817D01*
X17314825Y-10947817D02*
X17286253Y-10947817D01*
X17286253Y-10947817D02*
X17267206Y-10938293D01*
X17267206Y-10938293D02*
X17257682Y-10919246D01*
X17257682Y-10919246D02*
X17257682Y-10909722D01*
X17257682Y-10909722D02*
X17267206Y-10890674D01*
X17267206Y-10890674D02*
X17286253Y-10881150D01*
X17286253Y-10881150D02*
X17314825Y-10881150D01*
X17314825Y-10881150D02*
X17333873Y-10890674D01*
X17410063Y-11090674D02*
X17419587Y-11081150D01*
X17419587Y-11081150D02*
X17438634Y-11052579D01*
X17438634Y-11052579D02*
X17448158Y-11033531D01*
X17448158Y-11033531D02*
X17457682Y-11004960D01*
X17457682Y-11004960D02*
X17467206Y-10957341D01*
X17467206Y-10957341D02*
X17467206Y-10919246D01*
X17467206Y-10919246D02*
X17457682Y-10871627D01*
X17457682Y-10871627D02*
X17448158Y-10843055D01*
X17448158Y-10843055D02*
X17438634Y-10824008D01*
X17438634Y-10824008D02*
X17419587Y-10795436D01*
X17419587Y-10795436D02*
X17410063Y-10785912D01*
D10*
X12620356Y-11222356D02*
X12620356Y-11151644D01*
X12549644Y-11151644D01*
X12549644Y-11222356D01*
X12620356Y-11222356D01*
D11*
X13000539Y-11278484D02*
X12886253Y-11278484D01*
X12943396Y-11278484D02*
X12943396Y-11078484D01*
X12943396Y-11078484D02*
X12924348Y-11107055D01*
X12924348Y-11107055D02*
X12905301Y-11126103D01*
X12905301Y-11126103D02*
X12886253Y-11135627D01*
X13086253Y-11259436D02*
X13095777Y-11268960D01*
X13095777Y-11268960D02*
X13086253Y-11278484D01*
X13086253Y-11278484D02*
X13076729Y-11268960D01*
X13076729Y-11268960D02*
X13086253Y-11259436D01*
X13086253Y-11259436D02*
X13086253Y-11278484D01*
X13219586Y-11078484D02*
X13238634Y-11078484D01*
X13238634Y-11078484D02*
X13257682Y-11088008D01*
X13257682Y-11088008D02*
X13267205Y-11097531D01*
X13267205Y-11097531D02*
X13276729Y-11116579D01*
X13276729Y-11116579D02*
X13286253Y-11154674D01*
X13286253Y-11154674D02*
X13286253Y-11202293D01*
X13286253Y-11202293D02*
X13276729Y-11240388D01*
X13276729Y-11240388D02*
X13267205Y-11259436D01*
X13267205Y-11259436D02*
X13257682Y-11268960D01*
X13257682Y-11268960D02*
X13238634Y-11278484D01*
X13238634Y-11278484D02*
X13219586Y-11278484D01*
X13219586Y-11278484D02*
X13200539Y-11268960D01*
X13200539Y-11268960D02*
X13191015Y-11259436D01*
X13191015Y-11259436D02*
X13181491Y-11240388D01*
X13181491Y-11240388D02*
X13171967Y-11202293D01*
X13171967Y-11202293D02*
X13171967Y-11154674D01*
X13171967Y-11154674D02*
X13181491Y-11116579D01*
X13181491Y-11116579D02*
X13191015Y-11097531D01*
X13191015Y-11097531D02*
X13200539Y-11088008D01*
X13200539Y-11088008D02*
X13219586Y-11078484D01*
X13410062Y-11078484D02*
X13429110Y-11078484D01*
X13429110Y-11078484D02*
X13448158Y-11088008D01*
X13448158Y-11088008D02*
X13457682Y-11097531D01*
X13457682Y-11097531D02*
X13467205Y-11116579D01*
X13467205Y-11116579D02*
X13476729Y-11154674D01*
X13476729Y-11154674D02*
X13476729Y-11202293D01*
X13476729Y-11202293D02*
X13467205Y-11240388D01*
X13467205Y-11240388D02*
X13457682Y-11259436D01*
X13457682Y-11259436D02*
X13448158Y-11268960D01*
X13448158Y-11268960D02*
X13429110Y-11278484D01*
X13429110Y-11278484D02*
X13410062Y-11278484D01*
X13410062Y-11278484D02*
X13391015Y-11268960D01*
X13391015Y-11268960D02*
X13381491Y-11259436D01*
X13381491Y-11259436D02*
X13371967Y-11240388D01*
X13371967Y-11240388D02*
X13362443Y-11202293D01*
X13362443Y-11202293D02*
X13362443Y-11154674D01*
X13362443Y-11154674D02*
X13371967Y-11116579D01*
X13371967Y-11116579D02*
X13381491Y-11097531D01*
X13381491Y-11097531D02*
X13391015Y-11088008D01*
X13391015Y-11088008D02*
X13410062Y-11078484D01*
X13600539Y-11078484D02*
X13619586Y-11078484D01*
X13619586Y-11078484D02*
X13638634Y-11088008D01*
X13638634Y-11088008D02*
X13648158Y-11097531D01*
X13648158Y-11097531D02*
X13657682Y-11116579D01*
X13657682Y-11116579D02*
X13667205Y-11154674D01*
X13667205Y-11154674D02*
X13667205Y-11202293D01*
X13667205Y-11202293D02*
X13657682Y-11240388D01*
X13657682Y-11240388D02*
X13648158Y-11259436D01*
X13648158Y-11259436D02*
X13638634Y-11268960D01*
X13638634Y-11268960D02*
X13619586Y-11278484D01*
X13619586Y-11278484D02*
X13600539Y-11278484D01*
X13600539Y-11278484D02*
X13581491Y-11268960D01*
X13581491Y-11268960D02*
X13571967Y-11259436D01*
X13571967Y-11259436D02*
X13562443Y-11240388D01*
X13562443Y-11240388D02*
X13552920Y-11202293D01*
X13552920Y-11202293D02*
X13552920Y-11154674D01*
X13552920Y-11154674D02*
X13562443Y-11116579D01*
X13562443Y-11116579D02*
X13571967Y-11097531D01*
X13571967Y-11097531D02*
X13581491Y-11088008D01*
X13581491Y-11088008D02*
X13600539Y-11078484D01*
X13752920Y-11278484D02*
X13752920Y-11145150D01*
X13752920Y-11164198D02*
X13762443Y-11154674D01*
X13762443Y-11154674D02*
X13781491Y-11145150D01*
X13781491Y-11145150D02*
X13810063Y-11145150D01*
X13810063Y-11145150D02*
X13829110Y-11154674D01*
X13829110Y-11154674D02*
X13838634Y-11173722D01*
X13838634Y-11173722D02*
X13838634Y-11278484D01*
X13838634Y-11173722D02*
X13848158Y-11154674D01*
X13848158Y-11154674D02*
X13867205Y-11145150D01*
X13867205Y-11145150D02*
X13895777Y-11145150D01*
X13895777Y-11145150D02*
X13914824Y-11154674D01*
X13914824Y-11154674D02*
X13924348Y-11173722D01*
X13924348Y-11173722D02*
X13924348Y-11278484D01*
X14019586Y-11278484D02*
X14019586Y-11145150D01*
X14019586Y-11164198D02*
X14029110Y-11154674D01*
X14029110Y-11154674D02*
X14048158Y-11145150D01*
X14048158Y-11145150D02*
X14076729Y-11145150D01*
X14076729Y-11145150D02*
X14095777Y-11154674D01*
X14095777Y-11154674D02*
X14105301Y-11173722D01*
X14105301Y-11173722D02*
X14105301Y-11278484D01*
X14105301Y-11173722D02*
X14114824Y-11154674D01*
X14114824Y-11154674D02*
X14133872Y-11145150D01*
X14133872Y-11145150D02*
X14162443Y-11145150D01*
X14162443Y-11145150D02*
X14181491Y-11154674D01*
X14181491Y-11154674D02*
X14191015Y-11173722D01*
X14191015Y-11173722D02*
X14191015Y-11278484D01*
X14581491Y-11068960D02*
X14410063Y-11326103D01*
X14838634Y-11078484D02*
X14857682Y-11078484D01*
X14857682Y-11078484D02*
X14876729Y-11088008D01*
X14876729Y-11088008D02*
X14886253Y-11097531D01*
X14886253Y-11097531D02*
X14895777Y-11116579D01*
X14895777Y-11116579D02*
X14905301Y-11154674D01*
X14905301Y-11154674D02*
X14905301Y-11202293D01*
X14905301Y-11202293D02*
X14895777Y-11240388D01*
X14895777Y-11240388D02*
X14886253Y-11259436D01*
X14886253Y-11259436D02*
X14876729Y-11268960D01*
X14876729Y-11268960D02*
X14857682Y-11278484D01*
X14857682Y-11278484D02*
X14838634Y-11278484D01*
X14838634Y-11278484D02*
X14819586Y-11268960D01*
X14819586Y-11268960D02*
X14810063Y-11259436D01*
X14810063Y-11259436D02*
X14800539Y-11240388D01*
X14800539Y-11240388D02*
X14791015Y-11202293D01*
X14791015Y-11202293D02*
X14791015Y-11154674D01*
X14791015Y-11154674D02*
X14800539Y-11116579D01*
X14800539Y-11116579D02*
X14810063Y-11097531D01*
X14810063Y-11097531D02*
X14819586Y-11088008D01*
X14819586Y-11088008D02*
X14838634Y-11078484D01*
X14991015Y-11259436D02*
X15000539Y-11268960D01*
X15000539Y-11268960D02*
X14991015Y-11278484D01*
X14991015Y-11278484D02*
X14981491Y-11268960D01*
X14981491Y-11268960D02*
X14991015Y-11259436D01*
X14991015Y-11259436D02*
X14991015Y-11278484D01*
X15124348Y-11078484D02*
X15143396Y-11078484D01*
X15143396Y-11078484D02*
X15162444Y-11088008D01*
X15162444Y-11088008D02*
X15171967Y-11097531D01*
X15171967Y-11097531D02*
X15181491Y-11116579D01*
X15181491Y-11116579D02*
X15191015Y-11154674D01*
X15191015Y-11154674D02*
X15191015Y-11202293D01*
X15191015Y-11202293D02*
X15181491Y-11240388D01*
X15181491Y-11240388D02*
X15171967Y-11259436D01*
X15171967Y-11259436D02*
X15162444Y-11268960D01*
X15162444Y-11268960D02*
X15143396Y-11278484D01*
X15143396Y-11278484D02*
X15124348Y-11278484D01*
X15124348Y-11278484D02*
X15105301Y-11268960D01*
X15105301Y-11268960D02*
X15095777Y-11259436D01*
X15095777Y-11259436D02*
X15086253Y-11240388D01*
X15086253Y-11240388D02*
X15076729Y-11202293D01*
X15076729Y-11202293D02*
X15076729Y-11154674D01*
X15076729Y-11154674D02*
X15086253Y-11116579D01*
X15086253Y-11116579D02*
X15095777Y-11097531D01*
X15095777Y-11097531D02*
X15105301Y-11088008D01*
X15105301Y-11088008D02*
X15124348Y-11078484D01*
X15257682Y-11078484D02*
X15381491Y-11078484D01*
X15381491Y-11078484D02*
X15314825Y-11154674D01*
X15314825Y-11154674D02*
X15343396Y-11154674D01*
X15343396Y-11154674D02*
X15362444Y-11164198D01*
X15362444Y-11164198D02*
X15371967Y-11173722D01*
X15371967Y-11173722D02*
X15381491Y-11192769D01*
X15381491Y-11192769D02*
X15381491Y-11240388D01*
X15381491Y-11240388D02*
X15371967Y-11259436D01*
X15371967Y-11259436D02*
X15362444Y-11268960D01*
X15362444Y-11268960D02*
X15343396Y-11278484D01*
X15343396Y-11278484D02*
X15286253Y-11278484D01*
X15286253Y-11278484D02*
X15267206Y-11268960D01*
X15267206Y-11268960D02*
X15257682Y-11259436D01*
X15476729Y-11278484D02*
X15514825Y-11278484D01*
X15514825Y-11278484D02*
X15533872Y-11268960D01*
X15533872Y-11268960D02*
X15543396Y-11259436D01*
X15543396Y-11259436D02*
X15562444Y-11230865D01*
X15562444Y-11230865D02*
X15571967Y-11192769D01*
X15571967Y-11192769D02*
X15571967Y-11116579D01*
X15571967Y-11116579D02*
X15562444Y-11097531D01*
X15562444Y-11097531D02*
X15552920Y-11088008D01*
X15552920Y-11088008D02*
X15533872Y-11078484D01*
X15533872Y-11078484D02*
X15495777Y-11078484D01*
X15495777Y-11078484D02*
X15476729Y-11088008D01*
X15476729Y-11088008D02*
X15467206Y-11097531D01*
X15467206Y-11097531D02*
X15457682Y-11116579D01*
X15457682Y-11116579D02*
X15457682Y-11164198D01*
X15457682Y-11164198D02*
X15467206Y-11183246D01*
X15467206Y-11183246D02*
X15476729Y-11192769D01*
X15476729Y-11192769D02*
X15495777Y-11202293D01*
X15495777Y-11202293D02*
X15533872Y-11202293D01*
X15533872Y-11202293D02*
X15552920Y-11192769D01*
X15552920Y-11192769D02*
X15562444Y-11183246D01*
X15562444Y-11183246D02*
X15571967Y-11164198D01*
X15743396Y-11145150D02*
X15743396Y-11278484D01*
X15695777Y-11068960D02*
X15648158Y-11211817D01*
X15648158Y-11211817D02*
X15771967Y-11211817D01*
X15838634Y-11078484D02*
X15838634Y-11116579D01*
X15914825Y-11078484D02*
X15914825Y-11116579D01*
X16210063Y-11354674D02*
X16200539Y-11345150D01*
X16200539Y-11345150D02*
X16181491Y-11316579D01*
X16181491Y-11316579D02*
X16171968Y-11297531D01*
X16171968Y-11297531D02*
X16162444Y-11268960D01*
X16162444Y-11268960D02*
X16152920Y-11221341D01*
X16152920Y-11221341D02*
X16152920Y-11183246D01*
X16152920Y-11183246D02*
X16162444Y-11135627D01*
X16162444Y-11135627D02*
X16171968Y-11107055D01*
X16171968Y-11107055D02*
X16181491Y-11088008D01*
X16181491Y-11088008D02*
X16200539Y-11059436D01*
X16200539Y-11059436D02*
X16210063Y-11049912D01*
X16276729Y-11097531D02*
X16286253Y-11088008D01*
X16286253Y-11088008D02*
X16305301Y-11078484D01*
X16305301Y-11078484D02*
X16352920Y-11078484D01*
X16352920Y-11078484D02*
X16371968Y-11088008D01*
X16371968Y-11088008D02*
X16381491Y-11097531D01*
X16381491Y-11097531D02*
X16391015Y-11116579D01*
X16391015Y-11116579D02*
X16391015Y-11135627D01*
X16391015Y-11135627D02*
X16381491Y-11164198D01*
X16381491Y-11164198D02*
X16267206Y-11278484D01*
X16267206Y-11278484D02*
X16391015Y-11278484D01*
X16467206Y-11097531D02*
X16476729Y-11088008D01*
X16476729Y-11088008D02*
X16495777Y-11078484D01*
X16495777Y-11078484D02*
X16543396Y-11078484D01*
X16543396Y-11078484D02*
X16562444Y-11088008D01*
X16562444Y-11088008D02*
X16571968Y-11097531D01*
X16571968Y-11097531D02*
X16581491Y-11116579D01*
X16581491Y-11116579D02*
X16581491Y-11135627D01*
X16581491Y-11135627D02*
X16571968Y-11164198D01*
X16571968Y-11164198D02*
X16457682Y-11278484D01*
X16457682Y-11278484D02*
X16581491Y-11278484D01*
X16819587Y-11278484D02*
X16819587Y-11078484D01*
X16905301Y-11278484D02*
X16905301Y-11173722D01*
X16905301Y-11173722D02*
X16895777Y-11154674D01*
X16895777Y-11154674D02*
X16876730Y-11145150D01*
X16876730Y-11145150D02*
X16848158Y-11145150D01*
X16848158Y-11145150D02*
X16829111Y-11154674D01*
X16829111Y-11154674D02*
X16819587Y-11164198D01*
X17029111Y-11278484D02*
X17010063Y-11268960D01*
X17010063Y-11268960D02*
X17000539Y-11259436D01*
X17000539Y-11259436D02*
X16991015Y-11240388D01*
X16991015Y-11240388D02*
X16991015Y-11183246D01*
X16991015Y-11183246D02*
X17000539Y-11164198D01*
X17000539Y-11164198D02*
X17010063Y-11154674D01*
X17010063Y-11154674D02*
X17029111Y-11145150D01*
X17029111Y-11145150D02*
X17057682Y-11145150D01*
X17057682Y-11145150D02*
X17076730Y-11154674D01*
X17076730Y-11154674D02*
X17086253Y-11164198D01*
X17086253Y-11164198D02*
X17095777Y-11183246D01*
X17095777Y-11183246D02*
X17095777Y-11240388D01*
X17095777Y-11240388D02*
X17086253Y-11259436D01*
X17086253Y-11259436D02*
X17076730Y-11268960D01*
X17076730Y-11268960D02*
X17057682Y-11278484D01*
X17057682Y-11278484D02*
X17029111Y-11278484D01*
X17210063Y-11278484D02*
X17191015Y-11268960D01*
X17191015Y-11268960D02*
X17181492Y-11249912D01*
X17181492Y-11249912D02*
X17181492Y-11078484D01*
X17362444Y-11268960D02*
X17343396Y-11278484D01*
X17343396Y-11278484D02*
X17305301Y-11278484D01*
X17305301Y-11278484D02*
X17286253Y-11268960D01*
X17286253Y-11268960D02*
X17276730Y-11249912D01*
X17276730Y-11249912D02*
X17276730Y-11173722D01*
X17276730Y-11173722D02*
X17286253Y-11154674D01*
X17286253Y-11154674D02*
X17305301Y-11145150D01*
X17305301Y-11145150D02*
X17343396Y-11145150D01*
X17343396Y-11145150D02*
X17362444Y-11154674D01*
X17362444Y-11154674D02*
X17371968Y-11173722D01*
X17371968Y-11173722D02*
X17371968Y-11192769D01*
X17371968Y-11192769D02*
X17276730Y-11211817D01*
X17448158Y-11268960D02*
X17467206Y-11278484D01*
X17467206Y-11278484D02*
X17505301Y-11278484D01*
X17505301Y-11278484D02*
X17524349Y-11268960D01*
X17524349Y-11268960D02*
X17533873Y-11249912D01*
X17533873Y-11249912D02*
X17533873Y-11240388D01*
X17533873Y-11240388D02*
X17524349Y-11221341D01*
X17524349Y-11221341D02*
X17505301Y-11211817D01*
X17505301Y-11211817D02*
X17476730Y-11211817D01*
X17476730Y-11211817D02*
X17457682Y-11202293D01*
X17457682Y-11202293D02*
X17448158Y-11183246D01*
X17448158Y-11183246D02*
X17448158Y-11173722D01*
X17448158Y-11173722D02*
X17457682Y-11154674D01*
X17457682Y-11154674D02*
X17476730Y-11145150D01*
X17476730Y-11145150D02*
X17505301Y-11145150D01*
X17505301Y-11145150D02*
X17524349Y-11154674D01*
X17600539Y-11354674D02*
X17610063Y-11345150D01*
X17610063Y-11345150D02*
X17629111Y-11316579D01*
X17629111Y-11316579D02*
X17638634Y-11297531D01*
X17638634Y-11297531D02*
X17648158Y-11268960D01*
X17648158Y-11268960D02*
X17657682Y-11221341D01*
X17657682Y-11221341D02*
X17657682Y-11183246D01*
X17657682Y-11183246D02*
X17648158Y-11135627D01*
X17648158Y-11135627D02*
X17638634Y-11107055D01*
X17638634Y-11107055D02*
X17629111Y-11088008D01*
X17629111Y-11088008D02*
X17610063Y-11059436D01*
X17610063Y-11059436D02*
X17600539Y-11049912D01*
M02*
