G04 #@! TF.GenerationSoftware,KiCad,Pcbnew,9.0.2*
G04 #@! TF.CreationDate,2025-06-13T02:03:27-04:00*
G04 #@! TF.ProjectId,farlock3,6661726c-6f63-46b3-932e-6b696361645f,v01*
G04 #@! TF.SameCoordinates,Original*
G04 #@! TF.FileFunction,Copper,L2,Bot*
G04 #@! TF.FilePolarity,Positive*
%FSLAX46Y46*%
G04 Gerber Fmt 4.6, Leading zero omitted, Abs format (unit mm)*
G04 Created by KiCad (PCBNEW 9.0.2) date 2025-06-13 02:03:27*
%MOMM*%
%LPD*%
G01*
G04 APERTURE LIST*
G04 Aperture macros list*
%AMFreePoly0*
4,1,35,0.500000,-0.750000,0.000000,-0.750000,0.000000,-0.748929,-0.032702,-0.748929,-0.097545,-0.740393,-0.160720,-0.723465,-0.221144,-0.698436,-0.277785,-0.665735,-0.329673,-0.625920,-0.375920,-0.579673,-0.415735,-0.527785,-0.448436,-0.471144,-0.473465,-0.410720,-0.490393,-0.347545,-0.498929,-0.282702,-0.498929,-0.250000,-0.500000,-0.250000,-0.500000,0.250000,-0.498929,0.250000,-0.498929,0.282702,
-0.490393,0.347545,-0.473465,0.410720,-0.448436,0.471144,-0.415735,0.527785,-0.375920,0.579673,-0.329673,0.625920,-0.277785,0.665735,-0.221144,0.698436,-0.160720,0.723465,-0.097545,0.740393,-0.032702,0.748929,0.000000,0.748929,0.000000,0.750000,0.500000,0.750000,0.500000,-0.750000,0.500000,-0.750000,$1*%
%AMFreePoly1*
4,1,35,0.000000,0.748929,0.032702,0.748929,0.097545,0.740393,0.160720,0.723465,0.221144,0.698436,0.277785,0.665735,0.329673,0.625920,0.375920,0.579673,0.415735,0.527785,0.448436,0.471144,0.473465,0.410720,0.490393,0.347545,0.498929,0.282702,0.498929,0.250000,0.500000,0.250000,0.500000,-0.250000,0.498929,-0.250000,0.498929,-0.282702,0.490393,-0.347545,0.473465,-0.410720,
0.448436,-0.471144,0.415735,-0.527785,0.375920,-0.579673,0.329673,-0.625920,0.277785,-0.665735,0.221144,-0.698436,0.160720,-0.723465,0.097545,-0.740393,0.032702,-0.748929,0.000000,-0.748929,0.000000,-0.750000,-0.500000,-0.750000,-0.500000,0.750000,0.000000,0.750000,0.000000,0.748929,0.000000,0.748929,$1*%
G04 Aperture macros list end*
G04 #@! TA.AperFunction,EtchedComponent*
%ADD10C,0.000000*%
G04 #@! TD*
G04 #@! TA.AperFunction,ComponentPad*
%ADD11R,1.700000X1.700000*%
G04 #@! TD*
G04 #@! TA.AperFunction,ComponentPad*
%ADD12C,1.700000*%
G04 #@! TD*
G04 #@! TA.AperFunction,SMDPad,CuDef*
%ADD13FreePoly0,270.000000*%
G04 #@! TD*
G04 #@! TA.AperFunction,SMDPad,CuDef*
%ADD14FreePoly1,270.000000*%
G04 #@! TD*
G04 #@! TA.AperFunction,SMDPad,CuDef*
%ADD15FreePoly0,90.000000*%
G04 #@! TD*
G04 #@! TA.AperFunction,SMDPad,CuDef*
%ADD16FreePoly1,90.000000*%
G04 #@! TD*
G04 #@! TA.AperFunction,ViaPad*
%ADD17C,0.800000*%
G04 #@! TD*
G04 #@! TA.AperFunction,ViaPad*
%ADD18C,0.450000*%
G04 #@! TD*
G04 #@! TA.AperFunction,Conductor*
%ADD19C,0.500000*%
G04 #@! TD*
G04 #@! TA.AperFunction,Conductor*
%ADD20C,0.127000*%
G04 #@! TD*
G04 #@! TA.AperFunction,Conductor*
%ADD21C,0.150000*%
G04 #@! TD*
G04 APERTURE END LIST*
D10*
G04 #@! TA.AperFunction,EtchedComponent*
G36*
X175306000Y-129028000D02*
G01*
X174706000Y-129028000D01*
X174706000Y-128528000D01*
X175306000Y-128528000D01*
X175306000Y-129028000D01*
G37*
G04 #@! TD.AperFunction*
G04 #@! TA.AperFunction,EtchedComponent*
G36*
X177846000Y-129043000D02*
G01*
X177246000Y-129043000D01*
X177246000Y-128543000D01*
X177846000Y-128543000D01*
X177846000Y-129043000D01*
G37*
G04 #@! TD.AperFunction*
G04 #@! TA.AperFunction,EtchedComponent*
G36*
X152827000Y-138950000D02*
G01*
X152227000Y-138950000D01*
X152227000Y-138450000D01*
X152827000Y-138450000D01*
X152827000Y-138950000D01*
G37*
G04 #@! TD.AperFunction*
D11*
X140335000Y-142875000D03*
D12*
X142875000Y-142875000D03*
X145415000Y-142875000D03*
X147955000Y-142875000D03*
X150495000Y-142875000D03*
X153035000Y-142875000D03*
X155575000Y-142875000D03*
X158115000Y-142875000D03*
X160655000Y-142875000D03*
X163195000Y-142875000D03*
X165735000Y-142875000D03*
X168275000Y-142875000D03*
X170815000Y-142875000D03*
X173355000Y-142875000D03*
X175895000Y-142875000D03*
X178435000Y-142875000D03*
X180975000Y-142875000D03*
D13*
X175006000Y-128128000D03*
D14*
X175006000Y-129428000D03*
D13*
X177546000Y-128143000D03*
D14*
X177546000Y-129443000D03*
D15*
X152527000Y-139350000D03*
D16*
X152527000Y-138050000D03*
D15*
X175006000Y-134396000D03*
D16*
X175006000Y-133096000D03*
D15*
X177546000Y-134381000D03*
D16*
X177546000Y-133081000D03*
D17*
X145699715Y-137731621D03*
X151765000Y-141732000D03*
X154118001Y-134875433D03*
X150161847Y-130608000D03*
D18*
X167005000Y-142249000D03*
X166243000Y-139954000D03*
X172085000Y-140462000D03*
X172085000Y-142367000D03*
X170561000Y-139954000D03*
X168250000Y-140587000D03*
X164153974Y-139936999D03*
X178964199Y-140694801D03*
X175641000Y-135382000D03*
X164465000Y-142494000D03*
X172212000Y-135382000D03*
X138176000Y-141224000D03*
X139065000Y-139700000D03*
X172212000Y-134620414D03*
D17*
X169799000Y-133223000D03*
X136213500Y-136086500D03*
D18*
X178730000Y-129960000D03*
X170520000Y-130620000D03*
X178730000Y-129280000D03*
X170560000Y-132230000D03*
X178730000Y-132180000D03*
X178730000Y-138550000D03*
X178350000Y-127450000D03*
X173240000Y-133310000D03*
X176290000Y-129970000D03*
X172100000Y-132230000D03*
X173200000Y-131280000D03*
X178720000Y-137950000D03*
X178740000Y-135260000D03*
X176290000Y-132230000D03*
X172120000Y-130620000D03*
X160020000Y-135636000D03*
X170561000Y-138430000D03*
X162445998Y-138755883D03*
X170173985Y-139495501D03*
X170766894Y-134170414D03*
X155575000Y-135509000D03*
X170561000Y-133604000D03*
X154763219Y-137859000D03*
X157480000Y-135450000D03*
X170561000Y-139037000D03*
X168569602Y-140079207D03*
X173482000Y-135382000D03*
X161727212Y-139456000D03*
X173432500Y-139319000D03*
X170180000Y-128524000D03*
X143002000Y-133899003D03*
X143002000Y-133299000D03*
X175895000Y-127425000D03*
X143002000Y-134620000D03*
X170180000Y-129124003D03*
X145161000Y-132049000D03*
X170180000Y-127875000D03*
X153300000Y-141250000D03*
X169063881Y-137994955D03*
X172064000Y-138049000D03*
X159385000Y-141859000D03*
X171323000Y-135509000D03*
X170722997Y-135509000D03*
X177800000Y-135509000D03*
X157607000Y-141166000D03*
X176638945Y-135128000D03*
X177799301Y-137883002D03*
X152550000Y-136450000D03*
X178114760Y-140342371D03*
X176149000Y-139577342D03*
X170561000Y-140587000D03*
X182245000Y-141605000D03*
D19*
X154178000Y-133223000D02*
X154178000Y-134815434D01*
X147541094Y-139573000D02*
X145699715Y-137731621D01*
X154178000Y-134815434D02*
X154118001Y-134875433D01*
X149606000Y-139573000D02*
X147541094Y-139573000D01*
X151563000Y-130608000D02*
X154178000Y-133223000D01*
X149606000Y-139573000D02*
X151765000Y-141732000D01*
X150161847Y-130608000D02*
X151563000Y-130608000D01*
D20*
X166261019Y-140589000D02*
X166261019Y-139972019D01*
X166261019Y-139972019D02*
X166243000Y-139954000D01*
X167005000Y-142249000D02*
X166261019Y-141505019D01*
X166261019Y-141505019D02*
X166261019Y-140589000D01*
X170476558Y-140038442D02*
X170561000Y-139954000D01*
X172085000Y-140462000D02*
X172085000Y-142367000D01*
X169963226Y-140563226D02*
X170561000Y-139965453D01*
X170561000Y-139965453D02*
X170561000Y-139954000D01*
X168250000Y-140650000D02*
X168348500Y-140748500D01*
X168348500Y-140748500D02*
X169777952Y-140748500D01*
X169777952Y-140748500D02*
X169963226Y-140563226D01*
X168250000Y-140587000D02*
X168250000Y-140650000D01*
D21*
X178250301Y-139605830D02*
X178565760Y-139921289D01*
X164465000Y-140248025D02*
X164465000Y-142494000D01*
X178565760Y-139921289D02*
X178565760Y-140296362D01*
X175641000Y-135382000D02*
X176022000Y-135382000D01*
X178250301Y-137696191D02*
X178250301Y-139605830D01*
X178565760Y-140296362D02*
X178964199Y-140694801D01*
X176022000Y-135467890D02*
X178250301Y-137696191D01*
X176022000Y-135382000D02*
X176022000Y-135467890D01*
X164153974Y-139936999D02*
X164465000Y-140248025D01*
X172681500Y-135851500D02*
X172681500Y-139688800D01*
X172212000Y-135382000D02*
X172681500Y-135851500D01*
X139453000Y-144145000D02*
X176403000Y-144145000D01*
X176971000Y-143577000D02*
X176403000Y-144145000D01*
X176971000Y-142429306D02*
X176971000Y-143577000D01*
X172681500Y-139688800D02*
X173327700Y-140335000D01*
X173327700Y-140335000D02*
X174876694Y-140335000D01*
X138176000Y-141224000D02*
X138176000Y-142868000D01*
X174876694Y-140335000D02*
X176971000Y-142429306D01*
X138176000Y-142868000D02*
X139453000Y-144145000D01*
X137033000Y-141351000D02*
X138684000Y-139700000D01*
X138662000Y-144504000D02*
X137033000Y-142875000D01*
X172212414Y-134620414D02*
X172982500Y-135390500D01*
X138684000Y-139700000D02*
X139065000Y-139700000D01*
X172212000Y-134620414D02*
X172212414Y-134620414D01*
X137033000Y-142875000D02*
X137033000Y-141351000D01*
X172982500Y-139564122D02*
X173445720Y-140027342D01*
X173445720Y-140027342D02*
X177109036Y-140027342D01*
X177109036Y-140027342D02*
X177359000Y-140277306D01*
X177359000Y-144056000D02*
X176911000Y-144504000D01*
X176911000Y-144504000D02*
X138662000Y-144504000D01*
X172982500Y-135390500D02*
X172982500Y-139564122D01*
X177359000Y-140277306D02*
X177359000Y-144056000D01*
D19*
X143002000Y-136144000D02*
X136271000Y-136144000D01*
X158405000Y-133223000D02*
X169799000Y-133223000D01*
X136271000Y-136144000D02*
X136213500Y-136086500D01*
X155536000Y-131533000D02*
X156715000Y-131533000D01*
X143002000Y-136144000D02*
X149860000Y-129286000D01*
X149860000Y-129286000D02*
X153289000Y-129286000D01*
X156715000Y-131533000D02*
X158405000Y-133223000D01*
X153289000Y-129286000D02*
X155536000Y-131533000D01*
D21*
X160020000Y-135636000D02*
X167767000Y-135636000D01*
X167767000Y-135636000D02*
X170561000Y-138430000D01*
X170422000Y-138418000D02*
X170561000Y-138557000D01*
X162905926Y-138295955D02*
X162445998Y-138755883D01*
X169926616Y-139495501D02*
X168727070Y-138295955D01*
X165481000Y-138295955D02*
X162905926Y-138295955D01*
X168727070Y-138295955D02*
X165481000Y-138295955D01*
X170173985Y-139495501D02*
X169926616Y-139495501D01*
X170766894Y-134170414D02*
X155897586Y-134170414D01*
X155575000Y-135509000D02*
X155575000Y-134493000D01*
X155575000Y-134493000D02*
X155897586Y-134170414D01*
X154743000Y-134687189D02*
X154743000Y-137838781D01*
X154743000Y-134687189D02*
X155560775Y-133869414D01*
X170561000Y-133604000D02*
X170295586Y-133869414D01*
X154743000Y-137838781D02*
X154763219Y-137859000D01*
X170295586Y-133869414D02*
X155560775Y-133869414D01*
X169771317Y-138065995D02*
X170110000Y-138404678D01*
X170110000Y-138616811D02*
X170530189Y-139037000D01*
X170110000Y-138404678D02*
X170110000Y-138616811D01*
X169771317Y-138065995D02*
X167792322Y-136087000D01*
X158058000Y-136087000D02*
X157480000Y-135509000D01*
X170530189Y-139037000D02*
X170561000Y-139037000D01*
X167792322Y-136087000D02*
X158058000Y-136087000D01*
X167675394Y-139184999D02*
X168569602Y-140079207D01*
X173432500Y-139319000D02*
X173482000Y-139269500D01*
X173609000Y-135509000D02*
X173482000Y-135382000D01*
X173482000Y-139269500D02*
X173482000Y-135382000D01*
X163571484Y-139456000D02*
X163842485Y-139184999D01*
X163842485Y-139184999D02*
X167675394Y-139184999D01*
X161727212Y-139456000D02*
X163571484Y-139456000D01*
X149611595Y-128264405D02*
X169666405Y-128264405D01*
X143002000Y-133899003D02*
X143976997Y-133899003D01*
X169672000Y-128270000D02*
X169926000Y-128270000D01*
X169666405Y-128264405D02*
X169672000Y-128270000D01*
X169926000Y-128270000D02*
X170180000Y-128524000D01*
X143976997Y-133899003D02*
X149611595Y-128264405D01*
X143002000Y-133299000D02*
X148900500Y-127400500D01*
X148900500Y-127400500D02*
X175870500Y-127400500D01*
X175870500Y-127400500D02*
X175895000Y-127425000D01*
X143002000Y-134620000D02*
X143852834Y-134620000D01*
X169760340Y-128742151D02*
X170142192Y-129124003D01*
X170142192Y-129124003D02*
X170180000Y-129124003D01*
X149730683Y-128742151D02*
X169760340Y-128742151D01*
X143852834Y-134620000D02*
X149730683Y-128742151D01*
X145161000Y-132049000D02*
X149335000Y-127875000D01*
X149335000Y-127875000D02*
X170180000Y-127875000D01*
X153517000Y-141250000D02*
X156772045Y-137994955D01*
X156772045Y-137994955D02*
X169063881Y-137994955D01*
X153300000Y-141250000D02*
X153517000Y-141250000D01*
D20*
X172392000Y-138377000D02*
X172392000Y-139808714D01*
X173355000Y-140771714D02*
X173355000Y-142875000D01*
X172064000Y-138049000D02*
X172392000Y-138377000D01*
X172392000Y-139808714D02*
X173355000Y-140771714D01*
D21*
X158115000Y-142875000D02*
X158369000Y-142875000D01*
X158369000Y-142875000D02*
X159385000Y-141859000D01*
X171323000Y-135509000D02*
X171323000Y-140462811D01*
X160655000Y-142798162D02*
X160655000Y-142875000D01*
X166412810Y-139485999D02*
X163967163Y-139485999D01*
X171323000Y-140462811D02*
X170747811Y-141038000D01*
X163967163Y-139485999D02*
X160655000Y-142798162D01*
X167964811Y-141038000D02*
X166412810Y-139485999D01*
X170747811Y-141038000D02*
X167964811Y-141038000D01*
D20*
X170844226Y-141351000D02*
X171624500Y-140570726D01*
X171624500Y-137620500D02*
X171772500Y-137472500D01*
X169799000Y-141351000D02*
X168275000Y-142875000D01*
X168275000Y-142875000D02*
X168939000Y-142875000D01*
X171624500Y-140570726D02*
X171624500Y-137620500D01*
X168275000Y-142875000D02*
X168910000Y-142875000D01*
X171772500Y-135336953D02*
X171772500Y-137472500D01*
X171505047Y-135069500D02*
X171772500Y-135336953D01*
X170844226Y-141351000D02*
X169799000Y-141351000D01*
X170722997Y-135509000D02*
X170722997Y-135487456D01*
X170722997Y-135487456D02*
X171140953Y-135069500D01*
X171140953Y-135069500D02*
X171505047Y-135069500D01*
D21*
X178689000Y-133472500D02*
X178297500Y-133081000D01*
X180975000Y-138684000D02*
X180975000Y-142875000D01*
X177800000Y-135509000D02*
X180975000Y-138684000D01*
X177800000Y-135509000D02*
X178689000Y-134620000D01*
X178689000Y-134620000D02*
X178689000Y-133472500D01*
X178297500Y-133081000D02*
X177546000Y-133081000D01*
X177546000Y-129443000D02*
X177546000Y-133081000D01*
X155575000Y-142875000D02*
X157284000Y-141166000D01*
X157284000Y-141166000D02*
X157607000Y-141166000D01*
X176568500Y-135057555D02*
X176638945Y-135128000D01*
X177663760Y-138018543D02*
X177799301Y-137883002D01*
X175006000Y-129428000D02*
X175006000Y-133096000D01*
X176568500Y-133907000D02*
X176568500Y-135057555D01*
X175757500Y-133096000D02*
X176568500Y-133907000D01*
X177663760Y-142103760D02*
X177663760Y-138018543D01*
X178435000Y-142875000D02*
X177663760Y-142103760D01*
X175006000Y-133096000D02*
X175757500Y-133096000D01*
X152527000Y-136473000D02*
X152527000Y-138050000D01*
X152550000Y-136450000D02*
X152527000Y-136473000D01*
X178114760Y-140481760D02*
X179619000Y-141986000D01*
X177088945Y-135435756D02*
X177088945Y-134838055D01*
X180342306Y-141986000D02*
X180674000Y-141654306D01*
X180674000Y-139020811D02*
X177088945Y-135435756D01*
X177088945Y-134838055D02*
X177546000Y-134381000D01*
X179619000Y-141986000D02*
X180342306Y-141986000D01*
X178114760Y-140342371D02*
X178114760Y-140481760D01*
X180674000Y-141654306D02*
X180674000Y-139020811D01*
X175006000Y-138557000D02*
X176026342Y-139577342D01*
X176026342Y-139577342D02*
X176149000Y-139577342D01*
X175006000Y-138557000D02*
X175006000Y-134396000D01*
X171012000Y-136435814D02*
X171012000Y-140140811D01*
X170565811Y-140587000D02*
X170561000Y-140587000D01*
X174028500Y-128455500D02*
X174028500Y-131565686D01*
X171012000Y-140140811D02*
X170565811Y-140587000D01*
X174028500Y-131565686D02*
X170271997Y-135322189D01*
X174356000Y-128128000D02*
X174028500Y-128455500D01*
X175006000Y-128128000D02*
X174356000Y-128128000D01*
X170271997Y-135695811D02*
X171012000Y-136435814D01*
X170271997Y-135322189D02*
X170271997Y-135695811D01*
X177546000Y-128143000D02*
X178297500Y-128143000D01*
X182245000Y-132090500D02*
X182245000Y-141605000D01*
X178297500Y-128143000D02*
X182245000Y-132090500D01*
G04 #@! TA.AperFunction,Conductor*
G36*
X162720519Y-143036065D02*
G01*
X162745601Y-143096619D01*
X162778373Y-143153381D01*
X162818273Y-143205380D01*
X162864620Y-143251727D01*
X162916619Y-143291627D01*
X162973381Y-143324399D01*
X163033935Y-143349481D01*
X163065590Y-143357963D01*
X162525728Y-143897826D01*
X162501721Y-143913867D01*
X162473402Y-143919500D01*
X162052000Y-143919500D01*
X162052000Y-143595266D01*
X162055332Y-143601038D01*
X162055339Y-143601049D01*
X162080072Y-143636371D01*
X162712036Y-143004407D01*
X162720519Y-143036065D01*
G37*
G04 #@! TD.AperFunction*
G04 #@! TA.AperFunction,Conductor*
G36*
X164309926Y-143636372D02*
G01*
X164334656Y-143601054D01*
X164334666Y-143601039D01*
X164338000Y-143595264D01*
X164338000Y-143919500D01*
X163916598Y-143919500D01*
X163888279Y-143913867D01*
X163864272Y-143897826D01*
X163324409Y-143357963D01*
X163356065Y-143349481D01*
X163416619Y-143324399D01*
X163473381Y-143291627D01*
X163525380Y-143251727D01*
X163571727Y-143205380D01*
X163611627Y-143153381D01*
X163644399Y-143096619D01*
X163669481Y-143036065D01*
X163677963Y-143004409D01*
X164309926Y-143636372D01*
G37*
G04 #@! TD.AperFunction*
G04 #@! TA.AperFunction,Conductor*
G36*
X162468957Y-141735334D02*
G01*
X162433626Y-141760072D01*
X163065590Y-142392036D01*
X163033935Y-142400519D01*
X162973381Y-142425601D01*
X162916619Y-142458373D01*
X162864620Y-142498273D01*
X162818273Y-142544620D01*
X162778373Y-142596619D01*
X162745601Y-142653381D01*
X162720519Y-142713935D01*
X162712036Y-142745590D01*
X162080072Y-142113626D01*
X162055337Y-142148953D01*
X162052000Y-142154733D01*
X162052000Y-141732000D01*
X162474732Y-141732000D01*
X162468957Y-141735334D01*
G37*
G04 #@! TD.AperFunction*
G04 #@! TA.AperFunction,Conductor*
G36*
X164239500Y-142153402D02*
G01*
X164233867Y-142181721D01*
X164217826Y-142205728D01*
X163677963Y-142745590D01*
X163669481Y-142713935D01*
X163644399Y-142653381D01*
X163611627Y-142596619D01*
X163571727Y-142544620D01*
X163525380Y-142498273D01*
X163473381Y-142458373D01*
X163416619Y-142425601D01*
X163356065Y-142400519D01*
X163324407Y-142392036D01*
X163956372Y-141760072D01*
X163921049Y-141735339D01*
X163921038Y-141735332D01*
X163915267Y-141732000D01*
X164239500Y-141732000D01*
X164239500Y-142153402D01*
G37*
G04 #@! TD.AperFunction*
G04 #@! TA.AperFunction,Conductor*
G36*
X148631261Y-127206133D02*
G01*
X148655268Y-127222174D01*
X148671309Y-127246181D01*
X148676942Y-127274500D01*
X148671309Y-127302819D01*
X148655268Y-127326826D01*
X143080268Y-132901826D01*
X143056261Y-132917867D01*
X143027942Y-132923500D01*
X142972447Y-132923500D01*
X142914065Y-132932746D01*
X142857861Y-132951009D01*
X142805199Y-132977841D01*
X142805195Y-132977843D01*
X142757382Y-133012581D01*
X142715581Y-133054382D01*
X142680843Y-133102195D01*
X142680841Y-133102199D01*
X142654009Y-133154861D01*
X142635746Y-133211065D01*
X142626500Y-133269447D01*
X142626500Y-133328552D01*
X142635746Y-133386934D01*
X142654009Y-133443138D01*
X142680841Y-133495800D01*
X142680843Y-133495804D01*
X142704586Y-133528484D01*
X142715585Y-133543622D01*
X142715587Y-133543624D01*
X142715590Y-133543627D01*
X142718638Y-133546675D01*
X142734679Y-133570682D01*
X142740312Y-133599001D01*
X142734679Y-133627320D01*
X142718643Y-133651322D01*
X142715592Y-133654373D01*
X142715581Y-133654385D01*
X142680843Y-133702198D01*
X142680841Y-133702202D01*
X142654009Y-133754864D01*
X142635746Y-133811068D01*
X142626500Y-133869450D01*
X142626500Y-133928555D01*
X142635746Y-133986937D01*
X142654009Y-134043141D01*
X142680841Y-134095803D01*
X142680843Y-134095807D01*
X142715529Y-134143549D01*
X142715585Y-134143625D01*
X142757378Y-134185418D01*
X142775388Y-134198503D01*
X142776945Y-134199634D01*
X142796544Y-134220836D01*
X142806538Y-134247925D01*
X142805404Y-134276776D01*
X142793316Y-134302997D01*
X142776947Y-134319367D01*
X142757379Y-134333584D01*
X142715581Y-134375382D01*
X142680843Y-134423195D01*
X142680841Y-134423199D01*
X142654009Y-134475861D01*
X142635746Y-134532065D01*
X142626500Y-134590447D01*
X142626500Y-134649552D01*
X142635746Y-134707934D01*
X142654009Y-134764138D01*
X142680841Y-134816800D01*
X142680843Y-134816804D01*
X142714932Y-134863724D01*
X142715585Y-134864622D01*
X142757378Y-134906415D01*
X142757381Y-134906417D01*
X142757382Y-134906418D01*
X142770495Y-134915945D01*
X142805195Y-134941156D01*
X142857858Y-134967989D01*
X142857861Y-134967990D01*
X142857859Y-134967990D01*
X142914065Y-134986253D01*
X142914068Y-134986253D01*
X142914070Y-134986254D01*
X142935392Y-134989631D01*
X142972447Y-134995500D01*
X142972448Y-134995500D01*
X143031553Y-134995500D01*
X143049170Y-134992709D01*
X143089930Y-134986254D01*
X143089932Y-134986253D01*
X143089934Y-134986253D01*
X143134333Y-134971826D01*
X143146142Y-134967989D01*
X143198805Y-134941156D01*
X143246622Y-134906415D01*
X143285863Y-134867174D01*
X143309870Y-134851133D01*
X143338189Y-134845500D01*
X143555456Y-134845500D01*
X143583775Y-134851133D01*
X143607782Y-134867174D01*
X143623823Y-134891181D01*
X143629456Y-134919500D01*
X143623823Y-134947819D01*
X143607782Y-134971826D01*
X142857782Y-135721826D01*
X142833775Y-135737867D01*
X142805456Y-135743500D01*
X136679677Y-135743500D01*
X136651358Y-135737867D01*
X136627351Y-135721826D01*
X136577249Y-135671724D01*
X136519998Y-135627794D01*
X136519994Y-135627792D01*
X136519992Y-135627790D01*
X136457505Y-135591713D01*
X136457495Y-135591709D01*
X136390831Y-135564096D01*
X136321130Y-135545419D01*
X136321120Y-135545417D01*
X136258313Y-135537149D01*
X136249582Y-135536000D01*
X136177418Y-135536000D01*
X136169636Y-135537024D01*
X136105879Y-135545417D01*
X136105869Y-135545419D01*
X136036168Y-135564096D01*
X136036167Y-135564096D01*
X135969504Y-135591709D01*
X135969494Y-135591713D01*
X135907007Y-135627790D01*
X135849750Y-135671724D01*
X135798724Y-135722750D01*
X135754790Y-135780007D01*
X135718713Y-135842494D01*
X135718709Y-135842504D01*
X135691096Y-135909167D01*
X135691096Y-135909168D01*
X135672419Y-135978869D01*
X135672417Y-135978879D01*
X135663000Y-136050418D01*
X135663000Y-136122581D01*
X135672417Y-136194120D01*
X135672419Y-136194130D01*
X135691096Y-136263831D01*
X135691096Y-136263832D01*
X135718709Y-136330495D01*
X135718713Y-136330505D01*
X135754790Y-136392992D01*
X135754792Y-136392994D01*
X135754794Y-136392998D01*
X135798724Y-136450249D01*
X135849751Y-136501276D01*
X135907002Y-136545206D01*
X135907006Y-136545208D01*
X135907007Y-136545209D01*
X135969494Y-136581286D01*
X135969495Y-136581286D01*
X135969498Y-136581288D01*
X136036168Y-136608903D01*
X136105872Y-136627581D01*
X136105877Y-136627581D01*
X136105879Y-136627582D01*
X136132592Y-136631098D01*
X136177418Y-136637000D01*
X136177419Y-136637000D01*
X136249581Y-136637000D01*
X136249582Y-136637000D01*
X136321128Y-136627581D01*
X136390832Y-136608903D01*
X136457502Y-136581288D01*
X136504049Y-136554413D01*
X136531390Y-136545133D01*
X136541049Y-136544500D01*
X143033521Y-136544500D01*
X143041010Y-136543313D01*
X143095784Y-136534638D01*
X143095792Y-136534635D01*
X143095794Y-136534635D01*
X143124316Y-136525367D01*
X143155739Y-136515158D01*
X143194888Y-136495210D01*
X143211908Y-136486538D01*
X143262908Y-136449484D01*
X143307484Y-136404908D01*
X143307483Y-136404908D01*
X150004219Y-129708174D01*
X150028226Y-129692133D01*
X150056545Y-129686500D01*
X153092456Y-129686500D01*
X153120775Y-129692133D01*
X153144782Y-129708174D01*
X155230516Y-131793908D01*
X155275092Y-131838484D01*
X155326092Y-131875538D01*
X155354177Y-131889848D01*
X155382261Y-131904158D01*
X155412239Y-131913898D01*
X155434276Y-131921058D01*
X155442209Y-131923636D01*
X155442210Y-131923636D01*
X155442216Y-131923638D01*
X155495965Y-131932151D01*
X155504479Y-131933500D01*
X155504480Y-131933500D01*
X155567520Y-131933500D01*
X156518456Y-131933500D01*
X156546775Y-131939133D01*
X156570782Y-131955174D01*
X158133196Y-133517588D01*
X158149237Y-133541595D01*
X158154870Y-133569914D01*
X158149237Y-133598233D01*
X158133196Y-133622240D01*
X158109189Y-133638281D01*
X158080870Y-133643914D01*
X155538565Y-133643914D01*
X155495004Y-133652578D01*
X155494997Y-133652580D01*
X155453964Y-133669577D01*
X155453961Y-133669578D01*
X155453961Y-133669579D01*
X155417027Y-133694257D01*
X155417025Y-133694258D01*
X155417022Y-133694261D01*
X154704826Y-134406458D01*
X154680819Y-134422499D01*
X154652500Y-134428132D01*
X154624181Y-134422499D01*
X154600174Y-134406458D01*
X154584133Y-134382451D01*
X154578500Y-134354132D01*
X154578500Y-133191479D01*
X154575147Y-133170310D01*
X154568638Y-133129216D01*
X154568635Y-133129209D01*
X154568635Y-133129205D01*
X154549159Y-133069264D01*
X154549157Y-133069260D01*
X154520540Y-133013096D01*
X154520538Y-133013092D01*
X154503169Y-132989186D01*
X154495767Y-132978998D01*
X154483485Y-132962092D01*
X153856803Y-132335410D01*
X151823908Y-130302516D01*
X151822512Y-130301502D01*
X151772908Y-130265462D01*
X151731279Y-130244251D01*
X151728375Y-130242771D01*
X151728370Y-130242768D01*
X151716741Y-130236843D01*
X151716734Y-130236840D01*
X151656794Y-130217364D01*
X151656785Y-130217362D01*
X151656784Y-130217362D01*
X151625652Y-130212431D01*
X151594521Y-130207500D01*
X151594520Y-130207500D01*
X150569321Y-130207500D01*
X150541002Y-130201867D01*
X150524273Y-130192209D01*
X150492804Y-130168062D01*
X150468345Y-130149294D01*
X150468341Y-130149292D01*
X150468339Y-130149290D01*
X150405852Y-130113213D01*
X150405842Y-130113209D01*
X150339178Y-130085596D01*
X150269477Y-130066919D01*
X150269467Y-130066917D01*
X150206660Y-130058649D01*
X150197929Y-130057500D01*
X150125765Y-130057500D01*
X150117983Y-130058524D01*
X150054226Y-130066917D01*
X150054216Y-130066919D01*
X149984515Y-130085596D01*
X149984514Y-130085596D01*
X149917851Y-130113209D01*
X149917841Y-130113213D01*
X149855354Y-130149290D01*
X149798097Y-130193224D01*
X149747071Y-130244250D01*
X149703137Y-130301507D01*
X149667060Y-130363994D01*
X149667056Y-130364004D01*
X149639443Y-130430667D01*
X149639443Y-130430668D01*
X149620766Y-130500369D01*
X149620764Y-130500379D01*
X149611347Y-130571918D01*
X149611347Y-130644081D01*
X149620764Y-130715620D01*
X149620766Y-130715630D01*
X149639443Y-130785331D01*
X149639443Y-130785332D01*
X149667056Y-130851995D01*
X149667060Y-130852005D01*
X149703137Y-130914492D01*
X149703139Y-130914494D01*
X149703141Y-130914498D01*
X149747071Y-130971749D01*
X149798098Y-131022776D01*
X149855349Y-131066706D01*
X149855353Y-131066708D01*
X149855354Y-131066709D01*
X149917841Y-131102786D01*
X149917842Y-131102786D01*
X149917845Y-131102788D01*
X149984515Y-131130403D01*
X150054219Y-131149081D01*
X150054224Y-131149081D01*
X150054226Y-131149082D01*
X150080939Y-131152598D01*
X150125765Y-131158500D01*
X150125766Y-131158500D01*
X150197928Y-131158500D01*
X150197929Y-131158500D01*
X150269475Y-131149081D01*
X150339179Y-131130403D01*
X150405849Y-131102788D01*
X150468345Y-131066706D01*
X150524273Y-131023790D01*
X150550169Y-131011021D01*
X150569321Y-131008500D01*
X151366456Y-131008500D01*
X151394775Y-131014133D01*
X151418782Y-131030174D01*
X153755826Y-133367218D01*
X153771867Y-133391225D01*
X153777500Y-133419544D01*
X153777500Y-134406757D01*
X153771867Y-134435076D01*
X153755826Y-134459083D01*
X153703225Y-134511683D01*
X153659291Y-134568940D01*
X153623214Y-134631427D01*
X153623210Y-134631437D01*
X153595597Y-134698100D01*
X153595597Y-134698101D01*
X153576920Y-134767802D01*
X153576918Y-134767812D01*
X153567501Y-134839351D01*
X153567501Y-134911514D01*
X153576918Y-134983053D01*
X153576920Y-134983063D01*
X153595597Y-135052764D01*
X153595597Y-135052765D01*
X153623210Y-135119428D01*
X153623214Y-135119438D01*
X153659291Y-135181925D01*
X153659293Y-135181927D01*
X153659295Y-135181931D01*
X153703225Y-135239182D01*
X153754252Y-135290209D01*
X153811503Y-135334139D01*
X153811507Y-135334141D01*
X153811508Y-135334142D01*
X153873995Y-135370219D01*
X153873996Y-135370219D01*
X153873999Y-135370221D01*
X153940669Y-135397836D01*
X154010373Y-135416514D01*
X154010378Y-135416514D01*
X154010380Y-135416515D01*
X154030502Y-135419164D01*
X154081919Y-135425933D01*
X154081920Y-135425933D01*
X154154082Y-135425933D01*
X154154083Y-135425933D01*
X154225629Y-135416514D01*
X154295333Y-135397836D01*
X154362003Y-135370221D01*
X154406502Y-135344528D01*
X154433841Y-135335249D01*
X154462652Y-135337137D01*
X154488548Y-135349908D01*
X154507586Y-135371616D01*
X154516867Y-135398957D01*
X154517500Y-135408616D01*
X154517500Y-137543030D01*
X154511867Y-137571349D01*
X154495826Y-137595356D01*
X154476800Y-137614382D01*
X154442062Y-137662195D01*
X154442060Y-137662199D01*
X154415228Y-137714861D01*
X154396965Y-137771065D01*
X154387719Y-137829447D01*
X154387719Y-137888552D01*
X154396965Y-137946934D01*
X154415228Y-138003138D01*
X154442060Y-138055800D01*
X154442062Y-138055804D01*
X154470808Y-138095370D01*
X154476804Y-138103622D01*
X154518597Y-138145415D01*
X154518600Y-138145417D01*
X154518601Y-138145418D01*
X154531191Y-138154565D01*
X154566414Y-138180156D01*
X154619077Y-138206989D01*
X154619080Y-138206990D01*
X154619078Y-138206990D01*
X154675284Y-138225253D01*
X154675287Y-138225253D01*
X154675289Y-138225254D01*
X154708434Y-138230503D01*
X154733666Y-138234500D01*
X154733667Y-138234500D01*
X154792772Y-138234500D01*
X154814926Y-138230991D01*
X154851149Y-138225254D01*
X154851151Y-138225253D01*
X154851153Y-138225253D01*
X154898885Y-138209743D01*
X154907361Y-138206989D01*
X154960024Y-138180156D01*
X155007841Y-138145415D01*
X155049634Y-138103622D01*
X155084375Y-138055805D01*
X155111208Y-138003142D01*
X155121675Y-137970929D01*
X155129472Y-137946934D01*
X155134918Y-137912554D01*
X155138719Y-137888552D01*
X155138719Y-137829448D01*
X155137190Y-137819797D01*
X155130590Y-137778121D01*
X155129473Y-137771070D01*
X155129472Y-137771068D01*
X155129472Y-137771065D01*
X155111209Y-137714861D01*
X155111208Y-137714860D01*
X155111208Y-137714858D01*
X155084375Y-137662195D01*
X155078042Y-137653479D01*
X155049637Y-137614382D01*
X155049636Y-137614381D01*
X155049634Y-137614378D01*
X155007841Y-137572585D01*
X154999001Y-137566162D01*
X154979403Y-137544959D01*
X154969411Y-137517870D01*
X154968500Y-137506297D01*
X154968500Y-134811246D01*
X154974133Y-134782927D01*
X154990174Y-134758920D01*
X155223174Y-134525920D01*
X155247181Y-134509879D01*
X155275500Y-134504246D01*
X155303819Y-134509879D01*
X155327826Y-134525920D01*
X155343867Y-134549927D01*
X155349500Y-134578246D01*
X155349500Y-135172811D01*
X155343867Y-135201130D01*
X155327826Y-135225137D01*
X155288581Y-135264382D01*
X155253843Y-135312195D01*
X155253841Y-135312199D01*
X155227009Y-135364861D01*
X155208746Y-135421065D01*
X155199500Y-135479447D01*
X155199500Y-135538552D01*
X155208746Y-135596934D01*
X155227009Y-135653138D01*
X155253841Y-135705800D01*
X155253843Y-135705804D01*
X155277724Y-135738674D01*
X155288585Y-135753622D01*
X155330378Y-135795415D01*
X155330381Y-135795417D01*
X155330382Y-135795418D01*
X155359059Y-135816253D01*
X155378195Y-135830156D01*
X155430858Y-135856989D01*
X155430861Y-135856990D01*
X155430859Y-135856990D01*
X155487065Y-135875253D01*
X155487068Y-135875253D01*
X155487070Y-135875254D01*
X155520215Y-135880503D01*
X155545447Y-135884500D01*
X155545448Y-135884500D01*
X155604553Y-135884500D01*
X155627200Y-135880913D01*
X155662930Y-135875254D01*
X155662932Y-135875253D01*
X155662934Y-135875253D01*
X155691036Y-135866121D01*
X155719142Y-135856989D01*
X155771805Y-135830156D01*
X155819622Y-135795415D01*
X155861415Y-135753622D01*
X155896156Y-135705805D01*
X155922989Y-135653142D01*
X155937626Y-135608095D01*
X155941253Y-135596934D01*
X155941289Y-135596710D01*
X155950500Y-135538552D01*
X155950500Y-135479448D01*
X155949587Y-135473686D01*
X155941253Y-135421065D01*
X155922990Y-135364861D01*
X155922989Y-135364860D01*
X155922989Y-135364858D01*
X155896156Y-135312195D01*
X155878584Y-135288009D01*
X155861418Y-135264382D01*
X155861417Y-135264381D01*
X155861415Y-135264378D01*
X155822174Y-135225137D01*
X155806133Y-135201130D01*
X155800500Y-135172811D01*
X155800500Y-134617057D01*
X155806133Y-134588738D01*
X155822174Y-134564731D01*
X155969317Y-134417588D01*
X155993324Y-134401547D01*
X156021643Y-134395914D01*
X170430705Y-134395914D01*
X170459024Y-134401547D01*
X170483031Y-134417588D01*
X170522272Y-134456829D01*
X170522275Y-134456831D01*
X170522276Y-134456832D01*
X170570089Y-134491570D01*
X170570092Y-134491572D01*
X170583874Y-134498594D01*
X170620855Y-134517436D01*
X170643527Y-134535308D01*
X170657636Y-134560500D01*
X170661030Y-134589173D01*
X170653193Y-134616963D01*
X170639584Y-134635695D01*
X170128249Y-135147032D01*
X170096844Y-135178436D01*
X170096841Y-135178439D01*
X170096840Y-135178441D01*
X170085638Y-135195207D01*
X170072160Y-135215378D01*
X170055163Y-135256411D01*
X170055161Y-135256418D01*
X170046497Y-135299979D01*
X170046497Y-135718020D01*
X170055161Y-135761581D01*
X170055163Y-135761588D01*
X170072160Y-135802621D01*
X170072162Y-135802625D01*
X170096840Y-135839559D01*
X170096844Y-135839563D01*
X170764826Y-136507545D01*
X170780867Y-136531552D01*
X170786500Y-136559871D01*
X170786500Y-138006592D01*
X170780867Y-138034911D01*
X170764826Y-138058918D01*
X170740819Y-138074959D01*
X170712500Y-138080592D01*
X170689633Y-138076970D01*
X170648936Y-138063747D01*
X170590553Y-138054500D01*
X170590552Y-138054500D01*
X170535058Y-138054500D01*
X170506739Y-138048867D01*
X170482732Y-138032826D01*
X167910752Y-135460847D01*
X167910748Y-135460843D01*
X167873814Y-135436165D01*
X167873811Y-135436163D01*
X167873810Y-135436163D01*
X167832777Y-135419166D01*
X167832770Y-135419164D01*
X167789210Y-135410500D01*
X160356189Y-135410500D01*
X160327870Y-135404867D01*
X160303863Y-135388826D01*
X160264627Y-135349590D01*
X160264622Y-135349585D01*
X160264619Y-135349582D01*
X160264617Y-135349581D01*
X160216804Y-135314843D01*
X160216800Y-135314841D01*
X160192976Y-135302702D01*
X160164142Y-135288011D01*
X160164139Y-135288010D01*
X160164137Y-135288009D01*
X160164140Y-135288009D01*
X160107934Y-135269746D01*
X160049553Y-135260500D01*
X160049552Y-135260500D01*
X159990448Y-135260500D01*
X159990447Y-135260500D01*
X159932065Y-135269746D01*
X159875861Y-135288009D01*
X159823199Y-135314841D01*
X159823195Y-135314843D01*
X159775382Y-135349581D01*
X159733581Y-135391382D01*
X159698843Y-135439195D01*
X159698841Y-135439199D01*
X159672009Y-135491861D01*
X159653746Y-135548065D01*
X159644500Y-135606447D01*
X159644500Y-135665552D01*
X159653746Y-135723934D01*
X159666971Y-135764632D01*
X159670365Y-135793305D01*
X159662528Y-135821094D01*
X159644653Y-135843769D01*
X159619461Y-135857878D01*
X159596593Y-135861500D01*
X158182057Y-135861500D01*
X158153738Y-135855867D01*
X158129731Y-135839826D01*
X157870396Y-135580491D01*
X157854355Y-135556484D01*
X157848722Y-135528165D01*
X157849631Y-135516603D01*
X157855500Y-135479552D01*
X157855500Y-135420448D01*
X157854544Y-135414415D01*
X157849992Y-135385674D01*
X157846254Y-135362070D01*
X157846253Y-135362068D01*
X157846253Y-135362065D01*
X157827990Y-135305861D01*
X157827989Y-135305860D01*
X157827989Y-135305858D01*
X157801156Y-135253195D01*
X157778914Y-135222581D01*
X157766418Y-135205382D01*
X157766417Y-135205381D01*
X157766415Y-135205378D01*
X157724622Y-135163585D01*
X157724619Y-135163582D01*
X157724617Y-135163581D01*
X157676804Y-135128843D01*
X157676800Y-135128841D01*
X157639941Y-135110061D01*
X157624142Y-135102011D01*
X157624139Y-135102010D01*
X157624137Y-135102009D01*
X157624140Y-135102009D01*
X157567934Y-135083746D01*
X157509553Y-135074500D01*
X157509552Y-135074500D01*
X157450448Y-135074500D01*
X157450447Y-135074500D01*
X157392065Y-135083746D01*
X157335861Y-135102009D01*
X157283199Y-135128841D01*
X157283195Y-135128843D01*
X157235382Y-135163581D01*
X157193581Y-135205382D01*
X157158843Y-135253195D01*
X157158841Y-135253199D01*
X157132009Y-135305861D01*
X157113746Y-135362065D01*
X157104500Y-135420447D01*
X157104500Y-135479552D01*
X157113746Y-135537934D01*
X157132009Y-135594138D01*
X157158841Y-135646800D01*
X157158843Y-135646804D01*
X157191981Y-135692415D01*
X157193585Y-135694622D01*
X157235378Y-135736415D01*
X157235381Y-135736417D01*
X157235382Y-135736418D01*
X157245130Y-135743500D01*
X157283195Y-135771156D01*
X157335858Y-135797989D01*
X157335861Y-135797990D01*
X157335859Y-135797990D01*
X157392065Y-135816253D01*
X157392068Y-135816253D01*
X157392070Y-135816254D01*
X157450448Y-135825500D01*
X157450455Y-135825500D01*
X157452682Y-135825675D01*
X157480473Y-135833507D01*
X157499217Y-135847122D01*
X157882842Y-136230747D01*
X157882843Y-136230748D01*
X157914252Y-136262157D01*
X157951186Y-136286835D01*
X157992224Y-136303834D01*
X158035790Y-136312500D01*
X167668265Y-136312500D01*
X167696584Y-136318133D01*
X167720591Y-136334174D01*
X168923003Y-137536586D01*
X168939044Y-137560593D01*
X168944677Y-137588912D01*
X168939044Y-137617231D01*
X168923003Y-137641238D01*
X168904272Y-137654847D01*
X168867075Y-137673798D01*
X168819263Y-137708536D01*
X168780018Y-137747781D01*
X168756011Y-137763822D01*
X168727692Y-137769455D01*
X156749835Y-137769455D01*
X156732911Y-137772821D01*
X156715986Y-137776188D01*
X156706276Y-137778119D01*
X156706272Y-137778120D01*
X156706270Y-137778120D01*
X156706269Y-137778121D01*
X156694253Y-137783098D01*
X156665232Y-137795118D01*
X156665231Y-137795119D01*
X156628297Y-137819797D01*
X156628295Y-137819798D01*
X156628292Y-137819801D01*
X153549690Y-140898403D01*
X153525683Y-140914444D01*
X153497364Y-140920077D01*
X153469045Y-140914444D01*
X153463781Y-140912017D01*
X153444142Y-140902011D01*
X153444141Y-140902010D01*
X153444136Y-140902008D01*
X153387934Y-140883746D01*
X153329553Y-140874500D01*
X153329552Y-140874500D01*
X153270448Y-140874500D01*
X153270447Y-140874500D01*
X153212065Y-140883746D01*
X153155861Y-140902009D01*
X153103199Y-140928841D01*
X153103195Y-140928843D01*
X153055382Y-140963581D01*
X153013581Y-141005382D01*
X152978843Y-141053195D01*
X152978841Y-141053199D01*
X152952009Y-141105861D01*
X152933746Y-141162065D01*
X152924500Y-141220447D01*
X152924500Y-141279552D01*
X152933746Y-141337934D01*
X152952009Y-141394138D01*
X152978841Y-141446800D01*
X152978843Y-141446804D01*
X153008776Y-141488004D01*
X153013585Y-141494622D01*
X153055378Y-141536415D01*
X153103195Y-141571156D01*
X153155858Y-141597989D01*
X153155861Y-141597990D01*
X153155859Y-141597990D01*
X153212065Y-141616253D01*
X153212068Y-141616253D01*
X153212070Y-141616254D01*
X153245215Y-141621503D01*
X153270447Y-141625500D01*
X153270448Y-141625500D01*
X153329553Y-141625500D01*
X153347170Y-141622709D01*
X153387930Y-141616254D01*
X153387932Y-141616253D01*
X153387934Y-141616253D01*
X153416036Y-141607121D01*
X153444142Y-141597989D01*
X153496805Y-141571156D01*
X153544622Y-141536415D01*
X153586415Y-141494622D01*
X153606602Y-141466836D01*
X153625353Y-141448806D01*
X153660748Y-141425157D01*
X156843777Y-138242129D01*
X156867784Y-138226088D01*
X156896103Y-138220455D01*
X162483868Y-138220455D01*
X162512187Y-138226088D01*
X162536194Y-138242129D01*
X162552235Y-138266136D01*
X162557868Y-138294455D01*
X162552235Y-138322774D01*
X162536194Y-138346781D01*
X162524266Y-138358709D01*
X162500259Y-138374750D01*
X162471940Y-138380383D01*
X162416445Y-138380383D01*
X162358063Y-138389629D01*
X162301859Y-138407892D01*
X162249197Y-138434724D01*
X162249193Y-138434726D01*
X162201380Y-138469464D01*
X162159579Y-138511265D01*
X162124841Y-138559078D01*
X162124839Y-138559082D01*
X162098007Y-138611744D01*
X162079744Y-138667948D01*
X162070498Y-138726330D01*
X162070498Y-138785435D01*
X162079744Y-138843817D01*
X162098007Y-138900021D01*
X162124839Y-138952683D01*
X162124841Y-138952687D01*
X162157649Y-138997844D01*
X162159583Y-139000505D01*
X162201376Y-139042298D01*
X162201379Y-139042300D01*
X162201380Y-139042301D01*
X162249193Y-139077039D01*
X162249197Y-139077041D01*
X162275739Y-139090565D01*
X162298414Y-139108440D01*
X162312523Y-139133632D01*
X162315917Y-139162305D01*
X162308080Y-139190094D01*
X162290205Y-139212769D01*
X162265013Y-139226878D01*
X162242145Y-139230500D01*
X162063401Y-139230500D01*
X162035082Y-139224867D01*
X162011075Y-139208826D01*
X161971839Y-139169590D01*
X161971834Y-139169585D01*
X161971831Y-139169582D01*
X161971829Y-139169581D01*
X161924016Y-139134843D01*
X161924012Y-139134841D01*
X161892256Y-139118661D01*
X161871354Y-139108011D01*
X161871351Y-139108010D01*
X161871349Y-139108009D01*
X161871352Y-139108009D01*
X161815146Y-139089746D01*
X161756765Y-139080500D01*
X161756764Y-139080500D01*
X161697660Y-139080500D01*
X161697659Y-139080500D01*
X161639277Y-139089746D01*
X161583073Y-139108009D01*
X161530411Y-139134841D01*
X161530407Y-139134843D01*
X161482594Y-139169581D01*
X161440793Y-139211382D01*
X161406055Y-139259195D01*
X161406053Y-139259199D01*
X161379221Y-139311861D01*
X161360958Y-139368065D01*
X161351712Y-139426447D01*
X161351712Y-139485551D01*
X161360958Y-139543934D01*
X161379221Y-139600138D01*
X161406053Y-139652800D01*
X161406055Y-139652804D01*
X161439998Y-139699523D01*
X161440797Y-139700622D01*
X161482590Y-139742415D01*
X161482593Y-139742417D01*
X161482594Y-139742418D01*
X161495652Y-139751905D01*
X161530407Y-139777156D01*
X161583070Y-139803989D01*
X161583073Y-139803990D01*
X161583071Y-139803990D01*
X161639277Y-139822253D01*
X161639280Y-139822253D01*
X161639282Y-139822254D01*
X161672427Y-139827503D01*
X161697659Y-139831500D01*
X161697660Y-139831500D01*
X161756765Y-139831500D01*
X161781975Y-139827507D01*
X161815142Y-139822254D01*
X161815144Y-139822253D01*
X161815146Y-139822253D01*
X161851297Y-139810506D01*
X161871354Y-139803989D01*
X161924017Y-139777156D01*
X161971834Y-139742415D01*
X162011075Y-139703174D01*
X162035082Y-139687133D01*
X162063401Y-139681500D01*
X163274104Y-139681500D01*
X163302423Y-139687133D01*
X163326430Y-139703174D01*
X163342471Y-139727181D01*
X163348104Y-139755500D01*
X163342471Y-139783819D01*
X163326430Y-139807826D01*
X161175206Y-141959049D01*
X161151199Y-141975090D01*
X161122880Y-141980723D01*
X161094561Y-141975090D01*
X161088004Y-141971989D01*
X161083289Y-141969469D01*
X161083283Y-141969467D01*
X161019063Y-141942866D01*
X160992465Y-141931849D01*
X160992464Y-141931848D01*
X160992460Y-141931847D01*
X160992459Y-141931846D01*
X160898402Y-141903314D01*
X160898397Y-141903313D01*
X160801985Y-141884135D01*
X160723717Y-141876427D01*
X160704151Y-141874500D01*
X160605849Y-141874500D01*
X160589544Y-141876105D01*
X160508014Y-141884135D01*
X160411602Y-141903313D01*
X160411597Y-141903314D01*
X160317540Y-141931846D01*
X160317539Y-141931847D01*
X160226716Y-141969467D01*
X160226709Y-141969470D01*
X160140022Y-142015805D01*
X160140020Y-142015806D01*
X160058288Y-142070417D01*
X159994743Y-142122568D01*
X159982295Y-142132784D01*
X159946830Y-142168249D01*
X159912782Y-142202297D01*
X159850417Y-142278288D01*
X159795806Y-142360020D01*
X159795805Y-142360022D01*
X159749470Y-142446709D01*
X159749467Y-142446716D01*
X159711847Y-142537539D01*
X159711846Y-142537540D01*
X159683314Y-142631597D01*
X159683313Y-142631602D01*
X159664135Y-142728014D01*
X159654500Y-142825849D01*
X159654500Y-142924150D01*
X159664135Y-143021985D01*
X159683313Y-143118397D01*
X159683314Y-143118402D01*
X159711846Y-143212459D01*
X159711847Y-143212460D01*
X159749467Y-143303283D01*
X159749470Y-143303290D01*
X159795805Y-143389977D01*
X159795806Y-143389979D01*
X159850417Y-143471711D01*
X159850420Y-143471715D01*
X159850421Y-143471716D01*
X159912784Y-143547705D01*
X159982295Y-143617216D01*
X160058284Y-143679579D01*
X160058288Y-143679582D01*
X160140020Y-143734193D01*
X160140022Y-143734194D01*
X160226164Y-143780238D01*
X160248484Y-143798555D01*
X160262095Y-143824019D01*
X160264925Y-143852753D01*
X160256543Y-143880383D01*
X160238226Y-143902703D01*
X160212762Y-143916314D01*
X160191281Y-143919500D01*
X158578719Y-143919500D01*
X158550400Y-143913867D01*
X158526393Y-143897826D01*
X158510352Y-143873819D01*
X158504719Y-143845500D01*
X158510352Y-143817181D01*
X158526393Y-143793174D01*
X158543836Y-143780238D01*
X158583407Y-143759086D01*
X158629980Y-143734193D01*
X158711716Y-143679579D01*
X158787705Y-143617216D01*
X158857216Y-143547705D01*
X158919579Y-143471716D01*
X158974193Y-143389980D01*
X159020532Y-143303285D01*
X159058151Y-143212465D01*
X159086687Y-143118395D01*
X159105865Y-143021981D01*
X159115500Y-142924151D01*
X159115500Y-142825849D01*
X159105865Y-142728019D01*
X159091402Y-142655307D01*
X159086688Y-142631609D01*
X159086684Y-142631597D01*
X159063395Y-142554825D01*
X159060566Y-142526092D01*
X159068948Y-142498462D01*
X159081881Y-142481022D01*
X159306730Y-142256174D01*
X159330738Y-142240133D01*
X159359056Y-142234500D01*
X159414553Y-142234500D01*
X159432170Y-142231709D01*
X159472930Y-142225254D01*
X159472932Y-142225253D01*
X159472934Y-142225253D01*
X159515259Y-142211500D01*
X159529142Y-142206989D01*
X159581805Y-142180156D01*
X159629622Y-142145415D01*
X159671415Y-142103622D01*
X159706156Y-142055805D01*
X159732989Y-142003142D01*
X159751254Y-141946930D01*
X159760500Y-141888552D01*
X159760500Y-141829448D01*
X159760400Y-141828819D01*
X159751253Y-141771065D01*
X159732990Y-141714861D01*
X159732989Y-141714860D01*
X159732989Y-141714858D01*
X159706156Y-141662195D01*
X159671418Y-141614382D01*
X159671417Y-141614381D01*
X159671415Y-141614378D01*
X159629622Y-141572585D01*
X159629619Y-141572582D01*
X159629617Y-141572581D01*
X159581804Y-141537843D01*
X159581800Y-141537841D01*
X159555237Y-141524307D01*
X159529142Y-141511011D01*
X159529139Y-141511010D01*
X159529137Y-141511009D01*
X159529140Y-141511009D01*
X159472934Y-141492746D01*
X159414553Y-141483500D01*
X159414552Y-141483500D01*
X159355448Y-141483500D01*
X159355447Y-141483500D01*
X159297065Y-141492746D01*
X159240861Y-141511009D01*
X159188199Y-141537841D01*
X159188195Y-141537843D01*
X159140382Y-141572581D01*
X159098581Y-141614382D01*
X159063843Y-141662195D01*
X159063841Y-141662199D01*
X159037009Y-141714861D01*
X159018746Y-141771065D01*
X159009500Y-141829447D01*
X159009500Y-141884942D01*
X159003867Y-141913261D01*
X158987826Y-141937268D01*
X158837660Y-142087434D01*
X158813653Y-142103475D01*
X158785334Y-142109108D01*
X158757015Y-142103475D01*
X158738389Y-142092311D01*
X158711710Y-142070416D01*
X158629979Y-142015806D01*
X158629977Y-142015805D01*
X158543290Y-141969470D01*
X158543283Y-141969467D01*
X158479063Y-141942866D01*
X158452465Y-141931849D01*
X158452464Y-141931848D01*
X158452460Y-141931847D01*
X158452459Y-141931846D01*
X158358402Y-141903314D01*
X158358397Y-141903313D01*
X158261985Y-141884135D01*
X158183717Y-141876427D01*
X158164151Y-141874500D01*
X158065849Y-141874500D01*
X158049544Y-141876105D01*
X157968014Y-141884135D01*
X157871602Y-141903313D01*
X157871597Y-141903314D01*
X157777540Y-141931846D01*
X157777539Y-141931847D01*
X157686716Y-141969467D01*
X157686709Y-141969470D01*
X157600022Y-142015805D01*
X157600020Y-142015806D01*
X157518288Y-142070417D01*
X157454743Y-142122568D01*
X157442295Y-142132784D01*
X157406830Y-142168249D01*
X157372782Y-142202297D01*
X157310417Y-142278288D01*
X157255806Y-142360020D01*
X157255805Y-142360022D01*
X157209470Y-142446709D01*
X157209467Y-142446716D01*
X157171847Y-142537539D01*
X157171846Y-142537540D01*
X157143314Y-142631597D01*
X157143313Y-142631602D01*
X157124135Y-142728014D01*
X157114500Y-142825849D01*
X157114500Y-142924150D01*
X157124135Y-143021985D01*
X157143313Y-143118397D01*
X157143314Y-143118402D01*
X157171846Y-143212459D01*
X157171847Y-143212460D01*
X157209467Y-143303283D01*
X157209470Y-143303290D01*
X157255805Y-143389977D01*
X157255806Y-143389979D01*
X157310417Y-143471711D01*
X157310420Y-143471715D01*
X157310421Y-143471716D01*
X157372784Y-143547705D01*
X157442295Y-143617216D01*
X157518284Y-143679579D01*
X157518288Y-143679582D01*
X157600020Y-143734193D01*
X157600022Y-143734194D01*
X157686164Y-143780238D01*
X157708484Y-143798555D01*
X157722095Y-143824019D01*
X157724925Y-143852753D01*
X157716543Y-143880383D01*
X157698226Y-143902703D01*
X157672762Y-143916314D01*
X157651281Y-143919500D01*
X156038719Y-143919500D01*
X156010400Y-143913867D01*
X155986393Y-143897826D01*
X155970352Y-143873819D01*
X155964719Y-143845500D01*
X155970352Y-143817181D01*
X155986393Y-143793174D01*
X156003836Y-143780238D01*
X156043407Y-143759086D01*
X156089980Y-143734193D01*
X156171716Y-143679579D01*
X156247705Y-143617216D01*
X156317216Y-143547705D01*
X156379579Y-143471716D01*
X156434193Y-143389980D01*
X156480532Y-143303285D01*
X156518151Y-143212465D01*
X156546687Y-143118395D01*
X156565865Y-143021981D01*
X156575500Y-142924151D01*
X156575500Y-142825849D01*
X156565865Y-142728019D01*
X156546687Y-142631605D01*
X156546452Y-142630830D01*
X156518153Y-142537540D01*
X156518152Y-142537539D01*
X156518151Y-142537535D01*
X156480532Y-142446715D01*
X156451247Y-142391926D01*
X156442866Y-142364299D01*
X156445696Y-142335564D01*
X156459307Y-142310100D01*
X156464173Y-142304730D01*
X157291111Y-141477793D01*
X157315116Y-141461754D01*
X157343435Y-141456121D01*
X157371754Y-141461754D01*
X157386931Y-141470254D01*
X157405163Y-141483500D01*
X157410195Y-141487156D01*
X157462858Y-141513989D01*
X157462861Y-141513990D01*
X157462859Y-141513990D01*
X157519065Y-141532253D01*
X157519068Y-141532253D01*
X157519070Y-141532254D01*
X157545342Y-141536415D01*
X157577447Y-141541500D01*
X157577448Y-141541500D01*
X157636553Y-141541500D01*
X157659635Y-141537844D01*
X157694930Y-141532254D01*
X157694932Y-141532253D01*
X157694934Y-141532253D01*
X157723036Y-141523121D01*
X157751142Y-141513989D01*
X157803805Y-141487156D01*
X157851622Y-141452415D01*
X157893415Y-141410622D01*
X157928156Y-141362805D01*
X157954989Y-141310142D01*
X157968419Y-141268811D01*
X157973253Y-141253934D01*
X157974797Y-141244189D01*
X157982500Y-141195552D01*
X157982500Y-141136448D01*
X157973254Y-141078070D01*
X157973253Y-141078068D01*
X157973253Y-141078065D01*
X157954990Y-141021861D01*
X157954989Y-141021860D01*
X157954989Y-141021858D01*
X157928156Y-140969195D01*
X157893415Y-140921378D01*
X157851622Y-140879585D01*
X157851619Y-140879582D01*
X157851617Y-140879581D01*
X157803804Y-140844843D01*
X157803800Y-140844841D01*
X157779976Y-140832702D01*
X157751142Y-140818011D01*
X157751139Y-140818010D01*
X157751137Y-140818009D01*
X157751140Y-140818009D01*
X157694934Y-140799746D01*
X157636553Y-140790500D01*
X157636552Y-140790500D01*
X157577448Y-140790500D01*
X157577447Y-140790500D01*
X157519065Y-140799746D01*
X157462861Y-140818009D01*
X157410199Y-140844841D01*
X157410195Y-140844843D01*
X157362382Y-140879581D01*
X157323137Y-140918826D01*
X157299130Y-140934867D01*
X157270811Y-140940500D01*
X157261790Y-140940500D01*
X157218229Y-140949164D01*
X157218222Y-140949166D01*
X157177189Y-140966163D01*
X157177186Y-140966164D01*
X157177186Y-140966165D01*
X157140252Y-140990843D01*
X157140250Y-140990844D01*
X157140247Y-140990847D01*
X156145279Y-141985814D01*
X156121272Y-142001855D01*
X156092953Y-142007488D01*
X156064634Y-142001855D01*
X156058070Y-141998750D01*
X156003290Y-141969470D01*
X156003283Y-141969467D01*
X155939063Y-141942866D01*
X155912465Y-141931849D01*
X155912464Y-141931848D01*
X155912460Y-141931847D01*
X155912459Y-141931846D01*
X155818402Y-141903314D01*
X155818397Y-141903313D01*
X155721985Y-141884135D01*
X155643717Y-141876427D01*
X155624151Y-141874500D01*
X155525849Y-141874500D01*
X155509544Y-141876105D01*
X155428014Y-141884135D01*
X155331602Y-141903313D01*
X155331597Y-141903314D01*
X155237540Y-141931846D01*
X155237539Y-141931847D01*
X155146716Y-141969467D01*
X155146709Y-141969470D01*
X155060022Y-142015805D01*
X155060020Y-142015806D01*
X154978288Y-142070417D01*
X154914743Y-142122568D01*
X154902295Y-142132784D01*
X154866830Y-142168249D01*
X154832782Y-142202297D01*
X154770417Y-142278288D01*
X154715806Y-142360020D01*
X154715805Y-142360022D01*
X154669470Y-142446709D01*
X154669467Y-142446716D01*
X154631847Y-142537539D01*
X154631846Y-142537540D01*
X154603314Y-142631597D01*
X154603313Y-142631602D01*
X154584135Y-142728014D01*
X154574500Y-142825849D01*
X154574500Y-142924150D01*
X154584135Y-143021985D01*
X154603313Y-143118397D01*
X154603314Y-143118402D01*
X154631846Y-143212459D01*
X154631847Y-143212460D01*
X154669467Y-143303283D01*
X154669470Y-143303290D01*
X154715805Y-143389977D01*
X154715806Y-143389979D01*
X154770417Y-143471711D01*
X154770420Y-143471715D01*
X154770421Y-143471716D01*
X154832784Y-143547705D01*
X154902295Y-143617216D01*
X154978284Y-143679579D01*
X154978288Y-143679582D01*
X155060020Y-143734193D01*
X155060022Y-143734194D01*
X155146164Y-143780238D01*
X155168484Y-143798555D01*
X155182095Y-143824019D01*
X155184925Y-143852753D01*
X155176543Y-143880383D01*
X155158226Y-143902703D01*
X155132762Y-143916314D01*
X155111281Y-143919500D01*
X153498719Y-143919500D01*
X153470400Y-143913867D01*
X153446393Y-143897826D01*
X153430352Y-143873819D01*
X153424719Y-143845500D01*
X153430352Y-143817181D01*
X153446393Y-143793174D01*
X153463836Y-143780238D01*
X153503407Y-143759086D01*
X153549980Y-143734193D01*
X153631716Y-143679579D01*
X153707705Y-143617216D01*
X153777216Y-143547705D01*
X153839579Y-143471716D01*
X153894193Y-143389980D01*
X153940532Y-143303285D01*
X153978151Y-143212465D01*
X154006687Y-143118395D01*
X154025865Y-143021981D01*
X154035500Y-142924151D01*
X154035500Y-142825849D01*
X154025865Y-142728019D01*
X154006687Y-142631605D01*
X154006452Y-142630830D01*
X153978153Y-142537540D01*
X153978152Y-142537539D01*
X153978151Y-142537535D01*
X153940532Y-142446715D01*
X153894193Y-142360020D01*
X153885499Y-142347009D01*
X153839582Y-142278288D01*
X153839579Y-142278284D01*
X153777216Y-142202295D01*
X153707705Y-142132784D01*
X153631716Y-142070421D01*
X153631715Y-142070420D01*
X153631711Y-142070417D01*
X153549979Y-142015806D01*
X153549977Y-142015805D01*
X153463290Y-141969470D01*
X153463283Y-141969467D01*
X153399063Y-141942866D01*
X153372465Y-141931849D01*
X153372464Y-141931848D01*
X153372460Y-141931847D01*
X153372459Y-141931846D01*
X153278402Y-141903314D01*
X153278397Y-141903313D01*
X153181985Y-141884135D01*
X153103717Y-141876427D01*
X153084151Y-141874500D01*
X152985849Y-141874500D01*
X152969544Y-141876105D01*
X152888014Y-141884135D01*
X152791602Y-141903313D01*
X152791597Y-141903314D01*
X152697540Y-141931846D01*
X152697539Y-141931847D01*
X152606716Y-141969467D01*
X152606709Y-141969470D01*
X152520022Y-142015805D01*
X152520020Y-142015806D01*
X152438288Y-142070417D01*
X152374743Y-142122568D01*
X152362295Y-142132784D01*
X152326830Y-142168249D01*
X152292782Y-142202297D01*
X152230417Y-142278288D01*
X152175806Y-142360020D01*
X152175805Y-142360022D01*
X152129470Y-142446709D01*
X152129467Y-142446716D01*
X152091847Y-142537539D01*
X152091846Y-142537540D01*
X152063314Y-142631597D01*
X152063313Y-142631602D01*
X152044135Y-142728014D01*
X152034500Y-142825849D01*
X152034500Y-142924150D01*
X152044135Y-143021985D01*
X152063313Y-143118397D01*
X152063314Y-143118402D01*
X152091846Y-143212459D01*
X152091847Y-143212460D01*
X152129467Y-143303283D01*
X152129470Y-143303290D01*
X152175805Y-143389977D01*
X152175806Y-143389979D01*
X152230417Y-143471711D01*
X152230420Y-143471715D01*
X152230421Y-143471716D01*
X152292784Y-143547705D01*
X152362295Y-143617216D01*
X152438284Y-143679579D01*
X152438288Y-143679582D01*
X152520020Y-143734193D01*
X152520022Y-143734194D01*
X152606164Y-143780238D01*
X152628484Y-143798555D01*
X152642095Y-143824019D01*
X152644925Y-143852753D01*
X152636543Y-143880383D01*
X152618226Y-143902703D01*
X152592762Y-143916314D01*
X152571281Y-143919500D01*
X150958719Y-143919500D01*
X150930400Y-143913867D01*
X150906393Y-143897826D01*
X150890352Y-143873819D01*
X150884719Y-143845500D01*
X150890352Y-143817181D01*
X150906393Y-143793174D01*
X150923836Y-143780238D01*
X150963407Y-143759086D01*
X151009980Y-143734193D01*
X151091716Y-143679579D01*
X151167705Y-143617216D01*
X151237216Y-143547705D01*
X151299579Y-143471716D01*
X151354193Y-143389980D01*
X151400532Y-143303285D01*
X151438151Y-143212465D01*
X151466687Y-143118395D01*
X151485865Y-143021981D01*
X151495500Y-142924151D01*
X151495500Y-142825849D01*
X151485865Y-142728019D01*
X151466687Y-142631605D01*
X151466452Y-142630830D01*
X151438153Y-142537540D01*
X151438152Y-142537539D01*
X151438151Y-142537535D01*
X151400532Y-142446715D01*
X151354193Y-142360020D01*
X151345499Y-142347009D01*
X151299582Y-142278288D01*
X151299579Y-142278284D01*
X151237216Y-142202295D01*
X151167705Y-142132784D01*
X151091716Y-142070421D01*
X151091715Y-142070420D01*
X151091711Y-142070417D01*
X151009979Y-142015806D01*
X151009977Y-142015805D01*
X150923290Y-141969470D01*
X150923283Y-141969467D01*
X150859063Y-141942866D01*
X150832465Y-141931849D01*
X150832464Y-141931848D01*
X150832460Y-141931847D01*
X150832459Y-141931846D01*
X150738402Y-141903314D01*
X150738397Y-141903313D01*
X150641985Y-141884135D01*
X150563717Y-141876427D01*
X150544151Y-141874500D01*
X150445849Y-141874500D01*
X150429544Y-141876105D01*
X150348014Y-141884135D01*
X150251602Y-141903313D01*
X150251597Y-141903314D01*
X150157540Y-141931846D01*
X150157539Y-141931847D01*
X150066716Y-141969467D01*
X150066709Y-141969470D01*
X149980022Y-142015805D01*
X149980020Y-142015806D01*
X149898288Y-142070417D01*
X149834743Y-142122568D01*
X149822295Y-142132784D01*
X149786830Y-142168249D01*
X149752782Y-142202297D01*
X149690417Y-142278288D01*
X149635806Y-142360020D01*
X149635805Y-142360022D01*
X149589470Y-142446709D01*
X149589467Y-142446716D01*
X149551847Y-142537539D01*
X149551846Y-142537540D01*
X149523314Y-142631597D01*
X149523313Y-142631602D01*
X149504135Y-142728014D01*
X149494500Y-142825849D01*
X149494500Y-142924150D01*
X149504135Y-143021985D01*
X149523313Y-143118397D01*
X149523314Y-143118402D01*
X149551846Y-143212459D01*
X149551847Y-143212460D01*
X149589467Y-143303283D01*
X149589470Y-143303290D01*
X149635805Y-143389977D01*
X149635806Y-143389979D01*
X149690417Y-143471711D01*
X149690420Y-143471715D01*
X149690421Y-143471716D01*
X149752784Y-143547705D01*
X149822295Y-143617216D01*
X149898284Y-143679579D01*
X149898288Y-143679582D01*
X149980020Y-143734193D01*
X149980022Y-143734194D01*
X150066164Y-143780238D01*
X150088484Y-143798555D01*
X150102095Y-143824019D01*
X150104925Y-143852753D01*
X150096543Y-143880383D01*
X150078226Y-143902703D01*
X150052762Y-143916314D01*
X150031281Y-143919500D01*
X148418719Y-143919500D01*
X148390400Y-143913867D01*
X148366393Y-143897826D01*
X148350352Y-143873819D01*
X148344719Y-143845500D01*
X148350352Y-143817181D01*
X148366393Y-143793174D01*
X148383836Y-143780238D01*
X148423407Y-143759086D01*
X148469980Y-143734193D01*
X148551716Y-143679579D01*
X148627705Y-143617216D01*
X148697216Y-143547705D01*
X148759579Y-143471716D01*
X148814193Y-143389980D01*
X148860532Y-143303285D01*
X148898151Y-143212465D01*
X148926687Y-143118395D01*
X148945865Y-143021981D01*
X148955500Y-142924151D01*
X148955500Y-142825849D01*
X148945865Y-142728019D01*
X148926687Y-142631605D01*
X148926452Y-142630830D01*
X148898153Y-142537540D01*
X148898152Y-142537539D01*
X148898151Y-142537535D01*
X148860532Y-142446715D01*
X148814193Y-142360020D01*
X148805499Y-142347009D01*
X148759582Y-142278288D01*
X148759579Y-142278284D01*
X148697216Y-142202295D01*
X148627705Y-142132784D01*
X148551716Y-142070421D01*
X148551715Y-142070420D01*
X148551711Y-142070417D01*
X148469979Y-142015806D01*
X148469977Y-142015805D01*
X148383290Y-141969470D01*
X148383283Y-141969467D01*
X148319063Y-141942866D01*
X148292465Y-141931849D01*
X148292464Y-141931848D01*
X148292460Y-141931847D01*
X148292459Y-141931846D01*
X148198402Y-141903314D01*
X148198397Y-141903313D01*
X148101985Y-141884135D01*
X148023717Y-141876427D01*
X148004151Y-141874500D01*
X147905849Y-141874500D01*
X147889544Y-141876105D01*
X147808014Y-141884135D01*
X147711602Y-141903313D01*
X147711597Y-141903314D01*
X147617540Y-141931846D01*
X147617539Y-141931847D01*
X147526716Y-141969467D01*
X147526709Y-141969470D01*
X147440022Y-142015805D01*
X147440020Y-142015806D01*
X147358288Y-142070417D01*
X147294743Y-142122568D01*
X147282295Y-142132784D01*
X147246830Y-142168249D01*
X147212782Y-142202297D01*
X147150417Y-142278288D01*
X147095806Y-142360020D01*
X147095805Y-142360022D01*
X147049470Y-142446709D01*
X147049467Y-142446716D01*
X147011847Y-142537539D01*
X147011846Y-142537540D01*
X146983314Y-142631597D01*
X146983313Y-142631602D01*
X146964135Y-142728014D01*
X146954500Y-142825849D01*
X146954500Y-142924150D01*
X146964135Y-143021985D01*
X146983313Y-143118397D01*
X146983314Y-143118402D01*
X147011846Y-143212459D01*
X147011847Y-143212460D01*
X147049467Y-143303283D01*
X147049470Y-143303290D01*
X147095805Y-143389977D01*
X147095806Y-143389979D01*
X147150417Y-143471711D01*
X147150420Y-143471715D01*
X147150421Y-143471716D01*
X147212784Y-143547705D01*
X147282295Y-143617216D01*
X147358284Y-143679579D01*
X147358288Y-143679582D01*
X147440020Y-143734193D01*
X147440022Y-143734194D01*
X147526164Y-143780238D01*
X147548484Y-143798555D01*
X147562095Y-143824019D01*
X147564925Y-143852753D01*
X147556543Y-143880383D01*
X147538226Y-143902703D01*
X147512762Y-143916314D01*
X147491281Y-143919500D01*
X145878719Y-143919500D01*
X145850400Y-143913867D01*
X145826393Y-143897826D01*
X145810352Y-143873819D01*
X145804719Y-143845500D01*
X145810352Y-143817181D01*
X145826393Y-143793174D01*
X145843836Y-143780238D01*
X145883407Y-143759086D01*
X145929980Y-143734193D01*
X146011716Y-143679579D01*
X146087705Y-143617216D01*
X146157216Y-143547705D01*
X146219579Y-143471716D01*
X146274193Y-143389980D01*
X146320532Y-143303285D01*
X146358151Y-143212465D01*
X146386687Y-143118395D01*
X146405865Y-143021981D01*
X146415500Y-142924151D01*
X146415500Y-142825849D01*
X146405865Y-142728019D01*
X146386687Y-142631605D01*
X146386452Y-142630830D01*
X146358153Y-142537540D01*
X146358152Y-142537539D01*
X146358151Y-142537535D01*
X146320532Y-142446715D01*
X146274193Y-142360020D01*
X146265499Y-142347009D01*
X146219582Y-142278288D01*
X146219579Y-142278284D01*
X146157216Y-142202295D01*
X146087705Y-142132784D01*
X146011716Y-142070421D01*
X146011715Y-142070420D01*
X146011711Y-142070417D01*
X145929979Y-142015806D01*
X145929977Y-142015805D01*
X145843290Y-141969470D01*
X145843283Y-141969467D01*
X145779063Y-141942866D01*
X145752465Y-141931849D01*
X145752464Y-141931848D01*
X145752460Y-141931847D01*
X145752459Y-141931846D01*
X145658402Y-141903314D01*
X145658397Y-141903313D01*
X145561985Y-141884135D01*
X145483717Y-141876427D01*
X145464151Y-141874500D01*
X145365849Y-141874500D01*
X145349544Y-141876105D01*
X145268014Y-141884135D01*
X145171602Y-141903313D01*
X145171597Y-141903314D01*
X145077540Y-141931846D01*
X145077539Y-141931847D01*
X144986716Y-141969467D01*
X144986709Y-141969470D01*
X144900022Y-142015805D01*
X144900020Y-142015806D01*
X144818288Y-142070417D01*
X144754743Y-142122568D01*
X144742295Y-142132784D01*
X144706830Y-142168249D01*
X144672782Y-142202297D01*
X144610417Y-142278288D01*
X144555806Y-142360020D01*
X144555805Y-142360022D01*
X144509470Y-142446709D01*
X144509467Y-142446716D01*
X144471847Y-142537539D01*
X144471846Y-142537540D01*
X144443314Y-142631597D01*
X144443313Y-142631602D01*
X144424135Y-142728014D01*
X144414500Y-142825849D01*
X144414500Y-142924150D01*
X144424135Y-143021985D01*
X144443313Y-143118397D01*
X144443314Y-143118402D01*
X144471846Y-143212459D01*
X144471847Y-143212460D01*
X144509467Y-143303283D01*
X144509470Y-143303290D01*
X144555805Y-143389977D01*
X144555806Y-143389979D01*
X144610417Y-143471711D01*
X144610420Y-143471715D01*
X144610421Y-143471716D01*
X144672784Y-143547705D01*
X144742295Y-143617216D01*
X144818284Y-143679579D01*
X144818288Y-143679582D01*
X144900020Y-143734193D01*
X144900022Y-143734194D01*
X144986164Y-143780238D01*
X145008484Y-143798555D01*
X145022095Y-143824019D01*
X145024925Y-143852753D01*
X145016543Y-143880383D01*
X144998226Y-143902703D01*
X144972762Y-143916314D01*
X144951281Y-143919500D01*
X144018000Y-143919500D01*
X144018000Y-141732000D01*
X141732000Y-141732000D01*
X141732000Y-143919500D01*
X141375231Y-143919500D01*
X141346912Y-143913867D01*
X141322905Y-143897826D01*
X141306864Y-143873819D01*
X141301231Y-143845500D01*
X141306864Y-143817181D01*
X141315990Y-143801154D01*
X141318450Y-143797867D01*
X141325025Y-143780238D01*
X141333573Y-143757320D01*
X141335500Y-143739398D01*
X141335500Y-142010602D01*
X141333573Y-141992680D01*
X141329030Y-141980500D01*
X141318450Y-141952132D01*
X141318449Y-141952131D01*
X141316782Y-141949904D01*
X141292514Y-141917486D01*
X141257869Y-141891551D01*
X141257868Y-141891550D01*
X141257867Y-141891549D01*
X141217324Y-141876428D01*
X141217321Y-141876427D01*
X141217320Y-141876427D01*
X141199398Y-141874500D01*
X139470602Y-141874500D01*
X139452680Y-141876427D01*
X139452675Y-141876428D01*
X139412132Y-141891549D01*
X139412131Y-141891550D01*
X139377486Y-141917486D01*
X139351550Y-141952131D01*
X139351549Y-141952132D01*
X139336428Y-141992675D01*
X139336427Y-141992680D01*
X139334500Y-142010602D01*
X139334500Y-143528942D01*
X139328867Y-143557261D01*
X139312826Y-143581268D01*
X139288819Y-143597309D01*
X139260500Y-143602942D01*
X139232181Y-143597309D01*
X139208174Y-143581268D01*
X138423174Y-142796268D01*
X138407133Y-142772261D01*
X138401500Y-142743942D01*
X138401500Y-141560189D01*
X138407133Y-141531870D01*
X138423174Y-141507863D01*
X138462410Y-141468627D01*
X138462415Y-141468622D01*
X138497156Y-141420805D01*
X138523989Y-141368142D01*
X138536776Y-141328790D01*
X138542253Y-141311934D01*
X138542538Y-141310138D01*
X138551500Y-141253552D01*
X138551500Y-141194448D01*
X138542254Y-141136070D01*
X138542253Y-141136068D01*
X138542253Y-141136065D01*
X138523990Y-141079861D01*
X138523989Y-141079859D01*
X138523989Y-141079858D01*
X138497156Y-141027195D01*
X138493278Y-141021858D01*
X138462418Y-140979382D01*
X138462417Y-140979381D01*
X138462415Y-140979378D01*
X138420622Y-140937585D01*
X138420619Y-140937582D01*
X138420617Y-140937581D01*
X138372804Y-140902843D01*
X138372800Y-140902841D01*
X138348976Y-140890702D01*
X138320142Y-140876011D01*
X138320139Y-140876010D01*
X138320137Y-140876009D01*
X138320140Y-140876009D01*
X138263934Y-140857746D01*
X138205553Y-140848500D01*
X138205552Y-140848500D01*
X138146448Y-140848500D01*
X138146447Y-140848500D01*
X138088065Y-140857746D01*
X138031862Y-140876009D01*
X138030257Y-140876827D01*
X138002467Y-140884662D01*
X137973794Y-140881267D01*
X137948603Y-140867157D01*
X137930729Y-140844481D01*
X137922894Y-140816691D01*
X137926289Y-140788018D01*
X137940399Y-140762827D01*
X137944333Y-140758571D01*
X138716110Y-139986793D01*
X138740114Y-139970755D01*
X138768433Y-139965122D01*
X138796752Y-139970755D01*
X138817869Y-139984865D01*
X138818162Y-139984522D01*
X138820373Y-139986410D01*
X138820378Y-139986415D01*
X138868195Y-140021156D01*
X138920858Y-140047989D01*
X138920861Y-140047990D01*
X138920859Y-140047990D01*
X138977065Y-140066253D01*
X138977068Y-140066253D01*
X138977070Y-140066254D01*
X139010215Y-140071503D01*
X139035447Y-140075500D01*
X139035448Y-140075500D01*
X139094553Y-140075500D01*
X139113531Y-140072494D01*
X139152930Y-140066254D01*
X139152932Y-140066253D01*
X139152934Y-140066253D01*
X139184971Y-140055843D01*
X139209142Y-140047989D01*
X139261805Y-140021156D01*
X139309622Y-139986415D01*
X139351415Y-139944622D01*
X139386156Y-139896805D01*
X139412989Y-139844142D01*
X139426734Y-139801842D01*
X139431253Y-139787934D01*
X139431859Y-139784112D01*
X139440500Y-139729552D01*
X139440500Y-139670448D01*
X139431254Y-139612070D01*
X139431253Y-139612068D01*
X139431253Y-139612065D01*
X139412990Y-139555861D01*
X139412989Y-139555860D01*
X139412989Y-139555858D01*
X139386156Y-139503195D01*
X139351415Y-139455378D01*
X139309622Y-139413585D01*
X139309619Y-139413582D01*
X139309617Y-139413581D01*
X139261804Y-139378843D01*
X139261800Y-139378841D01*
X139221202Y-139358156D01*
X139209142Y-139352011D01*
X139209139Y-139352010D01*
X139209137Y-139352009D01*
X139209140Y-139352009D01*
X139152934Y-139333746D01*
X139094553Y-139324500D01*
X139094552Y-139324500D01*
X139035448Y-139324500D01*
X139035447Y-139324500D01*
X138977065Y-139333746D01*
X138920861Y-139352009D01*
X138868199Y-139378841D01*
X138868195Y-139378843D01*
X138820382Y-139413581D01*
X138781137Y-139452826D01*
X138757130Y-139468867D01*
X138728811Y-139474500D01*
X138661790Y-139474500D01*
X138618229Y-139483164D01*
X138618218Y-139483167D01*
X138612464Y-139485550D01*
X138612465Y-139485551D01*
X138577188Y-139500163D01*
X138577186Y-139500164D01*
X138572650Y-139503195D01*
X138540253Y-139524842D01*
X136889252Y-141175843D01*
X136857847Y-141207247D01*
X136857844Y-141207250D01*
X136857843Y-141207252D01*
X136853897Y-141213158D01*
X136833163Y-141244189D01*
X136816166Y-141285222D01*
X136816164Y-141285229D01*
X136807500Y-141328790D01*
X136807500Y-142897209D01*
X136816164Y-142940770D01*
X136816166Y-142940777D01*
X136830265Y-142974814D01*
X136833165Y-142981814D01*
X136857843Y-143018748D01*
X136857847Y-143018752D01*
X138292269Y-144453174D01*
X138308310Y-144477181D01*
X138313943Y-144505500D01*
X138308310Y-144533819D01*
X138292269Y-144557826D01*
X138268262Y-144573867D01*
X138239943Y-144579500D01*
X130195500Y-144579500D01*
X130167181Y-144573867D01*
X130143174Y-144557826D01*
X130127133Y-144533819D01*
X130121500Y-144505500D01*
X130121500Y-137695539D01*
X145149215Y-137695539D01*
X145149215Y-137767702D01*
X145158632Y-137839241D01*
X145158634Y-137839251D01*
X145177311Y-137908952D01*
X145177311Y-137908953D01*
X145204924Y-137975616D01*
X145204928Y-137975626D01*
X145241005Y-138038113D01*
X145241007Y-138038115D01*
X145241009Y-138038119D01*
X145284939Y-138095370D01*
X145335966Y-138146397D01*
X145393217Y-138190327D01*
X145393221Y-138190329D01*
X145393222Y-138190330D01*
X145455709Y-138226407D01*
X145455710Y-138226407D01*
X145455713Y-138226409D01*
X145522383Y-138254024D01*
X145592087Y-138272702D01*
X145592092Y-138272702D01*
X145592094Y-138272703D01*
X145619725Y-138276340D01*
X145661978Y-138281903D01*
X145689319Y-138291184D01*
X145704646Y-138302944D01*
X147235610Y-139833908D01*
X147280186Y-139878484D01*
X147331186Y-139915538D01*
X147387356Y-139944158D01*
X147387358Y-139944158D01*
X147387361Y-139944160D01*
X147447299Y-139963635D01*
X147447303Y-139963635D01*
X147447310Y-139963638D01*
X147501059Y-139972151D01*
X147509573Y-139973500D01*
X147509574Y-139973500D01*
X149409456Y-139973500D01*
X149437775Y-139979133D01*
X149461782Y-139995174D01*
X151193676Y-141727068D01*
X151209717Y-141751075D01*
X151214717Y-141769735D01*
X151223917Y-141839621D01*
X151223919Y-141839630D01*
X151242596Y-141909331D01*
X151242596Y-141909332D01*
X151270209Y-141975995D01*
X151270213Y-141976005D01*
X151306290Y-142038492D01*
X151306292Y-142038494D01*
X151306294Y-142038498D01*
X151350224Y-142095749D01*
X151401251Y-142146776D01*
X151458502Y-142190706D01*
X151458506Y-142190708D01*
X151458507Y-142190709D01*
X151520994Y-142226786D01*
X151520995Y-142226786D01*
X151520998Y-142226788D01*
X151587668Y-142254403D01*
X151657372Y-142273081D01*
X151657377Y-142273081D01*
X151657379Y-142273082D01*
X151684092Y-142276598D01*
X151728918Y-142282500D01*
X151728919Y-142282500D01*
X151801081Y-142282500D01*
X151801082Y-142282500D01*
X151872628Y-142273081D01*
X151942332Y-142254403D01*
X152009002Y-142226788D01*
X152071498Y-142190706D01*
X152128749Y-142146776D01*
X152179776Y-142095749D01*
X152223706Y-142038498D01*
X152259788Y-141976002D01*
X152287403Y-141909332D01*
X152306081Y-141839628D01*
X152315500Y-141768082D01*
X152315500Y-141695918D01*
X152308328Y-141641437D01*
X152306082Y-141624379D01*
X152306080Y-141624369D01*
X152303401Y-141614373D01*
X152287403Y-141554668D01*
X152280434Y-141537844D01*
X152270554Y-141513990D01*
X152259788Y-141487998D01*
X152257446Y-141483942D01*
X152223709Y-141425507D01*
X152223708Y-141425506D01*
X152223706Y-141425502D01*
X152179776Y-141368251D01*
X152128749Y-141317224D01*
X152071498Y-141273294D01*
X152071494Y-141273292D01*
X152071492Y-141273290D01*
X152009005Y-141237213D01*
X152008995Y-141237209D01*
X151942331Y-141209596D01*
X151872630Y-141190919D01*
X151872621Y-141190917D01*
X151802735Y-141181717D01*
X151775394Y-141172436D01*
X151760068Y-141160676D01*
X150816770Y-140217378D01*
X149866908Y-139267516D01*
X149866425Y-139267165D01*
X149815908Y-139230462D01*
X149787823Y-139216152D01*
X149784471Y-139214444D01*
X149784468Y-139214442D01*
X149759735Y-139201840D01*
X149759736Y-139201840D01*
X149699794Y-139182364D01*
X149699785Y-139182362D01*
X149699784Y-139182362D01*
X149668652Y-139177431D01*
X149637521Y-139172500D01*
X149637520Y-139172500D01*
X147737638Y-139172500D01*
X147709319Y-139166867D01*
X147685312Y-139150826D01*
X146551714Y-138017228D01*
X151625000Y-138017228D01*
X151625000Y-138550000D01*
X151626160Y-138566224D01*
X151626547Y-138571633D01*
X151626547Y-138571634D01*
X151638734Y-138613139D01*
X151638736Y-138613143D01*
X151662124Y-138649537D01*
X151662126Y-138649539D01*
X151694823Y-138677871D01*
X151734177Y-138695843D01*
X151777000Y-138702000D01*
X151777006Y-138702000D01*
X153276998Y-138702000D01*
X153277000Y-138702000D01*
X153298632Y-138700453D01*
X153340143Y-138688264D01*
X153376539Y-138664874D01*
X153404871Y-138632177D01*
X153422843Y-138592823D01*
X153429000Y-138550000D01*
X153429000Y-138017228D01*
X153427700Y-137997388D01*
X153419145Y-137932406D01*
X153415266Y-137912906D01*
X153408740Y-137888552D01*
X153398306Y-137849609D01*
X153398299Y-137849587D01*
X153391910Y-137830765D01*
X153370104Y-137778121D01*
X153366829Y-137770214D01*
X153365590Y-137767702D01*
X153358043Y-137752398D01*
X153358039Y-137752390D01*
X153358038Y-137752389D01*
X153358034Y-137752380D01*
X153325262Y-137695618D01*
X153314217Y-137679088D01*
X153296358Y-137655813D01*
X153274328Y-137627102D01*
X153271601Y-137623993D01*
X153261207Y-137612140D01*
X153214860Y-137565793D01*
X153199911Y-137552683D01*
X153199908Y-137552681D01*
X153199897Y-137552671D01*
X153147920Y-137512789D01*
X153147918Y-137512788D01*
X153147912Y-137512783D01*
X153131382Y-137501738D01*
X153074620Y-137468966D01*
X153074615Y-137468963D01*
X153074609Y-137468960D01*
X153074601Y-137468956D01*
X153056802Y-137460178D01*
X153056777Y-137460167D01*
X152996234Y-137435089D01*
X152977412Y-137428700D01*
X152977390Y-137428693D01*
X152914113Y-137411738D01*
X152914074Y-137411729D01*
X152894606Y-137407857D01*
X152894581Y-137407853D01*
X152829612Y-137399300D01*
X152821655Y-137398778D01*
X152793766Y-137391303D01*
X152770860Y-137373724D01*
X152756425Y-137348718D01*
X152752500Y-137324937D01*
X152752500Y-136804723D01*
X152758133Y-136776404D01*
X152774174Y-136752397D01*
X152783002Y-136744856D01*
X152794622Y-136736415D01*
X152836415Y-136694622D01*
X152871156Y-136646805D01*
X152897989Y-136594142D01*
X152916254Y-136537930D01*
X152925500Y-136479552D01*
X152925500Y-136420448D01*
X152916254Y-136362070D01*
X152916253Y-136362068D01*
X152916253Y-136362065D01*
X152897990Y-136305861D01*
X152897989Y-136305860D01*
X152897989Y-136305858D01*
X152871156Y-136253195D01*
X152836415Y-136205378D01*
X152794622Y-136163585D01*
X152794619Y-136163582D01*
X152794617Y-136163581D01*
X152746804Y-136128843D01*
X152746800Y-136128841D01*
X152722976Y-136116702D01*
X152694142Y-136102011D01*
X152694139Y-136102010D01*
X152694137Y-136102009D01*
X152694140Y-136102009D01*
X152637934Y-136083746D01*
X152579553Y-136074500D01*
X152579552Y-136074500D01*
X152520448Y-136074500D01*
X152520447Y-136074500D01*
X152462065Y-136083746D01*
X152405861Y-136102009D01*
X152353199Y-136128841D01*
X152353195Y-136128843D01*
X152305382Y-136163581D01*
X152263581Y-136205382D01*
X152228843Y-136253195D01*
X152228841Y-136253199D01*
X152202009Y-136305861D01*
X152183746Y-136362065D01*
X152174500Y-136420447D01*
X152174500Y-136479552D01*
X152183746Y-136537934D01*
X152202009Y-136594138D01*
X152202010Y-136594141D01*
X152202011Y-136594142D01*
X152228844Y-136646805D01*
X152263585Y-136694622D01*
X152263590Y-136694627D01*
X152279826Y-136710863D01*
X152295867Y-136734870D01*
X152301500Y-136763189D01*
X152301500Y-137324937D01*
X152295867Y-137353256D01*
X152279826Y-137377263D01*
X152255819Y-137393304D01*
X152232345Y-137398778D01*
X152225145Y-137399250D01*
X152224388Y-137399300D01*
X152224386Y-137399300D01*
X152159418Y-137407853D01*
X152159393Y-137407857D01*
X152139925Y-137411729D01*
X152139886Y-137411738D01*
X152076609Y-137428693D01*
X152076587Y-137428700D01*
X152057765Y-137435089D01*
X151997222Y-137460167D01*
X151997197Y-137460178D01*
X151979398Y-137468956D01*
X151979390Y-137468960D01*
X151979380Y-137468966D01*
X151922618Y-137501738D01*
X151915795Y-137506297D01*
X151906079Y-137512789D01*
X151854102Y-137552671D01*
X151839138Y-137565795D01*
X151792795Y-137612138D01*
X151779671Y-137627102D01*
X151739789Y-137679079D01*
X151739783Y-137679088D01*
X151728738Y-137695618D01*
X151725624Y-137701011D01*
X151695960Y-137752390D01*
X151695956Y-137752398D01*
X151687178Y-137770197D01*
X151687167Y-137770222D01*
X151662089Y-137830765D01*
X151655700Y-137849587D01*
X151655693Y-137849609D01*
X151638738Y-137912886D01*
X151638729Y-137912925D01*
X151634857Y-137932393D01*
X151634853Y-137932418D01*
X151626301Y-137997376D01*
X151626300Y-137997384D01*
X151626300Y-137997388D01*
X151625000Y-138017228D01*
X146551714Y-138017228D01*
X146271038Y-137736552D01*
X146254997Y-137712545D01*
X146249997Y-137693884D01*
X146246839Y-137669899D01*
X146241642Y-137630420D01*
X146240797Y-137624000D01*
X146240795Y-137623990D01*
X146238220Y-137614382D01*
X146222118Y-137554289D01*
X146221353Y-137552443D01*
X146206568Y-137516748D01*
X146194503Y-137487619D01*
X146188072Y-137476481D01*
X146158424Y-137425128D01*
X146158423Y-137425127D01*
X146158421Y-137425123D01*
X146114491Y-137367872D01*
X146063464Y-137316845D01*
X146006213Y-137272915D01*
X146006209Y-137272913D01*
X146006207Y-137272911D01*
X145943720Y-137236834D01*
X145943710Y-137236830D01*
X145877046Y-137209217D01*
X145807345Y-137190540D01*
X145807335Y-137190538D01*
X145744528Y-137182270D01*
X145735797Y-137181121D01*
X145663633Y-137181121D01*
X145655851Y-137182145D01*
X145592094Y-137190538D01*
X145592084Y-137190540D01*
X145522383Y-137209217D01*
X145522382Y-137209217D01*
X145455719Y-137236830D01*
X145455709Y-137236834D01*
X145393222Y-137272911D01*
X145335965Y-137316845D01*
X145284939Y-137367871D01*
X145241005Y-137425128D01*
X145204928Y-137487615D01*
X145204924Y-137487625D01*
X145177311Y-137554288D01*
X145177311Y-137554289D01*
X145158634Y-137623990D01*
X145158632Y-137624000D01*
X145149215Y-137695539D01*
X130121500Y-137695539D01*
X130121500Y-127274500D01*
X130127133Y-127246181D01*
X130143174Y-127222174D01*
X130167181Y-127206133D01*
X130195500Y-127200500D01*
X148602942Y-127200500D01*
X148631261Y-127206133D01*
G37*
G04 #@! TD.AperFunction*
G04 #@! TA.AperFunction,Conductor*
G36*
X163775772Y-140060898D02*
G01*
X163799779Y-140076939D01*
X163813387Y-140095669D01*
X163814570Y-140097990D01*
X163832817Y-140133804D01*
X163864538Y-140177463D01*
X163867559Y-140181621D01*
X163909352Y-140223414D01*
X163957169Y-140258155D01*
X164009832Y-140284988D01*
X164009835Y-140284989D01*
X164009833Y-140284989D01*
X164066039Y-140303252D01*
X164066042Y-140303252D01*
X164066044Y-140303253D01*
X164099189Y-140308502D01*
X164124421Y-140312499D01*
X164165500Y-140312499D01*
X164193819Y-140318132D01*
X164217826Y-140334173D01*
X164233867Y-140358180D01*
X164239500Y-140386499D01*
X164239500Y-141732000D01*
X162052000Y-141732000D01*
X162052000Y-143919500D01*
X161118719Y-143919500D01*
X161090400Y-143913867D01*
X161066393Y-143897826D01*
X161050352Y-143873819D01*
X161044719Y-143845500D01*
X161050352Y-143817181D01*
X161066393Y-143793174D01*
X161083836Y-143780238D01*
X161123407Y-143759086D01*
X161169980Y-143734193D01*
X161251716Y-143679579D01*
X161327705Y-143617216D01*
X161397216Y-143547705D01*
X161459579Y-143471716D01*
X161514193Y-143389980D01*
X161560532Y-143303285D01*
X161598151Y-143212465D01*
X161626687Y-143118395D01*
X161645865Y-143021981D01*
X161655500Y-142924151D01*
X161655500Y-142825849D01*
X161645865Y-142728019D01*
X161626687Y-142631605D01*
X161626452Y-142630830D01*
X161598153Y-142537540D01*
X161598152Y-142537539D01*
X161598151Y-142537535D01*
X161560532Y-142446715D01*
X161514193Y-142360020D01*
X161507017Y-142349280D01*
X161495968Y-142322605D01*
X161495969Y-142293731D01*
X161507019Y-142267056D01*
X161516216Y-142255849D01*
X163695129Y-140076937D01*
X163719134Y-140060898D01*
X163747453Y-140055265D01*
X163775772Y-140060898D01*
G37*
G04 #@! TD.AperFunction*
G04 #@! TA.AperFunction,Conductor*
G36*
X164683366Y-142828493D02*
G01*
X164708558Y-142842601D01*
X164726434Y-142865275D01*
X164734272Y-142893064D01*
X164734500Y-142898872D01*
X164734500Y-142924150D01*
X164744135Y-143021985D01*
X164763313Y-143118397D01*
X164763314Y-143118402D01*
X164791846Y-143212459D01*
X164791847Y-143212460D01*
X164829467Y-143303283D01*
X164829470Y-143303290D01*
X164875805Y-143389977D01*
X164875806Y-143389979D01*
X164930417Y-143471711D01*
X164930420Y-143471715D01*
X164930421Y-143471716D01*
X164992784Y-143547705D01*
X165062295Y-143617216D01*
X165138284Y-143679579D01*
X165138288Y-143679582D01*
X165220020Y-143734193D01*
X165220022Y-143734194D01*
X165306164Y-143780238D01*
X165328484Y-143798555D01*
X165342095Y-143824019D01*
X165344925Y-143852753D01*
X165336543Y-143880383D01*
X165318226Y-143902703D01*
X165292762Y-143916314D01*
X165271281Y-143919500D01*
X164338000Y-143919500D01*
X164338000Y-142847559D01*
X164377065Y-142860253D01*
X164377068Y-142860253D01*
X164377070Y-142860254D01*
X164408772Y-142865275D01*
X164435447Y-142869500D01*
X164435448Y-142869500D01*
X164494553Y-142869500D01*
X164521228Y-142865275D01*
X164552930Y-142860254D01*
X164552932Y-142860253D01*
X164552934Y-142860253D01*
X164597444Y-142845790D01*
X164609142Y-142841989D01*
X164626909Y-142832936D01*
X164654692Y-142825100D01*
X164683366Y-142828493D01*
G37*
G04 #@! TD.AperFunction*
G04 #@! TA.AperFunction,Conductor*
G36*
X176823801Y-135473686D02*
G01*
X176838253Y-135476548D01*
X176838281Y-135476566D01*
X176838312Y-135476573D01*
X176849993Y-135484378D01*
X176862275Y-135492569D01*
X176862293Y-135492596D01*
X176862320Y-135492614D01*
X176870176Y-135504371D01*
X176878337Y-135516562D01*
X176878361Y-135516621D01*
X176887445Y-135538552D01*
X176889110Y-135542570D01*
X176913788Y-135579504D01*
X176913792Y-135579508D01*
X178794326Y-137460042D01*
X178810367Y-137484049D01*
X178816000Y-137512368D01*
X178816000Y-138938000D01*
X180241632Y-138938000D01*
X180269951Y-138943633D01*
X180293958Y-138959674D01*
X180426826Y-139092542D01*
X180442867Y-139116549D01*
X180448500Y-139144868D01*
X180448500Y-141530249D01*
X180442867Y-141558568D01*
X180426826Y-141582575D01*
X180270575Y-141738826D01*
X180246568Y-141754867D01*
X180218249Y-141760500D01*
X179743057Y-141760500D01*
X179714738Y-141754867D01*
X179690731Y-141738826D01*
X179105075Y-141153170D01*
X179089034Y-141129163D01*
X179083401Y-141100844D01*
X179089034Y-141072525D01*
X179105075Y-141048518D01*
X179123808Y-141034909D01*
X179160995Y-141015962D01*
X179160998Y-141015959D01*
X179161004Y-141015957D01*
X179208821Y-140981216D01*
X179250614Y-140939423D01*
X179285355Y-140891606D01*
X179312188Y-140838943D01*
X179330453Y-140782731D01*
X179339699Y-140724353D01*
X179339699Y-140665249D01*
X179338678Y-140658805D01*
X179330452Y-140606866D01*
X179312189Y-140550662D01*
X179312188Y-140550661D01*
X179312188Y-140550659D01*
X179285355Y-140497996D01*
X179250614Y-140450179D01*
X179208821Y-140408386D01*
X179208818Y-140408383D01*
X179208816Y-140408382D01*
X179161003Y-140373644D01*
X179160999Y-140373642D01*
X179130652Y-140358180D01*
X179108341Y-140346812D01*
X179108338Y-140346811D01*
X179108336Y-140346810D01*
X179108339Y-140346810D01*
X179052133Y-140328547D01*
X178993752Y-140319301D01*
X178993751Y-140319301D01*
X178938256Y-140319301D01*
X178938255Y-140319300D01*
X178938255Y-140319301D01*
X178909937Y-140313668D01*
X178885930Y-140297627D01*
X178812934Y-140224630D01*
X178796893Y-140200622D01*
X178791260Y-140172304D01*
X178791260Y-139899079D01*
X178782595Y-139855518D01*
X178782593Y-139855511D01*
X178779925Y-139849069D01*
X178765595Y-139814475D01*
X178740917Y-139777541D01*
X178709508Y-139746132D01*
X178497475Y-139534099D01*
X178481434Y-139510092D01*
X178475801Y-139481773D01*
X178475801Y-137673981D01*
X178467136Y-137630420D01*
X178467134Y-137630413D01*
X178466425Y-137628701D01*
X178450136Y-137589377D01*
X178425458Y-137552443D01*
X178394049Y-137521034D01*
X176493732Y-135620717D01*
X176477691Y-135596710D01*
X176472058Y-135568391D01*
X176477691Y-135540072D01*
X176493732Y-135516065D01*
X176517739Y-135500024D01*
X176546058Y-135494391D01*
X176557628Y-135495301D01*
X176609393Y-135503500D01*
X176668498Y-135503500D01*
X176690444Y-135500024D01*
X176726875Y-135494254D01*
X176726877Y-135494253D01*
X176726879Y-135494253D01*
X176785852Y-135475091D01*
X176786050Y-135475702D01*
X176795508Y-135473821D01*
X176809930Y-135470940D01*
X176809962Y-135470946D01*
X176809994Y-135470940D01*
X176823801Y-135473686D01*
G37*
G04 #@! TD.AperFunction*
G04 #@! TA.AperFunction,Conductor*
G36*
X174356319Y-129946319D02*
G01*
X174373044Y-129955976D01*
X174385088Y-129965217D01*
X174401618Y-129976262D01*
X174458380Y-130009034D01*
X174458389Y-130009038D01*
X174458390Y-130009039D01*
X174458398Y-130009043D01*
X174476197Y-130017821D01*
X174476204Y-130017824D01*
X174476214Y-130017829D01*
X174510359Y-130031972D01*
X174536765Y-130042910D01*
X174536768Y-130042911D01*
X174555595Y-130049302D01*
X174555604Y-130049304D01*
X174555609Y-130049306D01*
X174618886Y-130066261D01*
X174618895Y-130066263D01*
X174618906Y-130066266D01*
X174618918Y-130066268D01*
X174618925Y-130066270D01*
X174625689Y-130067615D01*
X174638406Y-130070145D01*
X174703388Y-130078700D01*
X174711341Y-130079221D01*
X174739227Y-130086692D01*
X174762134Y-130104269D01*
X174776572Y-130129273D01*
X174780500Y-130153062D01*
X174780500Y-132370937D01*
X174774867Y-132399256D01*
X174758826Y-132423263D01*
X174734819Y-132439304D01*
X174711345Y-132444778D01*
X174704145Y-132445250D01*
X174703388Y-132445300D01*
X174703386Y-132445300D01*
X174638418Y-132453853D01*
X174638393Y-132453857D01*
X174618925Y-132457729D01*
X174618886Y-132457738D01*
X174555609Y-132474693D01*
X174555587Y-132474700D01*
X174536765Y-132481089D01*
X174476222Y-132506167D01*
X174476197Y-132506178D01*
X174458398Y-132514956D01*
X174458390Y-132514960D01*
X174427600Y-132532737D01*
X174401618Y-132547738D01*
X174385722Y-132558359D01*
X174385079Y-132558789D01*
X174333102Y-132598671D01*
X174318138Y-132611795D01*
X174271795Y-132658138D01*
X174258671Y-132673102D01*
X174218789Y-132725079D01*
X174207737Y-132741620D01*
X174174960Y-132798390D01*
X174174956Y-132798398D01*
X174166178Y-132816197D01*
X174166167Y-132816222D01*
X174141089Y-132876765D01*
X174134700Y-132895587D01*
X174134693Y-132895609D01*
X174117738Y-132958886D01*
X174117729Y-132958925D01*
X174113857Y-132978393D01*
X174113853Y-132978418D01*
X174109288Y-133013096D01*
X174105300Y-133043388D01*
X174104580Y-133054378D01*
X174104000Y-133063227D01*
X174104000Y-133595997D01*
X174105547Y-133617633D01*
X174105547Y-133617634D01*
X174117734Y-133659139D01*
X174117736Y-133659143D01*
X174141127Y-133695542D01*
X174143883Y-133698722D01*
X174158171Y-133723813D01*
X174161768Y-133752461D01*
X174154129Y-133780306D01*
X174143883Y-133795640D01*
X174128132Y-133813818D01*
X174128130Y-133813820D01*
X174110157Y-133853176D01*
X174110156Y-133853178D01*
X174104000Y-133895995D01*
X174104000Y-133896000D01*
X174104000Y-134428772D01*
X174104920Y-134442818D01*
X174105301Y-134448623D01*
X174113853Y-134513581D01*
X174113857Y-134513606D01*
X174117729Y-134533074D01*
X174117738Y-134533113D01*
X174134693Y-134596390D01*
X174134700Y-134596412D01*
X174141089Y-134615234D01*
X174166167Y-134675777D01*
X174166178Y-134675802D01*
X174174956Y-134693601D01*
X174174960Y-134693609D01*
X174174963Y-134693615D01*
X174174966Y-134693620D01*
X174207738Y-134750382D01*
X174218783Y-134766912D01*
X174218788Y-134766918D01*
X174218789Y-134766920D01*
X174258671Y-134818897D01*
X174258681Y-134818908D01*
X174258683Y-134818911D01*
X174271793Y-134833860D01*
X174318140Y-134880207D01*
X174332320Y-134892643D01*
X174333102Y-134893328D01*
X174370716Y-134922189D01*
X174385088Y-134933217D01*
X174401618Y-134944262D01*
X174458380Y-134977034D01*
X174458389Y-134977038D01*
X174458390Y-134977039D01*
X174458398Y-134977043D01*
X174476197Y-134985821D01*
X174476204Y-134985824D01*
X174476214Y-134985829D01*
X174499562Y-134995500D01*
X174536765Y-135010910D01*
X174536768Y-135010911D01*
X174555595Y-135017302D01*
X174555604Y-135017304D01*
X174555609Y-135017306D01*
X174618886Y-135034261D01*
X174618895Y-135034263D01*
X174618906Y-135034266D01*
X174618918Y-135034268D01*
X174618925Y-135034270D01*
X174625689Y-135035615D01*
X174638406Y-135038145D01*
X174703388Y-135046700D01*
X174711341Y-135047221D01*
X174739227Y-135054692D01*
X174762134Y-135072269D01*
X174776572Y-135097273D01*
X174780500Y-135121062D01*
X174780500Y-138579209D01*
X174789164Y-138622770D01*
X174789166Y-138622777D01*
X174806163Y-138663810D01*
X174806165Y-138663814D01*
X174830843Y-138700748D01*
X174830847Y-138700752D01*
X175764109Y-139634014D01*
X175765743Y-139636460D01*
X175768053Y-139638281D01*
X175773712Y-139648387D01*
X175780150Y-139658021D01*
X175782161Y-139663472D01*
X175795646Y-139704974D01*
X175799040Y-139733648D01*
X175791203Y-139761437D01*
X175773327Y-139784112D01*
X175748136Y-139798220D01*
X175725268Y-139801842D01*
X173620210Y-139801842D01*
X173591891Y-139796209D01*
X173567884Y-139780168D01*
X173551843Y-139756161D01*
X173546210Y-139727842D01*
X173551843Y-139699523D01*
X173567884Y-139675516D01*
X173586616Y-139661907D01*
X173602739Y-139653692D01*
X173629305Y-139640156D01*
X173677122Y-139605415D01*
X173718915Y-139563622D01*
X173753656Y-139515805D01*
X173780489Y-139463142D01*
X173796944Y-139412500D01*
X173798753Y-139406934D01*
X173802934Y-139380541D01*
X173808000Y-139348552D01*
X173808000Y-139289448D01*
X173798754Y-139231070D01*
X173798753Y-139231068D01*
X173798753Y-139231065D01*
X173780490Y-139174861D01*
X173780489Y-139174860D01*
X173780489Y-139174858D01*
X173753656Y-139122195D01*
X173721633Y-139078119D01*
X173709545Y-139051898D01*
X173707500Y-139034623D01*
X173707500Y-135753944D01*
X173713133Y-135725625D01*
X173729174Y-135701618D01*
X173740384Y-135692417D01*
X173752748Y-135684157D01*
X173784157Y-135652748D01*
X173808835Y-135615814D01*
X173825834Y-135574776D01*
X173834500Y-135531209D01*
X173834500Y-135523980D01*
X173838122Y-135501111D01*
X173848254Y-135469930D01*
X173857500Y-135411552D01*
X173857500Y-135352448D01*
X173848254Y-135294070D01*
X173848253Y-135294068D01*
X173848253Y-135294065D01*
X173829990Y-135237861D01*
X173829989Y-135237860D01*
X173829989Y-135237858D01*
X173803156Y-135185195D01*
X173768415Y-135137378D01*
X173726622Y-135095585D01*
X173726619Y-135095582D01*
X173726617Y-135095581D01*
X173678804Y-135060843D01*
X173678800Y-135060841D01*
X173647126Y-135044703D01*
X173626142Y-135034011D01*
X173626139Y-135034010D01*
X173626137Y-135034009D01*
X173626140Y-135034009D01*
X173569934Y-135015746D01*
X173511553Y-135006500D01*
X173511552Y-135006500D01*
X173452448Y-135006500D01*
X173452447Y-135006500D01*
X173394065Y-135015746D01*
X173337861Y-135034009D01*
X173285199Y-135060841D01*
X173285195Y-135060843D01*
X173237382Y-135095581D01*
X173237378Y-135095585D01*
X173195585Y-135137378D01*
X173195582Y-135137381D01*
X173195582Y-135137382D01*
X173184524Y-135152601D01*
X173163321Y-135172199D01*
X173136232Y-135182191D01*
X173107381Y-135181057D01*
X173081160Y-135168967D01*
X173072333Y-135161428D01*
X172609174Y-134698269D01*
X172593133Y-134674262D01*
X172587500Y-134645943D01*
X172587500Y-134590861D01*
X172580208Y-134544823D01*
X172578254Y-134532484D01*
X172578253Y-134532482D01*
X172578253Y-134532479D01*
X172559990Y-134476275D01*
X172559989Y-134476274D01*
X172559989Y-134476272D01*
X172533156Y-134423609D01*
X172532350Y-134422499D01*
X172498418Y-134375796D01*
X172498417Y-134375795D01*
X172498415Y-134375792D01*
X172456622Y-134333999D01*
X172456619Y-134333996D01*
X172456617Y-134333995D01*
X172408804Y-134299257D01*
X172408800Y-134299255D01*
X172379364Y-134284257D01*
X172356142Y-134272425D01*
X172356139Y-134272424D01*
X172356137Y-134272423D01*
X172356140Y-134272423D01*
X172299934Y-134254160D01*
X172241553Y-134244914D01*
X172241552Y-134244914D01*
X172182448Y-134244914D01*
X172182447Y-134244914D01*
X172124065Y-134254160D01*
X172067861Y-134272423D01*
X172015199Y-134299255D01*
X172015195Y-134299257D01*
X171967382Y-134333995D01*
X171925581Y-134375796D01*
X171890843Y-134423609D01*
X171890841Y-134423613D01*
X171864009Y-134476275D01*
X171845746Y-134532479D01*
X171836500Y-134590861D01*
X171836500Y-134649966D01*
X171845746Y-134708348D01*
X171864009Y-134764552D01*
X171890841Y-134817214D01*
X171890843Y-134817218D01*
X171925287Y-134864627D01*
X171925585Y-134865036D01*
X171967378Y-134906829D01*
X171967381Y-134906831D01*
X171967382Y-134906832D01*
X172014878Y-134941340D01*
X172021620Y-134948634D01*
X172029213Y-134955038D01*
X172031337Y-134959144D01*
X172034478Y-134962542D01*
X172037916Y-134971863D01*
X172042479Y-134980683D01*
X172042870Y-134985291D01*
X172044471Y-134989631D01*
X172044080Y-134999555D01*
X172044921Y-135009453D01*
X172043518Y-135013861D01*
X172043337Y-135018482D01*
X172039179Y-135027499D01*
X172036168Y-135036967D01*
X172033338Y-135040171D01*
X172031249Y-135044703D01*
X172017551Y-135059038D01*
X172015454Y-135060711D01*
X172015195Y-135060844D01*
X171967378Y-135095585D01*
X171949978Y-135112984D01*
X171946745Y-135115566D01*
X171937526Y-135120334D01*
X171928895Y-135126102D01*
X171924804Y-135126915D01*
X171921100Y-135128832D01*
X171910756Y-135129709D01*
X171900576Y-135131735D01*
X171896485Y-135130921D01*
X171892330Y-135131274D01*
X171882438Y-135128127D01*
X171872257Y-135126102D01*
X171868789Y-135123785D01*
X171864816Y-135122521D01*
X171856882Y-135115829D01*
X171848250Y-135110061D01*
X171641465Y-134903276D01*
X171641402Y-134903234D01*
X171615997Y-134886259D01*
X171606413Y-134879855D01*
X171567472Y-134863725D01*
X171567461Y-134863722D01*
X171536318Y-134857527D01*
X171526124Y-134855500D01*
X171236242Y-134855500D01*
X171207923Y-134849867D01*
X171183916Y-134833826D01*
X171167875Y-134809819D01*
X171162242Y-134781500D01*
X171167875Y-134753181D01*
X171183916Y-134729174D01*
X172595509Y-133317581D01*
X174203657Y-131709434D01*
X174228335Y-131672500D01*
X174245334Y-131631462D01*
X174254000Y-131587896D01*
X174254000Y-130014686D01*
X174259633Y-129986367D01*
X174275674Y-129962360D01*
X174299681Y-129946319D01*
X174328000Y-129940686D01*
X174356319Y-129946319D01*
G37*
G04 #@! TD.AperFunction*
G04 #@! TA.AperFunction,Conductor*
G36*
X178770319Y-134922189D02*
G01*
X178794326Y-134938230D01*
X178810367Y-134962237D01*
X178816000Y-134990556D01*
X178816000Y-136027443D01*
X178810367Y-136055762D01*
X178794326Y-136079769D01*
X178770319Y-136095810D01*
X178742000Y-136101443D01*
X178713681Y-136095810D01*
X178689674Y-136079769D01*
X178197174Y-135587269D01*
X178181133Y-135563262D01*
X178175500Y-135534943D01*
X178175500Y-135483056D01*
X178181133Y-135454737D01*
X178197174Y-135430730D01*
X178339895Y-135288009D01*
X178689678Y-134938226D01*
X178713681Y-134922189D01*
X178742000Y-134916556D01*
X178770319Y-134922189D01*
G37*
G04 #@! TD.AperFunction*
G04 #@! TA.AperFunction,Conductor*
G36*
X174197632Y-127631633D02*
G01*
X174221639Y-127647674D01*
X174237680Y-127671681D01*
X174243313Y-127700000D01*
X174237680Y-127728319D01*
X174228023Y-127745045D01*
X174218783Y-127757088D01*
X174207738Y-127773618D01*
X174197556Y-127791253D01*
X174174960Y-127830390D01*
X174174956Y-127830398D01*
X174166178Y-127848197D01*
X174166167Y-127848222D01*
X174141089Y-127908765D01*
X174134700Y-127927587D01*
X174134693Y-127927609D01*
X174117738Y-127990886D01*
X174117729Y-127990925D01*
X174113857Y-128010393D01*
X174113854Y-128010408D01*
X174110942Y-128032528D01*
X174101660Y-128059868D01*
X174089901Y-128075192D01*
X173884752Y-128280343D01*
X173853347Y-128311747D01*
X173853344Y-128311750D01*
X173853343Y-128311752D01*
X173843025Y-128327195D01*
X173828663Y-128348689D01*
X173811666Y-128389722D01*
X173811664Y-128389729D01*
X173803000Y-128433290D01*
X173803000Y-131441628D01*
X173797367Y-131469947D01*
X173781326Y-131493954D01*
X171232175Y-134043104D01*
X171208168Y-134059145D01*
X171179849Y-134064778D01*
X171151530Y-134059145D01*
X171127523Y-134043104D01*
X171113917Y-134024376D01*
X171088050Y-133973609D01*
X171053312Y-133925796D01*
X171053311Y-133925795D01*
X171053309Y-133925792D01*
X171011516Y-133883999D01*
X171011513Y-133883996D01*
X171011511Y-133883995D01*
X170963698Y-133849257D01*
X170963694Y-133849254D01*
X170944885Y-133839671D01*
X170922211Y-133821796D01*
X170908103Y-133796604D01*
X170904709Y-133767931D01*
X170908103Y-133750869D01*
X170927253Y-133691933D01*
X170927252Y-133691933D01*
X170927254Y-133691930D01*
X170936500Y-133633552D01*
X170936500Y-133574448D01*
X170927254Y-133516070D01*
X170927253Y-133516068D01*
X170927253Y-133516065D01*
X170908990Y-133459861D01*
X170908989Y-133459860D01*
X170908989Y-133459858D01*
X170882156Y-133407195D01*
X170847415Y-133359378D01*
X170805622Y-133317585D01*
X170805619Y-133317582D01*
X170805617Y-133317581D01*
X170757804Y-133282843D01*
X170757800Y-133282841D01*
X170731512Y-133269447D01*
X170705142Y-133256011D01*
X170705139Y-133256010D01*
X170705137Y-133256009D01*
X170705140Y-133256009D01*
X170648934Y-133237746D01*
X170590553Y-133228500D01*
X170590552Y-133228500D01*
X170531448Y-133228500D01*
X170531447Y-133228500D01*
X170473067Y-133237746D01*
X170445605Y-133246669D01*
X170416932Y-133250062D01*
X170389142Y-133242224D01*
X170366468Y-133224348D01*
X170352360Y-133199156D01*
X170349372Y-133185948D01*
X170347313Y-133170310D01*
X170340081Y-133115372D01*
X170321403Y-133045668D01*
X170320452Y-133043373D01*
X170293790Y-132979004D01*
X170293786Y-132978994D01*
X170257709Y-132916507D01*
X170257708Y-132916506D01*
X170257706Y-132916502D01*
X170213776Y-132859251D01*
X170162749Y-132808224D01*
X170105498Y-132764294D01*
X170105494Y-132764292D01*
X170105492Y-132764290D01*
X170043005Y-132728213D01*
X170042995Y-132728209D01*
X169976331Y-132700596D01*
X169906630Y-132681919D01*
X169906620Y-132681917D01*
X169843813Y-132673649D01*
X169835082Y-132672500D01*
X169762918Y-132672500D01*
X169755136Y-132673524D01*
X169691379Y-132681917D01*
X169691369Y-132681919D01*
X169621668Y-132700596D01*
X169621667Y-132700596D01*
X169555004Y-132728209D01*
X169554994Y-132728213D01*
X169492507Y-132764290D01*
X169436574Y-132807209D01*
X169410678Y-132819979D01*
X169391526Y-132822500D01*
X158601544Y-132822500D01*
X158573225Y-132816867D01*
X158549218Y-132800826D01*
X156975909Y-131227517D01*
X156975908Y-131227516D01*
X156924908Y-131190462D01*
X156896823Y-131176152D01*
X156896823Y-131176151D01*
X156896821Y-131176151D01*
X156868735Y-131161840D01*
X156868736Y-131161840D01*
X156808794Y-131142364D01*
X156808785Y-131142362D01*
X156808784Y-131142362D01*
X156777652Y-131137431D01*
X156746521Y-131132500D01*
X156746520Y-131132500D01*
X155732544Y-131132500D01*
X155704225Y-131126867D01*
X155680218Y-131110826D01*
X154701756Y-130132364D01*
X155258500Y-130132364D01*
X155258500Y-130217635D01*
X155269629Y-130302178D01*
X155269631Y-130302189D01*
X155291694Y-130384527D01*
X155291701Y-130384548D01*
X155310804Y-130430668D01*
X155324332Y-130463326D01*
X155352093Y-130511409D01*
X155366970Y-130537178D01*
X155418878Y-130604824D01*
X155479175Y-130665121D01*
X155546821Y-130717029D01*
X155546825Y-130717031D01*
X155546826Y-130717032D01*
X155620674Y-130759668D01*
X155699455Y-130792300D01*
X155699465Y-130792302D01*
X155699472Y-130792305D01*
X155781810Y-130814368D01*
X155781821Y-130814370D01*
X155866364Y-130825500D01*
X155866365Y-130825500D01*
X155951635Y-130825500D01*
X155951636Y-130825500D01*
X156036179Y-130814370D01*
X156036181Y-130814369D01*
X156036189Y-130814368D01*
X156118527Y-130792305D01*
X156118529Y-130792304D01*
X156118545Y-130792300D01*
X156197326Y-130759668D01*
X156271174Y-130717032D01*
X156338825Y-130665121D01*
X156399121Y-130604825D01*
X156451032Y-130537174D01*
X156493668Y-130463326D01*
X156526300Y-130384545D01*
X156531807Y-130363994D01*
X156548368Y-130302189D01*
X156548370Y-130302178D01*
X156556972Y-130236842D01*
X156559500Y-130217636D01*
X156559500Y-130132364D01*
X158258500Y-130132364D01*
X158258500Y-130217635D01*
X158269629Y-130302178D01*
X158269631Y-130302189D01*
X158291694Y-130384527D01*
X158291701Y-130384548D01*
X158310804Y-130430668D01*
X158324332Y-130463326D01*
X158352093Y-130511409D01*
X158366970Y-130537178D01*
X158418878Y-130604824D01*
X158479175Y-130665121D01*
X158546821Y-130717029D01*
X158546825Y-130717031D01*
X158546826Y-130717032D01*
X158620674Y-130759668D01*
X158699455Y-130792300D01*
X158699465Y-130792302D01*
X158699472Y-130792305D01*
X158781810Y-130814368D01*
X158781821Y-130814370D01*
X158866364Y-130825500D01*
X158866365Y-130825500D01*
X158951635Y-130825500D01*
X158951636Y-130825500D01*
X159036179Y-130814370D01*
X159036181Y-130814369D01*
X159036189Y-130814368D01*
X159118527Y-130792305D01*
X159118529Y-130792304D01*
X159118545Y-130792300D01*
X159197326Y-130759668D01*
X159271174Y-130717032D01*
X159338825Y-130665121D01*
X159399121Y-130604825D01*
X159451032Y-130537174D01*
X159493668Y-130463326D01*
X159526300Y-130384545D01*
X159531807Y-130363994D01*
X159548368Y-130302189D01*
X159548370Y-130302178D01*
X159556972Y-130236842D01*
X159559500Y-130217636D01*
X159559500Y-130132364D01*
X159548370Y-130047821D01*
X159548368Y-130047810D01*
X159526305Y-129965472D01*
X159526302Y-129965465D01*
X159526300Y-129965455D01*
X159493668Y-129886674D01*
X159451032Y-129812826D01*
X159451031Y-129812825D01*
X159451029Y-129812821D01*
X159399121Y-129745175D01*
X159338824Y-129684878D01*
X159271178Y-129632970D01*
X159245409Y-129618093D01*
X159197326Y-129590332D01*
X159197320Y-129590329D01*
X159197317Y-129590328D01*
X159118548Y-129557701D01*
X159118527Y-129557694D01*
X159036189Y-129535631D01*
X159036178Y-129535629D01*
X158962765Y-129525965D01*
X158951636Y-129524500D01*
X158866364Y-129524500D01*
X158856529Y-129525794D01*
X158781821Y-129535629D01*
X158781810Y-129535631D01*
X158699472Y-129557694D01*
X158699451Y-129557701D01*
X158620682Y-129590328D01*
X158620674Y-129590332D01*
X158546821Y-129632970D01*
X158479175Y-129684878D01*
X158418878Y-129745175D01*
X158366970Y-129812821D01*
X158324332Y-129886674D01*
X158324328Y-129886682D01*
X158291701Y-129965451D01*
X158291694Y-129965472D01*
X158269631Y-130047810D01*
X158269629Y-130047821D01*
X158258500Y-130132364D01*
X156559500Y-130132364D01*
X156548370Y-130047821D01*
X156548368Y-130047810D01*
X156526305Y-129965472D01*
X156526302Y-129965465D01*
X156526300Y-129965455D01*
X156493668Y-129886674D01*
X156451032Y-129812826D01*
X156451031Y-129812825D01*
X156451029Y-129812821D01*
X156399121Y-129745175D01*
X156338824Y-129684878D01*
X156271178Y-129632970D01*
X156245409Y-129618093D01*
X156197326Y-129590332D01*
X156197320Y-129590329D01*
X156197317Y-129590328D01*
X156118548Y-129557701D01*
X156118527Y-129557694D01*
X156036189Y-129535631D01*
X156036178Y-129535629D01*
X155962765Y-129525965D01*
X155951636Y-129524500D01*
X155866364Y-129524500D01*
X155856529Y-129525794D01*
X155781821Y-129535629D01*
X155781810Y-129535631D01*
X155699472Y-129557694D01*
X155699451Y-129557701D01*
X155620682Y-129590328D01*
X155620674Y-129590332D01*
X155546821Y-129632970D01*
X155479175Y-129684878D01*
X155418878Y-129745175D01*
X155366970Y-129812821D01*
X155324332Y-129886674D01*
X155324328Y-129886682D01*
X155291701Y-129965451D01*
X155291694Y-129965472D01*
X155269631Y-130047810D01*
X155269629Y-130047821D01*
X155258500Y-130132364D01*
X154701756Y-130132364D01*
X153663369Y-129093977D01*
X153647328Y-129069970D01*
X153641695Y-129041651D01*
X153647328Y-129013332D01*
X153663369Y-128989325D01*
X153687376Y-128973284D01*
X153715695Y-128967651D01*
X169636283Y-128967651D01*
X169664602Y-128973284D01*
X169688609Y-128989325D01*
X169782826Y-129083542D01*
X169798867Y-129107549D01*
X169804500Y-129135868D01*
X169804500Y-129153555D01*
X169813746Y-129211937D01*
X169832009Y-129268141D01*
X169832010Y-129268144D01*
X169832011Y-129268145D01*
X169858844Y-129320808D01*
X169893585Y-129368625D01*
X169935378Y-129410418D01*
X169983195Y-129445159D01*
X170035858Y-129471992D01*
X170035861Y-129471993D01*
X170035859Y-129471993D01*
X170092065Y-129490256D01*
X170092068Y-129490256D01*
X170092070Y-129490257D01*
X170125215Y-129495506D01*
X170150447Y-129499503D01*
X170150448Y-129499503D01*
X170209553Y-129499503D01*
X170227170Y-129496712D01*
X170267930Y-129490257D01*
X170267932Y-129490256D01*
X170267934Y-129490256D01*
X170297613Y-129480612D01*
X170324142Y-129471992D01*
X170376805Y-129445159D01*
X170424622Y-129410418D01*
X170466415Y-129368625D01*
X170501156Y-129320808D01*
X170527989Y-129268145D01*
X170546254Y-129211933D01*
X170555500Y-129153555D01*
X170555500Y-129094451D01*
X170546254Y-129036073D01*
X170546253Y-129036071D01*
X170546253Y-129036068D01*
X170527990Y-128979864D01*
X170527989Y-128979863D01*
X170527989Y-128979861D01*
X170501156Y-128927198D01*
X170466415Y-128879381D01*
X170463361Y-128876327D01*
X170447320Y-128852320D01*
X170441687Y-128824001D01*
X170447320Y-128795682D01*
X170463358Y-128771678D01*
X170466415Y-128768622D01*
X170501156Y-128720805D01*
X170527989Y-128668142D01*
X170546254Y-128611930D01*
X170555500Y-128553552D01*
X170555500Y-128494448D01*
X170554780Y-128489905D01*
X170546253Y-128436065D01*
X170527990Y-128379861D01*
X170527989Y-128379860D01*
X170527989Y-128379858D01*
X170501156Y-128327195D01*
X170466415Y-128279378D01*
X170438863Y-128251826D01*
X170422822Y-128227819D01*
X170417189Y-128199500D01*
X170422822Y-128171181D01*
X170438863Y-128147174D01*
X170466410Y-128119627D01*
X170466415Y-128119622D01*
X170501156Y-128071805D01*
X170527989Y-128019142D01*
X170544658Y-127967843D01*
X170546253Y-127962934D01*
X170547691Y-127953859D01*
X170555500Y-127904552D01*
X170555500Y-127845448D01*
X170546254Y-127787070D01*
X170546253Y-127787068D01*
X170546253Y-127787065D01*
X170527992Y-127730865D01*
X170526940Y-127728327D01*
X170521304Y-127700009D01*
X170526934Y-127671690D01*
X170542972Y-127647680D01*
X170566977Y-127631636D01*
X170595295Y-127626000D01*
X174169313Y-127626000D01*
X174197632Y-127631633D01*
G37*
G04 #@! TD.AperFunction*
G04 #@! TA.AperFunction,Conductor*
G36*
X178770319Y-127206133D02*
G01*
X178794326Y-127222174D01*
X178810367Y-127246181D01*
X178816000Y-127274500D01*
X178816000Y-128163943D01*
X178810367Y-128192262D01*
X178794326Y-128216269D01*
X178770319Y-128232310D01*
X178742000Y-128237943D01*
X178713681Y-128232310D01*
X178689674Y-128216269D01*
X178568632Y-128095227D01*
X178441248Y-127967843D01*
X178441244Y-127967840D01*
X178438433Y-127965533D01*
X178438809Y-127965074D01*
X178421827Y-127948088D01*
X178413286Y-127930764D01*
X178410912Y-127923769D01*
X178385832Y-127863222D01*
X178385829Y-127863214D01*
X178377034Y-127845380D01*
X178344262Y-127788618D01*
X178333217Y-127772088D01*
X178321707Y-127757088D01*
X178293328Y-127720102D01*
X178285712Y-127711418D01*
X178280207Y-127705140D01*
X178233860Y-127658793D01*
X178218911Y-127645683D01*
X178218908Y-127645681D01*
X178218897Y-127645671D01*
X178166920Y-127605789D01*
X178166918Y-127605788D01*
X178166912Y-127605783D01*
X178150382Y-127594738D01*
X178093620Y-127561966D01*
X178093615Y-127561963D01*
X178093609Y-127561960D01*
X178093601Y-127561956D01*
X178075802Y-127553178D01*
X178075777Y-127553167D01*
X178015234Y-127528089D01*
X177996412Y-127521700D01*
X177996390Y-127521693D01*
X177933113Y-127504738D01*
X177933074Y-127504729D01*
X177913606Y-127500857D01*
X177913581Y-127500853D01*
X177848623Y-127492301D01*
X177848616Y-127492300D01*
X177848612Y-127492300D01*
X177828772Y-127491000D01*
X177263228Y-127491000D01*
X177263227Y-127491000D01*
X177258568Y-127491305D01*
X177243388Y-127492300D01*
X177243384Y-127492300D01*
X177243376Y-127492301D01*
X177178418Y-127500853D01*
X177178393Y-127500857D01*
X177158925Y-127504729D01*
X177158886Y-127504738D01*
X177095609Y-127521693D01*
X177095587Y-127521700D01*
X177076765Y-127528089D01*
X177016222Y-127553167D01*
X177016197Y-127553178D01*
X176998398Y-127561956D01*
X176998390Y-127561960D01*
X176998380Y-127561966D01*
X176941618Y-127594738D01*
X176925722Y-127605359D01*
X176925079Y-127605789D01*
X176873102Y-127645671D01*
X176858138Y-127658795D01*
X176811795Y-127705138D01*
X176798671Y-127720102D01*
X176758789Y-127772079D01*
X176758783Y-127772088D01*
X176748773Y-127787070D01*
X176747737Y-127788620D01*
X176714960Y-127845390D01*
X176714956Y-127845398D01*
X176706178Y-127863197D01*
X176706167Y-127863222D01*
X176681089Y-127923765D01*
X176674700Y-127942587D01*
X176674693Y-127942609D01*
X176657738Y-128005886D01*
X176657729Y-128005925D01*
X176653857Y-128025393D01*
X176653853Y-128025418D01*
X176645301Y-128090376D01*
X176644000Y-128110227D01*
X176644000Y-128642997D01*
X176645547Y-128664633D01*
X176645547Y-128664634D01*
X176657734Y-128706139D01*
X176657736Y-128706143D01*
X176681127Y-128742542D01*
X176683883Y-128745722D01*
X176698171Y-128770813D01*
X176701768Y-128799461D01*
X176694129Y-128827306D01*
X176683883Y-128842640D01*
X176668132Y-128860818D01*
X176668130Y-128860820D01*
X176650157Y-128900176D01*
X176650156Y-128900178D01*
X176644000Y-128942995D01*
X176644000Y-129475772D01*
X176645301Y-129495623D01*
X176653853Y-129560581D01*
X176653857Y-129560606D01*
X176657729Y-129580074D01*
X176657738Y-129580113D01*
X176674693Y-129643390D01*
X176674700Y-129643412D01*
X176681089Y-129662234D01*
X176706167Y-129722777D01*
X176706178Y-129722802D01*
X176714956Y-129740601D01*
X176714960Y-129740609D01*
X176714963Y-129740615D01*
X176714966Y-129740620D01*
X176747738Y-129797382D01*
X176758783Y-129813912D01*
X176758788Y-129813918D01*
X176758789Y-129813920D01*
X176798671Y-129865897D01*
X176811795Y-129880862D01*
X176858138Y-129927205D01*
X176873102Y-129940328D01*
X176919934Y-129976262D01*
X176925088Y-129980217D01*
X176941618Y-129991262D01*
X176998380Y-130024034D01*
X176998389Y-130024038D01*
X176998390Y-130024039D01*
X176998398Y-130024043D01*
X177016197Y-130032821D01*
X177016204Y-130032824D01*
X177016214Y-130032829D01*
X177050359Y-130046972D01*
X177076765Y-130057910D01*
X177076768Y-130057911D01*
X177095595Y-130064302D01*
X177095604Y-130064304D01*
X177095609Y-130064306D01*
X177158886Y-130081261D01*
X177158895Y-130081263D01*
X177158906Y-130081266D01*
X177158918Y-130081268D01*
X177158925Y-130081270D01*
X177165689Y-130082615D01*
X177178406Y-130085145D01*
X177243388Y-130093700D01*
X177251341Y-130094221D01*
X177279227Y-130101692D01*
X177302134Y-130119269D01*
X177316572Y-130144273D01*
X177320500Y-130168062D01*
X177320500Y-132355937D01*
X177314867Y-132384256D01*
X177298826Y-132408263D01*
X177274819Y-132424304D01*
X177251345Y-132429778D01*
X177244145Y-132430250D01*
X177243388Y-132430300D01*
X177243386Y-132430300D01*
X177178418Y-132438853D01*
X177178393Y-132438857D01*
X177158925Y-132442729D01*
X177158886Y-132442738D01*
X177095609Y-132459693D01*
X177095587Y-132459700D01*
X177076765Y-132466089D01*
X177016222Y-132491167D01*
X177016197Y-132491178D01*
X176998398Y-132499956D01*
X176998390Y-132499960D01*
X176968442Y-132517251D01*
X176941618Y-132532738D01*
X176925722Y-132543359D01*
X176925079Y-132543789D01*
X176873102Y-132583671D01*
X176858138Y-132596795D01*
X176811795Y-132643138D01*
X176798671Y-132658102D01*
X176758789Y-132710079D01*
X176758783Y-132710088D01*
X176747738Y-132726618D01*
X176734431Y-132749664D01*
X176714960Y-132783390D01*
X176714956Y-132783398D01*
X176706178Y-132801197D01*
X176706167Y-132801222D01*
X176681089Y-132861765D01*
X176674700Y-132880587D01*
X176674693Y-132880609D01*
X176657738Y-132943886D01*
X176657729Y-132943925D01*
X176653857Y-132963393D01*
X176653853Y-132963418D01*
X176645301Y-133028376D01*
X176644000Y-133048227D01*
X176644000Y-133484943D01*
X176638367Y-133513262D01*
X176622326Y-133537269D01*
X176598319Y-133553310D01*
X176570000Y-133558943D01*
X176541681Y-133553310D01*
X176517674Y-133537269D01*
X176218151Y-133237746D01*
X175901248Y-132920843D01*
X175901244Y-132920840D01*
X175898433Y-132918533D01*
X175898809Y-132918074D01*
X175881827Y-132901088D01*
X175873286Y-132883764D01*
X175870912Y-132876769D01*
X175854578Y-132837336D01*
X175845829Y-132816214D01*
X175837034Y-132798380D01*
X175804262Y-132741618D01*
X175793217Y-132725088D01*
X175774424Y-132700596D01*
X175753328Y-132673102D01*
X175740205Y-132658138D01*
X175693862Y-132611795D01*
X175678897Y-132598671D01*
X175626920Y-132558789D01*
X175626918Y-132558788D01*
X175626912Y-132558783D01*
X175610382Y-132547738D01*
X175553620Y-132514966D01*
X175553615Y-132514963D01*
X175553609Y-132514960D01*
X175553601Y-132514956D01*
X175535802Y-132506178D01*
X175535777Y-132506167D01*
X175475234Y-132481089D01*
X175456412Y-132474700D01*
X175456390Y-132474693D01*
X175393113Y-132457738D01*
X175393074Y-132457729D01*
X175373606Y-132453857D01*
X175373581Y-132453853D01*
X175308612Y-132445300D01*
X175300655Y-132444778D01*
X175272766Y-132437303D01*
X175249860Y-132419724D01*
X175235425Y-132394718D01*
X175231500Y-132370937D01*
X175231500Y-130153062D01*
X175237133Y-130124743D01*
X175253174Y-130100736D01*
X175277181Y-130084695D01*
X175300657Y-130079221D01*
X175308612Y-130078700D01*
X175373594Y-130070145D01*
X175393094Y-130066266D01*
X175425810Y-130057500D01*
X175456390Y-130049306D01*
X175456389Y-130049306D01*
X175456405Y-130049302D01*
X175475232Y-130042911D01*
X175535786Y-130017829D01*
X175553620Y-130009034D01*
X175610382Y-129976262D01*
X175626912Y-129965217D01*
X175676448Y-129927207D01*
X175678897Y-129925328D01*
X175678899Y-129925325D01*
X175678911Y-129925317D01*
X175693860Y-129912207D01*
X175740207Y-129865860D01*
X175753317Y-129850911D01*
X175793217Y-129798912D01*
X175804262Y-129782382D01*
X175837034Y-129725620D01*
X175845829Y-129707786D01*
X175870911Y-129647232D01*
X175877302Y-129628405D01*
X175894266Y-129565094D01*
X175898145Y-129545594D01*
X175906700Y-129480612D01*
X175908000Y-129460772D01*
X175908000Y-128928000D01*
X175906453Y-128906368D01*
X175898669Y-128879860D01*
X175894265Y-128864860D01*
X175894264Y-128864859D01*
X175894264Y-128864857D01*
X175870874Y-128828461D01*
X175870873Y-128828460D01*
X175870872Y-128828458D01*
X175868116Y-128825277D01*
X175853829Y-128800187D01*
X175850231Y-128771538D01*
X175857870Y-128743694D01*
X175868118Y-128728357D01*
X175874662Y-128720805D01*
X175883871Y-128710177D01*
X175901843Y-128670823D01*
X175902229Y-128668142D01*
X175907999Y-128628004D01*
X175908000Y-128628000D01*
X175908000Y-128095228D01*
X175906700Y-128075388D01*
X175898145Y-128010406D01*
X175894266Y-127990906D01*
X175888086Y-127967843D01*
X175877306Y-127927609D01*
X175877299Y-127927587D01*
X175870908Y-127908760D01*
X175868053Y-127901868D01*
X175862417Y-127873550D01*
X175868047Y-127845231D01*
X175884086Y-127821222D01*
X175908092Y-127805179D01*
X175924839Y-127800454D01*
X175982930Y-127791254D01*
X175982932Y-127791253D01*
X175982934Y-127791253D01*
X176011036Y-127782121D01*
X176039142Y-127772989D01*
X176091805Y-127746156D01*
X176139622Y-127711415D01*
X176181415Y-127669622D01*
X176216156Y-127621805D01*
X176242989Y-127569142D01*
X176252121Y-127541036D01*
X176261253Y-127512934D01*
X176263167Y-127500853D01*
X176270500Y-127454552D01*
X176270500Y-127395448D01*
X176261254Y-127337070D01*
X176261253Y-127337068D01*
X176261253Y-127337065D01*
X176248354Y-127297368D01*
X176244960Y-127268695D01*
X176252797Y-127240906D01*
X176270672Y-127218231D01*
X176295864Y-127204122D01*
X176318732Y-127200500D01*
X178742000Y-127200500D01*
X178770319Y-127206133D01*
G37*
G04 #@! TD.AperFunction*
G04 #@! TA.AperFunction,Conductor*
G36*
X178500959Y-128686939D02*
G01*
X178509679Y-128687597D01*
X178514880Y-128690225D01*
X178520554Y-128691565D01*
X178528647Y-128697183D01*
X178535448Y-128700620D01*
X178538186Y-128703804D01*
X178542154Y-128706559D01*
X178794326Y-128958731D01*
X178810367Y-128982738D01*
X178816000Y-129011057D01*
X178816000Y-133101943D01*
X178810367Y-133130262D01*
X178794326Y-133154269D01*
X178770319Y-133170310D01*
X178742000Y-133175943D01*
X178713681Y-133170310D01*
X178689674Y-133154269D01*
X178578778Y-133043373D01*
X178441248Y-132905843D01*
X178441244Y-132905840D01*
X178438433Y-132903533D01*
X178438809Y-132903074D01*
X178421827Y-132886088D01*
X178413286Y-132868764D01*
X178410912Y-132861769D01*
X178392035Y-132816197D01*
X178385829Y-132801214D01*
X178384440Y-132798398D01*
X178377043Y-132783398D01*
X178377039Y-132783390D01*
X178377038Y-132783389D01*
X178377034Y-132783380D01*
X178344262Y-132726618D01*
X178333217Y-132710088D01*
X178325934Y-132700596D01*
X178293328Y-132658102D01*
X178280205Y-132643138D01*
X178233862Y-132596795D01*
X178218897Y-132583671D01*
X178166920Y-132543789D01*
X178166918Y-132543788D01*
X178166912Y-132543783D01*
X178150382Y-132532738D01*
X178093620Y-132499966D01*
X178093615Y-132499963D01*
X178093609Y-132499960D01*
X178093601Y-132499956D01*
X178075802Y-132491178D01*
X178075777Y-132491167D01*
X178015234Y-132466089D01*
X177996412Y-132459700D01*
X177996390Y-132459693D01*
X177933113Y-132442738D01*
X177933074Y-132442729D01*
X177913606Y-132438857D01*
X177913581Y-132438853D01*
X177848612Y-132430300D01*
X177840655Y-132429778D01*
X177812766Y-132422303D01*
X177789860Y-132404724D01*
X177775425Y-132379718D01*
X177771500Y-132355937D01*
X177771500Y-130168062D01*
X177777133Y-130139743D01*
X177793174Y-130115736D01*
X177817181Y-130099695D01*
X177840657Y-130094221D01*
X177848612Y-130093700D01*
X177913594Y-130085145D01*
X177933094Y-130081266D01*
X177974599Y-130070145D01*
X177996390Y-130064306D01*
X177996389Y-130064306D01*
X177996405Y-130064302D01*
X178015232Y-130057911D01*
X178075786Y-130032829D01*
X178093620Y-130024034D01*
X178150382Y-129991262D01*
X178166912Y-129980217D01*
X178218911Y-129940317D01*
X178233860Y-129927207D01*
X178280207Y-129880860D01*
X178293317Y-129865911D01*
X178333217Y-129813912D01*
X178344262Y-129797382D01*
X178377034Y-129740620D01*
X178385829Y-129722786D01*
X178410911Y-129662232D01*
X178417302Y-129643405D01*
X178434266Y-129580094D01*
X178438145Y-129560594D01*
X178446700Y-129495612D01*
X178448000Y-129475772D01*
X178448000Y-128943000D01*
X178446453Y-128921368D01*
X178434264Y-128879857D01*
X178410874Y-128843461D01*
X178410873Y-128843460D01*
X178410872Y-128843458D01*
X178408116Y-128840277D01*
X178404440Y-128833821D01*
X178399597Y-128828189D01*
X178397365Y-128821397D01*
X178393829Y-128815187D01*
X178392903Y-128807818D01*
X178390584Y-128800759D01*
X178391121Y-128793628D01*
X178390231Y-128786538D01*
X178392195Y-128779377D01*
X178392754Y-128771967D01*
X178395768Y-128766353D01*
X178397870Y-128758694D01*
X178405777Y-128746198D01*
X178406908Y-128744752D01*
X178423871Y-128725177D01*
X178426159Y-128720166D01*
X178431563Y-128713265D01*
X178435982Y-128709465D01*
X178439391Y-128704736D01*
X178446828Y-128700138D01*
X178453457Y-128694440D01*
X178458992Y-128692621D01*
X178463952Y-128689556D01*
X178472582Y-128688155D01*
X178480887Y-128685427D01*
X178486701Y-128685865D01*
X178492453Y-128684932D01*
X178500959Y-128686939D01*
G37*
G04 #@! TD.AperFunction*
G04 #@! TA.AperFunction,Conductor*
G36*
X142400519Y-143036065D02*
G01*
X142425601Y-143096619D01*
X142458373Y-143153381D01*
X142498273Y-143205380D01*
X142544620Y-143251727D01*
X142596619Y-143291627D01*
X142653381Y-143324399D01*
X142713935Y-143349481D01*
X142745590Y-143357963D01*
X142205728Y-143897826D01*
X142181721Y-143913867D01*
X142153402Y-143919500D01*
X141732000Y-143919500D01*
X141732000Y-143595266D01*
X141735332Y-143601038D01*
X141735339Y-143601049D01*
X141760072Y-143636371D01*
X142392036Y-143004407D01*
X142400519Y-143036065D01*
G37*
G04 #@! TD.AperFunction*
G04 #@! TA.AperFunction,Conductor*
G36*
X143989926Y-143636372D02*
G01*
X144014656Y-143601054D01*
X144014666Y-143601039D01*
X144018000Y-143595264D01*
X144018000Y-143919500D01*
X143596598Y-143919500D01*
X143568279Y-143913867D01*
X143544272Y-143897826D01*
X143004409Y-143357963D01*
X143036065Y-143349481D01*
X143096619Y-143324399D01*
X143153381Y-143291627D01*
X143205380Y-143251727D01*
X143251727Y-143205380D01*
X143291627Y-143153381D01*
X143324399Y-143096619D01*
X143349481Y-143036065D01*
X143357963Y-143004409D01*
X143989926Y-143636372D01*
G37*
G04 #@! TD.AperFunction*
G04 #@! TA.AperFunction,Conductor*
G36*
X142148957Y-141735334D02*
G01*
X142113626Y-141760072D01*
X142745590Y-142392036D01*
X142713935Y-142400519D01*
X142653381Y-142425601D01*
X142596619Y-142458373D01*
X142544620Y-142498273D01*
X142498273Y-142544620D01*
X142458373Y-142596619D01*
X142425601Y-142653381D01*
X142400519Y-142713935D01*
X142392036Y-142745590D01*
X141760072Y-142113626D01*
X141735337Y-142148953D01*
X141732000Y-142154733D01*
X141732000Y-141732000D01*
X142154732Y-141732000D01*
X142148957Y-141735334D01*
G37*
G04 #@! TD.AperFunction*
G04 #@! TA.AperFunction,Conductor*
G36*
X144018000Y-142154734D02*
G01*
X144014668Y-142148963D01*
X144014655Y-142148943D01*
X143989926Y-142113626D01*
X143357962Y-142745589D01*
X143349481Y-142713935D01*
X143324399Y-142653381D01*
X143291627Y-142596619D01*
X143251727Y-142544620D01*
X143205380Y-142498273D01*
X143153381Y-142458373D01*
X143096619Y-142425601D01*
X143036065Y-142400519D01*
X143004407Y-142392036D01*
X143636372Y-141760072D01*
X143601049Y-141735339D01*
X143601038Y-141735332D01*
X143595267Y-141732000D01*
X144018000Y-141732000D01*
X144018000Y-142154734D01*
G37*
G04 #@! TD.AperFunction*
M02*
