G04 #@! TF.GenerationSoftware,KiCad,Pcbnew,9.0.2*
G04 #@! TF.CreationDate,2025-06-13T02:03:27-04:00*
G04 #@! TF.ProjectId,farlock3,6661726c-6f63-46b3-932e-6b696361645f,v01*
G04 #@! TF.SameCoordinates,Original*
G04 #@! TF.FileFunction,Legend,Top*
G04 #@! TF.FilePolarity,Positive*
%FSLAX46Y46*%
G04 Gerber Fmt 4.6, Leading zero omitted, Abs format (unit mm)*
G04 Created by KiCad (PCBNEW 9.0.2) date 2025-06-13 02:03:27*
%MOMM*%
%LPD*%
G01*
G04 APERTURE LIST*
G04 Aperture macros list*
%AMRoundRect*
0 Rectangle with rounded corners*
0 $1 Rounding radius*
0 $2 $3 $4 $5 $6 $7 $8 $9 X,Y pos of 4 corners*
0 Add a 4 corners polygon primitive as box body*
4,1,4,$2,$3,$4,$5,$6,$7,$8,$9,$2,$3,0*
0 Add four circle primitives for the rounded corners*
1,1,$1+$1,$2,$3*
1,1,$1+$1,$4,$5*
1,1,$1+$1,$6,$7*
1,1,$1+$1,$8,$9*
0 Add four rect primitives between the rounded corners*
20,1,$1+$1,$2,$3,$4,$5,0*
20,1,$1+$1,$4,$5,$6,$7,0*
20,1,$1+$1,$6,$7,$8,$9,0*
20,1,$1+$1,$8,$9,$2,$3,0*%
G04 Aperture macros list end*
%ADD10C,0.150000*%
%ADD11C,0.120000*%
%ADD12RoundRect,0.225000X0.225000X0.250000X-0.225000X0.250000X-0.225000X-0.250000X0.225000X-0.250000X0*%
%ADD13RoundRect,0.200000X-0.275000X0.200000X-0.275000X-0.200000X0.275000X-0.200000X0.275000X0.200000X0*%
%ADD14R,0.400000X0.600000*%
%ADD15R,0.600000X0.400000*%
%ADD16RoundRect,0.218750X0.218750X0.256250X-0.218750X0.256250X-0.218750X-0.256250X0.218750X-0.256250X0*%
%ADD17RoundRect,0.200000X0.275000X-0.200000X0.275000X0.200000X-0.275000X0.200000X-0.275000X-0.200000X0*%
%ADD18RoundRect,0.225000X0.250000X-0.225000X0.250000X0.225000X-0.250000X0.225000X-0.250000X-0.225000X0*%
%ADD19RoundRect,0.200000X0.200000X0.275000X-0.200000X0.275000X-0.200000X-0.275000X0.200000X-0.275000X0*%
%ADD20RoundRect,0.225000X-0.225000X-0.250000X0.225000X-0.250000X0.225000X0.250000X-0.225000X0.250000X0*%
%ADD21RoundRect,0.250000X-0.420000X-0.945000X0.420000X-0.945000X0.420000X0.945000X-0.420000X0.945000X0*%
%ADD22R,1.750000X0.450000*%
%ADD23RoundRect,0.150000X0.150000X-0.512500X0.150000X0.512500X-0.150000X0.512500X-0.150000X-0.512500X0*%
%ADD24R,1.800000X1.000000*%
%ADD25RoundRect,0.317500X-0.317500X0.382500X-0.317500X-0.382500X0.317500X-0.382500X0.317500X0.382500X0*%
%ADD26R,4.720000X4.800000*%
%ADD27R,1.000000X0.800000*%
%ADD28C,0.900000*%
%ADD29R,0.700000X1.500000*%
%ADD30R,1.400000X0.400000*%
%ADD31R,1.900000X2.300000*%
%ADD32R,1.900000X1.800000*%
%ADD33R,1.700000X1.700000*%
%ADD34C,1.700000*%
%ADD35RoundRect,0.225000X-0.250000X0.225000X-0.250000X-0.225000X0.250000X-0.225000X0.250000X0.225000X0*%
%ADD36RoundRect,0.125000X0.262500X0.125000X-0.262500X0.125000X-0.262500X-0.125000X0.262500X-0.125000X0*%
%ADD37R,3.400000X4.000000*%
G04 APERTURE END LIST*
D10*
X162933333Y-134259580D02*
X162885714Y-134307200D01*
X162885714Y-134307200D02*
X162742857Y-134354819D01*
X162742857Y-134354819D02*
X162647619Y-134354819D01*
X162647619Y-134354819D02*
X162504762Y-134307200D01*
X162504762Y-134307200D02*
X162409524Y-134211961D01*
X162409524Y-134211961D02*
X162361905Y-134116723D01*
X162361905Y-134116723D02*
X162314286Y-133926247D01*
X162314286Y-133926247D02*
X162314286Y-133783390D01*
X162314286Y-133783390D02*
X162361905Y-133592914D01*
X162361905Y-133592914D02*
X162409524Y-133497676D01*
X162409524Y-133497676D02*
X162504762Y-133402438D01*
X162504762Y-133402438D02*
X162647619Y-133354819D01*
X162647619Y-133354819D02*
X162742857Y-133354819D01*
X162742857Y-133354819D02*
X162885714Y-133402438D01*
X162885714Y-133402438D02*
X162933333Y-133450057D01*
X163314286Y-133450057D02*
X163361905Y-133402438D01*
X163361905Y-133402438D02*
X163457143Y-133354819D01*
X163457143Y-133354819D02*
X163695238Y-133354819D01*
X163695238Y-133354819D02*
X163790476Y-133402438D01*
X163790476Y-133402438D02*
X163838095Y-133450057D01*
X163838095Y-133450057D02*
X163885714Y-133545295D01*
X163885714Y-133545295D02*
X163885714Y-133640533D01*
X163885714Y-133640533D02*
X163838095Y-133783390D01*
X163838095Y-133783390D02*
X163266667Y-134354819D01*
X163266667Y-134354819D02*
X163885714Y-134354819D01*
X169433333Y-142054819D02*
X169100000Y-141578628D01*
X168861905Y-142054819D02*
X168861905Y-141054819D01*
X168861905Y-141054819D02*
X169242857Y-141054819D01*
X169242857Y-141054819D02*
X169338095Y-141102438D01*
X169338095Y-141102438D02*
X169385714Y-141150057D01*
X169385714Y-141150057D02*
X169433333Y-141245295D01*
X169433333Y-141245295D02*
X169433333Y-141388152D01*
X169433333Y-141388152D02*
X169385714Y-141483390D01*
X169385714Y-141483390D02*
X169338095Y-141531009D01*
X169338095Y-141531009D02*
X169242857Y-141578628D01*
X169242857Y-141578628D02*
X168861905Y-141578628D01*
X170004762Y-141483390D02*
X169909524Y-141435771D01*
X169909524Y-141435771D02*
X169861905Y-141388152D01*
X169861905Y-141388152D02*
X169814286Y-141292914D01*
X169814286Y-141292914D02*
X169814286Y-141245295D01*
X169814286Y-141245295D02*
X169861905Y-141150057D01*
X169861905Y-141150057D02*
X169909524Y-141102438D01*
X169909524Y-141102438D02*
X170004762Y-141054819D01*
X170004762Y-141054819D02*
X170195238Y-141054819D01*
X170195238Y-141054819D02*
X170290476Y-141102438D01*
X170290476Y-141102438D02*
X170338095Y-141150057D01*
X170338095Y-141150057D02*
X170385714Y-141245295D01*
X170385714Y-141245295D02*
X170385714Y-141292914D01*
X170385714Y-141292914D02*
X170338095Y-141388152D01*
X170338095Y-141388152D02*
X170290476Y-141435771D01*
X170290476Y-141435771D02*
X170195238Y-141483390D01*
X170195238Y-141483390D02*
X170004762Y-141483390D01*
X170004762Y-141483390D02*
X169909524Y-141531009D01*
X169909524Y-141531009D02*
X169861905Y-141578628D01*
X169861905Y-141578628D02*
X169814286Y-141673866D01*
X169814286Y-141673866D02*
X169814286Y-141864342D01*
X169814286Y-141864342D02*
X169861905Y-141959580D01*
X169861905Y-141959580D02*
X169909524Y-142007200D01*
X169909524Y-142007200D02*
X170004762Y-142054819D01*
X170004762Y-142054819D02*
X170195238Y-142054819D01*
X170195238Y-142054819D02*
X170290476Y-142007200D01*
X170290476Y-142007200D02*
X170338095Y-141959580D01*
X170338095Y-141959580D02*
X170385714Y-141864342D01*
X170385714Y-141864342D02*
X170385714Y-141673866D01*
X170385714Y-141673866D02*
X170338095Y-141578628D01*
X170338095Y-141578628D02*
X170290476Y-141531009D01*
X170290476Y-141531009D02*
X170195238Y-141483390D01*
X180078142Y-139159580D02*
X180030523Y-139207200D01*
X180030523Y-139207200D02*
X179887666Y-139254819D01*
X179887666Y-139254819D02*
X179792428Y-139254819D01*
X179792428Y-139254819D02*
X179649571Y-139207200D01*
X179649571Y-139207200D02*
X179554333Y-139111961D01*
X179554333Y-139111961D02*
X179506714Y-139016723D01*
X179506714Y-139016723D02*
X179459095Y-138826247D01*
X179459095Y-138826247D02*
X179459095Y-138683390D01*
X179459095Y-138683390D02*
X179506714Y-138492914D01*
X179506714Y-138492914D02*
X179554333Y-138397676D01*
X179554333Y-138397676D02*
X179649571Y-138302438D01*
X179649571Y-138302438D02*
X179792428Y-138254819D01*
X179792428Y-138254819D02*
X179887666Y-138254819D01*
X179887666Y-138254819D02*
X180030523Y-138302438D01*
X180030523Y-138302438D02*
X180078142Y-138350057D01*
X181030523Y-139254819D02*
X180459095Y-139254819D01*
X180744809Y-139254819D02*
X180744809Y-138254819D01*
X180744809Y-138254819D02*
X180649571Y-138397676D01*
X180649571Y-138397676D02*
X180554333Y-138492914D01*
X180554333Y-138492914D02*
X180459095Y-138540533D01*
X181887666Y-138588152D02*
X181887666Y-139254819D01*
X181649571Y-138207200D02*
X181411476Y-138921485D01*
X181411476Y-138921485D02*
X182030523Y-138921485D01*
X174904819Y-133211904D02*
X175714342Y-133211904D01*
X175714342Y-133211904D02*
X175809580Y-133164285D01*
X175809580Y-133164285D02*
X175857200Y-133116666D01*
X175857200Y-133116666D02*
X175904819Y-133021428D01*
X175904819Y-133021428D02*
X175904819Y-132830952D01*
X175904819Y-132830952D02*
X175857200Y-132735714D01*
X175857200Y-132735714D02*
X175809580Y-132688095D01*
X175809580Y-132688095D02*
X175714342Y-132640476D01*
X175714342Y-132640476D02*
X174904819Y-132640476D01*
X175904819Y-131640476D02*
X175904819Y-132211904D01*
X175904819Y-131926190D02*
X174904819Y-131926190D01*
X174904819Y-131926190D02*
X175047676Y-132021428D01*
X175047676Y-132021428D02*
X175142914Y-132116666D01*
X175142914Y-132116666D02*
X175190533Y-132211904D01*
X149561905Y-140804819D02*
X149561905Y-139804819D01*
X149561905Y-139804819D02*
X149800000Y-139804819D01*
X149800000Y-139804819D02*
X149942857Y-139852438D01*
X149942857Y-139852438D02*
X150038095Y-139947676D01*
X150038095Y-139947676D02*
X150085714Y-140042914D01*
X150085714Y-140042914D02*
X150133333Y-140233390D01*
X150133333Y-140233390D02*
X150133333Y-140376247D01*
X150133333Y-140376247D02*
X150085714Y-140566723D01*
X150085714Y-140566723D02*
X150038095Y-140661961D01*
X150038095Y-140661961D02*
X149942857Y-140757200D01*
X149942857Y-140757200D02*
X149800000Y-140804819D01*
X149800000Y-140804819D02*
X149561905Y-140804819D01*
X151038095Y-139804819D02*
X150561905Y-139804819D01*
X150561905Y-139804819D02*
X150514286Y-140281009D01*
X150514286Y-140281009D02*
X150561905Y-140233390D01*
X150561905Y-140233390D02*
X150657143Y-140185771D01*
X150657143Y-140185771D02*
X150895238Y-140185771D01*
X150895238Y-140185771D02*
X150990476Y-140233390D01*
X150990476Y-140233390D02*
X151038095Y-140281009D01*
X151038095Y-140281009D02*
X151085714Y-140376247D01*
X151085714Y-140376247D02*
X151085714Y-140614342D01*
X151085714Y-140614342D02*
X151038095Y-140709580D01*
X151038095Y-140709580D02*
X150990476Y-140757200D01*
X150990476Y-140757200D02*
X150895238Y-140804819D01*
X150895238Y-140804819D02*
X150657143Y-140804819D01*
X150657143Y-140804819D02*
X150561905Y-140757200D01*
X150561905Y-140757200D02*
X150514286Y-140709580D01*
X163155333Y-141904819D02*
X162822000Y-141428628D01*
X162583905Y-141904819D02*
X162583905Y-140904819D01*
X162583905Y-140904819D02*
X162964857Y-140904819D01*
X162964857Y-140904819D02*
X163060095Y-140952438D01*
X163060095Y-140952438D02*
X163107714Y-141000057D01*
X163107714Y-141000057D02*
X163155333Y-141095295D01*
X163155333Y-141095295D02*
X163155333Y-141238152D01*
X163155333Y-141238152D02*
X163107714Y-141333390D01*
X163107714Y-141333390D02*
X163060095Y-141381009D01*
X163060095Y-141381009D02*
X162964857Y-141428628D01*
X162964857Y-141428628D02*
X162583905Y-141428628D01*
X163488667Y-140904819D02*
X164155333Y-140904819D01*
X164155333Y-140904819D02*
X163726762Y-141904819D01*
X155209580Y-137216666D02*
X155257200Y-137264285D01*
X155257200Y-137264285D02*
X155304819Y-137407142D01*
X155304819Y-137407142D02*
X155304819Y-137502380D01*
X155304819Y-137502380D02*
X155257200Y-137645237D01*
X155257200Y-137645237D02*
X155161961Y-137740475D01*
X155161961Y-137740475D02*
X155066723Y-137788094D01*
X155066723Y-137788094D02*
X154876247Y-137835713D01*
X154876247Y-137835713D02*
X154733390Y-137835713D01*
X154733390Y-137835713D02*
X154542914Y-137788094D01*
X154542914Y-137788094D02*
X154447676Y-137740475D01*
X154447676Y-137740475D02*
X154352438Y-137645237D01*
X154352438Y-137645237D02*
X154304819Y-137502380D01*
X154304819Y-137502380D02*
X154304819Y-137407142D01*
X154304819Y-137407142D02*
X154352438Y-137264285D01*
X154352438Y-137264285D02*
X154400057Y-137216666D01*
X154304819Y-136359523D02*
X154304819Y-136549999D01*
X154304819Y-136549999D02*
X154352438Y-136645237D01*
X154352438Y-136645237D02*
X154400057Y-136692856D01*
X154400057Y-136692856D02*
X154542914Y-136788094D01*
X154542914Y-136788094D02*
X154733390Y-136835713D01*
X154733390Y-136835713D02*
X155114342Y-136835713D01*
X155114342Y-136835713D02*
X155209580Y-136788094D01*
X155209580Y-136788094D02*
X155257200Y-136740475D01*
X155257200Y-136740475D02*
X155304819Y-136645237D01*
X155304819Y-136645237D02*
X155304819Y-136454761D01*
X155304819Y-136454761D02*
X155257200Y-136359523D01*
X155257200Y-136359523D02*
X155209580Y-136311904D01*
X155209580Y-136311904D02*
X155114342Y-136264285D01*
X155114342Y-136264285D02*
X154876247Y-136264285D01*
X154876247Y-136264285D02*
X154781009Y-136311904D01*
X154781009Y-136311904D02*
X154733390Y-136359523D01*
X154733390Y-136359523D02*
X154685771Y-136454761D01*
X154685771Y-136454761D02*
X154685771Y-136645237D01*
X154685771Y-136645237D02*
X154733390Y-136740475D01*
X154733390Y-136740475D02*
X154781009Y-136788094D01*
X154781009Y-136788094D02*
X154876247Y-136835713D01*
X150133333Y-137604819D02*
X149800000Y-137128628D01*
X149561905Y-137604819D02*
X149561905Y-136604819D01*
X149561905Y-136604819D02*
X149942857Y-136604819D01*
X149942857Y-136604819D02*
X150038095Y-136652438D01*
X150038095Y-136652438D02*
X150085714Y-136700057D01*
X150085714Y-136700057D02*
X150133333Y-136795295D01*
X150133333Y-136795295D02*
X150133333Y-136938152D01*
X150133333Y-136938152D02*
X150085714Y-137033390D01*
X150085714Y-137033390D02*
X150038095Y-137081009D01*
X150038095Y-137081009D02*
X149942857Y-137128628D01*
X149942857Y-137128628D02*
X149561905Y-137128628D01*
X150466667Y-136604819D02*
X151085714Y-136604819D01*
X151085714Y-136604819D02*
X150752381Y-136985771D01*
X150752381Y-136985771D02*
X150895238Y-136985771D01*
X150895238Y-136985771D02*
X150990476Y-137033390D01*
X150990476Y-137033390D02*
X151038095Y-137081009D01*
X151038095Y-137081009D02*
X151085714Y-137176247D01*
X151085714Y-137176247D02*
X151085714Y-137414342D01*
X151085714Y-137414342D02*
X151038095Y-137509580D01*
X151038095Y-137509580D02*
X150990476Y-137557200D01*
X150990476Y-137557200D02*
X150895238Y-137604819D01*
X150895238Y-137604819D02*
X150609524Y-137604819D01*
X150609524Y-137604819D02*
X150514286Y-137557200D01*
X150514286Y-137557200D02*
X150466667Y-137509580D01*
X147883333Y-137459580D02*
X147835714Y-137507200D01*
X147835714Y-137507200D02*
X147692857Y-137554819D01*
X147692857Y-137554819D02*
X147597619Y-137554819D01*
X147597619Y-137554819D02*
X147454762Y-137507200D01*
X147454762Y-137507200D02*
X147359524Y-137411961D01*
X147359524Y-137411961D02*
X147311905Y-137316723D01*
X147311905Y-137316723D02*
X147264286Y-137126247D01*
X147264286Y-137126247D02*
X147264286Y-136983390D01*
X147264286Y-136983390D02*
X147311905Y-136792914D01*
X147311905Y-136792914D02*
X147359524Y-136697676D01*
X147359524Y-136697676D02*
X147454762Y-136602438D01*
X147454762Y-136602438D02*
X147597619Y-136554819D01*
X147597619Y-136554819D02*
X147692857Y-136554819D01*
X147692857Y-136554819D02*
X147835714Y-136602438D01*
X147835714Y-136602438D02*
X147883333Y-136650057D01*
X148359524Y-137554819D02*
X148550000Y-137554819D01*
X148550000Y-137554819D02*
X148645238Y-137507200D01*
X148645238Y-137507200D02*
X148692857Y-137459580D01*
X148692857Y-137459580D02*
X148788095Y-137316723D01*
X148788095Y-137316723D02*
X148835714Y-137126247D01*
X148835714Y-137126247D02*
X148835714Y-136745295D01*
X148835714Y-136745295D02*
X148788095Y-136650057D01*
X148788095Y-136650057D02*
X148740476Y-136602438D01*
X148740476Y-136602438D02*
X148645238Y-136554819D01*
X148645238Y-136554819D02*
X148454762Y-136554819D01*
X148454762Y-136554819D02*
X148359524Y-136602438D01*
X148359524Y-136602438D02*
X148311905Y-136650057D01*
X148311905Y-136650057D02*
X148264286Y-136745295D01*
X148264286Y-136745295D02*
X148264286Y-136983390D01*
X148264286Y-136983390D02*
X148311905Y-137078628D01*
X148311905Y-137078628D02*
X148359524Y-137126247D01*
X148359524Y-137126247D02*
X148454762Y-137173866D01*
X148454762Y-137173866D02*
X148645238Y-137173866D01*
X148645238Y-137173866D02*
X148740476Y-137126247D01*
X148740476Y-137126247D02*
X148788095Y-137078628D01*
X148788095Y-137078628D02*
X148835714Y-136983390D01*
X166759580Y-140215857D02*
X166807200Y-140263476D01*
X166807200Y-140263476D02*
X166854819Y-140406333D01*
X166854819Y-140406333D02*
X166854819Y-140501571D01*
X166854819Y-140501571D02*
X166807200Y-140644428D01*
X166807200Y-140644428D02*
X166711961Y-140739666D01*
X166711961Y-140739666D02*
X166616723Y-140787285D01*
X166616723Y-140787285D02*
X166426247Y-140834904D01*
X166426247Y-140834904D02*
X166283390Y-140834904D01*
X166283390Y-140834904D02*
X166092914Y-140787285D01*
X166092914Y-140787285D02*
X165997676Y-140739666D01*
X165997676Y-140739666D02*
X165902438Y-140644428D01*
X165902438Y-140644428D02*
X165854819Y-140501571D01*
X165854819Y-140501571D02*
X165854819Y-140406333D01*
X165854819Y-140406333D02*
X165902438Y-140263476D01*
X165902438Y-140263476D02*
X165950057Y-140215857D01*
X166854819Y-139263476D02*
X166854819Y-139834904D01*
X166854819Y-139549190D02*
X165854819Y-139549190D01*
X165854819Y-139549190D02*
X165997676Y-139644428D01*
X165997676Y-139644428D02*
X166092914Y-139739666D01*
X166092914Y-139739666D02*
X166140533Y-139834904D01*
X165854819Y-138358714D02*
X165854819Y-138834904D01*
X165854819Y-138834904D02*
X166331009Y-138882523D01*
X166331009Y-138882523D02*
X166283390Y-138834904D01*
X166283390Y-138834904D02*
X166235771Y-138739666D01*
X166235771Y-138739666D02*
X166235771Y-138501571D01*
X166235771Y-138501571D02*
X166283390Y-138406333D01*
X166283390Y-138406333D02*
X166331009Y-138358714D01*
X166331009Y-138358714D02*
X166426247Y-138311095D01*
X166426247Y-138311095D02*
X166664342Y-138311095D01*
X166664342Y-138311095D02*
X166759580Y-138358714D01*
X166759580Y-138358714D02*
X166807200Y-138406333D01*
X166807200Y-138406333D02*
X166854819Y-138501571D01*
X166854819Y-138501571D02*
X166854819Y-138739666D01*
X166854819Y-138739666D02*
X166807200Y-138834904D01*
X166807200Y-138834904D02*
X166759580Y-138882523D01*
X149611905Y-136154819D02*
X149611905Y-135154819D01*
X149611905Y-135154819D02*
X149850000Y-135154819D01*
X149850000Y-135154819D02*
X149992857Y-135202438D01*
X149992857Y-135202438D02*
X150088095Y-135297676D01*
X150088095Y-135297676D02*
X150135714Y-135392914D01*
X150135714Y-135392914D02*
X150183333Y-135583390D01*
X150183333Y-135583390D02*
X150183333Y-135726247D01*
X150183333Y-135726247D02*
X150135714Y-135916723D01*
X150135714Y-135916723D02*
X150088095Y-136011961D01*
X150088095Y-136011961D02*
X149992857Y-136107200D01*
X149992857Y-136107200D02*
X149850000Y-136154819D01*
X149850000Y-136154819D02*
X149611905Y-136154819D01*
X151135714Y-136154819D02*
X150564286Y-136154819D01*
X150850000Y-136154819D02*
X150850000Y-135154819D01*
X150850000Y-135154819D02*
X150754762Y-135297676D01*
X150754762Y-135297676D02*
X150659524Y-135392914D01*
X150659524Y-135392914D02*
X150564286Y-135440533D01*
X143343333Y-139805580D02*
X143295714Y-139853200D01*
X143295714Y-139853200D02*
X143152857Y-139900819D01*
X143152857Y-139900819D02*
X143057619Y-139900819D01*
X143057619Y-139900819D02*
X142914762Y-139853200D01*
X142914762Y-139853200D02*
X142819524Y-139757961D01*
X142819524Y-139757961D02*
X142771905Y-139662723D01*
X142771905Y-139662723D02*
X142724286Y-139472247D01*
X142724286Y-139472247D02*
X142724286Y-139329390D01*
X142724286Y-139329390D02*
X142771905Y-139138914D01*
X142771905Y-139138914D02*
X142819524Y-139043676D01*
X142819524Y-139043676D02*
X142914762Y-138948438D01*
X142914762Y-138948438D02*
X143057619Y-138900819D01*
X143057619Y-138900819D02*
X143152857Y-138900819D01*
X143152857Y-138900819D02*
X143295714Y-138948438D01*
X143295714Y-138948438D02*
X143343333Y-138996057D01*
X143914762Y-139329390D02*
X143819524Y-139281771D01*
X143819524Y-139281771D02*
X143771905Y-139234152D01*
X143771905Y-139234152D02*
X143724286Y-139138914D01*
X143724286Y-139138914D02*
X143724286Y-139091295D01*
X143724286Y-139091295D02*
X143771905Y-138996057D01*
X143771905Y-138996057D02*
X143819524Y-138948438D01*
X143819524Y-138948438D02*
X143914762Y-138900819D01*
X143914762Y-138900819D02*
X144105238Y-138900819D01*
X144105238Y-138900819D02*
X144200476Y-138948438D01*
X144200476Y-138948438D02*
X144248095Y-138996057D01*
X144248095Y-138996057D02*
X144295714Y-139091295D01*
X144295714Y-139091295D02*
X144295714Y-139138914D01*
X144295714Y-139138914D02*
X144248095Y-139234152D01*
X144248095Y-139234152D02*
X144200476Y-139281771D01*
X144200476Y-139281771D02*
X144105238Y-139329390D01*
X144105238Y-139329390D02*
X143914762Y-139329390D01*
X143914762Y-139329390D02*
X143819524Y-139377009D01*
X143819524Y-139377009D02*
X143771905Y-139424628D01*
X143771905Y-139424628D02*
X143724286Y-139519866D01*
X143724286Y-139519866D02*
X143724286Y-139710342D01*
X143724286Y-139710342D02*
X143771905Y-139805580D01*
X143771905Y-139805580D02*
X143819524Y-139853200D01*
X143819524Y-139853200D02*
X143914762Y-139900819D01*
X143914762Y-139900819D02*
X144105238Y-139900819D01*
X144105238Y-139900819D02*
X144200476Y-139853200D01*
X144200476Y-139853200D02*
X144248095Y-139805580D01*
X144248095Y-139805580D02*
X144295714Y-139710342D01*
X144295714Y-139710342D02*
X144295714Y-139519866D01*
X144295714Y-139519866D02*
X144248095Y-139424628D01*
X144248095Y-139424628D02*
X144200476Y-139377009D01*
X144200476Y-139377009D02*
X144105238Y-139329390D01*
X164983333Y-141904819D02*
X164650000Y-141428628D01*
X164411905Y-141904819D02*
X164411905Y-140904819D01*
X164411905Y-140904819D02*
X164792857Y-140904819D01*
X164792857Y-140904819D02*
X164888095Y-140952438D01*
X164888095Y-140952438D02*
X164935714Y-141000057D01*
X164935714Y-141000057D02*
X164983333Y-141095295D01*
X164983333Y-141095295D02*
X164983333Y-141238152D01*
X164983333Y-141238152D02*
X164935714Y-141333390D01*
X164935714Y-141333390D02*
X164888095Y-141381009D01*
X164888095Y-141381009D02*
X164792857Y-141428628D01*
X164792857Y-141428628D02*
X164411905Y-141428628D01*
X165459524Y-141904819D02*
X165650000Y-141904819D01*
X165650000Y-141904819D02*
X165745238Y-141857200D01*
X165745238Y-141857200D02*
X165792857Y-141809580D01*
X165792857Y-141809580D02*
X165888095Y-141666723D01*
X165888095Y-141666723D02*
X165935714Y-141476247D01*
X165935714Y-141476247D02*
X165935714Y-141095295D01*
X165935714Y-141095295D02*
X165888095Y-141000057D01*
X165888095Y-141000057D02*
X165840476Y-140952438D01*
X165840476Y-140952438D02*
X165745238Y-140904819D01*
X165745238Y-140904819D02*
X165554762Y-140904819D01*
X165554762Y-140904819D02*
X165459524Y-140952438D01*
X165459524Y-140952438D02*
X165411905Y-141000057D01*
X165411905Y-141000057D02*
X165364286Y-141095295D01*
X165364286Y-141095295D02*
X165364286Y-141333390D01*
X165364286Y-141333390D02*
X165411905Y-141428628D01*
X165411905Y-141428628D02*
X165459524Y-141476247D01*
X165459524Y-141476247D02*
X165554762Y-141523866D01*
X165554762Y-141523866D02*
X165745238Y-141523866D01*
X165745238Y-141523866D02*
X165840476Y-141476247D01*
X165840476Y-141476247D02*
X165888095Y-141428628D01*
X165888095Y-141428628D02*
X165935714Y-141333390D01*
X136866333Y-144472819D02*
X136533000Y-143996628D01*
X136294905Y-144472819D02*
X136294905Y-143472819D01*
X136294905Y-143472819D02*
X136675857Y-143472819D01*
X136675857Y-143472819D02*
X136771095Y-143520438D01*
X136771095Y-143520438D02*
X136818714Y-143568057D01*
X136818714Y-143568057D02*
X136866333Y-143663295D01*
X136866333Y-143663295D02*
X136866333Y-143806152D01*
X136866333Y-143806152D02*
X136818714Y-143901390D01*
X136818714Y-143901390D02*
X136771095Y-143949009D01*
X136771095Y-143949009D02*
X136675857Y-143996628D01*
X136675857Y-143996628D02*
X136294905Y-143996628D01*
X137247286Y-143568057D02*
X137294905Y-143520438D01*
X137294905Y-143520438D02*
X137390143Y-143472819D01*
X137390143Y-143472819D02*
X137628238Y-143472819D01*
X137628238Y-143472819D02*
X137723476Y-143520438D01*
X137723476Y-143520438D02*
X137771095Y-143568057D01*
X137771095Y-143568057D02*
X137818714Y-143663295D01*
X137818714Y-143663295D02*
X137818714Y-143758533D01*
X137818714Y-143758533D02*
X137771095Y-143901390D01*
X137771095Y-143901390D02*
X137199667Y-144472819D01*
X137199667Y-144472819D02*
X137818714Y-144472819D01*
X143510095Y-132604819D02*
X143510095Y-133414342D01*
X143510095Y-133414342D02*
X143557714Y-133509580D01*
X143557714Y-133509580D02*
X143605333Y-133557200D01*
X143605333Y-133557200D02*
X143700571Y-133604819D01*
X143700571Y-133604819D02*
X143891047Y-133604819D01*
X143891047Y-133604819D02*
X143986285Y-133557200D01*
X143986285Y-133557200D02*
X144033904Y-133509580D01*
X144033904Y-133509580D02*
X144081523Y-133414342D01*
X144081523Y-133414342D02*
X144081523Y-132604819D01*
X144462476Y-132604819D02*
X145081523Y-132604819D01*
X145081523Y-132604819D02*
X144748190Y-132985771D01*
X144748190Y-132985771D02*
X144891047Y-132985771D01*
X144891047Y-132985771D02*
X144986285Y-133033390D01*
X144986285Y-133033390D02*
X145033904Y-133081009D01*
X145033904Y-133081009D02*
X145081523Y-133176247D01*
X145081523Y-133176247D02*
X145081523Y-133414342D01*
X145081523Y-133414342D02*
X145033904Y-133509580D01*
X145033904Y-133509580D02*
X144986285Y-133557200D01*
X144986285Y-133557200D02*
X144891047Y-133604819D01*
X144891047Y-133604819D02*
X144605333Y-133604819D01*
X144605333Y-133604819D02*
X144510095Y-133557200D01*
X144510095Y-133557200D02*
X144462476Y-133509580D01*
X162933333Y-135759580D02*
X162885714Y-135807200D01*
X162885714Y-135807200D02*
X162742857Y-135854819D01*
X162742857Y-135854819D02*
X162647619Y-135854819D01*
X162647619Y-135854819D02*
X162504762Y-135807200D01*
X162504762Y-135807200D02*
X162409524Y-135711961D01*
X162409524Y-135711961D02*
X162361905Y-135616723D01*
X162361905Y-135616723D02*
X162314286Y-135426247D01*
X162314286Y-135426247D02*
X162314286Y-135283390D01*
X162314286Y-135283390D02*
X162361905Y-135092914D01*
X162361905Y-135092914D02*
X162409524Y-134997676D01*
X162409524Y-134997676D02*
X162504762Y-134902438D01*
X162504762Y-134902438D02*
X162647619Y-134854819D01*
X162647619Y-134854819D02*
X162742857Y-134854819D01*
X162742857Y-134854819D02*
X162885714Y-134902438D01*
X162885714Y-134902438D02*
X162933333Y-134950057D01*
X163266667Y-134854819D02*
X163885714Y-134854819D01*
X163885714Y-134854819D02*
X163552381Y-135235771D01*
X163552381Y-135235771D02*
X163695238Y-135235771D01*
X163695238Y-135235771D02*
X163790476Y-135283390D01*
X163790476Y-135283390D02*
X163838095Y-135331009D01*
X163838095Y-135331009D02*
X163885714Y-135426247D01*
X163885714Y-135426247D02*
X163885714Y-135664342D01*
X163885714Y-135664342D02*
X163838095Y-135759580D01*
X163838095Y-135759580D02*
X163790476Y-135807200D01*
X163790476Y-135807200D02*
X163695238Y-135854819D01*
X163695238Y-135854819D02*
X163409524Y-135854819D01*
X163409524Y-135854819D02*
X163314286Y-135807200D01*
X163314286Y-135807200D02*
X163266667Y-135759580D01*
X150554819Y-130911904D02*
X151364342Y-130911904D01*
X151364342Y-130911904D02*
X151459580Y-130864285D01*
X151459580Y-130864285D02*
X151507200Y-130816666D01*
X151507200Y-130816666D02*
X151554819Y-130721428D01*
X151554819Y-130721428D02*
X151554819Y-130530952D01*
X151554819Y-130530952D02*
X151507200Y-130435714D01*
X151507200Y-130435714D02*
X151459580Y-130388095D01*
X151459580Y-130388095D02*
X151364342Y-130340476D01*
X151364342Y-130340476D02*
X150554819Y-130340476D01*
X150888152Y-129435714D02*
X151554819Y-129435714D01*
X150507200Y-129673809D02*
X151221485Y-129911904D01*
X151221485Y-129911904D02*
X151221485Y-129292857D01*
X163523809Y-127678628D02*
X163523809Y-128154819D01*
X163190476Y-127154819D02*
X163523809Y-127678628D01*
X163523809Y-127678628D02*
X163857142Y-127154819D01*
X164714285Y-128154819D02*
X164142857Y-128154819D01*
X164428571Y-128154819D02*
X164428571Y-127154819D01*
X164428571Y-127154819D02*
X164333333Y-127297676D01*
X164333333Y-127297676D02*
X164238095Y-127392914D01*
X164238095Y-127392914D02*
X164142857Y-127440533D01*
X135278905Y-128343819D02*
X135278905Y-127343819D01*
X135278905Y-127343819D02*
X135517000Y-127343819D01*
X135517000Y-127343819D02*
X135659857Y-127391438D01*
X135659857Y-127391438D02*
X135755095Y-127486676D01*
X135755095Y-127486676D02*
X135802714Y-127581914D01*
X135802714Y-127581914D02*
X135850333Y-127772390D01*
X135850333Y-127772390D02*
X135850333Y-127915247D01*
X135850333Y-127915247D02*
X135802714Y-128105723D01*
X135802714Y-128105723D02*
X135755095Y-128200961D01*
X135755095Y-128200961D02*
X135659857Y-128296200D01*
X135659857Y-128296200D02*
X135517000Y-128343819D01*
X135517000Y-128343819D02*
X135278905Y-128343819D01*
X136231286Y-127439057D02*
X136278905Y-127391438D01*
X136278905Y-127391438D02*
X136374143Y-127343819D01*
X136374143Y-127343819D02*
X136612238Y-127343819D01*
X136612238Y-127343819D02*
X136707476Y-127391438D01*
X136707476Y-127391438D02*
X136755095Y-127439057D01*
X136755095Y-127439057D02*
X136802714Y-127534295D01*
X136802714Y-127534295D02*
X136802714Y-127629533D01*
X136802714Y-127629533D02*
X136755095Y-127772390D01*
X136755095Y-127772390D02*
X136183667Y-128343819D01*
X136183667Y-128343819D02*
X136802714Y-128343819D01*
X153107142Y-133509580D02*
X153059523Y-133557200D01*
X153059523Y-133557200D02*
X152916666Y-133604819D01*
X152916666Y-133604819D02*
X152821428Y-133604819D01*
X152821428Y-133604819D02*
X152678571Y-133557200D01*
X152678571Y-133557200D02*
X152583333Y-133461961D01*
X152583333Y-133461961D02*
X152535714Y-133366723D01*
X152535714Y-133366723D02*
X152488095Y-133176247D01*
X152488095Y-133176247D02*
X152488095Y-133033390D01*
X152488095Y-133033390D02*
X152535714Y-132842914D01*
X152535714Y-132842914D02*
X152583333Y-132747676D01*
X152583333Y-132747676D02*
X152678571Y-132652438D01*
X152678571Y-132652438D02*
X152821428Y-132604819D01*
X152821428Y-132604819D02*
X152916666Y-132604819D01*
X152916666Y-132604819D02*
X153059523Y-132652438D01*
X153059523Y-132652438D02*
X153107142Y-132700057D01*
X154059523Y-133604819D02*
X153488095Y-133604819D01*
X153773809Y-133604819D02*
X153773809Y-132604819D01*
X153773809Y-132604819D02*
X153678571Y-132747676D01*
X153678571Y-132747676D02*
X153583333Y-132842914D01*
X153583333Y-132842914D02*
X153488095Y-132890533D01*
X154678571Y-132604819D02*
X154773809Y-132604819D01*
X154773809Y-132604819D02*
X154869047Y-132652438D01*
X154869047Y-132652438D02*
X154916666Y-132700057D01*
X154916666Y-132700057D02*
X154964285Y-132795295D01*
X154964285Y-132795295D02*
X155011904Y-132985771D01*
X155011904Y-132985771D02*
X155011904Y-133223866D01*
X155011904Y-133223866D02*
X154964285Y-133414342D01*
X154964285Y-133414342D02*
X154916666Y-133509580D01*
X154916666Y-133509580D02*
X154869047Y-133557200D01*
X154869047Y-133557200D02*
X154773809Y-133604819D01*
X154773809Y-133604819D02*
X154678571Y-133604819D01*
X154678571Y-133604819D02*
X154583333Y-133557200D01*
X154583333Y-133557200D02*
X154535714Y-133509580D01*
X154535714Y-133509580D02*
X154488095Y-133414342D01*
X154488095Y-133414342D02*
X154440476Y-133223866D01*
X154440476Y-133223866D02*
X154440476Y-132985771D01*
X154440476Y-132985771D02*
X154488095Y-132795295D01*
X154488095Y-132795295D02*
X154535714Y-132700057D01*
X154535714Y-132700057D02*
X154583333Y-132652438D01*
X154583333Y-132652438D02*
X154678571Y-132604819D01*
X152985714Y-128259580D02*
X152947618Y-128307200D01*
X152947618Y-128307200D02*
X152833333Y-128354819D01*
X152833333Y-128354819D02*
X152757142Y-128354819D01*
X152757142Y-128354819D02*
X152642856Y-128307200D01*
X152642856Y-128307200D02*
X152566666Y-128211961D01*
X152566666Y-128211961D02*
X152528571Y-128116723D01*
X152528571Y-128116723D02*
X152490475Y-127926247D01*
X152490475Y-127926247D02*
X152490475Y-127783390D01*
X152490475Y-127783390D02*
X152528571Y-127592914D01*
X152528571Y-127592914D02*
X152566666Y-127497676D01*
X152566666Y-127497676D02*
X152642856Y-127402438D01*
X152642856Y-127402438D02*
X152757142Y-127354819D01*
X152757142Y-127354819D02*
X152833333Y-127354819D01*
X152833333Y-127354819D02*
X152947618Y-127402438D01*
X152947618Y-127402438D02*
X152985714Y-127450057D01*
X153747618Y-128354819D02*
X153290475Y-128354819D01*
X153519047Y-128354819D02*
X153519047Y-127354819D01*
X153519047Y-127354819D02*
X153442856Y-127497676D01*
X153442856Y-127497676D02*
X153366666Y-127592914D01*
X153366666Y-127592914D02*
X153290475Y-127640533D01*
X154509523Y-128354819D02*
X154052380Y-128354819D01*
X154280952Y-128354819D02*
X154280952Y-127354819D01*
X154280952Y-127354819D02*
X154204761Y-127497676D01*
X154204761Y-127497676D02*
X154128571Y-127592914D01*
X154128571Y-127592914D02*
X154052380Y-127640533D01*
X157716667Y-132857200D02*
X157859524Y-132904819D01*
X157859524Y-132904819D02*
X158097619Y-132904819D01*
X158097619Y-132904819D02*
X158192857Y-132857200D01*
X158192857Y-132857200D02*
X158240476Y-132809580D01*
X158240476Y-132809580D02*
X158288095Y-132714342D01*
X158288095Y-132714342D02*
X158288095Y-132619104D01*
X158288095Y-132619104D02*
X158240476Y-132523866D01*
X158240476Y-132523866D02*
X158192857Y-132476247D01*
X158192857Y-132476247D02*
X158097619Y-132428628D01*
X158097619Y-132428628D02*
X157907143Y-132381009D01*
X157907143Y-132381009D02*
X157811905Y-132333390D01*
X157811905Y-132333390D02*
X157764286Y-132285771D01*
X157764286Y-132285771D02*
X157716667Y-132190533D01*
X157716667Y-132190533D02*
X157716667Y-132095295D01*
X157716667Y-132095295D02*
X157764286Y-132000057D01*
X157764286Y-132000057D02*
X157811905Y-131952438D01*
X157811905Y-131952438D02*
X157907143Y-131904819D01*
X157907143Y-131904819D02*
X158145238Y-131904819D01*
X158145238Y-131904819D02*
X158288095Y-131952438D01*
X158621429Y-131904819D02*
X158859524Y-132904819D01*
X158859524Y-132904819D02*
X159050000Y-132190533D01*
X159050000Y-132190533D02*
X159240476Y-132904819D01*
X159240476Y-132904819D02*
X159478572Y-131904819D01*
X160383333Y-132904819D02*
X159811905Y-132904819D01*
X160097619Y-132904819D02*
X160097619Y-131904819D01*
X160097619Y-131904819D02*
X160002381Y-132047676D01*
X160002381Y-132047676D02*
X159907143Y-132142914D01*
X159907143Y-132142914D02*
X159811905Y-132190533D01*
X150133333Y-139104819D02*
X149800000Y-138628628D01*
X149561905Y-139104819D02*
X149561905Y-138104819D01*
X149561905Y-138104819D02*
X149942857Y-138104819D01*
X149942857Y-138104819D02*
X150038095Y-138152438D01*
X150038095Y-138152438D02*
X150085714Y-138200057D01*
X150085714Y-138200057D02*
X150133333Y-138295295D01*
X150133333Y-138295295D02*
X150133333Y-138438152D01*
X150133333Y-138438152D02*
X150085714Y-138533390D01*
X150085714Y-138533390D02*
X150038095Y-138581009D01*
X150038095Y-138581009D02*
X149942857Y-138628628D01*
X149942857Y-138628628D02*
X149561905Y-138628628D01*
X150990476Y-138104819D02*
X150800000Y-138104819D01*
X150800000Y-138104819D02*
X150704762Y-138152438D01*
X150704762Y-138152438D02*
X150657143Y-138200057D01*
X150657143Y-138200057D02*
X150561905Y-138342914D01*
X150561905Y-138342914D02*
X150514286Y-138533390D01*
X150514286Y-138533390D02*
X150514286Y-138914342D01*
X150514286Y-138914342D02*
X150561905Y-139009580D01*
X150561905Y-139009580D02*
X150609524Y-139057200D01*
X150609524Y-139057200D02*
X150704762Y-139104819D01*
X150704762Y-139104819D02*
X150895238Y-139104819D01*
X150895238Y-139104819D02*
X150990476Y-139057200D01*
X150990476Y-139057200D02*
X151038095Y-139009580D01*
X151038095Y-139009580D02*
X151085714Y-138914342D01*
X151085714Y-138914342D02*
X151085714Y-138676247D01*
X151085714Y-138676247D02*
X151038095Y-138581009D01*
X151038095Y-138581009D02*
X150990476Y-138533390D01*
X150990476Y-138533390D02*
X150895238Y-138485771D01*
X150895238Y-138485771D02*
X150704762Y-138485771D01*
X150704762Y-138485771D02*
X150609524Y-138533390D01*
X150609524Y-138533390D02*
X150561905Y-138581009D01*
X150561905Y-138581009D02*
X150514286Y-138676247D01*
X139983333Y-137459580D02*
X139935714Y-137507200D01*
X139935714Y-137507200D02*
X139792857Y-137554819D01*
X139792857Y-137554819D02*
X139697619Y-137554819D01*
X139697619Y-137554819D02*
X139554762Y-137507200D01*
X139554762Y-137507200D02*
X139459524Y-137411961D01*
X139459524Y-137411961D02*
X139411905Y-137316723D01*
X139411905Y-137316723D02*
X139364286Y-137126247D01*
X139364286Y-137126247D02*
X139364286Y-136983390D01*
X139364286Y-136983390D02*
X139411905Y-136792914D01*
X139411905Y-136792914D02*
X139459524Y-136697676D01*
X139459524Y-136697676D02*
X139554762Y-136602438D01*
X139554762Y-136602438D02*
X139697619Y-136554819D01*
X139697619Y-136554819D02*
X139792857Y-136554819D01*
X139792857Y-136554819D02*
X139935714Y-136602438D01*
X139935714Y-136602438D02*
X139983333Y-136650057D01*
X140316667Y-136554819D02*
X140983333Y-136554819D01*
X140983333Y-136554819D02*
X140554762Y-137554819D01*
X162983333Y-137259580D02*
X162935714Y-137307200D01*
X162935714Y-137307200D02*
X162792857Y-137354819D01*
X162792857Y-137354819D02*
X162697619Y-137354819D01*
X162697619Y-137354819D02*
X162554762Y-137307200D01*
X162554762Y-137307200D02*
X162459524Y-137211961D01*
X162459524Y-137211961D02*
X162411905Y-137116723D01*
X162411905Y-137116723D02*
X162364286Y-136926247D01*
X162364286Y-136926247D02*
X162364286Y-136783390D01*
X162364286Y-136783390D02*
X162411905Y-136592914D01*
X162411905Y-136592914D02*
X162459524Y-136497676D01*
X162459524Y-136497676D02*
X162554762Y-136402438D01*
X162554762Y-136402438D02*
X162697619Y-136354819D01*
X162697619Y-136354819D02*
X162792857Y-136354819D01*
X162792857Y-136354819D02*
X162935714Y-136402438D01*
X162935714Y-136402438D02*
X162983333Y-136450057D01*
X163935714Y-137354819D02*
X163364286Y-137354819D01*
X163650000Y-137354819D02*
X163650000Y-136354819D01*
X163650000Y-136354819D02*
X163554762Y-136497676D01*
X163554762Y-136497676D02*
X163459524Y-136592914D01*
X163459524Y-136592914D02*
X163364286Y-136640533D01*
X162783333Y-132809580D02*
X162735714Y-132857200D01*
X162735714Y-132857200D02*
X162592857Y-132904819D01*
X162592857Y-132904819D02*
X162497619Y-132904819D01*
X162497619Y-132904819D02*
X162354762Y-132857200D01*
X162354762Y-132857200D02*
X162259524Y-132761961D01*
X162259524Y-132761961D02*
X162211905Y-132666723D01*
X162211905Y-132666723D02*
X162164286Y-132476247D01*
X162164286Y-132476247D02*
X162164286Y-132333390D01*
X162164286Y-132333390D02*
X162211905Y-132142914D01*
X162211905Y-132142914D02*
X162259524Y-132047676D01*
X162259524Y-132047676D02*
X162354762Y-131952438D01*
X162354762Y-131952438D02*
X162497619Y-131904819D01*
X162497619Y-131904819D02*
X162592857Y-131904819D01*
X162592857Y-131904819D02*
X162735714Y-131952438D01*
X162735714Y-131952438D02*
X162783333Y-132000057D01*
X163688095Y-131904819D02*
X163211905Y-131904819D01*
X163211905Y-131904819D02*
X163164286Y-132381009D01*
X163164286Y-132381009D02*
X163211905Y-132333390D01*
X163211905Y-132333390D02*
X163307143Y-132285771D01*
X163307143Y-132285771D02*
X163545238Y-132285771D01*
X163545238Y-132285771D02*
X163640476Y-132333390D01*
X163640476Y-132333390D02*
X163688095Y-132381009D01*
X163688095Y-132381009D02*
X163735714Y-132476247D01*
X163735714Y-132476247D02*
X163735714Y-132714342D01*
X163735714Y-132714342D02*
X163688095Y-132809580D01*
X163688095Y-132809580D02*
X163640476Y-132857200D01*
X163640476Y-132857200D02*
X163545238Y-132904819D01*
X163545238Y-132904819D02*
X163307143Y-132904819D01*
X163307143Y-132904819D02*
X163211905Y-132857200D01*
X163211905Y-132857200D02*
X163164286Y-132809580D01*
X174189580Y-140228857D02*
X174237200Y-140276476D01*
X174237200Y-140276476D02*
X174284819Y-140419333D01*
X174284819Y-140419333D02*
X174284819Y-140514571D01*
X174284819Y-140514571D02*
X174237200Y-140657428D01*
X174237200Y-140657428D02*
X174141961Y-140752666D01*
X174141961Y-140752666D02*
X174046723Y-140800285D01*
X174046723Y-140800285D02*
X173856247Y-140847904D01*
X173856247Y-140847904D02*
X173713390Y-140847904D01*
X173713390Y-140847904D02*
X173522914Y-140800285D01*
X173522914Y-140800285D02*
X173427676Y-140752666D01*
X173427676Y-140752666D02*
X173332438Y-140657428D01*
X173332438Y-140657428D02*
X173284819Y-140514571D01*
X173284819Y-140514571D02*
X173284819Y-140419333D01*
X173284819Y-140419333D02*
X173332438Y-140276476D01*
X173332438Y-140276476D02*
X173380057Y-140228857D01*
X174284819Y-139276476D02*
X174284819Y-139847904D01*
X174284819Y-139562190D02*
X173284819Y-139562190D01*
X173284819Y-139562190D02*
X173427676Y-139657428D01*
X173427676Y-139657428D02*
X173522914Y-139752666D01*
X173522914Y-139752666D02*
X173570533Y-139847904D01*
X173284819Y-138943142D02*
X173284819Y-138276476D01*
X173284819Y-138276476D02*
X174284819Y-138705047D01*
X133270666Y-143345819D02*
X133270666Y-144060104D01*
X133270666Y-144060104D02*
X133223047Y-144202961D01*
X133223047Y-144202961D02*
X133127809Y-144298200D01*
X133127809Y-144298200D02*
X132984952Y-144345819D01*
X132984952Y-144345819D02*
X132889714Y-144345819D01*
X134270666Y-144345819D02*
X133699238Y-144345819D01*
X133984952Y-144345819D02*
X133984952Y-143345819D01*
X133984952Y-143345819D02*
X133889714Y-143488676D01*
X133889714Y-143488676D02*
X133794476Y-143583914D01*
X133794476Y-143583914D02*
X133699238Y-143631533D01*
X139066666Y-140104819D02*
X139066666Y-140819104D01*
X139066666Y-140819104D02*
X139019047Y-140961961D01*
X139019047Y-140961961D02*
X138923809Y-141057200D01*
X138923809Y-141057200D02*
X138780952Y-141104819D01*
X138780952Y-141104819D02*
X138685714Y-141104819D01*
X139495238Y-140200057D02*
X139542857Y-140152438D01*
X139542857Y-140152438D02*
X139638095Y-140104819D01*
X139638095Y-140104819D02*
X139876190Y-140104819D01*
X139876190Y-140104819D02*
X139971428Y-140152438D01*
X139971428Y-140152438D02*
X140019047Y-140200057D01*
X140019047Y-140200057D02*
X140066666Y-140295295D01*
X140066666Y-140295295D02*
X140066666Y-140390533D01*
X140066666Y-140390533D02*
X140019047Y-140533390D01*
X140019047Y-140533390D02*
X139447619Y-141104819D01*
X139447619Y-141104819D02*
X140066666Y-141104819D01*
X178559580Y-140228857D02*
X178607200Y-140276476D01*
X178607200Y-140276476D02*
X178654819Y-140419333D01*
X178654819Y-140419333D02*
X178654819Y-140514571D01*
X178654819Y-140514571D02*
X178607200Y-140657428D01*
X178607200Y-140657428D02*
X178511961Y-140752666D01*
X178511961Y-140752666D02*
X178416723Y-140800285D01*
X178416723Y-140800285D02*
X178226247Y-140847904D01*
X178226247Y-140847904D02*
X178083390Y-140847904D01*
X178083390Y-140847904D02*
X177892914Y-140800285D01*
X177892914Y-140800285D02*
X177797676Y-140752666D01*
X177797676Y-140752666D02*
X177702438Y-140657428D01*
X177702438Y-140657428D02*
X177654819Y-140514571D01*
X177654819Y-140514571D02*
X177654819Y-140419333D01*
X177654819Y-140419333D02*
X177702438Y-140276476D01*
X177702438Y-140276476D02*
X177750057Y-140228857D01*
X178654819Y-139276476D02*
X178654819Y-139847904D01*
X178654819Y-139562190D02*
X177654819Y-139562190D01*
X177654819Y-139562190D02*
X177797676Y-139657428D01*
X177797676Y-139657428D02*
X177892914Y-139752666D01*
X177892914Y-139752666D02*
X177940533Y-139847904D01*
X177654819Y-138419333D02*
X177654819Y-138609809D01*
X177654819Y-138609809D02*
X177702438Y-138705047D01*
X177702438Y-138705047D02*
X177750057Y-138752666D01*
X177750057Y-138752666D02*
X177892914Y-138847904D01*
X177892914Y-138847904D02*
X178083390Y-138895523D01*
X178083390Y-138895523D02*
X178464342Y-138895523D01*
X178464342Y-138895523D02*
X178559580Y-138847904D01*
X178559580Y-138847904D02*
X178607200Y-138800285D01*
X178607200Y-138800285D02*
X178654819Y-138705047D01*
X178654819Y-138705047D02*
X178654819Y-138514571D01*
X178654819Y-138514571D02*
X178607200Y-138419333D01*
X178607200Y-138419333D02*
X178559580Y-138371714D01*
X178559580Y-138371714D02*
X178464342Y-138324095D01*
X178464342Y-138324095D02*
X178226247Y-138324095D01*
X178226247Y-138324095D02*
X178131009Y-138371714D01*
X178131009Y-138371714D02*
X178083390Y-138419333D01*
X178083390Y-138419333D02*
X178035771Y-138514571D01*
X178035771Y-138514571D02*
X178035771Y-138705047D01*
X178035771Y-138705047D02*
X178083390Y-138800285D01*
X178083390Y-138800285D02*
X178131009Y-138847904D01*
X178131009Y-138847904D02*
X178226247Y-138895523D01*
X163009580Y-129666666D02*
X163057200Y-129714285D01*
X163057200Y-129714285D02*
X163104819Y-129857142D01*
X163104819Y-129857142D02*
X163104819Y-129952380D01*
X163104819Y-129952380D02*
X163057200Y-130095237D01*
X163057200Y-130095237D02*
X162961961Y-130190475D01*
X162961961Y-130190475D02*
X162866723Y-130238094D01*
X162866723Y-130238094D02*
X162676247Y-130285713D01*
X162676247Y-130285713D02*
X162533390Y-130285713D01*
X162533390Y-130285713D02*
X162342914Y-130238094D01*
X162342914Y-130238094D02*
X162247676Y-130190475D01*
X162247676Y-130190475D02*
X162152438Y-130095237D01*
X162152438Y-130095237D02*
X162104819Y-129952380D01*
X162104819Y-129952380D02*
X162104819Y-129857142D01*
X162104819Y-129857142D02*
X162152438Y-129714285D01*
X162152438Y-129714285D02*
X162200057Y-129666666D01*
X162438152Y-128809523D02*
X163104819Y-128809523D01*
X162057200Y-129047618D02*
X162771485Y-129285713D01*
X162771485Y-129285713D02*
X162771485Y-128666666D01*
X158259095Y-134354819D02*
X158259095Y-135164342D01*
X158259095Y-135164342D02*
X158306714Y-135259580D01*
X158306714Y-135259580D02*
X158354333Y-135307200D01*
X158354333Y-135307200D02*
X158449571Y-135354819D01*
X158449571Y-135354819D02*
X158640047Y-135354819D01*
X158640047Y-135354819D02*
X158735285Y-135307200D01*
X158735285Y-135307200D02*
X158782904Y-135259580D01*
X158782904Y-135259580D02*
X158830523Y-135164342D01*
X158830523Y-135164342D02*
X158830523Y-134354819D01*
X159259095Y-134450057D02*
X159306714Y-134402438D01*
X159306714Y-134402438D02*
X159401952Y-134354819D01*
X159401952Y-134354819D02*
X159640047Y-134354819D01*
X159640047Y-134354819D02*
X159735285Y-134402438D01*
X159735285Y-134402438D02*
X159782904Y-134450057D01*
X159782904Y-134450057D02*
X159830523Y-134545295D01*
X159830523Y-134545295D02*
X159830523Y-134640533D01*
X159830523Y-134640533D02*
X159782904Y-134783390D01*
X159782904Y-134783390D02*
X159211476Y-135354819D01*
X159211476Y-135354819D02*
X159830523Y-135354819D01*
X136866333Y-141584819D02*
X136533000Y-141108628D01*
X136294905Y-141584819D02*
X136294905Y-140584819D01*
X136294905Y-140584819D02*
X136675857Y-140584819D01*
X136675857Y-140584819D02*
X136771095Y-140632438D01*
X136771095Y-140632438D02*
X136818714Y-140680057D01*
X136818714Y-140680057D02*
X136866333Y-140775295D01*
X136866333Y-140775295D02*
X136866333Y-140918152D01*
X136866333Y-140918152D02*
X136818714Y-141013390D01*
X136818714Y-141013390D02*
X136771095Y-141061009D01*
X136771095Y-141061009D02*
X136675857Y-141108628D01*
X136675857Y-141108628D02*
X136294905Y-141108628D01*
X137818714Y-141584819D02*
X137247286Y-141584819D01*
X137533000Y-141584819D02*
X137533000Y-140584819D01*
X137533000Y-140584819D02*
X137437762Y-140727676D01*
X137437762Y-140727676D02*
X137342524Y-140822914D01*
X137342524Y-140822914D02*
X137247286Y-140870533D01*
D11*
X165481580Y-133348000D02*
X165200420Y-133348000D01*
X165481580Y-134368000D02*
X165200420Y-134368000D01*
X166990500Y-139335742D02*
X166990500Y-139810258D01*
X168035500Y-139335742D02*
X168035500Y-139810258D01*
X180861580Y-139571000D02*
X180580420Y-139571000D01*
X180861580Y-140591000D02*
X180580420Y-140591000D01*
X167106000Y-127158000D02*
X182756000Y-127158000D01*
X167106000Y-137958000D02*
X167106000Y-127158000D01*
X167106000Y-137958000D02*
X182756000Y-137958000D01*
X151689500Y-141070000D02*
X153974500Y-141070000D01*
X153974500Y-139600000D02*
X151689500Y-139600000D01*
X153974500Y-141070000D02*
X153974500Y-139600000D01*
X162799500Y-139810258D02*
X162799500Y-139335742D01*
X163844500Y-139810258D02*
X163844500Y-139335742D01*
X154303000Y-139599580D02*
X154303000Y-139318420D01*
X155323000Y-139599580D02*
X155323000Y-139318420D01*
X152764258Y-136637500D02*
X152289742Y-136637500D01*
X152764258Y-137682500D02*
X152289742Y-137682500D01*
X145642420Y-136523000D02*
X145923580Y-136523000D01*
X145642420Y-137543000D02*
X145923580Y-137543000D01*
X168908000Y-139726580D02*
X168908000Y-139445420D01*
X169928000Y-139726580D02*
X169928000Y-139445420D01*
X151727000Y-136371000D02*
X154012000Y-136371000D01*
X154012000Y-134901000D02*
X151727000Y-134901000D01*
X154012000Y-136371000D02*
X154012000Y-134901000D01*
X141040000Y-137936000D02*
X141040000Y-140956000D01*
X141040000Y-140956000D02*
X145260000Y-140956000D01*
X145260000Y-137936000D02*
X141040000Y-137936000D01*
X164450500Y-139271742D02*
X164450500Y-139746258D01*
X165495500Y-139271742D02*
X165495500Y-139746258D01*
X137270258Y-141971500D02*
X136795742Y-141971500D01*
X137270258Y-143016500D02*
X136795742Y-143016500D01*
D10*
X141397000Y-127374000D02*
X141397000Y-127599000D01*
X141397000Y-136024000D02*
X141397000Y-135799000D01*
X147147000Y-127374000D02*
X141397000Y-127374000D01*
X147147000Y-127374000D02*
X147147000Y-127599000D01*
X147147000Y-136024000D02*
X141397000Y-136024000D01*
X147147000Y-136024000D02*
X147147000Y-135799000D01*
D11*
X147887000Y-136104000D02*
X147407000Y-136104000D01*
X147647000Y-135774000D01*
X147887000Y-136104000D01*
G36*
X147887000Y-136104000D02*
G01*
X147407000Y-136104000D01*
X147647000Y-135774000D01*
X147887000Y-136104000D01*
G37*
X165494580Y-134872000D02*
X165213420Y-134872000D01*
X165494580Y-135892000D02*
X165213420Y-135892000D01*
X149443000Y-130683000D02*
X149443000Y-129883000D01*
X149443000Y-130683000D02*
X149443000Y-131483000D01*
X152563000Y-130683000D02*
X152563000Y-129883000D01*
X152563000Y-130683000D02*
X152563000Y-131483000D01*
X149493000Y-131983000D02*
X149163000Y-132223000D01*
X149163000Y-131743000D01*
X149493000Y-131983000D01*
G36*
X149493000Y-131983000D02*
G01*
X149163000Y-132223000D01*
X149163000Y-131743000D01*
X149493000Y-131983000D01*
G37*
X164860000Y-130215000D02*
X164860000Y-128865000D01*
X166610000Y-130215000D02*
X166610000Y-128865000D01*
X136474000Y-128931000D02*
X135204000Y-128931000D01*
X136764000Y-133451000D02*
X135204000Y-133451000D01*
X136764000Y-133451000D02*
X136764000Y-133211000D01*
X137074000Y-129191000D02*
X136794000Y-129191000D01*
X136794000Y-128911000D01*
X137074000Y-129191000D01*
G36*
X137074000Y-129191000D02*
G01*
X136794000Y-129191000D01*
X136794000Y-128911000D01*
X137074000Y-129191000D01*
G37*
X150915420Y-132972500D02*
X151196580Y-132972500D01*
X150915420Y-133992500D02*
X151196580Y-133992500D01*
X150928420Y-127384500D02*
X151209580Y-127384500D01*
X150928420Y-128404500D02*
X151209580Y-128404500D01*
X153959000Y-129775000D02*
X153959000Y-130565000D01*
X154559000Y-131575000D02*
X160259000Y-131575000D01*
X155809000Y-128725000D02*
X157509000Y-128725000D01*
X156009000Y-131575000D02*
X156009000Y-132865000D01*
X156009000Y-132865000D02*
X156209000Y-133075000D01*
X156209000Y-133075000D02*
X157109000Y-133075000D01*
X157309000Y-132865000D02*
X157109000Y-133075000D01*
X157309000Y-132865000D02*
X157309000Y-131575000D01*
X158809000Y-128725000D02*
X159009000Y-128725000D01*
X160859000Y-130565000D02*
X160859000Y-129775000D01*
X152752258Y-138161500D02*
X152277742Y-138161500D01*
X152752258Y-139206500D02*
X152277742Y-139206500D01*
X142594420Y-136523000D02*
X142875580Y-136523000D01*
X142594420Y-137543000D02*
X142875580Y-137543000D01*
X165481580Y-136396000D02*
X165200420Y-136396000D01*
X165481580Y-137416000D02*
X165200420Y-137416000D01*
X165494580Y-131824000D02*
X165213420Y-131824000D01*
X165494580Y-132844000D02*
X165213420Y-132844000D01*
X174750000Y-139726580D02*
X174750000Y-139445420D01*
X175770000Y-139726580D02*
X175770000Y-139445420D01*
X128590000Y-135440000D02*
X128590000Y-143160000D01*
X128590000Y-135440000D02*
X130200000Y-135440000D01*
X128590000Y-143160000D02*
X130200000Y-143160000D01*
X132700000Y-135440000D02*
X134410000Y-135440000D01*
X132700000Y-143160000D02*
X134410000Y-143160000D01*
X134410000Y-135440000D02*
X134410000Y-137500000D01*
X134410000Y-137500000D02*
X135000000Y-137500000D01*
X134410000Y-143160000D02*
X134410000Y-141100000D01*
X138955000Y-144255000D02*
X138955000Y-142875000D01*
X140335000Y-144255000D02*
X138955000Y-144255000D01*
X141605000Y-141495000D02*
X182355000Y-141495000D01*
X141605000Y-144255000D02*
X141605000Y-141495000D01*
X141605000Y-144255000D02*
X182355000Y-144255000D01*
X182355000Y-144255000D02*
X182355000Y-141495000D01*
X176401000Y-139726580D02*
X176401000Y-139445420D01*
X177421000Y-139726580D02*
X177421000Y-139445420D01*
X163320000Y-129399420D02*
X163320000Y-129680580D01*
X164340000Y-129399420D02*
X164340000Y-129680580D01*
X161981000Y-140786000D02*
X156021000Y-140786000D01*
X162021000Y-135566000D02*
X156021000Y-135566000D01*
X162221000Y-140966000D02*
X162221000Y-140486000D01*
X162701000Y-140486000D01*
X162221000Y-140966000D01*
G36*
X162221000Y-140966000D02*
G01*
X162221000Y-140486000D01*
X162701000Y-140486000D01*
X162221000Y-140966000D01*
G37*
X137270258Y-139177500D02*
X136795742Y-139177500D01*
X137270258Y-140222500D02*
X136795742Y-140222500D01*
%LPC*%
D12*
X166116000Y-133858000D03*
X164566000Y-133858000D03*
D13*
X167513000Y-138748000D03*
X167513000Y-140398000D03*
D12*
X181496000Y-140081000D03*
X179946000Y-140081000D03*
D14*
X178756000Y-127908000D03*
X177656000Y-127908000D03*
X176856000Y-127908000D03*
X175256000Y-127908000D03*
X174856000Y-128808000D03*
X174456000Y-127908000D03*
X174056000Y-128808000D03*
X173656000Y-127908000D03*
X173256000Y-128808000D03*
X172856000Y-127908000D03*
X172456000Y-128808000D03*
X172056000Y-127908000D03*
X171656000Y-128808000D03*
X171256000Y-127908000D03*
D15*
X167856000Y-127758000D03*
X167856000Y-128558000D03*
X167856000Y-129358000D03*
X167856000Y-130158000D03*
X168756000Y-130558000D03*
X167856000Y-130958000D03*
X168756000Y-131358000D03*
X167856000Y-131758000D03*
X168756000Y-132158000D03*
X167856000Y-132558000D03*
X168756000Y-132958000D03*
X167856000Y-133358000D03*
X168756000Y-133758000D03*
X167856000Y-134158000D03*
X168756000Y-134558000D03*
X167856000Y-134958000D03*
X167856000Y-135758000D03*
X167856000Y-136558000D03*
X167856000Y-137358000D03*
D14*
X168856000Y-137208000D03*
X169656000Y-137208000D03*
X170056000Y-136308000D03*
X170456000Y-137208000D03*
X170856000Y-136308000D03*
X171256000Y-137208000D03*
X171656000Y-136308000D03*
X172056000Y-137208000D03*
X172456000Y-136308000D03*
X173256000Y-136308000D03*
X173656000Y-137208000D03*
X174056000Y-136308000D03*
X174456000Y-137208000D03*
X174856000Y-136308000D03*
X175256000Y-137208000D03*
X175656000Y-136308000D03*
X176456000Y-136308000D03*
X176856000Y-137208000D03*
X177256000Y-136308000D03*
X177656000Y-137208000D03*
X178056000Y-136308000D03*
X178756000Y-137208000D03*
D15*
X174456000Y-130558000D03*
X174456000Y-131358000D03*
X174456000Y-132158000D03*
X174456000Y-132958000D03*
X174456000Y-133758000D03*
X174456000Y-134558000D03*
D16*
X153277000Y-140335000D03*
X151702000Y-140335000D03*
D17*
X163322000Y-140398000D03*
X163322000Y-138748000D03*
D18*
X154813000Y-140234000D03*
X154813000Y-138684000D03*
D19*
X153352000Y-137160000D03*
X151702000Y-137160000D03*
D20*
X145008000Y-137033000D03*
X146558000Y-137033000D03*
D18*
X169418000Y-140361000D03*
X169418000Y-138811000D03*
D16*
X153314500Y-135636000D03*
X151739500Y-135636000D03*
D21*
X141970000Y-139446000D03*
X145050000Y-139446000D03*
D13*
X164973000Y-138684000D03*
X164973000Y-140334000D03*
D19*
X137858000Y-142494000D03*
X136208000Y-142494000D03*
D22*
X147872000Y-135274000D03*
X147872000Y-134624000D03*
X147872000Y-133974000D03*
X147872000Y-133324000D03*
X147872000Y-132674000D03*
X147872000Y-132024000D03*
X147872000Y-131374000D03*
X147872000Y-130724000D03*
X147872000Y-130074000D03*
X147872000Y-129424000D03*
X147872000Y-128774000D03*
X147872000Y-128124000D03*
X140672000Y-128124000D03*
X140672000Y-128774000D03*
X140672000Y-129424000D03*
X140672000Y-130074000D03*
X140672000Y-130724000D03*
X140672000Y-131374000D03*
X140672000Y-132024000D03*
X140672000Y-132674000D03*
X140672000Y-133324000D03*
X140672000Y-133974000D03*
X140672000Y-134624000D03*
X140672000Y-135274000D03*
D12*
X166129000Y-135382000D03*
X164579000Y-135382000D03*
D23*
X150053000Y-131820500D03*
X151003000Y-131820500D03*
X151953000Y-131820500D03*
X151953000Y-129545500D03*
X150053000Y-129545500D03*
D24*
X165735000Y-128290000D03*
X165735000Y-130790000D03*
D25*
X136369000Y-130151000D03*
X136369000Y-132231000D03*
D26*
X132564000Y-131191000D03*
D20*
X150281000Y-133482500D03*
X151831000Y-133482500D03*
X150294000Y-127894500D03*
X151844000Y-127894500D03*
D27*
X153759000Y-129065000D03*
X153759000Y-131275000D03*
D28*
X155909000Y-130175000D03*
X158909000Y-130175000D03*
D27*
X161059000Y-129065000D03*
X161059000Y-131275000D03*
D29*
X155159000Y-128415000D03*
X158159000Y-128415000D03*
X159659000Y-128415000D03*
D19*
X153340000Y-138684000D03*
X151690000Y-138684000D03*
D20*
X141960000Y-137033000D03*
X143510000Y-137033000D03*
D12*
X166116000Y-136906000D03*
X164566000Y-136906000D03*
X166129000Y-132334000D03*
X164579000Y-132334000D03*
D18*
X175260000Y-140361000D03*
X175260000Y-138811000D03*
D30*
X134300000Y-138000000D03*
X134300000Y-138650000D03*
X134300000Y-139300000D03*
X134300000Y-139950000D03*
X134300000Y-140600000D03*
D31*
X131450000Y-135550000D03*
D32*
X131450000Y-138150000D03*
X131450000Y-140450000D03*
D31*
X131450000Y-143050000D03*
D33*
X140335000Y-142875000D03*
D34*
X142875000Y-142875000D03*
X145415000Y-142875000D03*
X147955000Y-142875000D03*
X150495000Y-142875000D03*
X153035000Y-142875000D03*
X155575000Y-142875000D03*
X158115000Y-142875000D03*
X160655000Y-142875000D03*
X163195000Y-142875000D03*
X165735000Y-142875000D03*
X168275000Y-142875000D03*
X170815000Y-142875000D03*
X173355000Y-142875000D03*
X175895000Y-142875000D03*
X178435000Y-142875000D03*
X180975000Y-142875000D03*
D18*
X176911000Y-140361000D03*
X176911000Y-138811000D03*
D35*
X163830000Y-128765000D03*
X163830000Y-130315000D03*
D36*
X161683500Y-140081000D03*
X161683500Y-138811000D03*
X161683500Y-137541000D03*
X161683500Y-136271000D03*
X156358500Y-136271000D03*
X156358500Y-137541000D03*
X156358500Y-138811000D03*
X156358500Y-140081000D03*
D37*
X159021000Y-138176000D03*
D19*
X137858000Y-139700000D03*
X136208000Y-139700000D03*
%LPD*%
M02*
