G04 #@! TF.GenerationSoftware,KiCad,Pcbnew,9.0.2*
G04 #@! TF.CreationDate,2025-06-13T02:03:27-04:00*
G04 #@! TF.ProjectId,farlock3,6661726c-6f63-46b3-932e-6b696361645f,v01*
G04 #@! TF.SameCoordinates,Original*
G04 #@! TF.FileFunction,Soldermask,Bot*
G04 #@! TF.FilePolarity,Negative*
%FSLAX46Y46*%
G04 Gerber Fmt 4.6, Leading zero omitted, Abs format (unit mm)*
G04 Created by KiCad (PCBNEW 9.0.2) date 2025-06-13 02:03:27*
%MOMM*%
%LPD*%
G01*
G04 APERTURE LIST*
G04 Aperture macros list*
%AMFreePoly0*
4,1,35,0.500000,-0.750000,0.000000,-0.750000,0.000000,-0.748929,-0.032702,-0.748929,-0.097545,-0.740393,-0.160720,-0.723465,-0.221144,-0.698436,-0.277785,-0.665735,-0.329673,-0.625920,-0.375920,-0.579673,-0.415735,-0.527785,-0.448436,-0.471144,-0.473465,-0.410720,-0.490393,-0.347545,-0.498929,-0.282702,-0.498929,-0.250000,-0.500000,-0.250000,-0.500000,0.250000,-0.498929,0.250000,-0.498929,0.282702,
-0.490393,0.347545,-0.473465,0.410720,-0.448436,0.471144,-0.415735,0.527785,-0.375920,0.579673,-0.329673,0.625920,-0.277785,0.665735,-0.221144,0.698436,-0.160720,0.723465,-0.097545,0.740393,-0.032702,0.748929,0.000000,0.748929,0.000000,0.750000,0.500000,0.750000,0.500000,-0.750000,0.500000,-0.750000,$1*%
%AMFreePoly1*
4,1,35,0.000000,0.748929,0.032702,0.748929,0.097545,0.740393,0.160720,0.723465,0.221144,0.698436,0.277785,0.665735,0.329673,0.625920,0.375920,0.579673,0.415735,0.527785,0.448436,0.471144,0.473465,0.410720,0.490393,0.347545,0.498929,0.282702,0.498929,0.250000,0.500000,0.250000,0.500000,-0.250000,0.498929,-0.250000,0.498929,-0.282702,0.490393,-0.347545,0.473465,-0.410720,
0.448436,-0.471144,0.415735,-0.527785,0.375920,-0.579673,0.329673,-0.625920,0.277785,-0.665735,0.221144,-0.698436,0.160720,-0.723465,0.097545,-0.740393,0.032702,-0.748929,0.000000,-0.748929,0.000000,-0.750000,-0.500000,-0.750000,-0.500000,0.750000,0.000000,0.750000,0.000000,0.748929,0.000000,0.748929,$1*%
G04 Aperture macros list end*
%ADD10C,0.900000*%
%ADD11R,1.700000X1.700000*%
%ADD12C,1.700000*%
%ADD13FreePoly0,270.000000*%
%ADD14FreePoly1,270.000000*%
%ADD15FreePoly0,90.000000*%
%ADD16FreePoly1,90.000000*%
G04 APERTURE END LIST*
G36*
X174256000Y-128628000D02*
G01*
X175756000Y-128628000D01*
X175756000Y-128928000D01*
X174256000Y-128928000D01*
X174256000Y-128628000D01*
G37*
G36*
X176796000Y-128643000D02*
G01*
X178296000Y-128643000D01*
X178296000Y-128943000D01*
X176796000Y-128943000D01*
X176796000Y-128643000D01*
G37*
G36*
X153277000Y-138850000D02*
G01*
X151777000Y-138850000D01*
X151777000Y-138550000D01*
X153277000Y-138550000D01*
X153277000Y-138850000D01*
G37*
G36*
X175756000Y-133896000D02*
G01*
X174256000Y-133896000D01*
X174256000Y-133596000D01*
X175756000Y-133596000D01*
X175756000Y-133896000D01*
G37*
G36*
X178296000Y-133881000D02*
G01*
X176796000Y-133881000D01*
X176796000Y-133581000D01*
X178296000Y-133581000D01*
X178296000Y-133881000D01*
G37*
D10*
X155909000Y-130175000D03*
X158909000Y-130175000D03*
D11*
X140335000Y-142875000D03*
D12*
X142875000Y-142875000D03*
X145415000Y-142875000D03*
X147955000Y-142875000D03*
X150495000Y-142875000D03*
X153035000Y-142875000D03*
X155575000Y-142875000D03*
X158115000Y-142875000D03*
X160655000Y-142875000D03*
X163195000Y-142875000D03*
X165735000Y-142875000D03*
X168275000Y-142875000D03*
X170815000Y-142875000D03*
X173355000Y-142875000D03*
X175895000Y-142875000D03*
X178435000Y-142875000D03*
X180975000Y-142875000D03*
D13*
X175006000Y-128128000D03*
D14*
X175006000Y-129428000D03*
D13*
X177546000Y-128143000D03*
D14*
X177546000Y-129443000D03*
D15*
X152527000Y-139350000D03*
D16*
X152527000Y-138050000D03*
D15*
X175006000Y-134396000D03*
D16*
X175006000Y-133096000D03*
D15*
X177546000Y-134381000D03*
D16*
X177546000Y-133081000D03*
M02*
