G04 #@! TF.GenerationSoftware,KiCad,Pcbnew,9.0.2*
G04 #@! TF.CreationDate,2025-06-13T02:03:27-04:00*
G04 #@! TF.ProjectId,farlock3,6661726c-6f63-46b3-932e-6b696361645f,v01*
G04 #@! TF.SameCoordinates,Original*
G04 #@! TF.FileFunction,Soldermask,Top*
G04 #@! TF.FilePolarity,Negative*
%FSLAX46Y46*%
G04 Gerber Fmt 4.6, Leading zero omitted, Abs format (unit mm)*
G04 Created by KiCad (PCBNEW 9.0.2) date 2025-06-13 02:03:27*
%MOMM*%
%LPD*%
G01*
G04 APERTURE LIST*
G04 Aperture macros list*
%AMRoundRect*
0 Rectangle with rounded corners*
0 $1 Rounding radius*
0 $2 $3 $4 $5 $6 $7 $8 $9 X,Y pos of 4 corners*
0 Add a 4 corners polygon primitive as box body*
4,1,4,$2,$3,$4,$5,$6,$7,$8,$9,$2,$3,0*
0 Add four circle primitives for the rounded corners*
1,1,$1+$1,$2,$3*
1,1,$1+$1,$4,$5*
1,1,$1+$1,$6,$7*
1,1,$1+$1,$8,$9*
0 Add four rect primitives between the rounded corners*
20,1,$1+$1,$2,$3,$4,$5,0*
20,1,$1+$1,$4,$5,$6,$7,0*
20,1,$1+$1,$6,$7,$8,$9,0*
20,1,$1+$1,$8,$9,$2,$3,0*%
G04 Aperture macros list end*
%ADD10RoundRect,0.225000X0.225000X0.250000X-0.225000X0.250000X-0.225000X-0.250000X0.225000X-0.250000X0*%
%ADD11RoundRect,0.200000X-0.275000X0.200000X-0.275000X-0.200000X0.275000X-0.200000X0.275000X0.200000X0*%
%ADD12R,0.400000X0.600000*%
%ADD13R,0.600000X0.400000*%
%ADD14RoundRect,0.218750X0.218750X0.256250X-0.218750X0.256250X-0.218750X-0.256250X0.218750X-0.256250X0*%
%ADD15RoundRect,0.200000X0.275000X-0.200000X0.275000X0.200000X-0.275000X0.200000X-0.275000X-0.200000X0*%
%ADD16RoundRect,0.225000X0.250000X-0.225000X0.250000X0.225000X-0.250000X0.225000X-0.250000X-0.225000X0*%
%ADD17RoundRect,0.200000X0.200000X0.275000X-0.200000X0.275000X-0.200000X-0.275000X0.200000X-0.275000X0*%
%ADD18RoundRect,0.225000X-0.225000X-0.250000X0.225000X-0.250000X0.225000X0.250000X-0.225000X0.250000X0*%
%ADD19RoundRect,0.250000X-0.420000X-0.945000X0.420000X-0.945000X0.420000X0.945000X-0.420000X0.945000X0*%
%ADD20R,1.750000X0.450000*%
%ADD21RoundRect,0.150000X0.150000X-0.512500X0.150000X0.512500X-0.150000X0.512500X-0.150000X-0.512500X0*%
%ADD22R,1.800000X1.000000*%
%ADD23RoundRect,0.317500X-0.317500X0.382500X-0.317500X-0.382500X0.317500X-0.382500X0.317500X0.382500X0*%
%ADD24R,4.720000X4.800000*%
%ADD25R,1.000000X0.800000*%
%ADD26C,0.900000*%
%ADD27R,0.700000X1.500000*%
%ADD28R,1.400000X0.400000*%
%ADD29R,1.900000X2.300000*%
%ADD30R,1.900000X1.800000*%
%ADD31R,1.700000X1.700000*%
%ADD32C,1.700000*%
%ADD33RoundRect,0.225000X-0.250000X0.225000X-0.250000X-0.225000X0.250000X-0.225000X0.250000X0.225000X0*%
%ADD34RoundRect,0.125000X0.262500X0.125000X-0.262500X0.125000X-0.262500X-0.125000X0.262500X-0.125000X0*%
%ADD35R,3.400000X4.000000*%
G04 APERTURE END LIST*
D10*
X166116000Y-133858000D03*
X164566000Y-133858000D03*
D11*
X167513000Y-138748000D03*
X167513000Y-140398000D03*
D10*
X181496000Y-140081000D03*
X179946000Y-140081000D03*
D12*
X178756000Y-127908000D03*
X177656000Y-127908000D03*
X176856000Y-127908000D03*
X175256000Y-127908000D03*
X174856000Y-128808000D03*
X174456000Y-127908000D03*
X174056000Y-128808000D03*
X173656000Y-127908000D03*
X173256000Y-128808000D03*
X172856000Y-127908000D03*
X172456000Y-128808000D03*
X172056000Y-127908000D03*
X171656000Y-128808000D03*
X171256000Y-127908000D03*
D13*
X167856000Y-127758000D03*
X167856000Y-128558000D03*
X167856000Y-129358000D03*
X167856000Y-130158000D03*
X168756000Y-130558000D03*
X167856000Y-130958000D03*
X168756000Y-131358000D03*
X167856000Y-131758000D03*
X168756000Y-132158000D03*
X167856000Y-132558000D03*
X168756000Y-132958000D03*
X167856000Y-133358000D03*
X168756000Y-133758000D03*
X167856000Y-134158000D03*
X168756000Y-134558000D03*
X167856000Y-134958000D03*
X167856000Y-135758000D03*
X167856000Y-136558000D03*
X167856000Y-137358000D03*
D12*
X168856000Y-137208000D03*
X169656000Y-137208000D03*
X170056000Y-136308000D03*
X170456000Y-137208000D03*
X170856000Y-136308000D03*
X171256000Y-137208000D03*
X171656000Y-136308000D03*
X172056000Y-137208000D03*
X172456000Y-136308000D03*
X173256000Y-136308000D03*
X173656000Y-137208000D03*
X174056000Y-136308000D03*
X174456000Y-137208000D03*
X174856000Y-136308000D03*
X175256000Y-137208000D03*
X175656000Y-136308000D03*
X176456000Y-136308000D03*
X176856000Y-137208000D03*
X177256000Y-136308000D03*
X177656000Y-137208000D03*
X178056000Y-136308000D03*
X178756000Y-137208000D03*
D13*
X174456000Y-130558000D03*
X174456000Y-131358000D03*
X174456000Y-132158000D03*
X174456000Y-132958000D03*
X174456000Y-133758000D03*
X174456000Y-134558000D03*
D14*
X153277000Y-140335000D03*
X151702000Y-140335000D03*
D15*
X163322000Y-140398000D03*
X163322000Y-138748000D03*
D16*
X154813000Y-140234000D03*
X154813000Y-138684000D03*
D17*
X153352000Y-137160000D03*
X151702000Y-137160000D03*
D18*
X145008000Y-137033000D03*
X146558000Y-137033000D03*
D16*
X169418000Y-140361000D03*
X169418000Y-138811000D03*
D14*
X153314500Y-135636000D03*
X151739500Y-135636000D03*
D19*
X141970000Y-139446000D03*
X145050000Y-139446000D03*
D11*
X164973000Y-138684000D03*
X164973000Y-140334000D03*
D17*
X137858000Y-142494000D03*
X136208000Y-142494000D03*
D20*
X147872000Y-135274000D03*
X147872000Y-134624000D03*
X147872000Y-133974000D03*
X147872000Y-133324000D03*
X147872000Y-132674000D03*
X147872000Y-132024000D03*
X147872000Y-131374000D03*
X147872000Y-130724000D03*
X147872000Y-130074000D03*
X147872000Y-129424000D03*
X147872000Y-128774000D03*
X147872000Y-128124000D03*
X140672000Y-128124000D03*
X140672000Y-128774000D03*
X140672000Y-129424000D03*
X140672000Y-130074000D03*
X140672000Y-130724000D03*
X140672000Y-131374000D03*
X140672000Y-132024000D03*
X140672000Y-132674000D03*
X140672000Y-133324000D03*
X140672000Y-133974000D03*
X140672000Y-134624000D03*
X140672000Y-135274000D03*
D10*
X166129000Y-135382000D03*
X164579000Y-135382000D03*
D21*
X150053000Y-131820500D03*
X151003000Y-131820500D03*
X151953000Y-131820500D03*
X151953000Y-129545500D03*
X150053000Y-129545500D03*
D22*
X165735000Y-128290000D03*
X165735000Y-130790000D03*
D23*
X136369000Y-130151000D03*
X136369000Y-132231000D03*
D24*
X132564000Y-131191000D03*
D18*
X150281000Y-133482500D03*
X151831000Y-133482500D03*
X150294000Y-127894500D03*
X151844000Y-127894500D03*
D25*
X153759000Y-129065000D03*
X153759000Y-131275000D03*
D26*
X155909000Y-130175000D03*
X158909000Y-130175000D03*
D25*
X161059000Y-129065000D03*
X161059000Y-131275000D03*
D27*
X155159000Y-128415000D03*
X158159000Y-128415000D03*
X159659000Y-128415000D03*
D17*
X153340000Y-138684000D03*
X151690000Y-138684000D03*
D18*
X141960000Y-137033000D03*
X143510000Y-137033000D03*
D10*
X166116000Y-136906000D03*
X164566000Y-136906000D03*
X166129000Y-132334000D03*
X164579000Y-132334000D03*
D16*
X175260000Y-140361000D03*
X175260000Y-138811000D03*
D28*
X134300000Y-138000000D03*
X134300000Y-138650000D03*
X134300000Y-139300000D03*
X134300000Y-139950000D03*
X134300000Y-140600000D03*
D29*
X131450000Y-135550000D03*
D30*
X131450000Y-138150000D03*
X131450000Y-140450000D03*
D29*
X131450000Y-143050000D03*
D31*
X140335000Y-142875000D03*
D32*
X142875000Y-142875000D03*
X145415000Y-142875000D03*
X147955000Y-142875000D03*
X150495000Y-142875000D03*
X153035000Y-142875000D03*
X155575000Y-142875000D03*
X158115000Y-142875000D03*
X160655000Y-142875000D03*
X163195000Y-142875000D03*
X165735000Y-142875000D03*
X168275000Y-142875000D03*
X170815000Y-142875000D03*
X173355000Y-142875000D03*
X175895000Y-142875000D03*
X178435000Y-142875000D03*
X180975000Y-142875000D03*
D16*
X176911000Y-140361000D03*
X176911000Y-138811000D03*
D33*
X163830000Y-128765000D03*
X163830000Y-130315000D03*
D34*
X161683500Y-140081000D03*
X161683500Y-138811000D03*
X161683500Y-137541000D03*
X161683500Y-136271000D03*
X156358500Y-136271000D03*
X156358500Y-137541000D03*
X156358500Y-138811000D03*
X156358500Y-140081000D03*
D35*
X159021000Y-138176000D03*
D17*
X137858000Y-139700000D03*
X136208000Y-139700000D03*
M02*
