%TF.GenerationSoftware,KiCad,Pcbnew,9.0.2*%
%TF.CreationDate,2025-06-13T02:03:37-04:00*%
%TF.ProjectId,farlock3,6661726c-6f63-46b3-932e-6b696361645f,v01*%
%TF.SameCoordinates,Original*%
%TF.FileFunction,Drillmap*%
%TF.FilePolarity,Positive*%
%FSLAX45Y45*%
G04 Gerber Fmt 4.5, Leading zero omitted, Abs format (unit mm)*
G04 Created by KiCad (PCBNEW 9.0.2) date 2025-06-13 02:03:37*
%MOMM*%
%LPD*%
G01*
G04 APERTURE LIST*
%ADD10C,0.100000*%
%ADD11C,0.200000*%
G04 APERTURE END LIST*
D10*
X12992100Y-14478000D02*
X12992100Y-12700000D01*
X12992100Y-12700000D02*
X18288000Y-12700000D01*
X18288000Y-14478000D02*
X12992100Y-14478000D01*
X18288000Y-12700000D02*
X18288000Y-14478000D01*
D11*
D10*
X15545900Y-12972500D02*
X15635900Y-13062500D01*
X15635900Y-12972500D02*
X15545900Y-13062500D01*
X15845900Y-12972500D02*
X15935900Y-13062500D01*
X15935900Y-12972500D02*
X15845900Y-13062500D01*
D11*
X13247877Y-14794484D02*
X13247877Y-14594484D01*
X13247877Y-14594484D02*
X13295496Y-14594484D01*
X13295496Y-14594484D02*
X13324067Y-14604008D01*
X13324067Y-14604008D02*
X13343115Y-14623055D01*
X13343115Y-14623055D02*
X13352639Y-14642103D01*
X13352639Y-14642103D02*
X13362162Y-14680198D01*
X13362162Y-14680198D02*
X13362162Y-14708769D01*
X13362162Y-14708769D02*
X13352639Y-14746865D01*
X13352639Y-14746865D02*
X13343115Y-14765912D01*
X13343115Y-14765912D02*
X13324067Y-14784960D01*
X13324067Y-14784960D02*
X13295496Y-14794484D01*
X13295496Y-14794484D02*
X13247877Y-14794484D01*
X13447877Y-14794484D02*
X13447877Y-14661150D01*
X13447877Y-14699246D02*
X13457401Y-14680198D01*
X13457401Y-14680198D02*
X13466924Y-14670674D01*
X13466924Y-14670674D02*
X13485972Y-14661150D01*
X13485972Y-14661150D02*
X13505020Y-14661150D01*
X13571686Y-14794484D02*
X13571686Y-14661150D01*
X13571686Y-14594484D02*
X13562162Y-14604008D01*
X13562162Y-14604008D02*
X13571686Y-14613531D01*
X13571686Y-14613531D02*
X13581210Y-14604008D01*
X13581210Y-14604008D02*
X13571686Y-14594484D01*
X13571686Y-14594484D02*
X13571686Y-14613531D01*
X13695496Y-14794484D02*
X13676448Y-14784960D01*
X13676448Y-14784960D02*
X13666924Y-14765912D01*
X13666924Y-14765912D02*
X13666924Y-14594484D01*
X13800258Y-14794484D02*
X13781210Y-14784960D01*
X13781210Y-14784960D02*
X13771686Y-14765912D01*
X13771686Y-14765912D02*
X13771686Y-14594484D01*
X14028829Y-14794484D02*
X14028829Y-14594484D01*
X14028829Y-14594484D02*
X14095496Y-14737341D01*
X14095496Y-14737341D02*
X14162162Y-14594484D01*
X14162162Y-14594484D02*
X14162162Y-14794484D01*
X14343115Y-14794484D02*
X14343115Y-14689722D01*
X14343115Y-14689722D02*
X14333591Y-14670674D01*
X14333591Y-14670674D02*
X14314543Y-14661150D01*
X14314543Y-14661150D02*
X14276448Y-14661150D01*
X14276448Y-14661150D02*
X14257401Y-14670674D01*
X14343115Y-14784960D02*
X14324067Y-14794484D01*
X14324067Y-14794484D02*
X14276448Y-14794484D01*
X14276448Y-14794484D02*
X14257401Y-14784960D01*
X14257401Y-14784960D02*
X14247877Y-14765912D01*
X14247877Y-14765912D02*
X14247877Y-14746865D01*
X14247877Y-14746865D02*
X14257401Y-14727817D01*
X14257401Y-14727817D02*
X14276448Y-14718293D01*
X14276448Y-14718293D02*
X14324067Y-14718293D01*
X14324067Y-14718293D02*
X14343115Y-14708769D01*
X14438353Y-14661150D02*
X14438353Y-14861150D01*
X14438353Y-14670674D02*
X14457401Y-14661150D01*
X14457401Y-14661150D02*
X14495496Y-14661150D01*
X14495496Y-14661150D02*
X14514543Y-14670674D01*
X14514543Y-14670674D02*
X14524067Y-14680198D01*
X14524067Y-14680198D02*
X14533591Y-14699246D01*
X14533591Y-14699246D02*
X14533591Y-14756388D01*
X14533591Y-14756388D02*
X14524067Y-14775436D01*
X14524067Y-14775436D02*
X14514543Y-14784960D01*
X14514543Y-14784960D02*
X14495496Y-14794484D01*
X14495496Y-14794484D02*
X14457401Y-14794484D01*
X14457401Y-14794484D02*
X14438353Y-14784960D01*
X14619305Y-14775436D02*
X14628829Y-14784960D01*
X14628829Y-14784960D02*
X14619305Y-14794484D01*
X14619305Y-14794484D02*
X14609782Y-14784960D01*
X14609782Y-14784960D02*
X14619305Y-14775436D01*
X14619305Y-14775436D02*
X14619305Y-14794484D01*
X14619305Y-14670674D02*
X14628829Y-14680198D01*
X14628829Y-14680198D02*
X14619305Y-14689722D01*
X14619305Y-14689722D02*
X14609782Y-14680198D01*
X14609782Y-14680198D02*
X14619305Y-14670674D01*
X14619305Y-14670674D02*
X14619305Y-14689722D01*
D10*
X12897100Y-15078000D02*
X12987100Y-15168000D01*
X12987100Y-15078000D02*
X12897100Y-15168000D01*
D11*
X13285972Y-15014484D02*
X13305020Y-15014484D01*
X13305020Y-15014484D02*
X13324067Y-15024008D01*
X13324067Y-15024008D02*
X13333591Y-15033531D01*
X13333591Y-15033531D02*
X13343115Y-15052579D01*
X13343115Y-15052579D02*
X13352639Y-15090674D01*
X13352639Y-15090674D02*
X13352639Y-15138293D01*
X13352639Y-15138293D02*
X13343115Y-15176388D01*
X13343115Y-15176388D02*
X13333591Y-15195436D01*
X13333591Y-15195436D02*
X13324067Y-15204960D01*
X13324067Y-15204960D02*
X13305020Y-15214484D01*
X13305020Y-15214484D02*
X13285972Y-15214484D01*
X13285972Y-15214484D02*
X13266924Y-15204960D01*
X13266924Y-15204960D02*
X13257401Y-15195436D01*
X13257401Y-15195436D02*
X13247877Y-15176388D01*
X13247877Y-15176388D02*
X13238353Y-15138293D01*
X13238353Y-15138293D02*
X13238353Y-15090674D01*
X13238353Y-15090674D02*
X13247877Y-15052579D01*
X13247877Y-15052579D02*
X13257401Y-15033531D01*
X13257401Y-15033531D02*
X13266924Y-15024008D01*
X13266924Y-15024008D02*
X13285972Y-15014484D01*
X13438353Y-15195436D02*
X13447877Y-15204960D01*
X13447877Y-15204960D02*
X13438353Y-15214484D01*
X13438353Y-15214484D02*
X13428829Y-15204960D01*
X13428829Y-15204960D02*
X13438353Y-15195436D01*
X13438353Y-15195436D02*
X13438353Y-15214484D01*
X13543115Y-15214484D02*
X13581210Y-15214484D01*
X13581210Y-15214484D02*
X13600258Y-15204960D01*
X13600258Y-15204960D02*
X13609782Y-15195436D01*
X13609782Y-15195436D02*
X13628829Y-15166865D01*
X13628829Y-15166865D02*
X13638353Y-15128769D01*
X13638353Y-15128769D02*
X13638353Y-15052579D01*
X13638353Y-15052579D02*
X13628829Y-15033531D01*
X13628829Y-15033531D02*
X13619305Y-15024008D01*
X13619305Y-15024008D02*
X13600258Y-15014484D01*
X13600258Y-15014484D02*
X13562162Y-15014484D01*
X13562162Y-15014484D02*
X13543115Y-15024008D01*
X13543115Y-15024008D02*
X13533591Y-15033531D01*
X13533591Y-15033531D02*
X13524067Y-15052579D01*
X13524067Y-15052579D02*
X13524067Y-15100198D01*
X13524067Y-15100198D02*
X13533591Y-15119246D01*
X13533591Y-15119246D02*
X13543115Y-15128769D01*
X13543115Y-15128769D02*
X13562162Y-15138293D01*
X13562162Y-15138293D02*
X13600258Y-15138293D01*
X13600258Y-15138293D02*
X13619305Y-15128769D01*
X13619305Y-15128769D02*
X13628829Y-15119246D01*
X13628829Y-15119246D02*
X13638353Y-15100198D01*
X13762162Y-15014484D02*
X13781210Y-15014484D01*
X13781210Y-15014484D02*
X13800258Y-15024008D01*
X13800258Y-15024008D02*
X13809782Y-15033531D01*
X13809782Y-15033531D02*
X13819305Y-15052579D01*
X13819305Y-15052579D02*
X13828829Y-15090674D01*
X13828829Y-15090674D02*
X13828829Y-15138293D01*
X13828829Y-15138293D02*
X13819305Y-15176388D01*
X13819305Y-15176388D02*
X13809782Y-15195436D01*
X13809782Y-15195436D02*
X13800258Y-15204960D01*
X13800258Y-15204960D02*
X13781210Y-15214484D01*
X13781210Y-15214484D02*
X13762162Y-15214484D01*
X13762162Y-15214484D02*
X13743115Y-15204960D01*
X13743115Y-15204960D02*
X13733591Y-15195436D01*
X13733591Y-15195436D02*
X13724067Y-15176388D01*
X13724067Y-15176388D02*
X13714543Y-15138293D01*
X13714543Y-15138293D02*
X13714543Y-15090674D01*
X13714543Y-15090674D02*
X13724067Y-15052579D01*
X13724067Y-15052579D02*
X13733591Y-15033531D01*
X13733591Y-15033531D02*
X13743115Y-15024008D01*
X13743115Y-15024008D02*
X13762162Y-15014484D01*
X13952639Y-15014484D02*
X13971686Y-15014484D01*
X13971686Y-15014484D02*
X13990734Y-15024008D01*
X13990734Y-15024008D02*
X14000258Y-15033531D01*
X14000258Y-15033531D02*
X14009782Y-15052579D01*
X14009782Y-15052579D02*
X14019305Y-15090674D01*
X14019305Y-15090674D02*
X14019305Y-15138293D01*
X14019305Y-15138293D02*
X14009782Y-15176388D01*
X14009782Y-15176388D02*
X14000258Y-15195436D01*
X14000258Y-15195436D02*
X13990734Y-15204960D01*
X13990734Y-15204960D02*
X13971686Y-15214484D01*
X13971686Y-15214484D02*
X13952639Y-15214484D01*
X13952639Y-15214484D02*
X13933591Y-15204960D01*
X13933591Y-15204960D02*
X13924067Y-15195436D01*
X13924067Y-15195436D02*
X13914543Y-15176388D01*
X13914543Y-15176388D02*
X13905020Y-15138293D01*
X13905020Y-15138293D02*
X13905020Y-15090674D01*
X13905020Y-15090674D02*
X13914543Y-15052579D01*
X13914543Y-15052579D02*
X13924067Y-15033531D01*
X13924067Y-15033531D02*
X13933591Y-15024008D01*
X13933591Y-15024008D02*
X13952639Y-15014484D01*
X14105020Y-15214484D02*
X14105020Y-15081150D01*
X14105020Y-15100198D02*
X14114543Y-15090674D01*
X14114543Y-15090674D02*
X14133591Y-15081150D01*
X14133591Y-15081150D02*
X14162163Y-15081150D01*
X14162163Y-15081150D02*
X14181210Y-15090674D01*
X14181210Y-15090674D02*
X14190734Y-15109722D01*
X14190734Y-15109722D02*
X14190734Y-15214484D01*
X14190734Y-15109722D02*
X14200258Y-15090674D01*
X14200258Y-15090674D02*
X14219305Y-15081150D01*
X14219305Y-15081150D02*
X14247877Y-15081150D01*
X14247877Y-15081150D02*
X14266924Y-15090674D01*
X14266924Y-15090674D02*
X14276448Y-15109722D01*
X14276448Y-15109722D02*
X14276448Y-15214484D01*
X14371686Y-15214484D02*
X14371686Y-15081150D01*
X14371686Y-15100198D02*
X14381210Y-15090674D01*
X14381210Y-15090674D02*
X14400258Y-15081150D01*
X14400258Y-15081150D02*
X14428829Y-15081150D01*
X14428829Y-15081150D02*
X14447877Y-15090674D01*
X14447877Y-15090674D02*
X14457401Y-15109722D01*
X14457401Y-15109722D02*
X14457401Y-15214484D01*
X14457401Y-15109722D02*
X14466924Y-15090674D01*
X14466924Y-15090674D02*
X14485972Y-15081150D01*
X14485972Y-15081150D02*
X14514543Y-15081150D01*
X14514543Y-15081150D02*
X14533591Y-15090674D01*
X14533591Y-15090674D02*
X14543115Y-15109722D01*
X14543115Y-15109722D02*
X14543115Y-15214484D01*
X14933591Y-15004960D02*
X14762163Y-15262103D01*
X15190734Y-15014484D02*
X15209782Y-15014484D01*
X15209782Y-15014484D02*
X15228829Y-15024008D01*
X15228829Y-15024008D02*
X15238353Y-15033531D01*
X15238353Y-15033531D02*
X15247877Y-15052579D01*
X15247877Y-15052579D02*
X15257401Y-15090674D01*
X15257401Y-15090674D02*
X15257401Y-15138293D01*
X15257401Y-15138293D02*
X15247877Y-15176388D01*
X15247877Y-15176388D02*
X15238353Y-15195436D01*
X15238353Y-15195436D02*
X15228829Y-15204960D01*
X15228829Y-15204960D02*
X15209782Y-15214484D01*
X15209782Y-15214484D02*
X15190734Y-15214484D01*
X15190734Y-15214484D02*
X15171686Y-15204960D01*
X15171686Y-15204960D02*
X15162163Y-15195436D01*
X15162163Y-15195436D02*
X15152639Y-15176388D01*
X15152639Y-15176388D02*
X15143115Y-15138293D01*
X15143115Y-15138293D02*
X15143115Y-15090674D01*
X15143115Y-15090674D02*
X15152639Y-15052579D01*
X15152639Y-15052579D02*
X15162163Y-15033531D01*
X15162163Y-15033531D02*
X15171686Y-15024008D01*
X15171686Y-15024008D02*
X15190734Y-15014484D01*
X15343115Y-15195436D02*
X15352639Y-15204960D01*
X15352639Y-15204960D02*
X15343115Y-15214484D01*
X15343115Y-15214484D02*
X15333591Y-15204960D01*
X15333591Y-15204960D02*
X15343115Y-15195436D01*
X15343115Y-15195436D02*
X15343115Y-15214484D01*
X15476448Y-15014484D02*
X15495496Y-15014484D01*
X15495496Y-15014484D02*
X15514544Y-15024008D01*
X15514544Y-15024008D02*
X15524067Y-15033531D01*
X15524067Y-15033531D02*
X15533591Y-15052579D01*
X15533591Y-15052579D02*
X15543115Y-15090674D01*
X15543115Y-15090674D02*
X15543115Y-15138293D01*
X15543115Y-15138293D02*
X15533591Y-15176388D01*
X15533591Y-15176388D02*
X15524067Y-15195436D01*
X15524067Y-15195436D02*
X15514544Y-15204960D01*
X15514544Y-15204960D02*
X15495496Y-15214484D01*
X15495496Y-15214484D02*
X15476448Y-15214484D01*
X15476448Y-15214484D02*
X15457401Y-15204960D01*
X15457401Y-15204960D02*
X15447877Y-15195436D01*
X15447877Y-15195436D02*
X15438353Y-15176388D01*
X15438353Y-15176388D02*
X15428829Y-15138293D01*
X15428829Y-15138293D02*
X15428829Y-15090674D01*
X15428829Y-15090674D02*
X15438353Y-15052579D01*
X15438353Y-15052579D02*
X15447877Y-15033531D01*
X15447877Y-15033531D02*
X15457401Y-15024008D01*
X15457401Y-15024008D02*
X15476448Y-15014484D01*
X15609782Y-15014484D02*
X15733591Y-15014484D01*
X15733591Y-15014484D02*
X15666925Y-15090674D01*
X15666925Y-15090674D02*
X15695496Y-15090674D01*
X15695496Y-15090674D02*
X15714544Y-15100198D01*
X15714544Y-15100198D02*
X15724067Y-15109722D01*
X15724067Y-15109722D02*
X15733591Y-15128769D01*
X15733591Y-15128769D02*
X15733591Y-15176388D01*
X15733591Y-15176388D02*
X15724067Y-15195436D01*
X15724067Y-15195436D02*
X15714544Y-15204960D01*
X15714544Y-15204960D02*
X15695496Y-15214484D01*
X15695496Y-15214484D02*
X15638353Y-15214484D01*
X15638353Y-15214484D02*
X15619306Y-15204960D01*
X15619306Y-15204960D02*
X15609782Y-15195436D01*
X15914544Y-15014484D02*
X15819306Y-15014484D01*
X15819306Y-15014484D02*
X15809782Y-15109722D01*
X15809782Y-15109722D02*
X15819306Y-15100198D01*
X15819306Y-15100198D02*
X15838353Y-15090674D01*
X15838353Y-15090674D02*
X15885972Y-15090674D01*
X15885972Y-15090674D02*
X15905020Y-15100198D01*
X15905020Y-15100198D02*
X15914544Y-15109722D01*
X15914544Y-15109722D02*
X15924067Y-15128769D01*
X15924067Y-15128769D02*
X15924067Y-15176388D01*
X15924067Y-15176388D02*
X15914544Y-15195436D01*
X15914544Y-15195436D02*
X15905020Y-15204960D01*
X15905020Y-15204960D02*
X15885972Y-15214484D01*
X15885972Y-15214484D02*
X15838353Y-15214484D01*
X15838353Y-15214484D02*
X15819306Y-15204960D01*
X15819306Y-15204960D02*
X15809782Y-15195436D01*
X16095496Y-15081150D02*
X16095496Y-15214484D01*
X16047877Y-15004960D02*
X16000258Y-15147817D01*
X16000258Y-15147817D02*
X16124067Y-15147817D01*
X16190734Y-15014484D02*
X16190734Y-15052579D01*
X16266925Y-15014484D02*
X16266925Y-15052579D01*
X16562163Y-15290674D02*
X16552639Y-15281150D01*
X16552639Y-15281150D02*
X16533591Y-15252579D01*
X16533591Y-15252579D02*
X16524068Y-15233531D01*
X16524068Y-15233531D02*
X16514544Y-15204960D01*
X16514544Y-15204960D02*
X16505020Y-15157341D01*
X16505020Y-15157341D02*
X16505020Y-15119246D01*
X16505020Y-15119246D02*
X16514544Y-15071627D01*
X16514544Y-15071627D02*
X16524068Y-15043055D01*
X16524068Y-15043055D02*
X16533591Y-15024008D01*
X16533591Y-15024008D02*
X16552639Y-14995436D01*
X16552639Y-14995436D02*
X16562163Y-14985912D01*
X16628829Y-15033531D02*
X16638353Y-15024008D01*
X16638353Y-15024008D02*
X16657401Y-15014484D01*
X16657401Y-15014484D02*
X16705020Y-15014484D01*
X16705020Y-15014484D02*
X16724068Y-15024008D01*
X16724068Y-15024008D02*
X16733591Y-15033531D01*
X16733591Y-15033531D02*
X16743115Y-15052579D01*
X16743115Y-15052579D02*
X16743115Y-15071627D01*
X16743115Y-15071627D02*
X16733591Y-15100198D01*
X16733591Y-15100198D02*
X16619306Y-15214484D01*
X16619306Y-15214484D02*
X16743115Y-15214484D01*
X16981211Y-15214484D02*
X16981211Y-15014484D01*
X17066925Y-15214484D02*
X17066925Y-15109722D01*
X17066925Y-15109722D02*
X17057401Y-15090674D01*
X17057401Y-15090674D02*
X17038353Y-15081150D01*
X17038353Y-15081150D02*
X17009782Y-15081150D01*
X17009782Y-15081150D02*
X16990734Y-15090674D01*
X16990734Y-15090674D02*
X16981211Y-15100198D01*
X17190734Y-15214484D02*
X17171687Y-15204960D01*
X17171687Y-15204960D02*
X17162163Y-15195436D01*
X17162163Y-15195436D02*
X17152639Y-15176388D01*
X17152639Y-15176388D02*
X17152639Y-15119246D01*
X17152639Y-15119246D02*
X17162163Y-15100198D01*
X17162163Y-15100198D02*
X17171687Y-15090674D01*
X17171687Y-15090674D02*
X17190734Y-15081150D01*
X17190734Y-15081150D02*
X17219306Y-15081150D01*
X17219306Y-15081150D02*
X17238353Y-15090674D01*
X17238353Y-15090674D02*
X17247877Y-15100198D01*
X17247877Y-15100198D02*
X17257401Y-15119246D01*
X17257401Y-15119246D02*
X17257401Y-15176388D01*
X17257401Y-15176388D02*
X17247877Y-15195436D01*
X17247877Y-15195436D02*
X17238353Y-15204960D01*
X17238353Y-15204960D02*
X17219306Y-15214484D01*
X17219306Y-15214484D02*
X17190734Y-15214484D01*
X17371687Y-15214484D02*
X17352639Y-15204960D01*
X17352639Y-15204960D02*
X17343115Y-15185912D01*
X17343115Y-15185912D02*
X17343115Y-15014484D01*
X17524068Y-15204960D02*
X17505020Y-15214484D01*
X17505020Y-15214484D02*
X17466925Y-15214484D01*
X17466925Y-15214484D02*
X17447877Y-15204960D01*
X17447877Y-15204960D02*
X17438353Y-15185912D01*
X17438353Y-15185912D02*
X17438353Y-15109722D01*
X17438353Y-15109722D02*
X17447877Y-15090674D01*
X17447877Y-15090674D02*
X17466925Y-15081150D01*
X17466925Y-15081150D02*
X17505020Y-15081150D01*
X17505020Y-15081150D02*
X17524068Y-15090674D01*
X17524068Y-15090674D02*
X17533592Y-15109722D01*
X17533592Y-15109722D02*
X17533592Y-15128769D01*
X17533592Y-15128769D02*
X17438353Y-15147817D01*
X17609782Y-15204960D02*
X17628830Y-15214484D01*
X17628830Y-15214484D02*
X17666925Y-15214484D01*
X17666925Y-15214484D02*
X17685973Y-15204960D01*
X17685973Y-15204960D02*
X17695496Y-15185912D01*
X17695496Y-15185912D02*
X17695496Y-15176388D01*
X17695496Y-15176388D02*
X17685973Y-15157341D01*
X17685973Y-15157341D02*
X17666925Y-15147817D01*
X17666925Y-15147817D02*
X17638353Y-15147817D01*
X17638353Y-15147817D02*
X17619306Y-15138293D01*
X17619306Y-15138293D02*
X17609782Y-15119246D01*
X17609782Y-15119246D02*
X17609782Y-15109722D01*
X17609782Y-15109722D02*
X17619306Y-15090674D01*
X17619306Y-15090674D02*
X17638353Y-15081150D01*
X17638353Y-15081150D02*
X17666925Y-15081150D01*
X17666925Y-15081150D02*
X17685973Y-15090674D01*
X17762163Y-15290674D02*
X17771687Y-15281150D01*
X17771687Y-15281150D02*
X17790734Y-15252579D01*
X17790734Y-15252579D02*
X17800258Y-15233531D01*
X17800258Y-15233531D02*
X17809782Y-15204960D01*
X17809782Y-15204960D02*
X17819306Y-15157341D01*
X17819306Y-15157341D02*
X17819306Y-15119246D01*
X17819306Y-15119246D02*
X17809782Y-15071627D01*
X17809782Y-15071627D02*
X17800258Y-15043055D01*
X17800258Y-15043055D02*
X17790734Y-15024008D01*
X17790734Y-15024008D02*
X17771687Y-14995436D01*
X17771687Y-14995436D02*
X17762163Y-14985912D01*
X18124068Y-15290674D02*
X18114544Y-15281150D01*
X18114544Y-15281150D02*
X18095496Y-15252579D01*
X18095496Y-15252579D02*
X18085973Y-15233531D01*
X18085973Y-15233531D02*
X18076449Y-15204960D01*
X18076449Y-15204960D02*
X18066925Y-15157341D01*
X18066925Y-15157341D02*
X18066925Y-15119246D01*
X18066925Y-15119246D02*
X18076449Y-15071627D01*
X18076449Y-15071627D02*
X18085973Y-15043055D01*
X18085973Y-15043055D02*
X18095496Y-15024008D01*
X18095496Y-15024008D02*
X18114544Y-14995436D01*
X18114544Y-14995436D02*
X18124068Y-14985912D01*
X18200258Y-15081150D02*
X18200258Y-15214484D01*
X18200258Y-15100198D02*
X18209782Y-15090674D01*
X18209782Y-15090674D02*
X18228830Y-15081150D01*
X18228830Y-15081150D02*
X18257401Y-15081150D01*
X18257401Y-15081150D02*
X18276449Y-15090674D01*
X18276449Y-15090674D02*
X18285973Y-15109722D01*
X18285973Y-15109722D02*
X18285973Y-15214484D01*
X18409782Y-15214484D02*
X18390734Y-15204960D01*
X18390734Y-15204960D02*
X18381211Y-15195436D01*
X18381211Y-15195436D02*
X18371687Y-15176388D01*
X18371687Y-15176388D02*
X18371687Y-15119246D01*
X18371687Y-15119246D02*
X18381211Y-15100198D01*
X18381211Y-15100198D02*
X18390734Y-15090674D01*
X18390734Y-15090674D02*
X18409782Y-15081150D01*
X18409782Y-15081150D02*
X18438354Y-15081150D01*
X18438354Y-15081150D02*
X18457401Y-15090674D01*
X18457401Y-15090674D02*
X18466925Y-15100198D01*
X18466925Y-15100198D02*
X18476449Y-15119246D01*
X18476449Y-15119246D02*
X18476449Y-15176388D01*
X18476449Y-15176388D02*
X18466925Y-15195436D01*
X18466925Y-15195436D02*
X18457401Y-15204960D01*
X18457401Y-15204960D02*
X18438354Y-15214484D01*
X18438354Y-15214484D02*
X18409782Y-15214484D01*
X18533592Y-15081150D02*
X18609782Y-15081150D01*
X18562163Y-15014484D02*
X18562163Y-15185912D01*
X18562163Y-15185912D02*
X18571687Y-15204960D01*
X18571687Y-15204960D02*
X18590734Y-15214484D01*
X18590734Y-15214484D02*
X18609782Y-15214484D01*
X18828830Y-15081150D02*
X18828830Y-15281150D01*
X18828830Y-15090674D02*
X18847877Y-15081150D01*
X18847877Y-15081150D02*
X18885973Y-15081150D01*
X18885973Y-15081150D02*
X18905020Y-15090674D01*
X18905020Y-15090674D02*
X18914544Y-15100198D01*
X18914544Y-15100198D02*
X18924068Y-15119246D01*
X18924068Y-15119246D02*
X18924068Y-15176388D01*
X18924068Y-15176388D02*
X18914544Y-15195436D01*
X18914544Y-15195436D02*
X18905020Y-15204960D01*
X18905020Y-15204960D02*
X18885973Y-15214484D01*
X18885973Y-15214484D02*
X18847877Y-15214484D01*
X18847877Y-15214484D02*
X18828830Y-15204960D01*
X19038354Y-15214484D02*
X19019306Y-15204960D01*
X19019306Y-15204960D02*
X19009782Y-15185912D01*
X19009782Y-15185912D02*
X19009782Y-15014484D01*
X19200258Y-15214484D02*
X19200258Y-15109722D01*
X19200258Y-15109722D02*
X19190735Y-15090674D01*
X19190735Y-15090674D02*
X19171687Y-15081150D01*
X19171687Y-15081150D02*
X19133592Y-15081150D01*
X19133592Y-15081150D02*
X19114544Y-15090674D01*
X19200258Y-15204960D02*
X19181211Y-15214484D01*
X19181211Y-15214484D02*
X19133592Y-15214484D01*
X19133592Y-15214484D02*
X19114544Y-15204960D01*
X19114544Y-15204960D02*
X19105020Y-15185912D01*
X19105020Y-15185912D02*
X19105020Y-15166865D01*
X19105020Y-15166865D02*
X19114544Y-15147817D01*
X19114544Y-15147817D02*
X19133592Y-15138293D01*
X19133592Y-15138293D02*
X19181211Y-15138293D01*
X19181211Y-15138293D02*
X19200258Y-15128769D01*
X19266925Y-15081150D02*
X19343115Y-15081150D01*
X19295496Y-15014484D02*
X19295496Y-15185912D01*
X19295496Y-15185912D02*
X19305020Y-15204960D01*
X19305020Y-15204960D02*
X19324068Y-15214484D01*
X19324068Y-15214484D02*
X19343115Y-15214484D01*
X19485973Y-15204960D02*
X19466925Y-15214484D01*
X19466925Y-15214484D02*
X19428830Y-15214484D01*
X19428830Y-15214484D02*
X19409782Y-15204960D01*
X19409782Y-15204960D02*
X19400258Y-15185912D01*
X19400258Y-15185912D02*
X19400258Y-15109722D01*
X19400258Y-15109722D02*
X19409782Y-15090674D01*
X19409782Y-15090674D02*
X19428830Y-15081150D01*
X19428830Y-15081150D02*
X19466925Y-15081150D01*
X19466925Y-15081150D02*
X19485973Y-15090674D01*
X19485973Y-15090674D02*
X19495496Y-15109722D01*
X19495496Y-15109722D02*
X19495496Y-15128769D01*
X19495496Y-15128769D02*
X19400258Y-15147817D01*
X19666925Y-15214484D02*
X19666925Y-15014484D01*
X19666925Y-15204960D02*
X19647877Y-15214484D01*
X19647877Y-15214484D02*
X19609782Y-15214484D01*
X19609782Y-15214484D02*
X19590735Y-15204960D01*
X19590735Y-15204960D02*
X19581211Y-15195436D01*
X19581211Y-15195436D02*
X19571687Y-15176388D01*
X19571687Y-15176388D02*
X19571687Y-15119246D01*
X19571687Y-15119246D02*
X19581211Y-15100198D01*
X19581211Y-15100198D02*
X19590735Y-15090674D01*
X19590735Y-15090674D02*
X19609782Y-15081150D01*
X19609782Y-15081150D02*
X19647877Y-15081150D01*
X19647877Y-15081150D02*
X19666925Y-15090674D01*
X19743116Y-15290674D02*
X19752639Y-15281150D01*
X19752639Y-15281150D02*
X19771687Y-15252579D01*
X19771687Y-15252579D02*
X19781211Y-15233531D01*
X19781211Y-15233531D02*
X19790735Y-15204960D01*
X19790735Y-15204960D02*
X19800258Y-15157341D01*
X19800258Y-15157341D02*
X19800258Y-15119246D01*
X19800258Y-15119246D02*
X19790735Y-15071627D01*
X19790735Y-15071627D02*
X19781211Y-15043055D01*
X19781211Y-15043055D02*
X19771687Y-15024008D01*
X19771687Y-15024008D02*
X19752639Y-14995436D01*
X19752639Y-14995436D02*
X19743116Y-14985912D01*
M02*
