%TF.GenerationSoftware,KiCad,Pcbnew,9.0.2*%
%TF.CreationDate,2025-06-13T02:03:37-04:00*%
%TF.ProjectId,farlock3,6661726c-6f63-46b3-932e-6b696361645f,v01*%
%TF.SameCoordinates,Original*%
%TF.FileFunction,Drillmap*%
%TF.FilePolarity,Positive*%
%FSLAX45Y45*%
G04 Gerber Fmt 4.5, Leading zero omitted, Abs format (unit mm)*
G04 Created by KiCad (PCBNEW 9.0.2) date 2025-06-13 02:03:37*
%MOMM*%
%LPD*%
G01*
G04 APERTURE LIST*
%ADD10C,0.100000*%
%ADD11C,0.200000*%
G04 APERTURE END LIST*
D10*
X12992100Y-14478000D02*
X12992100Y-12700000D01*
X12992100Y-12700000D02*
X18288000Y-12700000D01*
X18288000Y-14478000D02*
X12992100Y-14478000D01*
X18288000Y-12700000D02*
X18288000Y-14478000D01*
D11*
D10*
X13802600Y-14107400D02*
X13832600Y-14137400D01*
X13832600Y-14107400D02*
X13802600Y-14137400D01*
X13891500Y-13955000D02*
X13921500Y-13985000D01*
X13921500Y-13955000D02*
X13891500Y-13985000D01*
X14285200Y-13314900D02*
X14315200Y-13344900D01*
X14315200Y-13314900D02*
X14285200Y-13344900D01*
X14285200Y-13374900D02*
X14315200Y-13404900D01*
X14315200Y-13374900D02*
X14285200Y-13404900D01*
X14285200Y-13447000D02*
X14315200Y-13477000D01*
X14315200Y-13447000D02*
X14285200Y-13477000D01*
X14501100Y-13189900D02*
X14531100Y-13219900D01*
X14531100Y-13189900D02*
X14501100Y-13219900D01*
X15240000Y-13630000D02*
X15270000Y-13660000D01*
X15270000Y-13630000D02*
X15240000Y-13660000D01*
X15315000Y-14110000D02*
X15345000Y-14140000D01*
X15345000Y-14110000D02*
X15315000Y-14140000D01*
X15461322Y-13770900D02*
X15491322Y-13800900D01*
X15491322Y-13770900D02*
X15461322Y-13800900D01*
X15542500Y-13535900D02*
X15572500Y-13565900D01*
X15572500Y-13535900D02*
X15542500Y-13565900D01*
X15733000Y-13530000D02*
X15763000Y-13560000D01*
X15763000Y-13530000D02*
X15733000Y-13560000D01*
X15745700Y-14101600D02*
X15775700Y-14131600D01*
X15775700Y-14101600D02*
X15745700Y-14131600D01*
X15923500Y-14170900D02*
X15953500Y-14200900D01*
X15953500Y-14170900D02*
X15923500Y-14200900D01*
X15987000Y-13548600D02*
X16017000Y-13578600D01*
X16017000Y-13548600D02*
X15987000Y-13578600D01*
X16157721Y-13930600D02*
X16187721Y-13960600D01*
X16187721Y-13930600D02*
X16157721Y-13960600D01*
X16229600Y-13860588D02*
X16259600Y-13890588D01*
X16259600Y-13860588D02*
X16229600Y-13890588D01*
X16400397Y-13978700D02*
X16430397Y-14008700D01*
X16430397Y-13978700D02*
X16400397Y-14008700D01*
X16431500Y-14234400D02*
X16461500Y-14264400D01*
X16461500Y-14234400D02*
X16431500Y-14264400D01*
X16609300Y-13980400D02*
X16639300Y-14010400D01*
X16639300Y-13980400D02*
X16609300Y-14010400D01*
X16685500Y-14209900D02*
X16715500Y-14239900D01*
X16715500Y-14209900D02*
X16685500Y-14239900D01*
X16810000Y-14043700D02*
X16840000Y-14073700D01*
X16840000Y-14043700D02*
X16810000Y-14073700D01*
X16841960Y-13992921D02*
X16871960Y-14022921D01*
X16871960Y-13992921D02*
X16841960Y-14022921D01*
X16891388Y-13784495D02*
X16921388Y-13814495D01*
X16921388Y-13784495D02*
X16891388Y-13814495D01*
X17002399Y-13934550D02*
X17032399Y-13964550D01*
X17032399Y-13934550D02*
X17002399Y-13964550D01*
X17003000Y-12772500D02*
X17033000Y-12802500D01*
X17033000Y-12772500D02*
X17003000Y-12802500D01*
X17003000Y-12837400D02*
X17033000Y-12867400D01*
X17033000Y-12837400D02*
X17003000Y-12867400D01*
X17003000Y-12897400D02*
X17033000Y-12927400D01*
X17033000Y-12897400D02*
X17003000Y-12927400D01*
X17037000Y-13047000D02*
X17067000Y-13077000D01*
X17067000Y-13047000D02*
X17037000Y-13077000D01*
X17041000Y-13208000D02*
X17071000Y-13238000D01*
X17071000Y-13208000D02*
X17041000Y-13238000D01*
X17041100Y-13345400D02*
X17071100Y-13375400D01*
X17071100Y-13345400D02*
X17041100Y-13375400D01*
X17041100Y-13828000D02*
X17071100Y-13858000D01*
X17071100Y-13828000D02*
X17041100Y-13858000D01*
X17041100Y-13888700D02*
X17071100Y-13918700D01*
X17071100Y-13888700D02*
X17041100Y-13918700D01*
X17041100Y-13980400D02*
X17071100Y-14010400D01*
X17071100Y-13980400D02*
X17041100Y-14010400D01*
X17041100Y-14043700D02*
X17071100Y-14073700D01*
X17071100Y-14043700D02*
X17041100Y-14073700D01*
X17057300Y-13535900D02*
X17087300Y-13565900D01*
X17087300Y-13535900D02*
X17057300Y-13565900D01*
X17061689Y-13402041D02*
X17091689Y-13432041D01*
X17091689Y-13402041D02*
X17061689Y-13432041D01*
X17117300Y-13535900D02*
X17147300Y-13565900D01*
X17147300Y-13535900D02*
X17117300Y-13565900D01*
X17191400Y-13789900D02*
X17221400Y-13819900D01*
X17221400Y-13789900D02*
X17191400Y-13819900D01*
X17193500Y-14031200D02*
X17223500Y-14061200D01*
X17223500Y-14031200D02*
X17193500Y-14061200D01*
X17193500Y-14221700D02*
X17223500Y-14251700D01*
X17223500Y-14221700D02*
X17193500Y-14251700D01*
X17195000Y-13208000D02*
X17225000Y-13238000D01*
X17225000Y-13208000D02*
X17195000Y-13238000D01*
X17197000Y-13047000D02*
X17227000Y-13077000D01*
X17227000Y-13047000D02*
X17197000Y-13077000D01*
X17206200Y-13447041D02*
X17236200Y-13477041D01*
X17236200Y-13447041D02*
X17206200Y-13477041D01*
X17206200Y-13523200D02*
X17236200Y-13553200D01*
X17236200Y-13523200D02*
X17206200Y-13553200D01*
X17305000Y-13113000D02*
X17335000Y-13143000D01*
X17335000Y-13113000D02*
X17305000Y-13143000D01*
X17309000Y-13316000D02*
X17339000Y-13346000D01*
X17339000Y-13316000D02*
X17309000Y-13346000D01*
X17328250Y-13916900D02*
X17358250Y-13946900D01*
X17358250Y-13916900D02*
X17328250Y-13946900D01*
X17333200Y-13523200D02*
X17363200Y-13553200D01*
X17363200Y-13523200D02*
X17333200Y-13553200D01*
X17549100Y-13523200D02*
X17579100Y-13553200D01*
X17579100Y-13523200D02*
X17549100Y-13553200D01*
X17574500Y-12727500D02*
X17604500Y-12757500D01*
X17604500Y-12727500D02*
X17574500Y-12757500D01*
X17599900Y-13942734D02*
X17629900Y-13972734D01*
X17629900Y-13942734D02*
X17599900Y-13972734D01*
X17614000Y-12982000D02*
X17644000Y-13012000D01*
X17644000Y-12982000D02*
X17614000Y-13012000D01*
X17614000Y-13208000D02*
X17644000Y-13238000D01*
X17644000Y-13208000D02*
X17614000Y-13238000D01*
X17648895Y-13497800D02*
X17678895Y-13527800D01*
X17678895Y-13497800D02*
X17648895Y-13527800D01*
X17764930Y-13773300D02*
X17794930Y-13803300D01*
X17794930Y-13773300D02*
X17764930Y-13803300D01*
X17765000Y-13535900D02*
X17795000Y-13565900D01*
X17795000Y-13535900D02*
X17765000Y-13565900D01*
X17796476Y-14019237D02*
X17826476Y-14049237D01*
X17826476Y-14019237D02*
X17796476Y-14049237D01*
X17820000Y-12730000D02*
X17850000Y-12760000D01*
X17850000Y-12730000D02*
X17820000Y-12760000D01*
X17857000Y-13780000D02*
X17887000Y-13810000D01*
X17887000Y-13780000D02*
X17857000Y-13810000D01*
X17858000Y-12913000D02*
X17888000Y-12943000D01*
X17888000Y-12913000D02*
X17858000Y-12943000D01*
X17858000Y-12981000D02*
X17888000Y-13011000D01*
X17888000Y-12981000D02*
X17858000Y-13011000D01*
X17858000Y-13203000D02*
X17888000Y-13233000D01*
X17888000Y-13203000D02*
X17858000Y-13233000D01*
X17858000Y-13840000D02*
X17888000Y-13870000D01*
X17888000Y-13840000D02*
X17858000Y-13870000D01*
X17859000Y-13511000D02*
X17889000Y-13541000D01*
X17889000Y-13511000D02*
X17859000Y-13541000D01*
X17881420Y-14054480D02*
X17911420Y-14084480D01*
X17911420Y-14054480D02*
X17881420Y-14084480D01*
X18209500Y-14145500D02*
X18239500Y-14175500D01*
X18239500Y-14145500D02*
X18209500Y-14175500D01*
X13641350Y-13608650D02*
G75*
G02*
X13601350Y-13608650I-20000J0D01*
G01*
X13601350Y-13608650D02*
G75*
G02*
X13641350Y-13608650I20000J0D01*
G01*
X14589971Y-13773162D02*
G75*
G02*
X14549971Y-13773162I-20000J0D01*
G01*
X14549971Y-13773162D02*
G75*
G02*
X14589971Y-13773162I20000J0D01*
G01*
X15036185Y-13060800D02*
G75*
G02*
X14996185Y-13060800I-20000J0D01*
G01*
X14996185Y-13060800D02*
G75*
G02*
X15036185Y-13060800I20000J0D01*
G01*
X15196500Y-14173200D02*
G75*
G02*
X15156500Y-14173200I-20000J0D01*
G01*
X15156500Y-14173200D02*
G75*
G02*
X15196500Y-14173200I20000J0D01*
G01*
X15431800Y-13487543D02*
G75*
G02*
X15391800Y-13487543I-20000J0D01*
G01*
X15391800Y-13487543D02*
G75*
G02*
X15431800Y-13487543I20000J0D01*
G01*
X16999900Y-13322300D02*
G75*
G02*
X16959900Y-13322300I-20000J0D01*
G01*
X16959900Y-13322300D02*
G75*
G02*
X16999900Y-13322300I20000J0D01*
G01*
X14033500Y-14237500D02*
X14033500Y-14337500D01*
X13983500Y-14287500D02*
X14083500Y-14287500D01*
X14287500Y-14237500D02*
X14287500Y-14337500D01*
X14237500Y-14287500D02*
X14337500Y-14287500D01*
X14541500Y-14237500D02*
X14541500Y-14337500D01*
X14491500Y-14287500D02*
X14591500Y-14287500D01*
X14795500Y-14237500D02*
X14795500Y-14337500D01*
X14745500Y-14287500D02*
X14845500Y-14287500D01*
X15049500Y-14237500D02*
X15049500Y-14337500D01*
X14999500Y-14287500D02*
X15099500Y-14287500D01*
X15303500Y-14237500D02*
X15303500Y-14337500D01*
X15253500Y-14287500D02*
X15353500Y-14287500D01*
X15557500Y-14237500D02*
X15557500Y-14337500D01*
X15507500Y-14287500D02*
X15607500Y-14287500D01*
X15811500Y-14237500D02*
X15811500Y-14337500D01*
X15761500Y-14287500D02*
X15861500Y-14287500D01*
X16065500Y-14237500D02*
X16065500Y-14337500D01*
X16015500Y-14287500D02*
X16115500Y-14287500D01*
X16319500Y-14237500D02*
X16319500Y-14337500D01*
X16269500Y-14287500D02*
X16369500Y-14287500D01*
X16573500Y-14237500D02*
X16573500Y-14337500D01*
X16523500Y-14287500D02*
X16623500Y-14287500D01*
X16827500Y-14237500D02*
X16827500Y-14337500D01*
X16777500Y-14287500D02*
X16877500Y-14287500D01*
X17081500Y-14237500D02*
X17081500Y-14337500D01*
X17031500Y-14287500D02*
X17131500Y-14287500D01*
X17335500Y-14237500D02*
X17335500Y-14337500D01*
X17285500Y-14287500D02*
X17385500Y-14287500D01*
X17589500Y-14237500D02*
X17589500Y-14337500D01*
X17539500Y-14287500D02*
X17639500Y-14287500D01*
X17843500Y-14237500D02*
X17843500Y-14337500D01*
X17793500Y-14287500D02*
X17893500Y-14287500D01*
X18097500Y-14237500D02*
X18097500Y-14337500D01*
X18047500Y-14287500D02*
X18147500Y-14287500D01*
D11*
X13247877Y-14794484D02*
X13247877Y-14594484D01*
X13247877Y-14594484D02*
X13295496Y-14594484D01*
X13295496Y-14594484D02*
X13324067Y-14604008D01*
X13324067Y-14604008D02*
X13343115Y-14623055D01*
X13343115Y-14623055D02*
X13352639Y-14642103D01*
X13352639Y-14642103D02*
X13362162Y-14680198D01*
X13362162Y-14680198D02*
X13362162Y-14708769D01*
X13362162Y-14708769D02*
X13352639Y-14746865D01*
X13352639Y-14746865D02*
X13343115Y-14765912D01*
X13343115Y-14765912D02*
X13324067Y-14784960D01*
X13324067Y-14784960D02*
X13295496Y-14794484D01*
X13295496Y-14794484D02*
X13247877Y-14794484D01*
X13447877Y-14794484D02*
X13447877Y-14661150D01*
X13447877Y-14699246D02*
X13457401Y-14680198D01*
X13457401Y-14680198D02*
X13466924Y-14670674D01*
X13466924Y-14670674D02*
X13485972Y-14661150D01*
X13485972Y-14661150D02*
X13505020Y-14661150D01*
X13571686Y-14794484D02*
X13571686Y-14661150D01*
X13571686Y-14594484D02*
X13562162Y-14604008D01*
X13562162Y-14604008D02*
X13571686Y-14613531D01*
X13571686Y-14613531D02*
X13581210Y-14604008D01*
X13581210Y-14604008D02*
X13571686Y-14594484D01*
X13571686Y-14594484D02*
X13571686Y-14613531D01*
X13695496Y-14794484D02*
X13676448Y-14784960D01*
X13676448Y-14784960D02*
X13666924Y-14765912D01*
X13666924Y-14765912D02*
X13666924Y-14594484D01*
X13800258Y-14794484D02*
X13781210Y-14784960D01*
X13781210Y-14784960D02*
X13771686Y-14765912D01*
X13771686Y-14765912D02*
X13771686Y-14594484D01*
X14028829Y-14794484D02*
X14028829Y-14594484D01*
X14028829Y-14594484D02*
X14095496Y-14737341D01*
X14095496Y-14737341D02*
X14162162Y-14594484D01*
X14162162Y-14594484D02*
X14162162Y-14794484D01*
X14343115Y-14794484D02*
X14343115Y-14689722D01*
X14343115Y-14689722D02*
X14333591Y-14670674D01*
X14333591Y-14670674D02*
X14314543Y-14661150D01*
X14314543Y-14661150D02*
X14276448Y-14661150D01*
X14276448Y-14661150D02*
X14257401Y-14670674D01*
X14343115Y-14784960D02*
X14324067Y-14794484D01*
X14324067Y-14794484D02*
X14276448Y-14794484D01*
X14276448Y-14794484D02*
X14257401Y-14784960D01*
X14257401Y-14784960D02*
X14247877Y-14765912D01*
X14247877Y-14765912D02*
X14247877Y-14746865D01*
X14247877Y-14746865D02*
X14257401Y-14727817D01*
X14257401Y-14727817D02*
X14276448Y-14718293D01*
X14276448Y-14718293D02*
X14324067Y-14718293D01*
X14324067Y-14718293D02*
X14343115Y-14708769D01*
X14438353Y-14661150D02*
X14438353Y-14861150D01*
X14438353Y-14670674D02*
X14457401Y-14661150D01*
X14457401Y-14661150D02*
X14495496Y-14661150D01*
X14495496Y-14661150D02*
X14514543Y-14670674D01*
X14514543Y-14670674D02*
X14524067Y-14680198D01*
X14524067Y-14680198D02*
X14533591Y-14699246D01*
X14533591Y-14699246D02*
X14533591Y-14756388D01*
X14533591Y-14756388D02*
X14524067Y-14775436D01*
X14524067Y-14775436D02*
X14514543Y-14784960D01*
X14514543Y-14784960D02*
X14495496Y-14794484D01*
X14495496Y-14794484D02*
X14457401Y-14794484D01*
X14457401Y-14794484D02*
X14438353Y-14784960D01*
X14619305Y-14775436D02*
X14628829Y-14784960D01*
X14628829Y-14784960D02*
X14619305Y-14794484D01*
X14619305Y-14794484D02*
X14609782Y-14784960D01*
X14609782Y-14784960D02*
X14619305Y-14775436D01*
X14619305Y-14775436D02*
X14619305Y-14794484D01*
X14619305Y-14670674D02*
X14628829Y-14680198D01*
X14628829Y-14680198D02*
X14619305Y-14689722D01*
X14619305Y-14689722D02*
X14609782Y-14680198D01*
X14609782Y-14680198D02*
X14619305Y-14670674D01*
X14619305Y-14670674D02*
X14619305Y-14689722D01*
D10*
X12957100Y-15108000D02*
X12987100Y-15138000D01*
X12987100Y-15108000D02*
X12957100Y-15138000D01*
D11*
X13285972Y-15014484D02*
X13305020Y-15014484D01*
X13305020Y-15014484D02*
X13324067Y-15024008D01*
X13324067Y-15024008D02*
X13333591Y-15033531D01*
X13333591Y-15033531D02*
X13343115Y-15052579D01*
X13343115Y-15052579D02*
X13352639Y-15090674D01*
X13352639Y-15090674D02*
X13352639Y-15138293D01*
X13352639Y-15138293D02*
X13343115Y-15176388D01*
X13343115Y-15176388D02*
X13333591Y-15195436D01*
X13333591Y-15195436D02*
X13324067Y-15204960D01*
X13324067Y-15204960D02*
X13305020Y-15214484D01*
X13305020Y-15214484D02*
X13285972Y-15214484D01*
X13285972Y-15214484D02*
X13266924Y-15204960D01*
X13266924Y-15204960D02*
X13257401Y-15195436D01*
X13257401Y-15195436D02*
X13247877Y-15176388D01*
X13247877Y-15176388D02*
X13238353Y-15138293D01*
X13238353Y-15138293D02*
X13238353Y-15090674D01*
X13238353Y-15090674D02*
X13247877Y-15052579D01*
X13247877Y-15052579D02*
X13257401Y-15033531D01*
X13257401Y-15033531D02*
X13266924Y-15024008D01*
X13266924Y-15024008D02*
X13285972Y-15014484D01*
X13438353Y-15195436D02*
X13447877Y-15204960D01*
X13447877Y-15204960D02*
X13438353Y-15214484D01*
X13438353Y-15214484D02*
X13428829Y-15204960D01*
X13428829Y-15204960D02*
X13438353Y-15195436D01*
X13438353Y-15195436D02*
X13438353Y-15214484D01*
X13514543Y-15014484D02*
X13638353Y-15014484D01*
X13638353Y-15014484D02*
X13571686Y-15090674D01*
X13571686Y-15090674D02*
X13600258Y-15090674D01*
X13600258Y-15090674D02*
X13619305Y-15100198D01*
X13619305Y-15100198D02*
X13628829Y-15109722D01*
X13628829Y-15109722D02*
X13638353Y-15128769D01*
X13638353Y-15128769D02*
X13638353Y-15176388D01*
X13638353Y-15176388D02*
X13628829Y-15195436D01*
X13628829Y-15195436D02*
X13619305Y-15204960D01*
X13619305Y-15204960D02*
X13600258Y-15214484D01*
X13600258Y-15214484D02*
X13543115Y-15214484D01*
X13543115Y-15214484D02*
X13524067Y-15204960D01*
X13524067Y-15204960D02*
X13514543Y-15195436D01*
X13762162Y-15014484D02*
X13781210Y-15014484D01*
X13781210Y-15014484D02*
X13800258Y-15024008D01*
X13800258Y-15024008D02*
X13809782Y-15033531D01*
X13809782Y-15033531D02*
X13819305Y-15052579D01*
X13819305Y-15052579D02*
X13828829Y-15090674D01*
X13828829Y-15090674D02*
X13828829Y-15138293D01*
X13828829Y-15138293D02*
X13819305Y-15176388D01*
X13819305Y-15176388D02*
X13809782Y-15195436D01*
X13809782Y-15195436D02*
X13800258Y-15204960D01*
X13800258Y-15204960D02*
X13781210Y-15214484D01*
X13781210Y-15214484D02*
X13762162Y-15214484D01*
X13762162Y-15214484D02*
X13743115Y-15204960D01*
X13743115Y-15204960D02*
X13733591Y-15195436D01*
X13733591Y-15195436D02*
X13724067Y-15176388D01*
X13724067Y-15176388D02*
X13714543Y-15138293D01*
X13714543Y-15138293D02*
X13714543Y-15090674D01*
X13714543Y-15090674D02*
X13724067Y-15052579D01*
X13724067Y-15052579D02*
X13733591Y-15033531D01*
X13733591Y-15033531D02*
X13743115Y-15024008D01*
X13743115Y-15024008D02*
X13762162Y-15014484D01*
X13952639Y-15014484D02*
X13971686Y-15014484D01*
X13971686Y-15014484D02*
X13990734Y-15024008D01*
X13990734Y-15024008D02*
X14000258Y-15033531D01*
X14000258Y-15033531D02*
X14009782Y-15052579D01*
X14009782Y-15052579D02*
X14019305Y-15090674D01*
X14019305Y-15090674D02*
X14019305Y-15138293D01*
X14019305Y-15138293D02*
X14009782Y-15176388D01*
X14009782Y-15176388D02*
X14000258Y-15195436D01*
X14000258Y-15195436D02*
X13990734Y-15204960D01*
X13990734Y-15204960D02*
X13971686Y-15214484D01*
X13971686Y-15214484D02*
X13952639Y-15214484D01*
X13952639Y-15214484D02*
X13933591Y-15204960D01*
X13933591Y-15204960D02*
X13924067Y-15195436D01*
X13924067Y-15195436D02*
X13914543Y-15176388D01*
X13914543Y-15176388D02*
X13905020Y-15138293D01*
X13905020Y-15138293D02*
X13905020Y-15090674D01*
X13905020Y-15090674D02*
X13914543Y-15052579D01*
X13914543Y-15052579D02*
X13924067Y-15033531D01*
X13924067Y-15033531D02*
X13933591Y-15024008D01*
X13933591Y-15024008D02*
X13952639Y-15014484D01*
X14105020Y-15214484D02*
X14105020Y-15081150D01*
X14105020Y-15100198D02*
X14114543Y-15090674D01*
X14114543Y-15090674D02*
X14133591Y-15081150D01*
X14133591Y-15081150D02*
X14162163Y-15081150D01*
X14162163Y-15081150D02*
X14181210Y-15090674D01*
X14181210Y-15090674D02*
X14190734Y-15109722D01*
X14190734Y-15109722D02*
X14190734Y-15214484D01*
X14190734Y-15109722D02*
X14200258Y-15090674D01*
X14200258Y-15090674D02*
X14219305Y-15081150D01*
X14219305Y-15081150D02*
X14247877Y-15081150D01*
X14247877Y-15081150D02*
X14266924Y-15090674D01*
X14266924Y-15090674D02*
X14276448Y-15109722D01*
X14276448Y-15109722D02*
X14276448Y-15214484D01*
X14371686Y-15214484D02*
X14371686Y-15081150D01*
X14371686Y-15100198D02*
X14381210Y-15090674D01*
X14381210Y-15090674D02*
X14400258Y-15081150D01*
X14400258Y-15081150D02*
X14428829Y-15081150D01*
X14428829Y-15081150D02*
X14447877Y-15090674D01*
X14447877Y-15090674D02*
X14457401Y-15109722D01*
X14457401Y-15109722D02*
X14457401Y-15214484D01*
X14457401Y-15109722D02*
X14466924Y-15090674D01*
X14466924Y-15090674D02*
X14485972Y-15081150D01*
X14485972Y-15081150D02*
X14514543Y-15081150D01*
X14514543Y-15081150D02*
X14533591Y-15090674D01*
X14533591Y-15090674D02*
X14543115Y-15109722D01*
X14543115Y-15109722D02*
X14543115Y-15214484D01*
X14933591Y-15004960D02*
X14762163Y-15262103D01*
X15190734Y-15014484D02*
X15209782Y-15014484D01*
X15209782Y-15014484D02*
X15228829Y-15024008D01*
X15228829Y-15024008D02*
X15238353Y-15033531D01*
X15238353Y-15033531D02*
X15247877Y-15052579D01*
X15247877Y-15052579D02*
X15257401Y-15090674D01*
X15257401Y-15090674D02*
X15257401Y-15138293D01*
X15257401Y-15138293D02*
X15247877Y-15176388D01*
X15247877Y-15176388D02*
X15238353Y-15195436D01*
X15238353Y-15195436D02*
X15228829Y-15204960D01*
X15228829Y-15204960D02*
X15209782Y-15214484D01*
X15209782Y-15214484D02*
X15190734Y-15214484D01*
X15190734Y-15214484D02*
X15171686Y-15204960D01*
X15171686Y-15204960D02*
X15162163Y-15195436D01*
X15162163Y-15195436D02*
X15152639Y-15176388D01*
X15152639Y-15176388D02*
X15143115Y-15138293D01*
X15143115Y-15138293D02*
X15143115Y-15090674D01*
X15143115Y-15090674D02*
X15152639Y-15052579D01*
X15152639Y-15052579D02*
X15162163Y-15033531D01*
X15162163Y-15033531D02*
X15171686Y-15024008D01*
X15171686Y-15024008D02*
X15190734Y-15014484D01*
X15343115Y-15195436D02*
X15352639Y-15204960D01*
X15352639Y-15204960D02*
X15343115Y-15214484D01*
X15343115Y-15214484D02*
X15333591Y-15204960D01*
X15333591Y-15204960D02*
X15343115Y-15195436D01*
X15343115Y-15195436D02*
X15343115Y-15214484D01*
X15476448Y-15014484D02*
X15495496Y-15014484D01*
X15495496Y-15014484D02*
X15514544Y-15024008D01*
X15514544Y-15024008D02*
X15524067Y-15033531D01*
X15524067Y-15033531D02*
X15533591Y-15052579D01*
X15533591Y-15052579D02*
X15543115Y-15090674D01*
X15543115Y-15090674D02*
X15543115Y-15138293D01*
X15543115Y-15138293D02*
X15533591Y-15176388D01*
X15533591Y-15176388D02*
X15524067Y-15195436D01*
X15524067Y-15195436D02*
X15514544Y-15204960D01*
X15514544Y-15204960D02*
X15495496Y-15214484D01*
X15495496Y-15214484D02*
X15476448Y-15214484D01*
X15476448Y-15214484D02*
X15457401Y-15204960D01*
X15457401Y-15204960D02*
X15447877Y-15195436D01*
X15447877Y-15195436D02*
X15438353Y-15176388D01*
X15438353Y-15176388D02*
X15428829Y-15138293D01*
X15428829Y-15138293D02*
X15428829Y-15090674D01*
X15428829Y-15090674D02*
X15438353Y-15052579D01*
X15438353Y-15052579D02*
X15447877Y-15033531D01*
X15447877Y-15033531D02*
X15457401Y-15024008D01*
X15457401Y-15024008D02*
X15476448Y-15014484D01*
X15733591Y-15214484D02*
X15619306Y-15214484D01*
X15676448Y-15214484D02*
X15676448Y-15014484D01*
X15676448Y-15014484D02*
X15657401Y-15043055D01*
X15657401Y-15043055D02*
X15638353Y-15062103D01*
X15638353Y-15062103D02*
X15619306Y-15071627D01*
X15924067Y-15214484D02*
X15809782Y-15214484D01*
X15866925Y-15214484D02*
X15866925Y-15014484D01*
X15866925Y-15014484D02*
X15847877Y-15043055D01*
X15847877Y-15043055D02*
X15828829Y-15062103D01*
X15828829Y-15062103D02*
X15809782Y-15071627D01*
X16038353Y-15100198D02*
X16019306Y-15090674D01*
X16019306Y-15090674D02*
X16009782Y-15081150D01*
X16009782Y-15081150D02*
X16000258Y-15062103D01*
X16000258Y-15062103D02*
X16000258Y-15052579D01*
X16000258Y-15052579D02*
X16009782Y-15033531D01*
X16009782Y-15033531D02*
X16019306Y-15024008D01*
X16019306Y-15024008D02*
X16038353Y-15014484D01*
X16038353Y-15014484D02*
X16076448Y-15014484D01*
X16076448Y-15014484D02*
X16095496Y-15024008D01*
X16095496Y-15024008D02*
X16105020Y-15033531D01*
X16105020Y-15033531D02*
X16114544Y-15052579D01*
X16114544Y-15052579D02*
X16114544Y-15062103D01*
X16114544Y-15062103D02*
X16105020Y-15081150D01*
X16105020Y-15081150D02*
X16095496Y-15090674D01*
X16095496Y-15090674D02*
X16076448Y-15100198D01*
X16076448Y-15100198D02*
X16038353Y-15100198D01*
X16038353Y-15100198D02*
X16019306Y-15109722D01*
X16019306Y-15109722D02*
X16009782Y-15119246D01*
X16009782Y-15119246D02*
X16000258Y-15138293D01*
X16000258Y-15138293D02*
X16000258Y-15176388D01*
X16000258Y-15176388D02*
X16009782Y-15195436D01*
X16009782Y-15195436D02*
X16019306Y-15204960D01*
X16019306Y-15204960D02*
X16038353Y-15214484D01*
X16038353Y-15214484D02*
X16076448Y-15214484D01*
X16076448Y-15214484D02*
X16095496Y-15204960D01*
X16095496Y-15204960D02*
X16105020Y-15195436D01*
X16105020Y-15195436D02*
X16114544Y-15176388D01*
X16114544Y-15176388D02*
X16114544Y-15138293D01*
X16114544Y-15138293D02*
X16105020Y-15119246D01*
X16105020Y-15119246D02*
X16095496Y-15109722D01*
X16095496Y-15109722D02*
X16076448Y-15100198D01*
X16190734Y-15014484D02*
X16190734Y-15052579D01*
X16266925Y-15014484D02*
X16266925Y-15052579D01*
X16562163Y-15290674D02*
X16552639Y-15281150D01*
X16552639Y-15281150D02*
X16533591Y-15252579D01*
X16533591Y-15252579D02*
X16524068Y-15233531D01*
X16524068Y-15233531D02*
X16514544Y-15204960D01*
X16514544Y-15204960D02*
X16505020Y-15157341D01*
X16505020Y-15157341D02*
X16505020Y-15119246D01*
X16505020Y-15119246D02*
X16514544Y-15071627D01*
X16514544Y-15071627D02*
X16524068Y-15043055D01*
X16524068Y-15043055D02*
X16533591Y-15024008D01*
X16533591Y-15024008D02*
X16552639Y-14995436D01*
X16552639Y-14995436D02*
X16562163Y-14985912D01*
X16724068Y-15014484D02*
X16685972Y-15014484D01*
X16685972Y-15014484D02*
X16666925Y-15024008D01*
X16666925Y-15024008D02*
X16657401Y-15033531D01*
X16657401Y-15033531D02*
X16638353Y-15062103D01*
X16638353Y-15062103D02*
X16628829Y-15100198D01*
X16628829Y-15100198D02*
X16628829Y-15176388D01*
X16628829Y-15176388D02*
X16638353Y-15195436D01*
X16638353Y-15195436D02*
X16647877Y-15204960D01*
X16647877Y-15204960D02*
X16666925Y-15214484D01*
X16666925Y-15214484D02*
X16705020Y-15214484D01*
X16705020Y-15214484D02*
X16724068Y-15204960D01*
X16724068Y-15204960D02*
X16733591Y-15195436D01*
X16733591Y-15195436D02*
X16743115Y-15176388D01*
X16743115Y-15176388D02*
X16743115Y-15128769D01*
X16743115Y-15128769D02*
X16733591Y-15109722D01*
X16733591Y-15109722D02*
X16724068Y-15100198D01*
X16724068Y-15100198D02*
X16705020Y-15090674D01*
X16705020Y-15090674D02*
X16666925Y-15090674D01*
X16666925Y-15090674D02*
X16647877Y-15100198D01*
X16647877Y-15100198D02*
X16638353Y-15109722D01*
X16638353Y-15109722D02*
X16628829Y-15128769D01*
X16914544Y-15014484D02*
X16876449Y-15014484D01*
X16876449Y-15014484D02*
X16857401Y-15024008D01*
X16857401Y-15024008D02*
X16847877Y-15033531D01*
X16847877Y-15033531D02*
X16828830Y-15062103D01*
X16828830Y-15062103D02*
X16819306Y-15100198D01*
X16819306Y-15100198D02*
X16819306Y-15176388D01*
X16819306Y-15176388D02*
X16828830Y-15195436D01*
X16828830Y-15195436D02*
X16838353Y-15204960D01*
X16838353Y-15204960D02*
X16857401Y-15214484D01*
X16857401Y-15214484D02*
X16895496Y-15214484D01*
X16895496Y-15214484D02*
X16914544Y-15204960D01*
X16914544Y-15204960D02*
X16924068Y-15195436D01*
X16924068Y-15195436D02*
X16933591Y-15176388D01*
X16933591Y-15176388D02*
X16933591Y-15128769D01*
X16933591Y-15128769D02*
X16924068Y-15109722D01*
X16924068Y-15109722D02*
X16914544Y-15100198D01*
X16914544Y-15100198D02*
X16895496Y-15090674D01*
X16895496Y-15090674D02*
X16857401Y-15090674D01*
X16857401Y-15090674D02*
X16838353Y-15100198D01*
X16838353Y-15100198D02*
X16828830Y-15109722D01*
X16828830Y-15109722D02*
X16819306Y-15128769D01*
X17171687Y-15214484D02*
X17171687Y-15014484D01*
X17257401Y-15214484D02*
X17257401Y-15109722D01*
X17257401Y-15109722D02*
X17247877Y-15090674D01*
X17247877Y-15090674D02*
X17228830Y-15081150D01*
X17228830Y-15081150D02*
X17200258Y-15081150D01*
X17200258Y-15081150D02*
X17181211Y-15090674D01*
X17181211Y-15090674D02*
X17171687Y-15100198D01*
X17381211Y-15214484D02*
X17362163Y-15204960D01*
X17362163Y-15204960D02*
X17352639Y-15195436D01*
X17352639Y-15195436D02*
X17343115Y-15176388D01*
X17343115Y-15176388D02*
X17343115Y-15119246D01*
X17343115Y-15119246D02*
X17352639Y-15100198D01*
X17352639Y-15100198D02*
X17362163Y-15090674D01*
X17362163Y-15090674D02*
X17381211Y-15081150D01*
X17381211Y-15081150D02*
X17409782Y-15081150D01*
X17409782Y-15081150D02*
X17428830Y-15090674D01*
X17428830Y-15090674D02*
X17438353Y-15100198D01*
X17438353Y-15100198D02*
X17447877Y-15119246D01*
X17447877Y-15119246D02*
X17447877Y-15176388D01*
X17447877Y-15176388D02*
X17438353Y-15195436D01*
X17438353Y-15195436D02*
X17428830Y-15204960D01*
X17428830Y-15204960D02*
X17409782Y-15214484D01*
X17409782Y-15214484D02*
X17381211Y-15214484D01*
X17562163Y-15214484D02*
X17543115Y-15204960D01*
X17543115Y-15204960D02*
X17533592Y-15185912D01*
X17533592Y-15185912D02*
X17533592Y-15014484D01*
X17714544Y-15204960D02*
X17695496Y-15214484D01*
X17695496Y-15214484D02*
X17657401Y-15214484D01*
X17657401Y-15214484D02*
X17638353Y-15204960D01*
X17638353Y-15204960D02*
X17628830Y-15185912D01*
X17628830Y-15185912D02*
X17628830Y-15109722D01*
X17628830Y-15109722D02*
X17638353Y-15090674D01*
X17638353Y-15090674D02*
X17657401Y-15081150D01*
X17657401Y-15081150D02*
X17695496Y-15081150D01*
X17695496Y-15081150D02*
X17714544Y-15090674D01*
X17714544Y-15090674D02*
X17724068Y-15109722D01*
X17724068Y-15109722D02*
X17724068Y-15128769D01*
X17724068Y-15128769D02*
X17628830Y-15147817D01*
X17800258Y-15204960D02*
X17819306Y-15214484D01*
X17819306Y-15214484D02*
X17857401Y-15214484D01*
X17857401Y-15214484D02*
X17876449Y-15204960D01*
X17876449Y-15204960D02*
X17885973Y-15185912D01*
X17885973Y-15185912D02*
X17885973Y-15176388D01*
X17885973Y-15176388D02*
X17876449Y-15157341D01*
X17876449Y-15157341D02*
X17857401Y-15147817D01*
X17857401Y-15147817D02*
X17828830Y-15147817D01*
X17828830Y-15147817D02*
X17809782Y-15138293D01*
X17809782Y-15138293D02*
X17800258Y-15119246D01*
X17800258Y-15119246D02*
X17800258Y-15109722D01*
X17800258Y-15109722D02*
X17809782Y-15090674D01*
X17809782Y-15090674D02*
X17828830Y-15081150D01*
X17828830Y-15081150D02*
X17857401Y-15081150D01*
X17857401Y-15081150D02*
X17876449Y-15090674D01*
X17952639Y-15290674D02*
X17962163Y-15281150D01*
X17962163Y-15281150D02*
X17981211Y-15252579D01*
X17981211Y-15252579D02*
X17990734Y-15233531D01*
X17990734Y-15233531D02*
X18000258Y-15204960D01*
X18000258Y-15204960D02*
X18009782Y-15157341D01*
X18009782Y-15157341D02*
X18009782Y-15119246D01*
X18009782Y-15119246D02*
X18000258Y-15071627D01*
X18000258Y-15071627D02*
X17990734Y-15043055D01*
X17990734Y-15043055D02*
X17981211Y-15024008D01*
X17981211Y-15024008D02*
X17962163Y-14995436D01*
X17962163Y-14995436D02*
X17952639Y-14985912D01*
D10*
X12987100Y-15387000D02*
G75*
G02*
X12947100Y-15387000I-20000J0D01*
G01*
X12947100Y-15387000D02*
G75*
G02*
X12987100Y-15387000I20000J0D01*
G01*
D11*
X13285972Y-15278484D02*
X13305020Y-15278484D01*
X13305020Y-15278484D02*
X13324067Y-15288008D01*
X13324067Y-15288008D02*
X13333591Y-15297531D01*
X13333591Y-15297531D02*
X13343115Y-15316579D01*
X13343115Y-15316579D02*
X13352639Y-15354674D01*
X13352639Y-15354674D02*
X13352639Y-15402293D01*
X13352639Y-15402293D02*
X13343115Y-15440388D01*
X13343115Y-15440388D02*
X13333591Y-15459436D01*
X13333591Y-15459436D02*
X13324067Y-15468960D01*
X13324067Y-15468960D02*
X13305020Y-15478484D01*
X13305020Y-15478484D02*
X13285972Y-15478484D01*
X13285972Y-15478484D02*
X13266924Y-15468960D01*
X13266924Y-15468960D02*
X13257401Y-15459436D01*
X13257401Y-15459436D02*
X13247877Y-15440388D01*
X13247877Y-15440388D02*
X13238353Y-15402293D01*
X13238353Y-15402293D02*
X13238353Y-15354674D01*
X13238353Y-15354674D02*
X13247877Y-15316579D01*
X13247877Y-15316579D02*
X13257401Y-15297531D01*
X13257401Y-15297531D02*
X13266924Y-15288008D01*
X13266924Y-15288008D02*
X13285972Y-15278484D01*
X13438353Y-15459436D02*
X13447877Y-15468960D01*
X13447877Y-15468960D02*
X13438353Y-15478484D01*
X13438353Y-15478484D02*
X13428829Y-15468960D01*
X13428829Y-15468960D02*
X13438353Y-15459436D01*
X13438353Y-15459436D02*
X13438353Y-15478484D01*
X13619305Y-15345150D02*
X13619305Y-15478484D01*
X13571686Y-15268960D02*
X13524067Y-15411817D01*
X13524067Y-15411817D02*
X13647877Y-15411817D01*
X13762162Y-15278484D02*
X13781210Y-15278484D01*
X13781210Y-15278484D02*
X13800258Y-15288008D01*
X13800258Y-15288008D02*
X13809782Y-15297531D01*
X13809782Y-15297531D02*
X13819305Y-15316579D01*
X13819305Y-15316579D02*
X13828829Y-15354674D01*
X13828829Y-15354674D02*
X13828829Y-15402293D01*
X13828829Y-15402293D02*
X13819305Y-15440388D01*
X13819305Y-15440388D02*
X13809782Y-15459436D01*
X13809782Y-15459436D02*
X13800258Y-15468960D01*
X13800258Y-15468960D02*
X13781210Y-15478484D01*
X13781210Y-15478484D02*
X13762162Y-15478484D01*
X13762162Y-15478484D02*
X13743115Y-15468960D01*
X13743115Y-15468960D02*
X13733591Y-15459436D01*
X13733591Y-15459436D02*
X13724067Y-15440388D01*
X13724067Y-15440388D02*
X13714543Y-15402293D01*
X13714543Y-15402293D02*
X13714543Y-15354674D01*
X13714543Y-15354674D02*
X13724067Y-15316579D01*
X13724067Y-15316579D02*
X13733591Y-15297531D01*
X13733591Y-15297531D02*
X13743115Y-15288008D01*
X13743115Y-15288008D02*
X13762162Y-15278484D01*
X13952639Y-15278484D02*
X13971686Y-15278484D01*
X13971686Y-15278484D02*
X13990734Y-15288008D01*
X13990734Y-15288008D02*
X14000258Y-15297531D01*
X14000258Y-15297531D02*
X14009782Y-15316579D01*
X14009782Y-15316579D02*
X14019305Y-15354674D01*
X14019305Y-15354674D02*
X14019305Y-15402293D01*
X14019305Y-15402293D02*
X14009782Y-15440388D01*
X14009782Y-15440388D02*
X14000258Y-15459436D01*
X14000258Y-15459436D02*
X13990734Y-15468960D01*
X13990734Y-15468960D02*
X13971686Y-15478484D01*
X13971686Y-15478484D02*
X13952639Y-15478484D01*
X13952639Y-15478484D02*
X13933591Y-15468960D01*
X13933591Y-15468960D02*
X13924067Y-15459436D01*
X13924067Y-15459436D02*
X13914543Y-15440388D01*
X13914543Y-15440388D02*
X13905020Y-15402293D01*
X13905020Y-15402293D02*
X13905020Y-15354674D01*
X13905020Y-15354674D02*
X13914543Y-15316579D01*
X13914543Y-15316579D02*
X13924067Y-15297531D01*
X13924067Y-15297531D02*
X13933591Y-15288008D01*
X13933591Y-15288008D02*
X13952639Y-15278484D01*
X14105020Y-15478484D02*
X14105020Y-15345150D01*
X14105020Y-15364198D02*
X14114543Y-15354674D01*
X14114543Y-15354674D02*
X14133591Y-15345150D01*
X14133591Y-15345150D02*
X14162163Y-15345150D01*
X14162163Y-15345150D02*
X14181210Y-15354674D01*
X14181210Y-15354674D02*
X14190734Y-15373722D01*
X14190734Y-15373722D02*
X14190734Y-15478484D01*
X14190734Y-15373722D02*
X14200258Y-15354674D01*
X14200258Y-15354674D02*
X14219305Y-15345150D01*
X14219305Y-15345150D02*
X14247877Y-15345150D01*
X14247877Y-15345150D02*
X14266924Y-15354674D01*
X14266924Y-15354674D02*
X14276448Y-15373722D01*
X14276448Y-15373722D02*
X14276448Y-15478484D01*
X14371686Y-15478484D02*
X14371686Y-15345150D01*
X14371686Y-15364198D02*
X14381210Y-15354674D01*
X14381210Y-15354674D02*
X14400258Y-15345150D01*
X14400258Y-15345150D02*
X14428829Y-15345150D01*
X14428829Y-15345150D02*
X14447877Y-15354674D01*
X14447877Y-15354674D02*
X14457401Y-15373722D01*
X14457401Y-15373722D02*
X14457401Y-15478484D01*
X14457401Y-15373722D02*
X14466924Y-15354674D01*
X14466924Y-15354674D02*
X14485972Y-15345150D01*
X14485972Y-15345150D02*
X14514543Y-15345150D01*
X14514543Y-15345150D02*
X14533591Y-15354674D01*
X14533591Y-15354674D02*
X14543115Y-15373722D01*
X14543115Y-15373722D02*
X14543115Y-15478484D01*
X14933591Y-15268960D02*
X14762163Y-15526103D01*
X15190734Y-15278484D02*
X15209782Y-15278484D01*
X15209782Y-15278484D02*
X15228829Y-15288008D01*
X15228829Y-15288008D02*
X15238353Y-15297531D01*
X15238353Y-15297531D02*
X15247877Y-15316579D01*
X15247877Y-15316579D02*
X15257401Y-15354674D01*
X15257401Y-15354674D02*
X15257401Y-15402293D01*
X15257401Y-15402293D02*
X15247877Y-15440388D01*
X15247877Y-15440388D02*
X15238353Y-15459436D01*
X15238353Y-15459436D02*
X15228829Y-15468960D01*
X15228829Y-15468960D02*
X15209782Y-15478484D01*
X15209782Y-15478484D02*
X15190734Y-15478484D01*
X15190734Y-15478484D02*
X15171686Y-15468960D01*
X15171686Y-15468960D02*
X15162163Y-15459436D01*
X15162163Y-15459436D02*
X15152639Y-15440388D01*
X15152639Y-15440388D02*
X15143115Y-15402293D01*
X15143115Y-15402293D02*
X15143115Y-15354674D01*
X15143115Y-15354674D02*
X15152639Y-15316579D01*
X15152639Y-15316579D02*
X15162163Y-15297531D01*
X15162163Y-15297531D02*
X15171686Y-15288008D01*
X15171686Y-15288008D02*
X15190734Y-15278484D01*
X15343115Y-15459436D02*
X15352639Y-15468960D01*
X15352639Y-15468960D02*
X15343115Y-15478484D01*
X15343115Y-15478484D02*
X15333591Y-15468960D01*
X15333591Y-15468960D02*
X15343115Y-15459436D01*
X15343115Y-15459436D02*
X15343115Y-15478484D01*
X15476448Y-15278484D02*
X15495496Y-15278484D01*
X15495496Y-15278484D02*
X15514544Y-15288008D01*
X15514544Y-15288008D02*
X15524067Y-15297531D01*
X15524067Y-15297531D02*
X15533591Y-15316579D01*
X15533591Y-15316579D02*
X15543115Y-15354674D01*
X15543115Y-15354674D02*
X15543115Y-15402293D01*
X15543115Y-15402293D02*
X15533591Y-15440388D01*
X15533591Y-15440388D02*
X15524067Y-15459436D01*
X15524067Y-15459436D02*
X15514544Y-15468960D01*
X15514544Y-15468960D02*
X15495496Y-15478484D01*
X15495496Y-15478484D02*
X15476448Y-15478484D01*
X15476448Y-15478484D02*
X15457401Y-15468960D01*
X15457401Y-15468960D02*
X15447877Y-15459436D01*
X15447877Y-15459436D02*
X15438353Y-15440388D01*
X15438353Y-15440388D02*
X15428829Y-15402293D01*
X15428829Y-15402293D02*
X15428829Y-15354674D01*
X15428829Y-15354674D02*
X15438353Y-15316579D01*
X15438353Y-15316579D02*
X15447877Y-15297531D01*
X15447877Y-15297531D02*
X15457401Y-15288008D01*
X15457401Y-15288008D02*
X15476448Y-15278484D01*
X15733591Y-15478484D02*
X15619306Y-15478484D01*
X15676448Y-15478484D02*
X15676448Y-15278484D01*
X15676448Y-15278484D02*
X15657401Y-15307055D01*
X15657401Y-15307055D02*
X15638353Y-15326103D01*
X15638353Y-15326103D02*
X15619306Y-15335627D01*
X15914544Y-15278484D02*
X15819306Y-15278484D01*
X15819306Y-15278484D02*
X15809782Y-15373722D01*
X15809782Y-15373722D02*
X15819306Y-15364198D01*
X15819306Y-15364198D02*
X15838353Y-15354674D01*
X15838353Y-15354674D02*
X15885972Y-15354674D01*
X15885972Y-15354674D02*
X15905020Y-15364198D01*
X15905020Y-15364198D02*
X15914544Y-15373722D01*
X15914544Y-15373722D02*
X15924067Y-15392769D01*
X15924067Y-15392769D02*
X15924067Y-15440388D01*
X15924067Y-15440388D02*
X15914544Y-15459436D01*
X15914544Y-15459436D02*
X15905020Y-15468960D01*
X15905020Y-15468960D02*
X15885972Y-15478484D01*
X15885972Y-15478484D02*
X15838353Y-15478484D01*
X15838353Y-15478484D02*
X15819306Y-15468960D01*
X15819306Y-15468960D02*
X15809782Y-15459436D01*
X15990734Y-15278484D02*
X16124067Y-15278484D01*
X16124067Y-15278484D02*
X16038353Y-15478484D01*
X16190734Y-15278484D02*
X16190734Y-15316579D01*
X16266925Y-15278484D02*
X16266925Y-15316579D01*
X16562163Y-15554674D02*
X16552639Y-15545150D01*
X16552639Y-15545150D02*
X16533591Y-15516579D01*
X16533591Y-15516579D02*
X16524068Y-15497531D01*
X16524068Y-15497531D02*
X16514544Y-15468960D01*
X16514544Y-15468960D02*
X16505020Y-15421341D01*
X16505020Y-15421341D02*
X16505020Y-15383246D01*
X16505020Y-15383246D02*
X16514544Y-15335627D01*
X16514544Y-15335627D02*
X16524068Y-15307055D01*
X16524068Y-15307055D02*
X16533591Y-15288008D01*
X16533591Y-15288008D02*
X16552639Y-15259436D01*
X16552639Y-15259436D02*
X16562163Y-15249912D01*
X16724068Y-15278484D02*
X16685972Y-15278484D01*
X16685972Y-15278484D02*
X16666925Y-15288008D01*
X16666925Y-15288008D02*
X16657401Y-15297531D01*
X16657401Y-15297531D02*
X16638353Y-15326103D01*
X16638353Y-15326103D02*
X16628829Y-15364198D01*
X16628829Y-15364198D02*
X16628829Y-15440388D01*
X16628829Y-15440388D02*
X16638353Y-15459436D01*
X16638353Y-15459436D02*
X16647877Y-15468960D01*
X16647877Y-15468960D02*
X16666925Y-15478484D01*
X16666925Y-15478484D02*
X16705020Y-15478484D01*
X16705020Y-15478484D02*
X16724068Y-15468960D01*
X16724068Y-15468960D02*
X16733591Y-15459436D01*
X16733591Y-15459436D02*
X16743115Y-15440388D01*
X16743115Y-15440388D02*
X16743115Y-15392769D01*
X16743115Y-15392769D02*
X16733591Y-15373722D01*
X16733591Y-15373722D02*
X16724068Y-15364198D01*
X16724068Y-15364198D02*
X16705020Y-15354674D01*
X16705020Y-15354674D02*
X16666925Y-15354674D01*
X16666925Y-15354674D02*
X16647877Y-15364198D01*
X16647877Y-15364198D02*
X16638353Y-15373722D01*
X16638353Y-15373722D02*
X16628829Y-15392769D01*
X16981211Y-15478484D02*
X16981211Y-15278484D01*
X17066925Y-15478484D02*
X17066925Y-15373722D01*
X17066925Y-15373722D02*
X17057401Y-15354674D01*
X17057401Y-15354674D02*
X17038353Y-15345150D01*
X17038353Y-15345150D02*
X17009782Y-15345150D01*
X17009782Y-15345150D02*
X16990734Y-15354674D01*
X16990734Y-15354674D02*
X16981211Y-15364198D01*
X17190734Y-15478484D02*
X17171687Y-15468960D01*
X17171687Y-15468960D02*
X17162163Y-15459436D01*
X17162163Y-15459436D02*
X17152639Y-15440388D01*
X17152639Y-15440388D02*
X17152639Y-15383246D01*
X17152639Y-15383246D02*
X17162163Y-15364198D01*
X17162163Y-15364198D02*
X17171687Y-15354674D01*
X17171687Y-15354674D02*
X17190734Y-15345150D01*
X17190734Y-15345150D02*
X17219306Y-15345150D01*
X17219306Y-15345150D02*
X17238353Y-15354674D01*
X17238353Y-15354674D02*
X17247877Y-15364198D01*
X17247877Y-15364198D02*
X17257401Y-15383246D01*
X17257401Y-15383246D02*
X17257401Y-15440388D01*
X17257401Y-15440388D02*
X17247877Y-15459436D01*
X17247877Y-15459436D02*
X17238353Y-15468960D01*
X17238353Y-15468960D02*
X17219306Y-15478484D01*
X17219306Y-15478484D02*
X17190734Y-15478484D01*
X17371687Y-15478484D02*
X17352639Y-15468960D01*
X17352639Y-15468960D02*
X17343115Y-15449912D01*
X17343115Y-15449912D02*
X17343115Y-15278484D01*
X17524068Y-15468960D02*
X17505020Y-15478484D01*
X17505020Y-15478484D02*
X17466925Y-15478484D01*
X17466925Y-15478484D02*
X17447877Y-15468960D01*
X17447877Y-15468960D02*
X17438353Y-15449912D01*
X17438353Y-15449912D02*
X17438353Y-15373722D01*
X17438353Y-15373722D02*
X17447877Y-15354674D01*
X17447877Y-15354674D02*
X17466925Y-15345150D01*
X17466925Y-15345150D02*
X17505020Y-15345150D01*
X17505020Y-15345150D02*
X17524068Y-15354674D01*
X17524068Y-15354674D02*
X17533592Y-15373722D01*
X17533592Y-15373722D02*
X17533592Y-15392769D01*
X17533592Y-15392769D02*
X17438353Y-15411817D01*
X17609782Y-15468960D02*
X17628830Y-15478484D01*
X17628830Y-15478484D02*
X17666925Y-15478484D01*
X17666925Y-15478484D02*
X17685973Y-15468960D01*
X17685973Y-15468960D02*
X17695496Y-15449912D01*
X17695496Y-15449912D02*
X17695496Y-15440388D01*
X17695496Y-15440388D02*
X17685973Y-15421341D01*
X17685973Y-15421341D02*
X17666925Y-15411817D01*
X17666925Y-15411817D02*
X17638353Y-15411817D01*
X17638353Y-15411817D02*
X17619306Y-15402293D01*
X17619306Y-15402293D02*
X17609782Y-15383246D01*
X17609782Y-15383246D02*
X17609782Y-15373722D01*
X17609782Y-15373722D02*
X17619306Y-15354674D01*
X17619306Y-15354674D02*
X17638353Y-15345150D01*
X17638353Y-15345150D02*
X17666925Y-15345150D01*
X17666925Y-15345150D02*
X17685973Y-15354674D01*
X17762163Y-15554674D02*
X17771687Y-15545150D01*
X17771687Y-15545150D02*
X17790734Y-15516579D01*
X17790734Y-15516579D02*
X17800258Y-15497531D01*
X17800258Y-15497531D02*
X17809782Y-15468960D01*
X17809782Y-15468960D02*
X17819306Y-15421341D01*
X17819306Y-15421341D02*
X17819306Y-15383246D01*
X17819306Y-15383246D02*
X17809782Y-15335627D01*
X17809782Y-15335627D02*
X17800258Y-15307055D01*
X17800258Y-15307055D02*
X17790734Y-15288008D01*
X17790734Y-15288008D02*
X17771687Y-15259436D01*
X17771687Y-15259436D02*
X17762163Y-15249912D01*
D10*
X12937100Y-15601000D02*
X12937100Y-15701000D01*
X12887100Y-15651000D02*
X12987100Y-15651000D01*
D11*
X13352639Y-15742484D02*
X13238353Y-15742484D01*
X13295496Y-15742484D02*
X13295496Y-15542484D01*
X13295496Y-15542484D02*
X13276448Y-15571055D01*
X13276448Y-15571055D02*
X13257401Y-15590103D01*
X13257401Y-15590103D02*
X13238353Y-15599627D01*
X13438353Y-15723436D02*
X13447877Y-15732960D01*
X13447877Y-15732960D02*
X13438353Y-15742484D01*
X13438353Y-15742484D02*
X13428829Y-15732960D01*
X13428829Y-15732960D02*
X13438353Y-15723436D01*
X13438353Y-15723436D02*
X13438353Y-15742484D01*
X13571686Y-15542484D02*
X13590734Y-15542484D01*
X13590734Y-15542484D02*
X13609782Y-15552008D01*
X13609782Y-15552008D02*
X13619305Y-15561531D01*
X13619305Y-15561531D02*
X13628829Y-15580579D01*
X13628829Y-15580579D02*
X13638353Y-15618674D01*
X13638353Y-15618674D02*
X13638353Y-15666293D01*
X13638353Y-15666293D02*
X13628829Y-15704388D01*
X13628829Y-15704388D02*
X13619305Y-15723436D01*
X13619305Y-15723436D02*
X13609782Y-15732960D01*
X13609782Y-15732960D02*
X13590734Y-15742484D01*
X13590734Y-15742484D02*
X13571686Y-15742484D01*
X13571686Y-15742484D02*
X13552639Y-15732960D01*
X13552639Y-15732960D02*
X13543115Y-15723436D01*
X13543115Y-15723436D02*
X13533591Y-15704388D01*
X13533591Y-15704388D02*
X13524067Y-15666293D01*
X13524067Y-15666293D02*
X13524067Y-15618674D01*
X13524067Y-15618674D02*
X13533591Y-15580579D01*
X13533591Y-15580579D02*
X13543115Y-15561531D01*
X13543115Y-15561531D02*
X13552639Y-15552008D01*
X13552639Y-15552008D02*
X13571686Y-15542484D01*
X13762162Y-15542484D02*
X13781210Y-15542484D01*
X13781210Y-15542484D02*
X13800258Y-15552008D01*
X13800258Y-15552008D02*
X13809782Y-15561531D01*
X13809782Y-15561531D02*
X13819305Y-15580579D01*
X13819305Y-15580579D02*
X13828829Y-15618674D01*
X13828829Y-15618674D02*
X13828829Y-15666293D01*
X13828829Y-15666293D02*
X13819305Y-15704388D01*
X13819305Y-15704388D02*
X13809782Y-15723436D01*
X13809782Y-15723436D02*
X13800258Y-15732960D01*
X13800258Y-15732960D02*
X13781210Y-15742484D01*
X13781210Y-15742484D02*
X13762162Y-15742484D01*
X13762162Y-15742484D02*
X13743115Y-15732960D01*
X13743115Y-15732960D02*
X13733591Y-15723436D01*
X13733591Y-15723436D02*
X13724067Y-15704388D01*
X13724067Y-15704388D02*
X13714543Y-15666293D01*
X13714543Y-15666293D02*
X13714543Y-15618674D01*
X13714543Y-15618674D02*
X13724067Y-15580579D01*
X13724067Y-15580579D02*
X13733591Y-15561531D01*
X13733591Y-15561531D02*
X13743115Y-15552008D01*
X13743115Y-15552008D02*
X13762162Y-15542484D01*
X13952639Y-15542484D02*
X13971686Y-15542484D01*
X13971686Y-15542484D02*
X13990734Y-15552008D01*
X13990734Y-15552008D02*
X14000258Y-15561531D01*
X14000258Y-15561531D02*
X14009782Y-15580579D01*
X14009782Y-15580579D02*
X14019305Y-15618674D01*
X14019305Y-15618674D02*
X14019305Y-15666293D01*
X14019305Y-15666293D02*
X14009782Y-15704388D01*
X14009782Y-15704388D02*
X14000258Y-15723436D01*
X14000258Y-15723436D02*
X13990734Y-15732960D01*
X13990734Y-15732960D02*
X13971686Y-15742484D01*
X13971686Y-15742484D02*
X13952639Y-15742484D01*
X13952639Y-15742484D02*
X13933591Y-15732960D01*
X13933591Y-15732960D02*
X13924067Y-15723436D01*
X13924067Y-15723436D02*
X13914543Y-15704388D01*
X13914543Y-15704388D02*
X13905020Y-15666293D01*
X13905020Y-15666293D02*
X13905020Y-15618674D01*
X13905020Y-15618674D02*
X13914543Y-15580579D01*
X13914543Y-15580579D02*
X13924067Y-15561531D01*
X13924067Y-15561531D02*
X13933591Y-15552008D01*
X13933591Y-15552008D02*
X13952639Y-15542484D01*
X14105020Y-15742484D02*
X14105020Y-15609150D01*
X14105020Y-15628198D02*
X14114543Y-15618674D01*
X14114543Y-15618674D02*
X14133591Y-15609150D01*
X14133591Y-15609150D02*
X14162163Y-15609150D01*
X14162163Y-15609150D02*
X14181210Y-15618674D01*
X14181210Y-15618674D02*
X14190734Y-15637722D01*
X14190734Y-15637722D02*
X14190734Y-15742484D01*
X14190734Y-15637722D02*
X14200258Y-15618674D01*
X14200258Y-15618674D02*
X14219305Y-15609150D01*
X14219305Y-15609150D02*
X14247877Y-15609150D01*
X14247877Y-15609150D02*
X14266924Y-15618674D01*
X14266924Y-15618674D02*
X14276448Y-15637722D01*
X14276448Y-15637722D02*
X14276448Y-15742484D01*
X14371686Y-15742484D02*
X14371686Y-15609150D01*
X14371686Y-15628198D02*
X14381210Y-15618674D01*
X14381210Y-15618674D02*
X14400258Y-15609150D01*
X14400258Y-15609150D02*
X14428829Y-15609150D01*
X14428829Y-15609150D02*
X14447877Y-15618674D01*
X14447877Y-15618674D02*
X14457401Y-15637722D01*
X14457401Y-15637722D02*
X14457401Y-15742484D01*
X14457401Y-15637722D02*
X14466924Y-15618674D01*
X14466924Y-15618674D02*
X14485972Y-15609150D01*
X14485972Y-15609150D02*
X14514543Y-15609150D01*
X14514543Y-15609150D02*
X14533591Y-15618674D01*
X14533591Y-15618674D02*
X14543115Y-15637722D01*
X14543115Y-15637722D02*
X14543115Y-15742484D01*
X14933591Y-15532960D02*
X14762163Y-15790103D01*
X15190734Y-15542484D02*
X15209782Y-15542484D01*
X15209782Y-15542484D02*
X15228829Y-15552008D01*
X15228829Y-15552008D02*
X15238353Y-15561531D01*
X15238353Y-15561531D02*
X15247877Y-15580579D01*
X15247877Y-15580579D02*
X15257401Y-15618674D01*
X15257401Y-15618674D02*
X15257401Y-15666293D01*
X15257401Y-15666293D02*
X15247877Y-15704388D01*
X15247877Y-15704388D02*
X15238353Y-15723436D01*
X15238353Y-15723436D02*
X15228829Y-15732960D01*
X15228829Y-15732960D02*
X15209782Y-15742484D01*
X15209782Y-15742484D02*
X15190734Y-15742484D01*
X15190734Y-15742484D02*
X15171686Y-15732960D01*
X15171686Y-15732960D02*
X15162163Y-15723436D01*
X15162163Y-15723436D02*
X15152639Y-15704388D01*
X15152639Y-15704388D02*
X15143115Y-15666293D01*
X15143115Y-15666293D02*
X15143115Y-15618674D01*
X15143115Y-15618674D02*
X15152639Y-15580579D01*
X15152639Y-15580579D02*
X15162163Y-15561531D01*
X15162163Y-15561531D02*
X15171686Y-15552008D01*
X15171686Y-15552008D02*
X15190734Y-15542484D01*
X15343115Y-15723436D02*
X15352639Y-15732960D01*
X15352639Y-15732960D02*
X15343115Y-15742484D01*
X15343115Y-15742484D02*
X15333591Y-15732960D01*
X15333591Y-15732960D02*
X15343115Y-15723436D01*
X15343115Y-15723436D02*
X15343115Y-15742484D01*
X15476448Y-15542484D02*
X15495496Y-15542484D01*
X15495496Y-15542484D02*
X15514544Y-15552008D01*
X15514544Y-15552008D02*
X15524067Y-15561531D01*
X15524067Y-15561531D02*
X15533591Y-15580579D01*
X15533591Y-15580579D02*
X15543115Y-15618674D01*
X15543115Y-15618674D02*
X15543115Y-15666293D01*
X15543115Y-15666293D02*
X15533591Y-15704388D01*
X15533591Y-15704388D02*
X15524067Y-15723436D01*
X15524067Y-15723436D02*
X15514544Y-15732960D01*
X15514544Y-15732960D02*
X15495496Y-15742484D01*
X15495496Y-15742484D02*
X15476448Y-15742484D01*
X15476448Y-15742484D02*
X15457401Y-15732960D01*
X15457401Y-15732960D02*
X15447877Y-15723436D01*
X15447877Y-15723436D02*
X15438353Y-15704388D01*
X15438353Y-15704388D02*
X15428829Y-15666293D01*
X15428829Y-15666293D02*
X15428829Y-15618674D01*
X15428829Y-15618674D02*
X15438353Y-15580579D01*
X15438353Y-15580579D02*
X15447877Y-15561531D01*
X15447877Y-15561531D02*
X15457401Y-15552008D01*
X15457401Y-15552008D02*
X15476448Y-15542484D01*
X15609782Y-15542484D02*
X15733591Y-15542484D01*
X15733591Y-15542484D02*
X15666925Y-15618674D01*
X15666925Y-15618674D02*
X15695496Y-15618674D01*
X15695496Y-15618674D02*
X15714544Y-15628198D01*
X15714544Y-15628198D02*
X15724067Y-15637722D01*
X15724067Y-15637722D02*
X15733591Y-15656769D01*
X15733591Y-15656769D02*
X15733591Y-15704388D01*
X15733591Y-15704388D02*
X15724067Y-15723436D01*
X15724067Y-15723436D02*
X15714544Y-15732960D01*
X15714544Y-15732960D02*
X15695496Y-15742484D01*
X15695496Y-15742484D02*
X15638353Y-15742484D01*
X15638353Y-15742484D02*
X15619306Y-15732960D01*
X15619306Y-15732960D02*
X15609782Y-15723436D01*
X15828829Y-15742484D02*
X15866925Y-15742484D01*
X15866925Y-15742484D02*
X15885972Y-15732960D01*
X15885972Y-15732960D02*
X15895496Y-15723436D01*
X15895496Y-15723436D02*
X15914544Y-15694865D01*
X15914544Y-15694865D02*
X15924067Y-15656769D01*
X15924067Y-15656769D02*
X15924067Y-15580579D01*
X15924067Y-15580579D02*
X15914544Y-15561531D01*
X15914544Y-15561531D02*
X15905020Y-15552008D01*
X15905020Y-15552008D02*
X15885972Y-15542484D01*
X15885972Y-15542484D02*
X15847877Y-15542484D01*
X15847877Y-15542484D02*
X15828829Y-15552008D01*
X15828829Y-15552008D02*
X15819306Y-15561531D01*
X15819306Y-15561531D02*
X15809782Y-15580579D01*
X15809782Y-15580579D02*
X15809782Y-15628198D01*
X15809782Y-15628198D02*
X15819306Y-15647246D01*
X15819306Y-15647246D02*
X15828829Y-15656769D01*
X15828829Y-15656769D02*
X15847877Y-15666293D01*
X15847877Y-15666293D02*
X15885972Y-15666293D01*
X15885972Y-15666293D02*
X15905020Y-15656769D01*
X15905020Y-15656769D02*
X15914544Y-15647246D01*
X15914544Y-15647246D02*
X15924067Y-15628198D01*
X16095496Y-15609150D02*
X16095496Y-15742484D01*
X16047877Y-15532960D02*
X16000258Y-15675817D01*
X16000258Y-15675817D02*
X16124067Y-15675817D01*
X16190734Y-15542484D02*
X16190734Y-15580579D01*
X16266925Y-15542484D02*
X16266925Y-15580579D01*
X16562163Y-15818674D02*
X16552639Y-15809150D01*
X16552639Y-15809150D02*
X16533591Y-15780579D01*
X16533591Y-15780579D02*
X16524068Y-15761531D01*
X16524068Y-15761531D02*
X16514544Y-15732960D01*
X16514544Y-15732960D02*
X16505020Y-15685341D01*
X16505020Y-15685341D02*
X16505020Y-15647246D01*
X16505020Y-15647246D02*
X16514544Y-15599627D01*
X16514544Y-15599627D02*
X16524068Y-15571055D01*
X16524068Y-15571055D02*
X16533591Y-15552008D01*
X16533591Y-15552008D02*
X16552639Y-15523436D01*
X16552639Y-15523436D02*
X16562163Y-15513912D01*
X16743115Y-15742484D02*
X16628829Y-15742484D01*
X16685972Y-15742484D02*
X16685972Y-15542484D01*
X16685972Y-15542484D02*
X16666925Y-15571055D01*
X16666925Y-15571055D02*
X16647877Y-15590103D01*
X16647877Y-15590103D02*
X16628829Y-15599627D01*
X16809782Y-15542484D02*
X16943115Y-15542484D01*
X16943115Y-15542484D02*
X16857401Y-15742484D01*
X17171687Y-15742484D02*
X17171687Y-15542484D01*
X17257401Y-15742484D02*
X17257401Y-15637722D01*
X17257401Y-15637722D02*
X17247877Y-15618674D01*
X17247877Y-15618674D02*
X17228830Y-15609150D01*
X17228830Y-15609150D02*
X17200258Y-15609150D01*
X17200258Y-15609150D02*
X17181211Y-15618674D01*
X17181211Y-15618674D02*
X17171687Y-15628198D01*
X17381211Y-15742484D02*
X17362163Y-15732960D01*
X17362163Y-15732960D02*
X17352639Y-15723436D01*
X17352639Y-15723436D02*
X17343115Y-15704388D01*
X17343115Y-15704388D02*
X17343115Y-15647246D01*
X17343115Y-15647246D02*
X17352639Y-15628198D01*
X17352639Y-15628198D02*
X17362163Y-15618674D01*
X17362163Y-15618674D02*
X17381211Y-15609150D01*
X17381211Y-15609150D02*
X17409782Y-15609150D01*
X17409782Y-15609150D02*
X17428830Y-15618674D01*
X17428830Y-15618674D02*
X17438353Y-15628198D01*
X17438353Y-15628198D02*
X17447877Y-15647246D01*
X17447877Y-15647246D02*
X17447877Y-15704388D01*
X17447877Y-15704388D02*
X17438353Y-15723436D01*
X17438353Y-15723436D02*
X17428830Y-15732960D01*
X17428830Y-15732960D02*
X17409782Y-15742484D01*
X17409782Y-15742484D02*
X17381211Y-15742484D01*
X17562163Y-15742484D02*
X17543115Y-15732960D01*
X17543115Y-15732960D02*
X17533592Y-15713912D01*
X17533592Y-15713912D02*
X17533592Y-15542484D01*
X17714544Y-15732960D02*
X17695496Y-15742484D01*
X17695496Y-15742484D02*
X17657401Y-15742484D01*
X17657401Y-15742484D02*
X17638353Y-15732960D01*
X17638353Y-15732960D02*
X17628830Y-15713912D01*
X17628830Y-15713912D02*
X17628830Y-15637722D01*
X17628830Y-15637722D02*
X17638353Y-15618674D01*
X17638353Y-15618674D02*
X17657401Y-15609150D01*
X17657401Y-15609150D02*
X17695496Y-15609150D01*
X17695496Y-15609150D02*
X17714544Y-15618674D01*
X17714544Y-15618674D02*
X17724068Y-15637722D01*
X17724068Y-15637722D02*
X17724068Y-15656769D01*
X17724068Y-15656769D02*
X17628830Y-15675817D01*
X17800258Y-15732960D02*
X17819306Y-15742484D01*
X17819306Y-15742484D02*
X17857401Y-15742484D01*
X17857401Y-15742484D02*
X17876449Y-15732960D01*
X17876449Y-15732960D02*
X17885973Y-15713912D01*
X17885973Y-15713912D02*
X17885973Y-15704388D01*
X17885973Y-15704388D02*
X17876449Y-15685341D01*
X17876449Y-15685341D02*
X17857401Y-15675817D01*
X17857401Y-15675817D02*
X17828830Y-15675817D01*
X17828830Y-15675817D02*
X17809782Y-15666293D01*
X17809782Y-15666293D02*
X17800258Y-15647246D01*
X17800258Y-15647246D02*
X17800258Y-15637722D01*
X17800258Y-15637722D02*
X17809782Y-15618674D01*
X17809782Y-15618674D02*
X17828830Y-15609150D01*
X17828830Y-15609150D02*
X17857401Y-15609150D01*
X17857401Y-15609150D02*
X17876449Y-15618674D01*
X17952639Y-15818674D02*
X17962163Y-15809150D01*
X17962163Y-15809150D02*
X17981211Y-15780579D01*
X17981211Y-15780579D02*
X17990734Y-15761531D01*
X17990734Y-15761531D02*
X18000258Y-15732960D01*
X18000258Y-15732960D02*
X18009782Y-15685341D01*
X18009782Y-15685341D02*
X18009782Y-15647246D01*
X18009782Y-15647246D02*
X18000258Y-15599627D01*
X18000258Y-15599627D02*
X17990734Y-15571055D01*
X17990734Y-15571055D02*
X17981211Y-15552008D01*
X17981211Y-15552008D02*
X17962163Y-15523436D01*
X17962163Y-15523436D02*
X17952639Y-15513912D01*
M02*
