G04 #@! TF.GenerationSoftware,KiCad,Pcbnew,9.0.2*
G04 #@! TF.CreationDate,2025-06-19T13:18:12-04:00*
G04 #@! TF.ProjectId,farlock3,6661726c-6f63-46b3-932e-6b696361645f,v02*
G04 #@! TF.SameCoordinates,Original*
G04 #@! TF.FileFunction,Soldermask,Bot*
G04 #@! TF.FilePolarity,Negative*
%FSLAX46Y46*%
G04 Gerber Fmt 4.6, Leading zero omitted, Abs format (unit mm)*
G04 Created by KiCad (PCBNEW 9.0.2) date 2025-06-19 13:18:12*
%MOMM*%
%LPD*%
G01*
G04 APERTURE LIST*
G04 Aperture macros list*
%AMFreePoly0*
4,1,35,0.000000,0.748929,0.032702,0.748929,0.097545,0.740393,0.160720,0.723465,0.221144,0.698436,0.277785,0.665735,0.329673,0.625920,0.375920,0.579673,0.415735,0.527785,0.448436,0.471144,0.473465,0.410720,0.490393,0.347545,0.498929,0.282702,0.498929,0.250000,0.500000,0.250000,0.500000,-0.250000,0.498929,-0.250000,0.498929,-0.282702,0.490393,-0.347545,0.473465,-0.410720,
0.448436,-0.471144,0.415735,-0.527785,0.375920,-0.579673,0.329673,-0.625920,0.277785,-0.665735,0.221144,-0.698436,0.160720,-0.723465,0.097545,-0.740393,0.032702,-0.748929,0.000000,-0.748929,0.000000,-0.750000,-0.500000,-0.750000,-0.500000,0.750000,0.000000,0.750000,0.000000,0.748929,0.000000,0.748929,$1*%
%AMFreePoly1*
4,1,35,0.500000,-0.750000,0.000000,-0.750000,0.000000,-0.748929,-0.032702,-0.748929,-0.097545,-0.740393,-0.160720,-0.723465,-0.221144,-0.698436,-0.277785,-0.665735,-0.329673,-0.625920,-0.375920,-0.579673,-0.415735,-0.527785,-0.448436,-0.471144,-0.473465,-0.410720,-0.490393,-0.347545,-0.498929,-0.282702,-0.498929,-0.250000,-0.500000,-0.250000,-0.500000,0.250000,-0.498929,0.250000,-0.498929,0.282702,
-0.490393,0.347545,-0.473465,0.410720,-0.448436,0.471144,-0.415735,0.527785,-0.375920,0.579673,-0.329673,0.625920,-0.277785,0.665735,-0.221144,0.698436,-0.160720,0.723465,-0.097545,0.740393,-0.032702,0.748929,0.000000,0.748929,0.000000,0.750000,0.500000,0.750000,0.500000,-0.750000,0.500000,-0.750000,$1*%
G04 Aperture macros list end*
%ADD10C,1.700000*%
%ADD11R,1.700000X1.700000*%
%ADD12FreePoly0,0.000000*%
%ADD13FreePoly1,0.000000*%
%ADD14C,1.350000*%
%ADD15C,2.025000*%
%ADD16FreePoly1,180.000000*%
%ADD17FreePoly0,180.000000*%
G04 APERTURE END LIST*
G36*
X149500000Y-96525000D02*
G01*
X149800000Y-96525000D01*
X149800000Y-95025000D01*
X149500000Y-95025000D01*
X149500000Y-96525000D01*
G37*
G36*
X150125000Y-86600000D02*
G01*
X150425000Y-86600000D01*
X150425000Y-85100000D01*
X150125000Y-85100000D01*
X150125000Y-86600000D01*
G37*
G36*
X145207000Y-92325000D02*
G01*
X144907000Y-92325000D01*
X144907000Y-93825000D01*
X145207000Y-93825000D01*
X145207000Y-92325000D01*
G37*
G36*
X145225000Y-94900000D02*
G01*
X144925000Y-94900000D01*
X144925000Y-96400000D01*
X145225000Y-96400000D01*
X145225000Y-94900000D01*
G37*
G36*
X149512000Y-93850000D02*
G01*
X149812000Y-93850000D01*
X149812000Y-92350000D01*
X149512000Y-92350000D01*
X149512000Y-93850000D01*
G37*
D10*
X151190000Y-76860000D03*
X148650000Y-76860000D03*
X146110000Y-76860000D03*
X143570000Y-76860000D03*
X141030000Y-76860000D03*
X138490000Y-76860000D03*
X135950000Y-76860000D03*
X133410000Y-76860000D03*
X130870000Y-76860000D03*
D11*
X128330000Y-76860000D03*
D12*
X150300000Y-95775000D03*
D13*
X149000000Y-95775000D03*
D14*
X164503000Y-94700000D03*
X162503000Y-94700000D03*
X160503000Y-94700000D03*
D15*
X166600000Y-94700000D03*
X158400000Y-94700000D03*
D13*
X149625000Y-85850000D03*
D12*
X150925000Y-85850000D03*
D11*
X169880000Y-95620000D03*
D10*
X172420000Y-95620000D03*
X174960000Y-95620000D03*
D11*
X154425000Y-93075000D03*
D10*
X154425000Y-95615000D03*
X182540000Y-88400000D03*
D11*
X180000000Y-88400000D03*
D16*
X145707000Y-93075000D03*
D17*
X144407000Y-93075000D03*
X144425000Y-95650000D03*
D16*
X145725000Y-95650000D03*
D12*
X150312000Y-93100000D03*
D13*
X149012000Y-93100000D03*
D11*
X128350000Y-94110000D03*
D10*
X128350000Y-91570000D03*
X128350000Y-89030000D03*
X128350000Y-86490000D03*
X128350000Y-83950000D03*
M02*
