M48
; DRILL file {KiCad 9.0.2} date 2025-06-13T02:03:37-0400
; FORMAT={-:-/ absolute / metric / decimal}
; #@! TF.CreationDate,2025-06-13T02:03:37-04:00
; #@! TF.GenerationSoftware,Kicad,Pcbnew,9.0.2
; #@! TF.FileFunction,Plated,1,2,PTH
FMAT,2
METRIC
; #@! TA.AperFunction,Plated,PTH,ViaDrill
T1C0.300
; #@! TA.AperFunction,Plated,PTH,ViaDrill
T2C0.400
; #@! TA.AperFunction,Plated,PTH,ComponentDrill
T3C1.000
%
G90
G05
T1
X138.176Y-141.224
X139.065Y-139.7
X143.002Y-133.299
X143.002Y-133.899
X143.002Y-134.62
X145.161Y-132.049
X152.55Y-136.45
X153.3Y-141.25
X154.763Y-137.859
X155.575Y-135.509
X157.48Y-135.45
X157.607Y-141.166
X159.385Y-141.859
X160.02Y-135.636
X161.727Y-139.456
X162.446Y-138.756
X164.154Y-139.937
X164.465Y-142.494
X166.243Y-139.954
X167.005Y-142.249
X168.25Y-140.587
X168.57Y-140.079
X169.064Y-137.995
X170.174Y-139.496
X170.18Y-127.875
X170.18Y-128.524
X170.18Y-129.124
X170.52Y-130.62
X170.56Y-132.23
X170.561Y-133.604
X170.561Y-138.43
X170.561Y-139.037
X170.561Y-139.954
X170.561Y-140.587
X170.723Y-135.509
X170.767Y-134.17
X171.323Y-135.509
X172.064Y-138.049
X172.085Y-140.462
X172.085Y-142.367
X172.1Y-132.23
X172.12Y-130.62
X172.212Y-134.62
X172.212Y-135.382
X173.2Y-131.28
X173.24Y-133.31
X173.433Y-139.319
X173.482Y-135.382
X175.641Y-135.382
X175.895Y-127.425
X176.149Y-139.577
X176.29Y-129.97
X176.29Y-132.23
X176.639Y-135.128
X177.799Y-137.883
X177.8Y-135.509
X178.115Y-140.342
X178.35Y-127.45
X178.72Y-137.95
X178.73Y-129.28
X178.73Y-129.96
X178.73Y-132.18
X178.73Y-138.55
X178.74Y-135.26
X178.964Y-140.695
X182.245Y-141.605
T2
X136.213Y-136.087
X145.7Y-137.732
X150.162Y-130.608
X151.765Y-141.732
X154.118Y-134.875
X169.799Y-133.223
T3
X140.335Y-142.875
X142.875Y-142.875
X145.415Y-142.875
X147.955Y-142.875
X150.495Y-142.875
X153.035Y-142.875
X155.575Y-142.875
X158.115Y-142.875
X160.655Y-142.875
X163.195Y-142.875
X165.735Y-142.875
X168.275Y-142.875
X170.815Y-142.875
X173.355Y-142.875
X175.895Y-142.875
X178.435Y-142.875
X180.975Y-142.875
M30
